<?xml version="1.0" encoding="utf-8"?>
<!-- Generator: Adobe Illustrator 21.0.0, SVG Export Plug-In . SVG Version: 6.00 Build 0)  -->
<svg version="1.1" id="Capa_1" xmlns="http://www.w3.org/2000/svg" xmlns:xlink="http://www.w3.org/1999/xlink" x="0px" y="0px"
	 viewBox="0 0 350 350" style="enable-background:new 0 0 350 350;" xml:space="preserve">
<style type="text/css">
	.st0{fill:none;}
	.st1{fill:#F8AD3B;}
	.st2{fill:#FFFFFF;}
	.st3{fill:#585857;}
	.st4{fill:#222221;}
	.st5{fill:#3F3F3F;}
	.st6{fill:url(#SVGID_1_);}
	.st7{fill:url(#SVGID_2_);}
	.st8{fill:#FAAF3B;}
	.st9{fill:#989898;}
	.st10{fill:#934A37;}
	.st11{fill:none;stroke:url(#SVGID_3_);stroke-width:1.0187;stroke-miterlimit:10;}
	.st12{fill:url(#SVGID_4_);stroke:url(#SVGID_5_);stroke-width:0.2522;stroke-miterlimit:10;}
	.st13{fill:url(#);stroke:url(#SVGID_6_);stroke-width:0.2522;stroke-miterlimit:10;}
	.st14{fill:none;stroke:#F9AE3B;stroke-width:2.7717;stroke-miterlimit:10;}
	.st15{fill:#0071BA;}
	.st16{fill:url(#SVGID_7_);}
	.st17{fill:#808080;}
	.st18{fill:none;stroke:#934A37;stroke-width:2;stroke-miterlimit:10;}
	.st19{fill:none;stroke:#B37F7F;stroke-width:1.2291;stroke-miterlimit:10;}
	.st20{fill:#F9AE3B;}
	.st21{fill:url(#SVGID_8_);}
	.st22{fill:url(#SVGID_9_);}
	.st23{fill:url(#SVGID_10_);}
	.st24{fill:url(#SVGID_11_);}
	.st25{fill:url(#SVGID_12_);}
</style>
<linearGradient id="SVGID_1_" gradientUnits="userSpaceOnUse" x1="9" y1="172" x2="347" y2="172">
	<stop  offset="0" style="stop-color:#F0D477"/>
	<stop  offset="0.2207" style="stop-color:#E0A75C"/>
	<stop  offset="0.3595" style="stop-color:#D8904E"/>
	<stop  offset="0.5393" style="stop-color:#B87333"/>
	<stop  offset="1" style="stop-color:#814924"/>
</linearGradient>
<circle class="st6" cx="178" cy="172" r="169"/>
<g>
	<rect x="74.6" y="241.7" class="st0" width="16.3" height="10.9"/>
	<path class="st10" d="M77.6,247.5h-1.1v-4.2l-1.3,0.4v-0.9l2.3-0.8h0.1V247.5z"/>
	<path class="st10" d="M83.1,245.2c0,0.8-0.2,1.3-0.5,1.7c-0.3,0.4-0.8,0.6-1.4,0.6c-0.6,0-1-0.2-1.4-0.6c-0.3-0.4-0.5-1-0.5-1.7v-1
		c0-0.8,0.2-1.3,0.5-1.7c0.3-0.4,0.8-0.6,1.4-0.6c0.6,0,1,0.2,1.4,0.6c0.3,0.4,0.5,1,0.5,1.7V245.2z M82,244.1c0-0.5-0.1-0.8-0.2-1
		s-0.3-0.3-0.6-0.3c-0.3,0-0.4,0.1-0.6,0.3c-0.1,0.2-0.2,0.5-0.2,0.9v1.3c0,0.4,0.1,0.8,0.2,1c0.1,0.2,0.3,0.3,0.6,0.3
		c0.3,0,0.5-0.1,0.6-0.3c0.1-0.2,0.2-0.5,0.2-1V244.1z"/>
	<path class="st10" d="M83.8,243.1c0-0.3,0.1-0.6,0.3-0.8c0.2-0.2,0.5-0.3,0.9-0.3c0.4,0,0.6,0.1,0.9,0.3c0.2,0.2,0.3,0.5,0.3,0.8
		v0.3c0,0.3-0.1,0.6-0.3,0.8s-0.5,0.3-0.9,0.3c-0.4,0-0.6-0.1-0.9-0.3c-0.2-0.2-0.3-0.5-0.3-0.8V243.1z M84.5,243.4
		c0,0.1,0,0.3,0.1,0.4s0.2,0.1,0.3,0.1c0.1,0,0.3,0,0.3-0.1c0.1-0.1,0.1-0.2,0.1-0.4v-0.3c0-0.1,0-0.3-0.1-0.4
		c-0.1-0.1-0.2-0.1-0.3-0.1c-0.1,0-0.2,0-0.3,0.1s-0.1,0.2-0.1,0.4V243.4z M85.2,247.1l-0.5-0.3l2.7-4.3l0.5,0.3L85.2,247.1z
		 M86.4,246.2c0-0.3,0.1-0.6,0.3-0.8c0.2-0.2,0.5-0.3,0.9-0.3c0.4,0,0.6,0.1,0.9,0.3c0.2,0.2,0.3,0.5,0.3,0.8v0.3
		c0,0.3-0.1,0.6-0.3,0.8c-0.2,0.2-0.5,0.3-0.9,0.3c-0.4,0-0.6-0.1-0.9-0.3c-0.2-0.2-0.3-0.5-0.3-0.8V246.2z M87.1,246.5
		c0,0.1,0,0.3,0.1,0.4s0.2,0.1,0.3,0.1c0.3,0,0.5-0.2,0.5-0.5v-0.3c0-0.2,0-0.3-0.1-0.4c-0.1-0.1-0.2-0.1-0.3-0.1
		c-0.1,0-0.3,0-0.3,0.1s-0.1,0.2-0.1,0.4V246.5z"/>
</g>
<g>
	<rect x="103.5" y="258.9" class="st0" width="7.7" height="10.9"/>
	<path d="M105.1,263.8h2.4v0.9H104v-5.5h1.1V263.8z"/>
</g>
<g>
	<rect x="129.9" y="258.9" class="st0" width="7.7" height="10.9"/>
	<path class="st17" d="M131.8,259.2l1.4,4l1.4-4h1.5v5.5H135v-1.5l0.1-2.6l-1.5,4.1h-0.8l-1.5-4.1l0.1,2.6v1.5h-1.1v-5.5H131.8z"/>
</g>
<g>
	<rect x="155.3" y="258.9" class="st0" width="9.5" height="10.9"/>
	<path d="M157.3,259.2l1.4,4l1.4-4h1.5v5.5h-1.1v-1.5l0.1-2.6l-1.5,4.1h-0.8l-1.5-4.1l0.1,2.6v1.5h-1.1v-5.5H157.3z"/>
	<path d="M163.7,264.7h-1.1v-5.5h1.1V264.7z"/>
</g>
<g>
	<rect x="182.6" y="258.9" class="st0" width="7.7" height="10.9"/>
	<path class="st17" d="M185.3,259.2h1.1v3.8c0,0.3-0.1,0.7-0.2,0.9c-0.2,0.3-0.4,0.5-0.7,0.6c-0.3,0.1-0.6,0.2-0.9,0.2
		c-0.6,0-1-0.1-1.4-0.4s-0.5-0.7-0.5-1.2h1.1c0,0.3,0.1,0.5,0.2,0.6c0.1,0.1,0.3,0.2,0.5,0.2c0.2,0,0.4-0.1,0.5-0.2s0.2-0.4,0.2-0.6
		V259.2z"/>
</g>
<g>
	<rect x="209" y="258.9" class="st0" width="7.7" height="10.9"/>
	<path d="M211.5,263.4l1.2-4.1h1.3l-1.9,5.5h-1.2l-1.9-5.5h1.2L211.5,263.4z"/>
</g>
<g>
	<rect x="235.4" y="258.9" class="st0" width="7.7" height="10.9"/>
	<path class="st17" d="M238.7,263.3c0-0.2-0.1-0.4-0.2-0.5c-0.2-0.1-0.4-0.2-0.8-0.4c-0.4-0.1-0.7-0.3-0.9-0.4
		c-0.6-0.3-0.9-0.8-0.9-1.4c0-0.3,0.1-0.6,0.2-0.8c0.2-0.2,0.4-0.4,0.7-0.5s0.7-0.2,1-0.2c0.4,0,0.7,0.1,1,0.2
		c0.3,0.1,0.5,0.3,0.7,0.6s0.3,0.6,0.3,0.9h-1.1c0-0.3-0.1-0.4-0.2-0.6s-0.4-0.2-0.7-0.2c-0.3,0-0.5,0.1-0.6,0.2
		c-0.2,0.1-0.2,0.3-0.2,0.5c0,0.2,0.1,0.3,0.3,0.4s0.4,0.2,0.8,0.3c0.6,0.2,1.1,0.4,1.4,0.7c0.3,0.3,0.4,0.6,0.4,1.1
		c0,0.5-0.2,0.8-0.5,1.1c-0.4,0.3-0.8,0.4-1.4,0.4c-0.4,0-0.8-0.1-1.1-0.2s-0.6-0.4-0.8-0.6c-0.2-0.3-0.3-0.6-0.3-0.9h1.1
		c0,0.6,0.4,0.9,1.1,0.9c0.3,0,0.5-0.1,0.6-0.2C238.6,263.6,238.7,263.5,238.7,263.3z"/>
</g>
<g>
	<rect x="261.7" y="258.9" class="st0" width="7.7" height="10.9"/>
	<path d="M262.2,264.7v-5.5h1.7c0.5,0,0.9,0.1,1.3,0.3s0.7,0.5,0.9,0.9c0.2,0.4,0.3,0.9,0.3,1.4v0.3c0,0.5-0.1,1-0.3,1.4
		c-0.2,0.4-0.5,0.7-0.9,0.9s-0.8,0.3-1.3,0.3H262.2z M263.3,260.2v3.6h0.5c0.4,0,0.8-0.1,1-0.4s0.4-0.7,0.4-1.2v-0.3
		c0-0.6-0.1-1-0.3-1.3c-0.2-0.3-0.6-0.4-1-0.4H263.3z"/>
</g>
<g>
	<rect x="74.6" y="219.9" class="st0" width="16.3" height="13.4"/>
	<path class="st10" d="M78.7,225.6H75v-0.7l1.8-1.9c0.2-0.3,0.4-0.5,0.5-0.7c0.1-0.2,0.2-0.4,0.2-0.6c0-0.2-0.1-0.4-0.2-0.6
		c-0.1-0.1-0.3-0.2-0.5-0.2c-0.2,0-0.4,0.1-0.6,0.3c-0.1,0.2-0.2,0.4-0.2,0.7h-1.1c0-0.3,0.1-0.6,0.2-0.9c0.2-0.3,0.4-0.5,0.7-0.6
		s0.6-0.2,1-0.2c0.6,0,1,0.1,1.3,0.4s0.5,0.7,0.5,1.1c0,0.3-0.1,0.5-0.2,0.8c-0.1,0.3-0.4,0.6-0.7,1l-1.2,1.3h2.3V225.6z"/>
	<path class="st10" d="M83.1,223.4c0,0.8-0.2,1.3-0.5,1.7c-0.3,0.4-0.8,0.6-1.4,0.6c-0.6,0-1-0.2-1.4-0.6c-0.3-0.4-0.5-1-0.5-1.7v-1
		c0-0.8,0.2-1.3,0.5-1.7c0.3-0.4,0.8-0.6,1.4-0.6c0.6,0,1,0.2,1.4,0.6c0.3,0.4,0.5,1,0.5,1.7V223.4z M82,222.3c0-0.5-0.1-0.8-0.2-1
		s-0.3-0.3-0.6-0.3c-0.3,0-0.4,0.1-0.6,0.3c-0.1,0.2-0.2,0.5-0.2,0.9v1.3c0,0.4,0.1,0.8,0.2,1c0.1,0.2,0.3,0.3,0.6,0.3
		c0.3,0,0.5-0.1,0.6-0.3c0.1-0.2,0.2-0.5,0.2-1V222.3z"/>
	<path class="st10" d="M83.8,221.2c0-0.3,0.1-0.6,0.3-0.8c0.2-0.2,0.5-0.3,0.9-0.3c0.4,0,0.6,0.1,0.9,0.3c0.2,0.2,0.3,0.5,0.3,0.8
		v0.3c0,0.3-0.1,0.6-0.3,0.8s-0.5,0.3-0.9,0.3c-0.4,0-0.6-0.1-0.9-0.3c-0.2-0.2-0.3-0.5-0.3-0.8V221.2z M84.5,221.5
		c0,0.1,0,0.3,0.1,0.4s0.2,0.1,0.3,0.1c0.1,0,0.3,0,0.3-0.1c0.1-0.1,0.1-0.2,0.1-0.4v-0.3c0-0.1,0-0.3-0.1-0.4
		c-0.1-0.1-0.2-0.1-0.3-0.1c-0.1,0-0.2,0-0.3,0.1s-0.1,0.2-0.1,0.4V221.5z M85.2,225.2l-0.5-0.3l2.7-4.3l0.5,0.3L85.2,225.2z
		 M86.4,224.3c0-0.3,0.1-0.6,0.3-0.8c0.2-0.2,0.5-0.3,0.9-0.3c0.4,0,0.6,0.1,0.9,0.3c0.2,0.2,0.3,0.5,0.3,0.8v0.3
		c0,0.3-0.1,0.6-0.3,0.8c-0.2,0.2-0.5,0.3-0.9,0.3c-0.4,0-0.6-0.1-0.9-0.3c-0.2-0.2-0.3-0.5-0.3-0.8V224.3z M87.1,224.6
		c0,0.1,0,0.3,0.1,0.4s0.2,0.1,0.3,0.1c0.3,0,0.5-0.2,0.5-0.5v-0.3c0-0.2,0-0.3-0.1-0.4c-0.1-0.1-0.2-0.1-0.3-0.1
		c-0.1,0-0.3,0-0.3,0.1s-0.1,0.2-0.1,0.4V224.6z"/>
</g>
<g>
	<rect x="74.6" y="199.2" class="st0" width="16.3" height="13.4"/>
	<path class="st10" d="M76.1,201.7h0.6c0.3,0,0.5-0.1,0.6-0.2s0.2-0.3,0.2-0.5c0-0.2-0.1-0.4-0.2-0.5s-0.3-0.2-0.5-0.2
		c-0.2,0-0.4,0.1-0.5,0.2s-0.2,0.3-0.2,0.4h-1.1c0-0.3,0.1-0.5,0.2-0.8c0.2-0.2,0.4-0.4,0.6-0.5c0.3-0.1,0.6-0.2,0.9-0.2
		c0.6,0,1,0.1,1.4,0.4c0.3,0.3,0.5,0.7,0.5,1.1c0,0.3-0.1,0.5-0.2,0.7s-0.4,0.4-0.6,0.5c0.3,0.1,0.5,0.3,0.7,0.5
		c0.2,0.2,0.2,0.5,0.2,0.8c0,0.5-0.2,0.9-0.5,1.2c-0.4,0.3-0.8,0.4-1.4,0.4c-0.5,0-1-0.1-1.3-0.4c-0.3-0.3-0.5-0.7-0.5-1.1h1.1
		c0,0.2,0.1,0.4,0.2,0.5c0.2,0.1,0.3,0.2,0.6,0.2c0.3,0,0.5-0.1,0.6-0.2s0.2-0.3,0.2-0.5c0-0.5-0.3-0.8-0.9-0.8h-0.6V201.7z"/>
	<path class="st10" d="M83.1,202.7c0,0.8-0.2,1.3-0.5,1.7c-0.3,0.4-0.8,0.6-1.4,0.6c-0.6,0-1-0.2-1.4-0.6c-0.3-0.4-0.5-1-0.5-1.7v-1
		c0-0.8,0.2-1.3,0.5-1.7c0.3-0.4,0.8-0.6,1.4-0.6c0.6,0,1,0.2,1.4,0.6c0.3,0.4,0.5,1,0.5,1.7V202.7z M82,201.6c0-0.5-0.1-0.8-0.2-1
		s-0.3-0.3-0.6-0.3c-0.3,0-0.4,0.1-0.6,0.3c-0.1,0.2-0.2,0.5-0.2,0.9v1.3c0,0.4,0.1,0.8,0.2,1c0.1,0.2,0.3,0.3,0.6,0.3
		c0.3,0,0.5-0.1,0.6-0.3c0.1-0.2,0.2-0.5,0.2-1V201.6z"/>
	<path class="st10" d="M83.8,200.5c0-0.3,0.1-0.6,0.3-0.8c0.2-0.2,0.5-0.3,0.9-0.3c0.4,0,0.6,0.1,0.9,0.3c0.2,0.2,0.3,0.5,0.3,0.8
		v0.3c0,0.3-0.1,0.6-0.3,0.8S85.3,202,85,202c-0.4,0-0.6-0.1-0.9-0.3c-0.2-0.2-0.3-0.5-0.3-0.8V200.5z M84.5,200.8
		c0,0.1,0,0.3,0.1,0.4s0.2,0.1,0.3,0.1c0.1,0,0.3,0,0.3-0.1c0.1-0.1,0.1-0.2,0.1-0.4v-0.3c0-0.1,0-0.3-0.1-0.4
		c-0.1-0.1-0.2-0.1-0.3-0.1c-0.1,0-0.2,0-0.3,0.1s-0.1,0.2-0.1,0.4V200.8z M85.2,204.6l-0.5-0.3l2.7-4.3l0.5,0.3L85.2,204.6z
		 M86.4,203.6c0-0.3,0.1-0.6,0.3-0.8c0.2-0.2,0.5-0.3,0.9-0.3c0.4,0,0.6,0.1,0.9,0.3c0.2,0.2,0.3,0.5,0.3,0.8v0.3
		c0,0.3-0.1,0.6-0.3,0.8c-0.2,0.2-0.5,0.3-0.9,0.3c-0.4,0-0.6-0.1-0.9-0.3c-0.2-0.2-0.3-0.5-0.3-0.8V203.6z M87.1,203.9
		c0,0.1,0,0.3,0.1,0.4s0.2,0.1,0.3,0.1c0.3,0,0.5-0.2,0.5-0.5v-0.3c0-0.2,0-0.3-0.1-0.4c-0.1-0.1-0.2-0.1-0.3-0.1
		c-0.1,0-0.3,0-0.3,0.1s-0.1,0.2-0.1,0.4V203.9z"/>
</g>
<g>
	<rect x="74.6" y="178.5" class="st0" width="16.3" height="13.4"/>
	<path class="st10" d="M78.2,182.2h0.6v0.9h-0.6v1.2h-1.1v-1.2h-2.2l0-0.7l2.3-3.6h1.1V182.2z M75.9,182.2h1.2v-1.9l-0.1,0.1
		L75.9,182.2z"/>
	<path class="st10" d="M83.1,182c0,0.8-0.2,1.3-0.5,1.7c-0.3,0.4-0.8,0.6-1.4,0.6c-0.6,0-1-0.2-1.4-0.6c-0.3-0.4-0.5-1-0.5-1.7v-1
		c0-0.8,0.2-1.3,0.5-1.7c0.3-0.4,0.8-0.6,1.4-0.6c0.6,0,1,0.2,1.4,0.6c0.3,0.4,0.5,1,0.5,1.7V182z M82,180.9c0-0.5-0.1-0.8-0.2-1
		s-0.3-0.3-0.6-0.3c-0.3,0-0.4,0.1-0.6,0.3c-0.1,0.2-0.2,0.5-0.2,0.9v1.3c0,0.4,0.1,0.8,0.2,1c0.1,0.2,0.3,0.3,0.6,0.3
		c0.3,0,0.5-0.1,0.6-0.3c0.1-0.2,0.2-0.5,0.2-1V180.9z"/>
	<path class="st10" d="M83.8,179.9c0-0.3,0.1-0.6,0.3-0.8c0.2-0.2,0.5-0.3,0.9-0.3c0.4,0,0.6,0.1,0.9,0.3c0.2,0.2,0.3,0.5,0.3,0.8
		v0.3c0,0.3-0.1,0.6-0.3,0.8s-0.5,0.3-0.9,0.3c-0.4,0-0.6-0.1-0.9-0.3c-0.2-0.2-0.3-0.5-0.3-0.8V179.9z M84.5,180.2
		c0,0.1,0,0.3,0.1,0.4s0.2,0.1,0.3,0.1c0.1,0,0.3,0,0.3-0.1c0.1-0.1,0.1-0.2,0.1-0.4v-0.3c0-0.1,0-0.3-0.1-0.4
		c-0.1-0.1-0.2-0.1-0.3-0.1c-0.1,0-0.2,0-0.3,0.1s-0.1,0.2-0.1,0.4V180.2z M85.2,183.9l-0.5-0.3l2.7-4.3l0.5,0.3L85.2,183.9z
		 M86.4,183c0-0.3,0.1-0.6,0.3-0.8c0.2-0.2,0.5-0.3,0.9-0.3c0.4,0,0.6,0.1,0.9,0.3c0.2,0.2,0.3,0.5,0.3,0.8v0.3
		c0,0.3-0.1,0.6-0.3,0.8c-0.2,0.2-0.5,0.3-0.9,0.3c-0.4,0-0.6-0.1-0.9-0.3c-0.2-0.2-0.3-0.5-0.3-0.8V183z M87.1,183.3
		c0,0.1,0,0.3,0.1,0.4s0.2,0.1,0.3,0.1c0.3,0,0.5-0.2,0.5-0.5V183c0-0.2,0-0.3-0.1-0.4c-0.1-0.1-0.2-0.1-0.3-0.1
		c-0.1,0-0.3,0-0.3,0.1s-0.1,0.2-0.1,0.4V183.3z"/>
</g>
<g>
	<rect x="74.6" y="157.9" class="st0" width="16.3" height="13.4"/>
	<path class="st10" d="M75.1,161l0.3-2.8h3.1v0.9h-2.2l-0.1,1.2c0.3-0.1,0.5-0.2,0.8-0.2c0.5,0,0.9,0.2,1.2,0.5
		c0.3,0.3,0.4,0.8,0.4,1.4c0,0.4-0.1,0.7-0.2,0.9s-0.4,0.5-0.6,0.6s-0.6,0.2-1,0.2c-0.3,0-0.6-0.1-0.9-0.2c-0.3-0.1-0.5-0.3-0.7-0.6
		c-0.2-0.2-0.3-0.5-0.3-0.8h1.1c0,0.2,0.1,0.4,0.2,0.5c0.1,0.1,0.3,0.2,0.5,0.2c0.2,0,0.4-0.1,0.6-0.3s0.2-0.4,0.2-0.7
		c0-0.3-0.1-0.5-0.2-0.7s-0.4-0.2-0.6-0.2c-0.3,0-0.5,0.1-0.6,0.2l-0.1,0.1L75.1,161z"/>
	<path class="st10" d="M83.1,161.4c0,0.8-0.2,1.3-0.5,1.7c-0.3,0.4-0.8,0.6-1.4,0.6c-0.6,0-1-0.2-1.4-0.6c-0.3-0.4-0.5-1-0.5-1.7v-1
		c0-0.8,0.2-1.3,0.5-1.7c0.3-0.4,0.8-0.6,1.4-0.6c0.6,0,1,0.2,1.4,0.6c0.3,0.4,0.5,1,0.5,1.7V161.4z M82,160.3c0-0.5-0.1-0.8-0.2-1
		s-0.3-0.3-0.6-0.3c-0.3,0-0.4,0.1-0.6,0.3c-0.1,0.2-0.2,0.5-0.2,0.9v1.3c0,0.4,0.1,0.8,0.2,1c0.1,0.2,0.3,0.3,0.6,0.3
		c0.3,0,0.5-0.1,0.6-0.3c0.1-0.2,0.2-0.5,0.2-1V160.3z"/>
	<path class="st10" d="M83.8,159.2c0-0.3,0.1-0.6,0.3-0.8c0.2-0.2,0.5-0.3,0.9-0.3c0.4,0,0.6,0.1,0.9,0.3c0.2,0.2,0.3,0.5,0.3,0.8
		v0.3c0,0.3-0.1,0.6-0.3,0.8s-0.5,0.3-0.9,0.3c-0.4,0-0.6-0.1-0.9-0.3c-0.2-0.2-0.3-0.5-0.3-0.8V159.2z M84.5,159.5
		c0,0.1,0,0.3,0.1,0.4s0.2,0.1,0.3,0.1c0.1,0,0.3,0,0.3-0.1c0.1-0.1,0.1-0.2,0.1-0.4v-0.3c0-0.1,0-0.3-0.1-0.4
		c-0.1-0.1-0.2-0.1-0.3-0.1c-0.1,0-0.2,0-0.3,0.1s-0.1,0.2-0.1,0.4V159.5z M85.2,163.2l-0.5-0.3l2.7-4.3l0.5,0.3L85.2,163.2z
		 M86.4,162.3c0-0.3,0.1-0.6,0.3-0.8c0.2-0.2,0.5-0.3,0.9-0.3c0.4,0,0.6,0.1,0.9,0.3c0.2,0.2,0.3,0.5,0.3,0.8v0.3
		c0,0.3-0.1,0.6-0.3,0.8c-0.2,0.2-0.5,0.3-0.9,0.3c-0.4,0-0.6-0.1-0.9-0.3c-0.2-0.2-0.3-0.5-0.3-0.8V162.3z M87.1,162.6
		c0,0.1,0,0.3,0.1,0.4s0.2,0.1,0.3,0.1c0.3,0,0.5-0.2,0.5-0.5v-0.3c0-0.2,0-0.3-0.1-0.4c-0.1-0.1-0.2-0.1-0.3-0.1
		c-0.1,0-0.3,0-0.3,0.1s-0.1,0.2-0.1,0.4V162.6z"/>
</g>
<g>
	<rect x="74.6" y="137.2" class="st0" width="16.3" height="13.4"/>
	<path class="st10" d="M77.9,137.5v0.9h-0.1c-0.5,0-0.9,0.1-1.2,0.4s-0.5,0.6-0.5,1c0.3-0.3,0.7-0.4,1.1-0.4c0.5,0,0.9,0.2,1.1,0.5
		c0.3,0.3,0.4,0.8,0.4,1.3c0,0.4-0.1,0.7-0.2,1c-0.2,0.3-0.4,0.5-0.7,0.7s-0.6,0.2-1,0.2c-0.6,0-1-0.2-1.4-0.6
		c-0.4-0.4-0.5-0.9-0.5-1.6v-0.4c0-0.6,0.1-1.1,0.3-1.6c0.2-0.5,0.5-0.8,1-1.1c0.4-0.2,0.9-0.4,1.5-0.4H77.9z M76.9,140.2
		c-0.2,0-0.3,0-0.5,0.1c-0.1,0.1-0.2,0.2-0.3,0.4v0.3c0,0.4,0.1,0.6,0.2,0.8s0.3,0.3,0.6,0.3c0.2,0,0.4-0.1,0.6-0.3
		c0.1-0.2,0.2-0.4,0.2-0.7c0-0.3-0.1-0.5-0.2-0.7C77.3,140.3,77.1,140.2,76.9,140.2z"/>
	<path class="st10" d="M83.1,140.7c0,0.8-0.2,1.3-0.5,1.7c-0.3,0.4-0.8,0.6-1.4,0.6c-0.6,0-1-0.2-1.4-0.6c-0.3-0.4-0.5-1-0.5-1.7v-1
		c0-0.8,0.2-1.3,0.5-1.7c0.3-0.4,0.8-0.6,1.4-0.6c0.6,0,1,0.2,1.4,0.6c0.3,0.4,0.5,1,0.5,1.7V140.7z M82,139.6c0-0.5-0.1-0.8-0.2-1
		s-0.3-0.3-0.6-0.3c-0.3,0-0.4,0.1-0.6,0.3c-0.1,0.2-0.2,0.5-0.2,0.9v1.3c0,0.4,0.1,0.8,0.2,1c0.1,0.2,0.3,0.3,0.6,0.3
		c0.3,0,0.5-0.1,0.6-0.3c0.1-0.2,0.2-0.5,0.2-1V139.6z"/>
	<path class="st10" d="M83.8,138.6c0-0.3,0.1-0.6,0.3-0.8c0.2-0.2,0.5-0.3,0.9-0.3c0.4,0,0.6,0.1,0.9,0.3c0.2,0.2,0.3,0.5,0.3,0.8
		v0.3c0,0.3-0.1,0.6-0.3,0.8S85.3,140,85,140c-0.4,0-0.6-0.1-0.9-0.3c-0.2-0.2-0.3-0.5-0.3-0.8V138.6z M84.5,138.9
		c0,0.1,0,0.3,0.1,0.4s0.2,0.1,0.3,0.1c0.1,0,0.3,0,0.3-0.1c0.1-0.1,0.1-0.2,0.1-0.4v-0.3c0-0.1,0-0.3-0.1-0.4
		c-0.1-0.1-0.2-0.1-0.3-0.1c-0.1,0-0.2,0-0.3,0.1s-0.1,0.2-0.1,0.4V138.9z M85.2,142.6l-0.5-0.3l2.7-4.3l0.5,0.3L85.2,142.6z
		 M86.4,141.7c0-0.3,0.1-0.6,0.3-0.8c0.2-0.2,0.5-0.3,0.9-0.3c0.4,0,0.6,0.1,0.9,0.3c0.2,0.2,0.3,0.5,0.3,0.8v0.3
		c0,0.3-0.1,0.6-0.3,0.8c-0.2,0.2-0.5,0.3-0.9,0.3c-0.4,0-0.6-0.1-0.9-0.3c-0.2-0.2-0.3-0.5-0.3-0.8V141.7z M87.1,141.9
		c0,0.1,0,0.3,0.1,0.4s0.2,0.1,0.3,0.1c0.3,0,0.5-0.2,0.5-0.5v-0.3c0-0.2,0-0.3-0.1-0.4c-0.1-0.1-0.2-0.1-0.3-0.1
		c-0.1,0-0.3,0-0.3,0.1s-0.1,0.2-0.1,0.4V141.9z"/>
</g>
<g>
	<rect x="74.6" y="116.6" class="st0" width="16.3" height="13.4"/>
	<path class="st10" d="M78.7,117.5l-2.1,4.9h-1.1l2.1-4.6h-2.7v-0.9h3.9V117.5z"/>
	<path class="st10" d="M83.1,120.1c0,0.8-0.2,1.3-0.5,1.7c-0.3,0.4-0.8,0.6-1.4,0.6c-0.6,0-1-0.2-1.4-0.6c-0.3-0.4-0.5-1-0.5-1.7v-1
		c0-0.8,0.2-1.3,0.5-1.7c0.3-0.4,0.8-0.6,1.4-0.6c0.6,0,1,0.2,1.4,0.6c0.3,0.4,0.5,1,0.5,1.7V120.1z M82,119c0-0.5-0.1-0.8-0.2-1
		s-0.3-0.3-0.6-0.3c-0.3,0-0.4,0.1-0.6,0.3c-0.1,0.2-0.2,0.5-0.2,0.9v1.3c0,0.4,0.1,0.8,0.2,1c0.1,0.2,0.3,0.3,0.6,0.3
		c0.3,0,0.5-0.1,0.6-0.3c0.1-0.2,0.2-0.5,0.2-1V119z"/>
	<path class="st10" d="M83.8,117.9c0-0.3,0.1-0.6,0.3-0.8c0.2-0.2,0.5-0.3,0.9-0.3c0.4,0,0.6,0.1,0.9,0.3c0.2,0.2,0.3,0.5,0.3,0.8
		v0.3c0,0.3-0.1,0.6-0.3,0.8s-0.5,0.3-0.9,0.3c-0.4,0-0.6-0.1-0.9-0.3c-0.2-0.2-0.3-0.5-0.3-0.8V117.9z M84.5,118.2
		c0,0.1,0,0.3,0.1,0.4s0.2,0.1,0.3,0.1c0.1,0,0.3,0,0.3-0.1c0.1-0.1,0.1-0.2,0.1-0.4v-0.3c0-0.1,0-0.3-0.1-0.4
		c-0.1-0.1-0.2-0.1-0.3-0.1c-0.1,0-0.2,0-0.3,0.1s-0.1,0.2-0.1,0.4V118.2z M85.2,121.9l-0.5-0.3l2.7-4.3l0.5,0.3L85.2,121.9z
		 M86.4,121c0-0.3,0.1-0.6,0.3-0.8c0.2-0.2,0.5-0.3,0.9-0.3c0.4,0,0.6,0.1,0.9,0.3c0.2,0.2,0.3,0.5,0.3,0.8v0.3
		c0,0.3-0.1,0.6-0.3,0.8c-0.2,0.2-0.5,0.3-0.9,0.3c-0.4,0-0.6-0.1-0.9-0.3c-0.2-0.2-0.3-0.5-0.3-0.8V121z M87.1,121.3
		c0,0.1,0,0.3,0.1,0.4s0.2,0.1,0.3,0.1c0.3,0,0.5-0.2,0.5-0.5V121c0-0.2,0-0.3-0.1-0.4c-0.1-0.1-0.2-0.1-0.3-0.1
		c-0.1,0-0.3,0-0.3,0.1s-0.1,0.2-0.1,0.4V121.3z"/>
</g>
<g>
	<rect x="74.6" y="95.9" class="st0" width="16.3" height="13.4"/>
	<path class="st10" d="M78.5,97.7c0,0.3-0.1,0.5-0.2,0.7c-0.1,0.2-0.3,0.4-0.5,0.5c0.3,0.1,0.5,0.3,0.6,0.5s0.2,0.5,0.2,0.8
		c0,0.5-0.2,0.9-0.5,1.1c-0.3,0.3-0.8,0.4-1.3,0.4c-0.6,0-1-0.1-1.3-0.4c-0.3-0.3-0.5-0.7-0.5-1.1c0-0.3,0.1-0.6,0.2-0.8
		s0.4-0.4,0.6-0.5c-0.2-0.1-0.4-0.3-0.5-0.5c-0.1-0.2-0.2-0.4-0.2-0.7c0-0.5,0.2-0.8,0.5-1.1c0.3-0.3,0.7-0.4,1.3-0.4
		c0.5,0,1,0.1,1.3,0.4S78.5,97.2,78.5,97.7z M77.6,100.1c0-0.2-0.1-0.4-0.2-0.6s-0.3-0.2-0.6-0.2c-0.2,0-0.4,0.1-0.6,0.2
		c-0.1,0.1-0.2,0.3-0.2,0.6c0,0.2,0.1,0.4,0.2,0.6c0.1,0.1,0.3,0.2,0.6,0.2c0.2,0,0.4-0.1,0.6-0.2C77.5,100.5,77.6,100.3,77.6,100.1
		z M77.4,97.7c0-0.2-0.1-0.4-0.2-0.5C77.2,97.1,77,97,76.8,97c-0.2,0-0.4,0.1-0.5,0.2c-0.1,0.1-0.2,0.3-0.2,0.5
		c0,0.2,0.1,0.4,0.2,0.5c0.1,0.1,0.3,0.2,0.5,0.2s0.4-0.1,0.5-0.2C77.4,98.1,77.4,97.9,77.4,97.7z"/>
	<path class="st10" d="M83.1,99.4c0,0.8-0.2,1.3-0.5,1.7c-0.3,0.4-0.8,0.6-1.4,0.6c-0.6,0-1-0.2-1.4-0.6c-0.3-0.4-0.5-1-0.5-1.7v-1
		c0-0.8,0.2-1.3,0.5-1.7c0.3-0.4,0.8-0.6,1.4-0.6c0.6,0,1,0.2,1.4,0.6c0.3,0.4,0.5,1,0.5,1.7V99.4z M82,98.3c0-0.5-0.1-0.8-0.2-1
		S81.5,97,81.2,97c-0.3,0-0.4,0.1-0.6,0.3c-0.1,0.2-0.2,0.5-0.2,0.9v1.3c0,0.4,0.1,0.8,0.2,1c0.1,0.2,0.3,0.3,0.6,0.3
		c0.3,0,0.5-0.1,0.6-0.3c0.1-0.2,0.2-0.5,0.2-1V98.3z"/>
	<path class="st10" d="M83.8,97.3c0-0.3,0.1-0.6,0.3-0.8c0.2-0.2,0.5-0.3,0.9-0.3c0.4,0,0.6,0.1,0.9,0.3c0.2,0.2,0.3,0.5,0.3,0.8
		v0.3c0,0.3-0.1,0.6-0.3,0.8s-0.5,0.3-0.9,0.3c-0.4,0-0.6-0.1-0.9-0.3c-0.2-0.2-0.3-0.5-0.3-0.8V97.3z M84.5,97.6
		c0,0.1,0,0.3,0.1,0.4s0.2,0.1,0.3,0.1c0.1,0,0.3,0,0.3-0.1c0.1-0.1,0.1-0.2,0.1-0.4v-0.3c0-0.1,0-0.3-0.1-0.4
		c-0.1-0.1-0.2-0.1-0.3-0.1c-0.1,0-0.2,0-0.3,0.1s-0.1,0.2-0.1,0.4V97.6z M85.2,101.3l-0.5-0.3l2.7-4.3l0.5,0.3L85.2,101.3z
		 M86.4,100.3c0-0.3,0.1-0.6,0.3-0.8c0.2-0.2,0.5-0.3,0.9-0.3c0.4,0,0.6,0.1,0.9,0.3c0.2,0.2,0.3,0.5,0.3,0.8v0.3
		c0,0.3-0.1,0.6-0.3,0.8c-0.2,0.2-0.5,0.3-0.9,0.3c-0.4,0-0.6-0.1-0.9-0.3c-0.2-0.2-0.3-0.5-0.3-0.8V100.3z M87.1,100.6
		c0,0.1,0,0.3,0.1,0.4s0.2,0.1,0.3,0.1c0.3,0,0.5-0.2,0.5-0.5v-0.3c0-0.2,0-0.3-0.1-0.4c-0.1-0.1-0.2-0.1-0.3-0.1
		c-0.1,0-0.3,0-0.3,0.1s-0.1,0.2-0.1,0.4V100.6z"/>
</g>
<g>
	<rect x="74.6" y="75.2" class="st0" width="16.3" height="13.5"/>
	<path class="st10" d="M77.5,78.8c-0.3,0.3-0.6,0.4-1,0.4c-0.5,0-0.9-0.2-1.2-0.5c-0.3-0.3-0.4-0.8-0.4-1.3c0-0.4,0.1-0.7,0.2-1
		s0.4-0.5,0.7-0.7c0.3-0.2,0.6-0.2,0.9-0.2c0.4,0,0.7,0.1,1,0.3c0.3,0.2,0.5,0.4,0.7,0.8s0.2,0.7,0.2,1.2V78c0,0.9-0.2,1.6-0.7,2.1
		C77.5,80.7,76.8,81,76,81l-0.3,0v-0.9l0.2,0C76.9,80.1,77.4,79.6,77.5,78.8z M76.8,78.4c0.2,0,0.3,0,0.5-0.1
		c0.1-0.1,0.2-0.2,0.3-0.3v-0.4c0-0.4-0.1-0.7-0.2-0.9s-0.3-0.3-0.6-0.3c-0.2,0-0.4,0.1-0.5,0.3C76.1,76.8,76,77,76,77.3
		c0,0.3,0.1,0.5,0.2,0.7C76.3,78.3,76.5,78.4,76.8,78.4z"/>
	<path class="st10" d="M83.1,78.7c0,0.8-0.2,1.3-0.5,1.7c-0.3,0.4-0.8,0.6-1.4,0.6c-0.6,0-1-0.2-1.4-0.6c-0.3-0.4-0.5-1-0.5-1.7v-1
		c0-0.8,0.2-1.3,0.5-1.7c0.3-0.4,0.8-0.6,1.4-0.6c0.6,0,1,0.2,1.4,0.6c0.3,0.4,0.5,1,0.5,1.7V78.7z M82,77.6c0-0.5-0.1-0.8-0.2-1
		s-0.3-0.3-0.6-0.3c-0.3,0-0.4,0.1-0.6,0.3c-0.1,0.2-0.2,0.5-0.2,0.9v1.3c0,0.4,0.1,0.8,0.2,1c0.1,0.2,0.3,0.3,0.6,0.3
		c0.3,0,0.5-0.1,0.6-0.3c0.1-0.2,0.2-0.5,0.2-1V77.6z"/>
	<path class="st10" d="M83.8,76.5c0-0.3,0.1-0.6,0.3-0.8c0.2-0.2,0.5-0.3,0.9-0.3c0.4,0,0.6,0.1,0.9,0.3c0.2,0.2,0.3,0.5,0.3,0.8
		v0.3c0,0.3-0.1,0.6-0.3,0.8S85.3,78,85,78c-0.4,0-0.6-0.1-0.9-0.3c-0.2-0.2-0.3-0.5-0.3-0.8V76.5z M84.5,76.8c0,0.1,0,0.3,0.1,0.4
		s0.2,0.1,0.3,0.1c0.1,0,0.3,0,0.3-0.1c0.1-0.1,0.1-0.2,0.1-0.4v-0.3c0-0.1,0-0.3-0.1-0.4C85.2,76.1,85.1,76,85,76
		c-0.1,0-0.2,0-0.3,0.1s-0.1,0.2-0.1,0.4V76.8z M85.2,80.5l-0.5-0.3l2.7-4.3l0.5,0.3L85.2,80.5z M86.4,79.6c0-0.3,0.1-0.6,0.3-0.8
		c0.2-0.2,0.5-0.3,0.9-0.3c0.4,0,0.6,0.1,0.9,0.3c0.2,0.2,0.3,0.5,0.3,0.8v0.3c0,0.3-0.1,0.6-0.3,0.8c-0.2,0.2-0.5,0.3-0.9,0.3
		c-0.4,0-0.6-0.1-0.9-0.3c-0.2-0.2-0.3-0.5-0.3-0.8V79.6z M87.1,79.9c0,0.1,0,0.3,0.1,0.4s0.2,0.1,0.3,0.1c0.3,0,0.5-0.2,0.5-0.5
		v-0.3c0-0.2,0-0.3-0.1-0.4c-0.1-0.1-0.2-0.1-0.3-0.1c-0.1,0-0.3,0-0.3,0.1s-0.1,0.2-0.1,0.4V79.9z"/>
</g>
<g>
	<rect x="71.7" y="54.6" class="st0" width="22.1" height="13.4"/>
	<path class="st10" d="M74.7,60.4h-1.1v-4.2l-1.3,0.4v-0.9l2.3-0.8h0.1V60.4z"/>
	<path class="st10" d="M80.1,58.1c0,0.8-0.2,1.3-0.5,1.7c-0.3,0.4-0.8,0.6-1.4,0.6c-0.6,0-1-0.2-1.4-0.6c-0.3-0.4-0.5-1-0.5-1.7v-1
		c0-0.8,0.2-1.3,0.5-1.7c0.3-0.4,0.8-0.6,1.4-0.6c0.6,0,1,0.2,1.4,0.6c0.3,0.4,0.5,1,0.5,1.7V58.1z M79,57c0-0.5-0.1-0.8-0.2-1
		s-0.3-0.3-0.6-0.3c-0.3,0-0.4,0.1-0.6,0.3c-0.1,0.2-0.2,0.5-0.2,0.9v1.3c0,0.4,0.1,0.8,0.2,1c0.1,0.2,0.3,0.3,0.6,0.3
		c0.3,0,0.5-0.1,0.6-0.3c0.1-0.2,0.2-0.5,0.2-1V57z"/>
	<path class="st10" d="M84.5,58.1c0,0.8-0.2,1.3-0.5,1.7c-0.3,0.4-0.8,0.6-1.4,0.6c-0.6,0-1-0.2-1.4-0.6c-0.3-0.4-0.5-1-0.5-1.7v-1
		c0-0.8,0.2-1.3,0.5-1.7c0.3-0.4,0.8-0.6,1.4-0.6c0.6,0,1,0.2,1.4,0.6c0.3,0.4,0.5,1,0.5,1.7V58.1z M83.5,57c0-0.5-0.1-0.8-0.2-1
		s-0.3-0.3-0.6-0.3c-0.3,0-0.4,0.1-0.6,0.3c-0.1,0.2-0.2,0.5-0.2,0.9v1.3c0,0.4,0.1,0.8,0.2,1c0.1,0.2,0.3,0.3,0.6,0.3
		c0.3,0,0.5-0.1,0.6-0.3c0.1-0.2,0.2-0.5,0.2-1V57z"/>
	<path class="st10" d="M85.3,56c0-0.3,0.1-0.6,0.3-0.8c0.2-0.2,0.5-0.3,0.9-0.3c0.4,0,0.6,0.1,0.9,0.3c0.2,0.2,0.3,0.5,0.3,0.8v0.3
		c0,0.3-0.1,0.6-0.3,0.8s-0.5,0.3-0.9,0.3c-0.4,0-0.6-0.1-0.9-0.3c-0.2-0.2-0.3-0.5-0.3-0.8V56z M86,56.2c0,0.1,0,0.3,0.1,0.4
		s0.2,0.1,0.3,0.1c0.1,0,0.3,0,0.3-0.1c0.1-0.1,0.1-0.2,0.1-0.4V56c0-0.1,0-0.3-0.1-0.4c-0.1-0.1-0.2-0.1-0.3-0.1
		c-0.1,0-0.2,0-0.3,0.1S86,55.8,86,56V56.2z M86.7,60l-0.5-0.3l2.7-4.3l0.5,0.3L86.7,60z M87.9,59c0-0.3,0.1-0.6,0.3-0.8
		c0.2-0.2,0.5-0.3,0.9-0.3c0.4,0,0.6,0.1,0.9,0.3c0.2,0.2,0.3,0.5,0.3,0.8v0.3c0,0.3-0.1,0.6-0.3,0.8c-0.2,0.2-0.5,0.3-0.9,0.3
		c-0.4,0-0.6-0.1-0.9-0.3c-0.2-0.2-0.3-0.5-0.3-0.8V59z M88.6,59.3c0,0.1,0,0.3,0.1,0.4s0.2,0.1,0.3,0.1c0.3,0,0.5-0.2,0.5-0.5V59
		c0-0.2,0-0.3-0.1-0.4c-0.1-0.1-0.2-0.1-0.3-0.1c-0.1,0-0.3,0-0.3,0.1s-0.1,0.2-0.1,0.4V59.3z"/>
</g>
<polyline class="st18" points="94,51.4 94,255.1 314.9,255.3 "/>
<g>
	<rect x="71.7" y="258.9" class="st0" width="25.3" height="15"/>
	<path class="st10" d="M72,266.4l1.2-7.1l1.8,0c0.6,0,1.1,0.1,1.5,0.4c0.4,0.3,0.7,0.7,0.9,1.2s0.2,1.1,0.2,1.7l0,0.4
		c-0.1,1-0.5,1.9-1.2,2.5s-1.5,0.9-2.5,0.9H72z M74,260.1l-1,5.6l0.9,0c0.7,0,1.3-0.2,1.8-0.6c0.5-0.4,0.8-1,0.9-1.8
		c0.1-0.6,0.2-1.1,0.1-1.5c0-0.5-0.2-0.9-0.5-1.2s-0.7-0.4-1.2-0.4L74,260.1z"/>
	<path class="st10" d="M79.2,266.4h-0.9l0.9-5.3h0.9L79.2,266.4z M80.4,259h1.1l-1.5,1.4l-0.8,0L80.4,259z"/>
	<path class="st10" d="M83.9,266.4c0-0.1,0-0.2,0-0.3l0-0.3c-0.5,0.4-1,0.7-1.5,0.7c-0.5,0-0.8-0.2-1.1-0.4
		c-0.3-0.3-0.4-0.6-0.4-1.1c0-0.6,0.3-1,0.7-1.3c0.5-0.3,1.1-0.5,1.8-0.5l0.9,0l0.1-0.4c0-0.3,0-0.6-0.2-0.7
		c-0.2-0.2-0.4-0.3-0.7-0.3c-0.3,0-0.6,0.1-0.8,0.2c-0.2,0.2-0.4,0.4-0.4,0.6l-0.9,0c0-0.3,0.1-0.6,0.4-0.8s0.5-0.4,0.8-0.6
		s0.7-0.2,1-0.2c0.5,0,1,0.2,1.3,0.5s0.4,0.7,0.4,1.3l-0.4,2.6l0,0.4c0,0.2,0,0.4,0.1,0.5l0,0.1H83.9z M82.5,265.8
		c0.3,0,0.6-0.1,0.8-0.2c0.3-0.1,0.5-0.3,0.7-0.6l0.2-1.1l-0.7,0c-0.6,0-1,0.1-1.3,0.3s-0.5,0.4-0.5,0.7c0,0.2,0,0.5,0.2,0.6
		C82,265.7,82.3,265.8,82.5,265.8z"/>
	<path class="st10" d="M89.3,265c0-0.4-0.2-0.6-0.6-0.8l-0.9-0.3c-0.8-0.3-1.1-0.7-1.1-1.3c0-0.5,0.2-0.8,0.6-1.1
		c0.4-0.3,0.9-0.4,1.4-0.4c0.5,0,1,0.2,1.3,0.5c0.3,0.3,0.5,0.7,0.5,1.2l-0.9,0c0-0.3-0.1-0.5-0.2-0.6s-0.4-0.3-0.7-0.3
		c-0.3,0-0.6,0.1-0.8,0.2c-0.2,0.1-0.3,0.3-0.4,0.6c0,0.3,0.1,0.5,0.6,0.7l0.4,0.1c0.6,0.2,1,0.4,1.3,0.6s0.4,0.6,0.4,0.9
		c0,0.3-0.1,0.6-0.3,0.9s-0.5,0.4-0.8,0.6s-0.7,0.2-1,0.2c-0.6,0-1-0.2-1.4-0.5s-0.5-0.7-0.5-1.2l0.9,0c0,0.3,0.1,0.5,0.3,0.7
		s0.4,0.3,0.8,0.3c0.3,0,0.6-0.1,0.8-0.2S89.2,265.3,89.3,265z"/>
</g>
<linearGradient id="SVGID_2_" gradientUnits="userSpaceOnUse" x1="98" y1="184" x2="113" y2="184">
	<stop  offset="0" style="stop-color:#F0D477"/>
	<stop  offset="0.2207" style="stop-color:#E0A75C"/>
	<stop  offset="0.3595" style="stop-color:#D8904E"/>
	<stop  offset="0.5393" style="stop-color:#B87333"/>
	<stop  offset="1" style="stop-color:#814924"/>
</linearGradient>
<rect x="98" y="115" class="st7" width="15" height="138"/>
<linearGradient id="SVGID_3_" gradientUnits="userSpaceOnUse" x1="126" y1="219.5" x2="141" y2="219.5">
	<stop  offset="0" style="stop-color:#F0D477"/>
	<stop  offset="0.2207" style="stop-color:#E0A75C"/>
	<stop  offset="0.3595" style="stop-color:#D8904E"/>
	<stop  offset="0.5393" style="stop-color:#B87333"/>
	<stop  offset="1" style="stop-color:#814924"/>
</linearGradient>
<rect x="126" y="186" style="fill:url(#SVGID_3_);" width="15" height="67"/>
<linearGradient id="SVGID_4_" gradientUnits="userSpaceOnUse" x1="153" y1="157" x2="168" y2="157">
	<stop  offset="0" style="stop-color:#F0D477"/>
	<stop  offset="0.2207" style="stop-color:#E0A75C"/>
	<stop  offset="0.3595" style="stop-color:#D8904E"/>
	<stop  offset="0.5393" style="stop-color:#B87333"/>
	<stop  offset="1" style="stop-color:#814924"/>
</linearGradient>
<rect x="153" y="61" style="fill:url(#SVGID_4_);" width="15" height="192"/>
<linearGradient id="SVGID_5_" gradientUnits="userSpaceOnUse" x1="205" y1="229.5" x2="220" y2="229.5">
	<stop  offset="0" style="stop-color:#F0D477"/>
	<stop  offset="0.2207" style="stop-color:#E0A75C"/>
	<stop  offset="0.3595" style="stop-color:#D8904E"/>
	<stop  offset="0.5393" style="stop-color:#B87333"/>
	<stop  offset="1" style="stop-color:#814924"/>
</linearGradient>
<rect x="205" y="206" style="fill:url(#SVGID_5_);" width="15" height="47"/>
<linearGradient id="SVGID_6_" gradientUnits="userSpaceOnUse" x1="256" y1="221.5" x2="271" y2="221.5">
	<stop  offset="0" style="stop-color:#F0D477"/>
	<stop  offset="0.2207" style="stop-color:#E0A75C"/>
	<stop  offset="0.3595" style="stop-color:#D8904E"/>
	<stop  offset="0.5393" style="stop-color:#B87333"/>
	<stop  offset="1" style="stop-color:#814924"/>
</linearGradient>
<rect x="256" y="190" style="fill:url(#SVGID_6_);" width="15" height="63"/>
</svg>
