<?xml version="1.0" encoding="utf-8"?>
<!-- Generator: Adobe Illustrator 21.0.0, SVG Export Plug-In . SVG Version: 6.00 Build 0)  -->
<svg version="1.1" id="Capa_1" xmlns="http://www.w3.org/2000/svg" xmlns:xlink="http://www.w3.org/1999/xlink" x="0px" y="0px"
	 viewBox="0 0 50 50" style="enable-background:new 0 0 50 50;" xml:space="preserve">
<style type="text/css">
	.st0{fill:#3FEAFF;}
	.st1{fill:#222221;}
	.st2{fill:none;stroke:#222221;stroke-width:0.7792;stroke-miterlimit:10;}
	.st3{fill:none;stroke:#222221;stroke-width:0.3911;stroke-miterlimit:10;}
	.st4{fill:none;stroke:#222221;stroke-width:0.3439;stroke-miterlimit:10;}
	.st5{fill:none;stroke:#222221;stroke-width:0.1735;stroke-miterlimit:10;}
	.st6{fill:none;stroke:#222221;stroke-width:6.260735e-02;stroke-miterlimit:10;}
	.st7{fill:#4071A4;}
	.st8{fill:none;stroke:#222221;stroke-width:0.2719;stroke-miterlimit:10;}
	.st9{fill:none;stroke:#222221;stroke-width:0.3659;stroke-miterlimit:10;}
	.st10{fill:none;stroke:#222221;stroke-width:0.2339;stroke-miterlimit:10;}
	.st11{fill:none;stroke:#222221;stroke-width:0.1673;stroke-miterlimit:10;}
	.st12{fill:#222221;stroke:#3F71AA;stroke-width:0.1948;stroke-miterlimit:10;}
	.st13{opacity:0.57;fill:#3F71AA;}
</style>
<circle class="st0" cx="25.7" cy="24.5" r="22.5"/>
<polygon class="st1" points="13,33.9 13.8,35.4 14.7,33.9 "/>
<polygon class="st1" points="16.1,33.1 16.9,34.6 17.8,33 "/>
<polygon class="st1" points="18.9,32.2 19.8,33.6 20.5,32.2 "/>
<polygon class="st1" points="21.6,31.3 22.4,32.6 23.2,31.2 "/>
<polygon class="st1" points="24.1,30 25,31.2 25.9,30 "/>
<polygon class="st1" points="26.6,28.6 27.5,30 28.4,28.6 "/>
<polygon class="st1" points="29.2,27 30,28.4 30.9,27 "/>
<polygon class="st1" points="31.4,25.1 32.3,26.5 33.2,25.1 "/>
<polygon class="st1" points="33.5,23 34.4,24.5 35.2,23 "/>
<polygon class="st1" points="35.2,20.9 36.2,22.3 37,20.9 "/>
<polygon class="st1" points="36.7,19.1 38.5,20.9 40.1,17.1 "/>
<polyline class="st2" points="10.9,12.4 10.9,36.6 41.7,36.6 "/>
<g>
	<circle class="st0" cx="25.5" cy="24.5" r="22.5"/>
	<path class="st1" d="M20,41.5c0,1.2,0.5,1.8,1.6,0.7c1.2-1.1,2.6-3.7,4-3.8c1.3,0,3.9,3.6,4.3,3.9c0.5,0.4,1.3,0.7,1.5-0.6
		s0-11.4,0-11.4H20V41.5z"/>
	<path class="st12" d="M25.8,8.9c1.7,0,1.8,1.8,3,2.1c1.2,0.3,3-0.6,4,0.2c1,0.7,0.6,2.6,1.3,3.4s2.7,1.5,3.1,2.6s-1.2,2.2-0.9,4
		c0.3,1.8,1.4,2.5,1,3.6s-2.4,1.8-2.9,2.4c-0.5,0.6-0.4,3.1-1.6,3.9c-1.2,0.7-2.1-0.1-3.3,0.2c-1.2,0.3-1.9,2.1-3.7,2.1
		c-1.9,0-1.7-1.3-3.2-2s-2.9,0.3-3.9-0.2s-0.5-2.8-1.4-3.7c-0.9-1-2.5-1-3.2-2.4s1.2-1.8,1-4s-1.2-1.9-0.9-3.4s2.2-1.1,3-2.8
		s0.2-2.8,1.4-3.5c1.2-0.7,2,0.4,3.9-0.2C24.6,10.4,23.8,8.9,25.8,8.9z"/>
	<circle class="st13" cx="25.8" cy="21.1" r="8.6"/>
	<circle class="st1" cx="25.8" cy="21.1" r="7.2"/>
	<polygon class="st13" points="25.8,16.3 27.4,19.4 30.9,20 28.4,22.4 29,25.9 25.8,24.2 22.7,25.9 23.3,22.4 20.8,20 24.3,19.4 	
		"/>
</g>
</svg>
