<?xml version="1.0" encoding="utf-8"?>
<!-- Generator: Adobe Illustrator 21.0.0, SVG Export Plug-In . SVG Version: 6.00 Build 0)  -->
<svg version="1.1" id="Capa_1" xmlns="http://www.w3.org/2000/svg" xmlns:xlink="http://www.w3.org/1999/xlink" x="0px" y="0px"
	 viewBox="0 0 500 500" style="enable-background:new 0 0 500 500;" xml:space="preserve">
<style type="text/css">
	.st0{opacity:0.92;fill:url(#SVGID_1_);}
	.st1{fill:none;}
	.st2{fill:#FFFFFF;}
	.st3{fill:#585857;}
	.st4{fill:#222221;}
	.st5{fill:#3F3F3F;}
	.st6{fill:url(#SVGID_2_);}
	.st7{fill:url(#SVGID_3_);}
	.st8{opacity:0.7;fill:none;stroke:#222221;stroke-width:2.9305;stroke-miterlimit:10;}
	.st9{opacity:0.56;fill:#3F71AA;}
	.st10{clip-path:url(#SVGID_5_);}
	.st11{fill:none;stroke:#222221;stroke-width:1.9619;stroke-miterlimit:10;}
	.st12{fill:#9E5F5F;}
	.st13{fill:#B25F5F;}
	.st14{fill:#B57F7F;}
	.st15{stroke:#B25F5F;stroke-width:0.461;stroke-miterlimit:10;}
	.st16{fill:none;stroke:url(#SVGID_6_);stroke-width:1.4057;stroke-miterlimit:10;}
	.st17{fill:url(#SVGID_7_);}
	.st18{fill:url(#SVGID_8_);}
</style>
<linearGradient id="SVGID_1_" gradientUnits="userSpaceOnUse" x1="97.2971" y1="243.916" x2="405.6195" y2="243.916">
	<stop  offset="0" style="stop-color:#E2C3B0"/>
	<stop  offset="0.5" style="stop-color:#D4A58C"/>
	<stop  offset="0.5432" style="stop-color:#D3A389"/>
	<stop  offset="1" style="stop-color:#C98E72"/>
</linearGradient>
<rect x="98" y="19" style="fill:none;stroke:url(#SVGID_1_);stroke-width:1.4057;stroke-miterlimit:10;" width="306.9" height="449.8"/>
<g>
	<rect x="127.1" y="367.8" class="st1" width="243.7" height="75.2"/>
	<path d="M147.5,368.9l5.1,14.5l5.1-14.5h5.4v20H159v-5.5l0.4-9.4l-5.4,14.9h-2.8l-5.4-14.9l0.4,9.4v5.5h-4.1v-20H147.5z"/>
	<path d="M173.3,389.2c-2.2,0-4-0.7-5.3-2c-1.4-1.3-2.1-3.1-2.1-5.3v-0.4c0-1.5,0.3-2.8,0.9-4c0.6-1.2,1.4-2.1,2.5-2.7s2.3-1,3.6-1
		c2,0,3.6,0.6,4.8,1.9s1.8,3.1,1.8,5.4v1.6H170c0.1,1,0.5,1.7,1.2,2.3c0.6,0.6,1.5,0.9,2.5,0.9c1.5,0,2.7-0.6,3.6-1.7l1.9,2.2
		c-0.6,0.8-1.4,1.5-2.4,2C175.7,389,174.5,389.2,173.3,389.2z M172.8,377c-0.8,0-1.4,0.3-1.9,0.8s-0.8,1.3-0.9,2.3h5.5v-0.3
		c0-0.9-0.3-1.6-0.7-2S173.7,377,172.8,377z"/>
	<path d="M186.4,370.4v3.7h2.5v2.9h-2.5v7.4c0,0.5,0.1,0.9,0.3,1.2c0.2,0.2,0.6,0.4,1.2,0.4c0.4,0,0.8,0,1.2-0.1v3
		c-0.8,0.2-1.6,0.4-2.4,0.4c-2.8,0-4.2-1.4-4.3-4.2v-8h-2.2v-2.9h2.2v-3.7H186.4z"/>
	<path d="M199.8,388.9c-0.2-0.4-0.3-0.8-0.4-1.3c-1,1.1-2.2,1.6-3.7,1.6c-1.5,0-2.7-0.4-3.6-1.3c-1-0.8-1.4-1.9-1.4-3.2
		c0-1.6,0.6-2.8,1.8-3.6c1.2-0.8,2.9-1.3,5.1-1.3h1.8V379c0-0.7-0.2-1.2-0.5-1.6c-0.4-0.4-0.9-0.6-1.7-0.6c-0.7,0-1.2,0.2-1.6,0.5
		c-0.4,0.3-0.6,0.8-0.6,1.3h-4c0-0.9,0.3-1.7,0.8-2.4c0.5-0.7,1.3-1.3,2.3-1.7s2.1-0.6,3.3-0.6c1.8,0,3.3,0.5,4.4,1.4
		c1.1,0.9,1.6,2.2,1.6,3.9v6.4c0,1.4,0.2,2.5,0.6,3.2v0.2H199.8z M196.5,386.2c0.6,0,1.1-0.1,1.6-0.4s0.9-0.6,1.1-1.1v-2.6h-1.5
		c-2,0-3,0.7-3.2,2.1l0,0.2c0,0.5,0.2,0.9,0.5,1.2C195.4,386,195.9,386.2,196.5,386.2z"/>
	<path d="M220.1,389.2c-2.2,0-4-0.7-5.3-2c-1.4-1.3-2.1-3.1-2.1-5.3v-0.4c0-1.5,0.3-2.8,0.9-4c0.6-1.2,1.4-2.1,2.5-2.7s2.3-1,3.6-1
		c2,0,3.6,0.6,4.8,1.9s1.8,3.1,1.8,5.4v1.6h-9.5c0.1,1,0.5,1.7,1.2,2.3c0.6,0.6,1.5,0.9,2.5,0.9c1.5,0,2.7-0.6,3.6-1.7l1.9,2.2
		c-0.6,0.8-1.4,1.5-2.4,2C222.4,389,221.3,389.2,220.1,389.2z M219.6,377c-0.8,0-1.4,0.3-1.9,0.8s-0.8,1.3-0.9,2.3h5.5v-0.3
		c0-0.9-0.3-1.6-0.7-2S220.5,377,219.6,377z"/>
	<path d="M236.5,384.8c0-0.5-0.2-0.9-0.7-1.1c-0.5-0.3-1.3-0.5-2.3-0.7c-3.5-0.7-5.3-2.2-5.3-4.5c0-1.3,0.5-2.4,1.6-3.3
		s2.5-1.3,4.3-1.3c1.9,0,3.4,0.4,4.5,1.3c1.1,0.9,1.7,2,1.7,3.5h-4c0-0.6-0.2-1-0.5-1.4s-0.9-0.6-1.7-0.6c-0.7,0-1.2,0.2-1.6,0.5
		c-0.4,0.3-0.5,0.7-0.5,1.2c0,0.4,0.2,0.8,0.6,1.1c0.4,0.3,1.1,0.5,2.1,0.7c1,0.2,1.8,0.4,2.5,0.7c2.1,0.8,3.1,2.1,3.1,4
		c0,1.4-0.6,2.5-1.7,3.3c-1.2,0.8-2.7,1.3-4.5,1.3c-1.2,0-2.3-0.2-3.3-0.7s-1.7-1.1-2.3-1.8c-0.5-0.8-0.8-1.6-0.8-2.5h3.8
		c0,0.7,0.3,1.2,0.8,1.6c0.5,0.4,1.1,0.6,1.9,0.6c0.8,0,1.3-0.1,1.7-0.4C236.3,385.7,236.5,385.3,236.5,384.8z"/>
	<path d="M247.6,370.4v3.7h2.5v2.9h-2.5v7.4c0,0.5,0.1,0.9,0.3,1.2c0.2,0.2,0.6,0.4,1.2,0.4c0.4,0,0.8,0,1.2-0.1v3
		c-0.8,0.2-1.6,0.4-2.4,0.4c-2.8,0-4.2-1.4-4.3-4.2v-8h-2.2v-2.9h2.2v-3.7H247.6z"/>
	<path d="M261,388.9c-0.2-0.4-0.3-0.8-0.4-1.3c-1,1.1-2.2,1.6-3.7,1.6c-1.5,0-2.7-0.4-3.6-1.3c-1-0.8-1.4-1.9-1.4-3.2
		c0-1.6,0.6-2.8,1.8-3.6c1.2-0.8,2.9-1.3,5.1-1.3h1.8V379c0-0.7-0.2-1.2-0.5-1.6c-0.4-0.4-0.9-0.6-1.7-0.6c-0.7,0-1.2,0.2-1.6,0.5
		c-0.4,0.3-0.6,0.8-0.6,1.3h-4c0-0.9,0.3-1.7,0.8-2.4c0.5-0.7,1.3-1.3,2.3-1.7s2.1-0.6,3.3-0.6c1.8,0,3.3,0.5,4.4,1.4
		c1.1,0.9,1.6,2.2,1.6,3.9v6.4c0,1.4,0.2,2.5,0.6,3.2v0.2H261z M257.7,386.2c0.6,0,1.1-0.1,1.6-0.4s0.9-0.6,1.1-1.1v-2.6H259
		c-2,0-3,0.7-3.2,2.1l0,0.2c0,0.5,0.2,0.9,0.5,1.2C256.6,386,257.1,386.2,257.7,386.2z"/>
	<path d="M280.8,381.6c0,2.4-0.5,4.2-1.5,5.6s-2.4,2-4.3,2c-1.6,0-2.9-0.6-3.9-1.9l-0.2,1.6h-3.6v-21.1h4v7.6
		c0.9-1.1,2.1-1.6,3.6-1.6c1.8,0,3.2,0.7,4.3,2c1,1.3,1.5,3.2,1.5,5.6V381.6z M276.9,381.3c0-1.5-0.2-2.6-0.7-3.3
		c-0.5-0.7-1.2-1-2.1-1c-1.3,0-2.1,0.5-2.6,1.6v5.9c0.5,1,1.4,1.6,2.6,1.6c1.3,0,2.1-0.6,2.5-1.9
		C276.8,383.5,276.9,382.6,276.9,381.3z"/>
	<path d="M287.5,388.9h-4v-21.1h4V388.9z"/>
	<path d="M297.6,389.2c-2.2,0-4-0.7-5.3-2c-1.4-1.3-2.1-3.1-2.1-5.3v-0.4c0-1.5,0.3-2.8,0.9-4c0.6-1.2,1.4-2.1,2.5-2.7s2.3-1,3.6-1
		c2,0,3.6,0.6,4.8,1.9s1.8,3.1,1.8,5.4v1.6h-9.5c0.1,1,0.5,1.7,1.2,2.3c0.6,0.6,1.5,0.9,2.5,0.9c1.5,0,2.7-0.6,3.6-1.7l1.9,2.2
		c-0.6,0.8-1.4,1.5-2.4,2C299.9,389,298.8,389.2,297.6,389.2z M297.1,377c-0.8,0-1.4,0.3-1.9,0.8s-0.8,1.3-0.9,2.3h5.5v-0.3
		c0-0.9-0.3-1.6-0.7-2S298,377,297.1,377z"/>
	<path d="M312.1,386c0.7,0,1.3-0.2,1.8-0.6c0.5-0.4,0.7-0.9,0.7-1.6h3.7c0,1-0.3,1.9-0.8,2.8c-0.5,0.8-1.3,1.5-2.2,1.9
		c-0.9,0.5-2,0.7-3.1,0.7c-2.1,0-3.8-0.7-5-2c-1.2-1.3-1.8-3.2-1.8-5.6v-0.3c0-2.3,0.6-4.1,1.8-5.5c1.2-1.4,2.9-2,5-2
		c1.9,0,3.3,0.5,4.5,1.6s1.7,2.5,1.7,4.2h-3.7c0-0.8-0.3-1.4-0.7-1.9c-0.5-0.5-1.1-0.7-1.8-0.7c-0.9,0-1.6,0.3-2.1,1
		c-0.5,0.7-0.7,1.8-0.7,3.3v0.4c0,1.5,0.2,2.6,0.7,3.3C310.5,385.7,311.2,386,312.1,386z"/>
	<path d="M320.6,370.2c0-0.6,0.2-1.1,0.6-1.5c0.4-0.4,0.9-0.6,1.6-0.6c0.7,0,1.2,0.2,1.6,0.6c0.4,0.4,0.6,0.9,0.6,1.5
		c0,0.6-0.2,1.1-0.6,1.5c-0.4,0.4-0.9,0.6-1.6,0.6c-0.7,0-1.2-0.2-1.6-0.6C320.8,371.3,320.6,370.8,320.6,370.2z M324.8,388.9h-4
		v-14.9h4V388.9z"/>
	<path d="M327.4,381.4c0-2.3,0.5-4.2,1.6-5.5c1-1.4,2.5-2.1,4.3-2.1c1.4,0,2.6,0.5,3.6,1.6v-7.6h4v21.1h-3.6l-0.2-1.6
		c-1,1.2-2.3,1.9-3.8,1.9c-1.7,0-3.2-0.7-4.2-2.1C328,385.8,327.4,383.8,327.4,381.4z M331.4,381.7c0,1.4,0.2,2.5,0.7,3.2
		c0.5,0.7,1.2,1.1,2.1,1.1c1.2,0,2.1-0.5,2.6-1.6v-5.9c-0.5-1-1.3-1.6-2.6-1.6C332.4,377,331.4,378.6,331.4,381.7z"/>
	<path d="M352.5,388.9c-0.2-0.4-0.3-0.8-0.4-1.3c-1,1.1-2.2,1.6-3.7,1.6c-1.5,0-2.7-0.4-3.6-1.3c-1-0.8-1.4-1.9-1.4-3.2
		c0-1.6,0.6-2.8,1.8-3.6c1.2-0.8,2.9-1.3,5.1-1.3h1.8V379c0-0.7-0.2-1.2-0.5-1.6c-0.4-0.4-0.9-0.6-1.7-0.6c-0.7,0-1.2,0.2-1.6,0.5
		c-0.4,0.3-0.6,0.8-0.6,1.3h-4c0-0.9,0.3-1.7,0.8-2.4c0.5-0.7,1.3-1.3,2.3-1.7s2.1-0.6,3.3-0.6c1.8,0,3.3,0.5,4.4,1.4
		c1.1,0.9,1.6,2.2,1.6,3.9v6.4c0,1.4,0.2,2.5,0.6,3.2v0.2H352.5z M349.2,386.2c0.6,0,1.1-0.1,1.6-0.4s0.9-0.6,1.1-1.1v-2.6h-1.5
		c-2,0-3,0.7-3.2,2.1l0,0.2c0,0.5,0.2,0.9,0.5,1.2C348.1,386,348.6,386.2,349.2,386.2z"/>
	<path d="M199,419.7c0.7,0,1.3-0.2,1.8-0.6c0.5-0.4,0.7-0.9,0.7-1.6h3.7c0,1-0.3,1.9-0.8,2.8c-0.5,0.8-1.3,1.5-2.2,1.9
		c-0.9,0.5-2,0.7-3.1,0.7c-2.1,0-3.8-0.7-5-2c-1.2-1.3-1.8-3.2-1.8-5.6v-0.3c0-2.3,0.6-4.1,1.8-5.5c1.2-1.4,2.9-2,5-2
		c1.9,0,3.3,0.5,4.5,1.6s1.7,2.5,1.7,4.2h-3.7c0-0.8-0.3-1.4-0.7-1.9c-0.5-0.5-1.1-0.7-1.8-0.7c-0.9,0-1.6,0.3-2.1,1
		c-0.5,0.7-0.7,1.8-0.7,3.3v0.4c0,1.5,0.2,2.6,0.7,3.3C197.3,419.4,198,419.7,199,419.7z"/>
	<path d="M206.8,415.1c0-1.5,0.3-2.8,0.9-3.9s1.4-2,2.5-2.7c1.1-0.6,2.3-0.9,3.7-0.9c2,0,3.6,0.6,4.9,1.8c1.3,1.2,2,2.9,2.1,5l0,1
		c0,2.3-0.6,4.1-1.9,5.5c-1.3,1.4-3,2.1-5.1,2.1s-3.9-0.7-5.1-2.1c-1.3-1.4-1.9-3.2-1.9-5.6V415.1z M210.8,415.4
		c0,1.4,0.3,2.5,0.8,3.2c0.5,0.7,1.3,1.1,2.3,1.1c1,0,1.7-0.4,2.3-1.1c0.5-0.7,0.8-1.9,0.8-3.5c0-1.4-0.3-2.5-0.8-3.2
		c-0.5-0.8-1.3-1.1-2.3-1.1c-1,0-1.7,0.4-2.3,1.1C211.1,412.6,210.8,413.8,210.8,415.4z"/>
	<path d="M227,407.8l0.1,1.7c1.1-1.3,2.5-2,4.3-2c1.6,0,2.7,0.5,3.5,1.4c0.8,0.9,1.2,2.3,1.2,4.1v9.6h-4v-9.5c0-0.8-0.2-1.5-0.5-1.8
		c-0.4-0.4-1-0.6-1.8-0.6c-1.1,0-2,0.5-2.5,1.4v10.5h-4v-14.9H227z"/>
	<path d="M252.9,422.9c-2.2,0-4-0.7-5.3-2c-1.4-1.3-2.1-3.1-2.1-5.3v-0.4c0-1.5,0.3-2.8,0.9-4c0.6-1.2,1.4-2.1,2.5-2.7s2.3-1,3.6-1
		c2,0,3.6,0.6,4.8,1.9s1.8,3.1,1.8,5.4v1.6h-9.5c0.1,1,0.5,1.7,1.2,2.3c0.6,0.6,1.5,0.9,2.5,0.9c1.5,0,2.7-0.6,3.6-1.7l1.9,2.2
		c-0.6,0.8-1.4,1.5-2.4,2C255.3,422.7,254.2,422.9,252.9,422.9z M252.5,410.7c-0.8,0-1.4,0.3-1.9,0.8s-0.8,1.3-0.9,2.3h5.5v-0.3
		c0-0.9-0.3-1.6-0.7-2S253.3,410.7,252.5,410.7z"/>
	<path d="M266.9,412.2l2.5-4.4h4.2l-4.2,7.3l4.4,7.6h-4.3L267,418l-2.6,4.7H260l4.4-7.6l-4.2-7.3h4.3L266.9,412.2z"/>
	<path d="M275.6,404c0-0.6,0.2-1.1,0.6-1.5c0.4-0.4,0.9-0.6,1.6-0.6c0.7,0,1.2,0.2,1.6,0.6c0.4,0.4,0.6,0.9,0.6,1.5
		c0,0.6-0.2,1.1-0.6,1.5c-0.4,0.4-0.9,0.6-1.6,0.6c-0.7,0-1.2-0.2-1.6-0.6C275.8,405.1,275.6,404.6,275.6,404z M279.8,422.7h-4
		v-14.9h4V422.7z"/>
	<path d="M287.8,404.2v3.7h2.5v2.9h-2.5v7.4c0,0.5,0.1,0.9,0.3,1.2c0.2,0.2,0.6,0.4,1.2,0.4c0.4,0,0.8,0,1.2-0.1v3
		c-0.8,0.2-1.6,0.4-2.4,0.4c-2.8,0-4.2-1.4-4.3-4.2v-8h-2.2v-2.9h2.2v-3.7H287.8z"/>
	<path d="M291.5,415.1c0-1.5,0.3-2.8,0.9-3.9s1.4-2,2.5-2.7c1.1-0.6,2.3-0.9,3.7-0.9c2,0,3.6,0.6,4.9,1.8c1.3,1.2,2,2.9,2.1,5l0,1
		c0,2.3-0.6,4.1-1.9,5.5c-1.3,1.4-3,2.1-5.1,2.1s-3.9-0.7-5.1-2.1c-1.3-1.4-1.9-3.2-1.9-5.6V415.1z M295.5,415.4
		c0,1.4,0.3,2.5,0.8,3.2c0.5,0.7,1.3,1.1,2.3,1.1c1,0,1.7-0.4,2.3-1.1c0.5-0.7,0.8-1.9,0.8-3.5c0-1.4-0.3-2.5-0.8-3.2
		c-0.5-0.8-1.3-1.1-2.3-1.1c-1,0-1.7,0.4-2.3,1.1C295.7,412.6,295.5,413.8,295.5,415.4z"/>
</g>
<g>
	<linearGradient id="SVGID_2_" gradientUnits="userSpaceOnUse" x1="209.2621" y1="213.5532" x2="292.0154" y2="213.5532">
		<stop  offset="0" style="stop-color:#B8A093"/>
		<stop  offset="1" style="stop-color:#7E574C"/>
	</linearGradient>
	<path class="st6" d="M243.4,157.6c0-0.8,1.3-1.5,1.5-2.3s-0.6-2.7,0-3.2c0.6-0.5,1.5-1.4,1.5-1.4s-0.3-2.4,0.9-2.8
		c1.2-0.5,0.9-0.9,1.7-1.5s4.9-5,12-1.9c7.1,3,5.6,12.5,5.6,12.5s5.8-2.9,5.2,6.5c0,0,2.2,1.3,5.2,0.9c1.3,0.1,1.5,1.8,2.6,1.9
		c1,0.1,0.6,2.5,2.2,2.5s0.5,2,2.1,1.5s2.8,1.1,2.8,2.4c0,1.2,0.7,11.6,0.7,11.6s3.4,2.5,1.7,6.9c-0.3,1.3,1.5,5.3,1.6,7.7
		s0,10.4,0,10.4s3.6-0.2-0.5,4.6l-0.2,16.7h-2.2v-20.2c0,0,0.3,3-3.1,3.9v4.4l-1.8-0.1v-3.8c0,0-1.8,0.7-3.2,0.5
		c0,0,1.7,1.4,0.9,1.6s-3.9-2.8-4.4-1.7c-0.5,1.1-0.2,4,0.8,4.3c1,0.3,3,1.1,1.7,3c-1.3,1.9-1.1,6.3-1.1,6.3l0.9,6.7l-1.7,1.3
		l-0.9-10.6l-0.9,2.2c0,0-0.3,9.7,0.4,11c0.7,1.2-0.6,4.1-0.2,5c0.4,0.9,2.3,3.4,2.3,4.3c0,0.9,4.2,3.4,5.2,7.1
		c1,3.8,1.9,10.4,1.7,12.8c-0.1,2.5,1.2,15.3,1.2,15.3h-12.7c0,0-0.3-3.2-1-5.7c-0.7-2.6,0.2-1.9,0.3-6.3c0.1-4.4-1.5-8.7-2.2-10.8
		c-0.6-2.1-0.1-5-1.2-5.3c-1.1-0.3-0.6-0.5-2.4-2.7c-1.7-2.2-3.4-3.2-3.4-4.3s-1-14.3-2.8-15.3c-1.8-1-3,0.7-3.8,0.8
		c-0.8,0.1,1.2,3,1.9,4.7s1.5,12.4,1.5,15.3s-0.5,7.8-0.5,7.8l-1.9-0.3c0,0,1.3-8.5,0.9-11.9s-0.2-8-0.7-9.2s-3.6-5.4-3.6-5.4
		l-1.8-2.8l-0.8,3.2l-1.2-2l0.8-4.1l-1.5-1.8c0,0-10.6,1.6-10.7,2.6c-0.1,0.9,1.2,1.5,1.7,3.9c0.5,2.4,1.2,6.9,1.9,8.3
		c0.7,1.5,0.5,4,0.7,6.3c0.1,2.4,1.3,15.2,0.6,15.8c-0.7,0.6-1.3-0.7-2.1-1.9c-0.8-1.1-2.3-4.8-8.1-4c-1.9,0.3-5.5-2.6-4.6-3.8
		c0.9-1.3,2-5,2.1-8.5c0.1-3.5-3-14.4-5.5-16.7s-1.1-8.6,1.3-9.5c2.4-0.9,15-5,15.2-5.9s3.4-0.9,4-1.6c0.5-0.7,3.3-5.2,3.3-5.2
		s-5.1-2-4.4-10.4c0.7-8.4,0.9-9.3,0.9-9.3s-5.8,1.7-12-1.4c-6.2-3.2-11.2-5.9-11.2-5.9s-5.4-3.7-6.5-3.7s-0.7,7.9-0.7,7.9l0.6,0.3
		l0.1,1.9l-0.7,0.2l-5.8,52.8l3.8-52.8l-0.7-0.3l0.1-1.8l0.7-0.6l0.2-7.7c0,0-2.1,0.9-2.1-0.5c0-1.4,0.5-5.5,0.1-6.2
		c-0.4-0.7-0.5-0.9,0.7-2.8c1.2-1.9-0.5-3.5,2.2-3.3c2.7,0.2,2.1,1,2.6,2.5c1.3,1,3.2,6.3,4.5,6.2c1.3-0.1,13.9,5.6,17.7,5
		c3.8-0.6,9.4-6.4,9.1-7.9c-0.3-1.5,1.7-2.1,1.7-2.6s-5.5,0.2-6-0.9c-0.5-1.1,0.2-3.8,0.2-4.5s0.8-0.7,0.5-1.6s-0.2-1.4-0.2-1.4
		S243.9,158.3,243.4,157.6z"/>
	<linearGradient id="SVGID_3_" gradientUnits="userSpaceOnUse" x1="209.061" y1="213.6194" x2="292.217" y2="213.6194">
		<stop  offset="0" style="stop-color:#969695"/>
		<stop  offset="2.692115e-02" style="stop-color:#8E8E8D"/>
		<stop  offset="0.1223" style="stop-color:#777776"/>
		<stop  offset="0.2251" style="stop-color:#676766"/>
		<stop  offset="0.3395" style="stop-color:#5D5D5C"/>
		<stop  offset="0.4888" style="stop-color:#5A5A59"/>
		<stop  offset="0.7099" style="stop-color:#575756"/>
		<stop  offset="0.8795" style="stop-color:#4D4D4C"/>
		<stop  offset="1" style="stop-color:#414140"/>
	</linearGradient>
	<path class="st7" d="M243.4,157.6c0.1-0.7,0.7-1.1,1.1-1.7c0.2-0.3,0.4-0.6,0.4-0.9c0-0.3-0.1-0.7-0.1-1c-0.1-0.3-0.1-0.7-0.1-1
		c0-0.3,0-0.7,0.3-0.9l1.5-1.4l0,0c-0.1-0.7-0.1-1.4,0.2-2c0.1-0.3,0.3-0.6,0.7-0.8c0.3-0.1,0.6-0.3,0.9-0.5
		c0.2-0.2,0.4-0.6,0.6-0.8l0.8-0.7c0.5-0.4,1.1-0.8,1.7-1.2c1.2-0.7,2.5-1.1,3.9-1.3c1.4-0.1,2.8,0,4.1,0.4c1.3,0.4,2.6,0.9,3.7,1.8
		c1.1,0.9,2,2,2.5,3.2c1.2,2.5,1.4,5.4,1.1,8.1l0,0c0.8-0.4,1.7-0.5,2.6-0.3c0.9,0.2,1.6,0.8,2,1.6c0.4,0.8,0.6,1.7,0.6,2.5
		c0.1,0.9,0,1.8,0,2.6l0,0c1.6,0.8,3.4,1.1,5.2,0.9l0,0c0.6,0,1,0.4,1.3,0.8c0.3,0.4,0.6,0.9,1.2,1c0.3,0,0.5,0.2,0.7,0.4
		c0.1,0.2,0.2,0.5,0.3,0.7c0.2,0.5,0.4,1,0.9,1.2c0.2,0.1,0.5,0.1,0.8,0.1c0.3,0.1,0.5,0.3,0.6,0.5c0.1,0.2,0.1,0.5,0.3,0.7
		c0.1,0.2,0.4,0.3,0.7,0.2c0.5-0.2,1.1-0.2,1.6,0c0.5,0.2,0.9,0.7,1.1,1.1c0.3,0.5,0.3,1,0.3,1.6l0.1,1.6l0.2,3.2l0.4,6.4l0,0
		c1,0.8,1.7,1.9,2.1,3.2c0.1,0.6,0.2,1.3,0.1,1.9c0,0.6-0.2,1.3-0.4,1.9l0,0c-0.1,0.7,0.1,1.5,0.3,2.2l0.6,2.2
		c0.4,1.5,0.8,3,0.7,4.5l0,9.1l-0.1-0.1c0.5,0,1.1,0.1,1.4,0.6c0.3,0.5,0.1,1.1-0.1,1.5c-0.2,0.5-0.5,0.9-0.8,1.3
		c-0.3,0.4-0.6,0.8-1,1.2l0,0l-0.2,16.7l0,0.1l-0.1,0l-2.2,0l-0.1,0v-0.1l0-20.2l0.2,0c0.1,0.9-0.2,1.9-0.8,2.6
		c-0.3,0.3-0.6,0.7-1.1,0.9c-0.4,0.2-0.8,0.4-1.3,0.5l0.1-0.1l0,4.4v0.1l-0.1,0l-1.8-0.1l-0.1,0v-0.1l0-3.8l0.1,0.1
		c-1,0.4-2.1,0.6-3.3,0.5l0.1-0.2c0.4,0.3,0.7,0.6,1,1.1c0.1,0.1,0.1,0.2,0.1,0.4c0,0.2-0.1,0.3-0.3,0.3c-0.3,0.1-0.5-0.1-0.7-0.2
		c-0.9-0.4-1.6-1-2.4-1.4c-0.2-0.1-0.4-0.2-0.6-0.3c-0.2-0.1-0.4-0.1-0.5,0.1c-0.2,0.4-0.3,0.9-0.3,1.3c0,0.9,0.1,1.9,0.6,2.6
		c0.1,0.2,0.3,0.3,0.6,0.3c0.2,0.1,0.5,0.2,0.7,0.3c0.4,0.2,0.9,0.5,1.1,0.9c0.3,0.4,0.3,1,0.1,1.4c-0.2,0.5-0.5,0.8-0.6,1.3
		c-0.7,1.7-0.8,3.7-0.8,5.5l0,0l0.9,6.7l0,0.1l0,0l-1.7,1.3l-0.1,0.1l0-0.2l-0.9-10.6l0.2,0l-0.9,2.2l0,0c-0.1,2.4-0.1,4.9,0,7.3
		c0,0.6,0,1.2,0.1,1.8c0,0.6,0.1,1.2,0.3,1.7c0.3,0.6,0.3,1.2,0.2,1.8c-0.1,0.6-0.2,1.2-0.3,1.8c-0.1,0.6-0.2,1.2,0.1,1.7
		c0.3,0.5,0.6,1,0.9,1.5c0.3,0.5,0.6,1,0.9,1.6c0.1,0.3,0.3,0.6,0.3,0.9c0,0.2,0.3,0.5,0.4,0.7c1.7,1.7,3.6,3.3,4.5,5.7
		c0.8,2.3,1.1,4.7,1.5,7.1c0.3,2.4,0.6,4.8,0.5,7.3c0.2,4.8,0.7,9.7,1.2,14.5l0,0.2l-0.2,0l-12.7,0l-0.1,0l0-0.1
		c-0.2-1.8-0.5-3.6-0.9-5.3c-0.2-0.9-0.5-1.8-0.3-2.7c0.2-0.9,0.4-1.8,0.4-2.6c0.4-3.6-0.5-7.1-1.6-10.6c-0.3-0.9-0.6-1.7-0.7-2.6
		c-0.1-0.9-0.1-1.8-0.2-2.7c-0.1-0.4-0.1-0.9-0.3-1.2c-0.1-0.2-0.2-0.2-0.4-0.3c-0.2-0.1-0.5-0.1-0.7-0.3c-0.4-0.4-0.5-0.8-0.8-1.2
		c-0.2-0.4-0.5-0.7-0.8-1.1c-0.5-0.7-1.1-1.4-1.8-2c-0.6-0.7-1.4-1.2-1.7-2.1c-0.2-1.9-0.3-3.6-0.5-5.4c-0.2-1.8-0.4-3.6-0.7-5.3
		c-0.2-0.9-0.3-1.8-0.6-2.6c-0.1-0.4-0.2-0.9-0.4-1.3c-0.2-0.4-0.4-0.8-0.7-1c-0.8-0.4-1.7-0.3-2.4,0.3l-0.6,0.4
		c-0.1,0.1-0.2,0.1-0.3,0.2c-0.1,0-0.1,0.1-0.2,0.1l-0.1,0c0,0,0,0,0,0c-0.1,0,0,0.2,0,0.4c0.1,0.2,0.2,0.4,0.3,0.6
		c0.4,0.8,0.8,1.6,1.3,2.4c0.2,0.4,0.4,0.8,0.5,1.3c0.1,0.5,0.2,0.9,0.3,1.3c0.5,3.6,0.8,7.2,1,10.8c0.3,3.6,0,7.2-0.4,10.8l0,0.2
		l-0.2,0l-1.9-0.3l-0.2,0l0-0.2c0.4-2.5,0.7-5.1,0.9-7.7c0.1-1.3,0.1-2.6,0-3.8c-0.2-1.3-0.3-2.6-0.3-3.9c-0.1-1.3-0.1-2.6-0.1-3.9
		c0-0.6-0.1-1.3-0.3-1.8c-0.3-0.6-0.6-1.1-1-1.6c-0.7-1.1-1.5-2.1-2.2-3.2c-0.8-1.1-1.4-2.1-2.2-3.2l0.4-0.1l-0.8,3.2l-0.1,0.5
		l-0.2-0.4l-1.2-2l0-0.1l0-0.1l0.8-4.1l0,0.2l-1.5-1.8l0.2,0.1c-2.7,0.4-5.3,0.9-8,1.5c-0.7,0.2-1.3,0.3-1.9,0.6
		c-0.3,0.1-0.7,0.3-0.6,0.4c0,0.3,0.2,0.6,0.3,0.8c0.4,0.5,0.8,1.1,1,1.8c0.3,0.6,0.4,1.3,0.5,2l0.8,4c0.3,1.3,0.5,2.6,1.1,3.9
		c0.5,1.3,0.4,2.7,0.5,4.1c0,1.4,0.1,2.7,0.2,4c0.2,2.7,0.4,5.4,0.5,8.1c0.1,1.4,0.1,2.7,0.1,4.1c0,0.3,0,0.7-0.1,1
		c-0.1,0.2,0,0.3-0.2,0.6c-0.1,0.1-0.4,0.2-0.6,0.2c-0.4-0.2-0.6-0.5-0.8-0.8c-0.2-0.3-0.4-0.6-0.6-0.9c-0.4-0.5-0.7-1.2-1.1-1.7
		c-0.4-0.5-0.8-1.1-1.3-1.5c-1-0.8-2.3-1.3-3.7-1.4c-0.7,0-1.3,0-2,0.1c-0.7,0.1-1.4-0.1-2.1-0.4c-0.6-0.3-1.2-0.7-1.7-1.1
		c-0.5-0.5-1-1-1.2-1.7c-0.1-0.2-0.1-0.4,0-0.6c0.1-0.2,0.2-0.4,0.2-0.5c0.2-0.3,0.3-0.6,0.4-0.9c0.3-0.6,0.5-1.3,0.7-1.9
		c0.4-1.3,0.6-2.6,0.8-4c0.2-1.3,0.1-2.7-0.2-4c-0.2-1.3-0.5-2.6-0.9-4c-0.7-2.6-1.5-5.2-2.7-7.6c-0.1-0.3-0.3-0.6-0.5-0.9
		c-0.2-0.3-0.3-0.6-0.5-0.8c-0.2-0.3-0.4-0.5-0.6-0.8c-0.2-0.3-0.5-0.5-0.6-0.8c-0.4-0.6-0.6-1.3-0.6-2c-0.1-0.7-0.1-1.4,0-2.1
		c0.2-1.4,0.6-2.7,1.4-3.8l0.3-0.4l0.4-0.3c0.3-0.2,0.6-0.3,1-0.4l1.9-0.7c2.6-0.9,5.1-1.8,7.7-2.7c1.3-0.5,2.5-1,3.8-1.5
		c0.3-0.1,0.6-0.3,0.9-0.5c0.1-0.1,0.3-0.2,0.4-0.3c0,0,0,0,0,0l0.1-0.1c0-0.1,0.1-0.2,0.2-0.2c0.6-0.4,1.3-0.5,2-0.7
		c0.3-0.1,0.7-0.1,1-0.2c0.3-0.1,0.6-0.2,0.8-0.4l1.1-1.7l2.2-3.4l0.1,0.2c-1.7-0.8-2.9-2.3-3.6-3.9c-0.7-1.7-1-3.5-1-5.3
		c0-1.8,0.3-3.6,0.4-5.3c0.2-1.8,0.3-3.5,0.6-5.3l0.1,0.1c-2,0.5-4.2,0.6-6.3,0.3c-2.1-0.3-4.1-0.9-6-1.9l-11.1-5.8l0,0l0,0
		c-1.1-0.7-2.2-1.4-3.3-2.1c-0.6-0.3-1.1-0.7-1.7-1c-0.3-0.1-0.6-0.3-0.9-0.4c-0.3-0.1-0.6-0.3-0.8,0c-0.3,0.5-0.4,1.2-0.4,1.8
		c-0.1,0.6-0.1,1.3-0.1,2c0,1.3,0,2.6,0.1,3.9l-0.1-0.1l0.6,0.3l0,0l0,0.1l0.1,1.9l0,0.1l-0.1,0l-0.7,0.2l0.1-0.1l-5.9,52.8l-0.1,0
		l3.9-52.8l0,0l-0.7-0.3l0,0l0,0l0.1-1.8l0,0l0,0l0.7-0.6l0,0l0.2-7.7l0.1,0c-0.4,0.2-0.8,0.3-1.3,0.3c-0.2,0-0.5,0-0.6-0.2
		c-0.2-0.1-0.3-0.4-0.3-0.6c0-0.9,0.1-1.7,0.1-2.6c0-0.9,0.1-1.7,0.1-2.6c0-0.4,0-0.9-0.3-1.2c-0.1-0.2-0.2-0.4-0.2-0.6
		c0-0.2,0.1-0.4,0.2-0.6c0.3-0.8,1-1.5,1.1-2.3c0.1-0.4,0.1-0.8,0.1-1.3c0-0.2,0-0.4,0.1-0.6c0.1-0.2,0.3-0.3,0.5-0.4
		c0.4-0.1,0.9-0.1,1.3,0c0.4,0,0.9,0.1,1.3,0.3c0.4,0.1,0.7,0.5,0.8,1c0.1,0.4,0.2,0.8,0.3,1.2l0,0c1.6,1.7,2.2,4.1,3.8,5.8
		c0.4,0.5,1.1,0.3,1.6,0.6c0.6,0.2,1.1,0.4,1.7,0.6l3.3,1.2c2.2,0.8,4.4,1.6,6.6,2.2c1.1,0.3,2.3,0.6,3.4,0.8
		c0.6,0.1,1.2,0.1,1.7,0.1c0.3,0,0.6-0.1,0.8-0.2c0.3-0.1,0.5-0.2,0.8-0.3c2.1-1,4-2.5,5.6-4.2c0.8-0.9,1.6-1.7,2-2.9
		c0.1-0.3,0-0.6,0-0.9c0.1-0.3,0.2-0.6,0.4-0.8c0.4-0.5,0.9-0.7,1.3-1.2c0.1-0.2-0.1-0.2-0.2-0.2c-0.1,0-0.3,0-0.4,0l-0.9,0l-1.7,0
		c-0.6,0-1.2-0.1-1.7-0.2c-0.3-0.1-0.6-0.1-0.8-0.3c-0.2-0.2-0.2-0.5-0.3-0.8c-0.1-1.2,0.2-2.3,0.3-3.5c0.1-0.3,0-0.6,0.2-0.8
		c0.2-0.2,0.4-0.4,0.4-0.8c-0.1-0.6-0.3-1.1-0.2-1.7l0,0C244,158.4,243.6,158,243.4,157.6z M243.4,157.6c0.3,0.4,0.6,0.8,1,1.1l0,0
		c-0.1,0.6,0.1,1.2,0.2,1.7c0,0.3-0.2,0.5-0.4,0.8c-0.2,0.2-0.1,0.6-0.2,0.8c-0.1,1.2-0.4,2.3-0.3,3.5c0,0.3,0.1,0.6,0.3,0.8
		c0.2,0.2,0.5,0.3,0.8,0.3c0.6,0.1,1.2,0.1,1.7,0.2l1.7,0l0.9,0c0.1,0,0.3,0,0.4,0c0.1,0,0.1,0,0.2,0.1c0.1,0,0.1,0.1,0,0.2
		c-0.4,0.4-0.9,0.7-1.3,1.2c-0.2,0.2-0.3,0.5-0.4,0.8c-0.1,0.3,0,0.6,0,0.9c-0.4,1.1-1.2,2-2,2.9c-1.6,1.7-3.4,3.2-5.6,4.2
		c-0.3,0.1-0.5,0.2-0.8,0.3c-0.3,0.1-0.6,0.2-0.9,0.2c-0.6,0.1-1.2,0-1.7-0.1c-1.2-0.2-2.3-0.5-3.4-0.8c-2.2-0.6-4.4-1.4-6.6-2.2
		l-3.3-1.2c-0.5-0.2-1.1-0.4-1.7-0.6c-0.3-0.1-0.6-0.2-0.8-0.2c-0.3,0-0.6-0.2-0.8-0.4c-1.6-1.8-2.2-4.1-3.8-5.8l0,0l0,0
		c-0.2-0.4-0.2-0.8-0.3-1.3c-0.1-0.4-0.4-0.8-0.8-0.9c-0.4-0.2-0.8-0.2-1.3-0.3c-0.4,0-0.9-0.1-1.3,0c-0.2,0.1-0.4,0.2-0.5,0.4
		c-0.1,0.2-0.1,0.4-0.1,0.6c0,0.4,0,0.9-0.1,1.3c-0.1,0.4-0.3,0.8-0.5,1.2c-0.2,0.4-0.4,0.7-0.6,1.1c-0.6,0.8,0.4,1.6,0.2,2.5
		c0,0.9,0,1.7-0.1,2.6c0,0.9-0.1,1.7-0.1,2.6c0,0.2,0.1,0.4,0.2,0.5c0.2,0.1,0.4,0.2,0.6,0.2c0.4,0,0.8-0.1,1.2-0.3l0.1,0l0,0.1
		l-0.2,7.7l0,0l0,0l-0.7,0.6l0,0l0,1.8l0,0l0.7,0.3l0,0l0,0l-3.8,52.8l-0.1,0L215,187l0-0.1l0.1,0l0.7-0.2l-0.1,0.1l-0.1-1.9
		l0.1,0.1l-0.6-0.3l0,0l0-0.1c-0.1-1.3-0.1-2.6-0.1-3.9c0-0.7,0-1.3,0.1-2c0.1-0.7,0.1-1.3,0.5-1.9c0.1-0.1,0.1-0.2,0.2-0.2
		c0.1,0,0.2,0,0.3,0c0.2,0,0.3,0.1,0.5,0.2c0.3,0.1,0.6,0.3,0.9,0.4c0.6,0.3,1.1,0.6,1.7,1c1.1,0.7,2.2,1.4,3.3,2.1l0,0l11.1,5.8
		c1.8,1,3.8,1.6,5.9,1.8c2,0.2,4.2,0.2,6.2-0.3l0.2,0l0,0.2c-0.3,1.7-0.4,3.5-0.6,5.3c-0.1,1.8-0.4,3.6-0.4,5.3c0,1.8,0.2,3.5,1,5.2
		c0.7,1.6,1.9,3,3.5,3.8l0.1,0.1l-0.1,0.1l-2.2,3.4l-1.1,1.7c-0.3,0.3-0.6,0.4-0.9,0.5c-0.3,0.1-0.7,0.2-1,0.2
		c-0.6,0.2-1.4,0.3-1.9,0.6c0,0.1-0.1,0.1-0.1,0.2l0,0.1c0,0.1-0.1,0.1-0.1,0.2c-0.1,0.1-0.3,0.2-0.4,0.3c-0.3,0.2-0.6,0.3-0.9,0.5
		c-1.2,0.6-2.5,1-3.8,1.5c-2.5,0.9-5.1,1.8-7.7,2.7l-1.9,0.7c-0.7,0.2-1.2,0.5-1.6,1.1c-0.8,1.1-1.2,2.4-1.4,3.7
		c-0.1,0.7-0.1,1.3,0,2c0.1,0.7,0.3,1.3,0.6,1.9c0.1,0.3,0.4,0.5,0.6,0.8c0.2,0.3,0.5,0.5,0.7,0.8c0.2,0.3,0.4,0.6,0.5,0.9
		c0.2,0.3,0.3,0.6,0.5,0.9c1.2,2.5,2,5.1,2.7,7.7c0.3,1.3,0.7,2.6,0.9,4c0.2,1.3,0.3,2.7,0.2,4.1c-0.1,1.4-0.4,2.7-0.8,4
		c-0.2,0.7-0.4,1.3-0.7,1.9c-0.1,0.3-0.3,0.6-0.5,0.9c-0.1,0.2-0.2,0.3-0.2,0.4c0,0.1,0,0.3,0,0.4c0.2,0.6,0.7,1.1,1.1,1.5
		c0.5,0.4,1.1,0.8,1.7,1.1c0.6,0.3,1.2,0.4,1.9,0.3c0.7-0.1,1.4-0.1,2.1-0.1c1.4,0.1,2.8,0.5,3.8,1.4c0.5,0.4,1,1,1.4,1.5
		c0.4,0.6,0.7,1.1,1.1,1.7c0.2,0.3,0.4,0.6,0.6,0.8c0.2,0.3,0.4,0.5,0.6,0.6c0.1,0,0.2,0,0.3-0.1c0,0,0.1-0.2,0.1-0.4
		c0-0.3,0.1-0.7,0.1-1c0-1.3,0-2.7-0.1-4.1c-0.1-2.7-0.3-5.4-0.6-8.1c-0.1-1.3-0.2-2.7-0.2-4.1c0-1.3,0-2.7-0.4-4
		c-0.6-1.2-0.9-2.6-1.2-3.9l-0.8-4c-0.1-0.7-0.3-1.3-0.5-1.9c-0.2-0.6-0.6-1.2-1-1.7c-0.2-0.3-0.4-0.6-0.4-1c0-0.1,0-0.1,0-0.2
		c0-0.1,0.1-0.2,0.1-0.2c0.1-0.1,0.2-0.1,0.2-0.2c0.2-0.1,0.3-0.2,0.5-0.2c0.7-0.2,1.3-0.4,2-0.6c2.7-0.6,5.3-1.1,8-1.5l0.1,0
		l0.1,0.1l1.5,1.8l0.1,0.1l0,0.1l-0.8,4.1l0-0.1l1.2,2l-0.4,0.1l0.8-3.2l0.1-0.4l0.3,0.4c0.7,1.1,1.4,2.2,2.1,3.2
		c0.8,1,1.5,2.1,2.2,3.2c0.4,0.5,0.7,1.1,1,1.7c0.3,0.7,0.3,1.3,0.3,2c0.1,1.3,0.1,2.6,0.1,3.9c0,1.3,0.1,2.6,0.3,3.8
		c0.1,1.3,0.1,2.6,0,3.9c-0.2,2.6-0.5,5.1-0.9,7.7l-0.2-0.2l1.9,0.3l-0.2,0.2c0.3-3.6,0.6-7.2,0.4-10.8c-0.2-3.6-0.5-7.2-1-10.7
		c-0.1-1.8-1.3-3.3-2-4.9c-0.1-0.2-0.2-0.4-0.3-0.6c0-0.1-0.1-0.2-0.1-0.4c0-0.1,0-0.1,0-0.2c0-0.1,0.1-0.2,0.2-0.2
		c0,0,0.1,0,0.1-0.1l0.1,0c0,0,0.1,0,0.1,0c0.1,0,0.2-0.1,0.3-0.1l0.6-0.4c0.4-0.2,0.8-0.5,1.3-0.5c0.5-0.1,1,0,1.4,0.3
		c0.5,0.2,0.7,0.7,0.9,1.1c0.2,0.4,0.3,0.9,0.4,1.3c0.2,0.9,0.4,1.8,0.6,2.7c0.3,1.8,0.5,3.6,0.7,5.4c0.2,1.8,0.3,3.6,0.5,5.3
		c0.3,0.8,1,1.4,1.7,2c0.6,0.6,1.3,1.3,1.8,2c0.3,0.4,0.5,0.7,0.8,1.1c0.3,0.4,0.5,0.8,0.7,1.1c0.1,0.1,0.3,0.2,0.5,0.2
		c0.2,0,0.5,0.2,0.6,0.4c0.3,0.4,0.3,0.9,0.4,1.4c0.1,0.9,0.1,1.8,0.2,2.7c0.1,0.9,0.4,1.7,0.7,2.6c1.1,3.4,1.9,7,1.6,10.7
		c-0.1,0.9-0.3,1.8-0.4,2.7c-0.2,0.9,0.1,1.7,0.3,2.6c0.4,1.8,0.7,3.5,0.9,5.3l-0.1-0.1l12.7,0l-0.1,0.2c-0.5-4.8-1-9.7-1.2-14.5
		c0.1-2.4-0.2-4.8-0.5-7.2c-0.4-2.4-0.7-4.8-1.5-7.1c-0.9-2.3-2.8-3.9-4.5-5.6c-0.2-0.2-0.5-0.4-0.5-0.8c0-0.3-0.1-0.5-0.3-0.8
		c-0.3-0.5-0.6-1.1-0.9-1.6c-0.3-0.5-0.6-1-1-1.6c-0.2-0.2-0.3-0.6-0.2-0.9c0-0.3,0.1-0.6,0.1-0.9c0.1-0.6,0.2-1.2,0.3-1.8
		c0.1-0.6,0.1-1.2-0.2-1.7c-0.2-0.6-0.2-1.2-0.3-1.8c0-0.6-0.1-1.2-0.1-1.8c-0.1-2.4,0-4.9,0-7.3l0,0l0,0l0.9-2.2l0.2-0.4l0,0.4
		l0.9,10.6l-0.2-0.1l1.7-1.3l0,0.1l-0.9-6.7l0,0l0,0c0-1.9,0.1-3.8,0.8-5.6c0.2-0.5,0.5-0.8,0.6-1.3c0.2-0.4,0.2-0.9-0.1-1.3
		c-0.2-0.4-0.6-0.6-1.1-0.8c-0.2-0.1-0.4-0.2-0.7-0.2c-0.2,0-0.5-0.2-0.6-0.4c-0.3-0.4-0.4-0.9-0.5-1.3c-0.1-0.5-0.1-0.9-0.1-1.4
		c0-0.5,0-1,0.3-1.4c0.2-0.3,0.5-0.2,0.7-0.2c0.2,0.1,0.5,0.2,0.7,0.3c0.8,0.4,1.6,1,2.4,1.4c0.2,0.1,0.4,0.2,0.6,0.2
		c0.2,0,0.1-0.3,0-0.4c-0.2-0.4-0.6-0.7-0.9-1l-0.2-0.2l0.3,0c1.1,0.1,2.2-0.2,3.2-0.5l0.1,0l0,0.1l0,3.8l-0.1-0.1l1.8,0.1l-0.1,0.1
		l0-4.4l0-0.1l0.1,0c0.4-0.1,0.9-0.3,1.2-0.5c0.4-0.2,0.7-0.5,1-0.8c0.6-0.7,0.8-1.6,0.8-2.5l0.2,0l0,20.2l-0.1-0.1l2.2,0l-0.1,0.1
		l0.2-16.7l0,0l0,0c0.3-0.4,0.7-0.8,1-1.2c0.3-0.4,0.6-0.8,0.8-1.3c0.2-0.4,0.4-1,0.1-1.4c-0.2-0.4-0.8-0.6-1.3-0.6l-0.1,0v-0.1
		l0-9.1c0.1-1.5-0.3-3-0.7-4.5l-0.6-2.2c-0.2-0.7-0.4-1.5-0.3-2.3l0,0c0.2-0.6,0.4-1.2,0.4-1.8c0.1-0.6,0-1.3-0.1-1.9
		c-0.3-1.2-1-2.3-2-3.1l0,0l0,0l-0.4-6.4l-0.2-3.2l-0.1-1.6c0-0.5-0.1-1.1-0.3-1.5c-0.2-0.5-0.6-0.9-1.1-1.1c-0.5-0.3-1-0.2-1.5,0
		c-0.2,0.1-0.6,0.1-0.7-0.2c-0.1-0.2-0.2-0.5-0.3-0.7c-0.1-0.2-0.3-0.4-0.5-0.5c-0.2-0.1-0.5,0-0.8-0.1c-0.5-0.2-0.7-0.8-0.9-1.3
		c-0.1-0.3-0.2-0.5-0.3-0.7c-0.1-0.2-0.3-0.4-0.6-0.4c-0.6-0.1-0.9-0.7-1.2-1c-0.3-0.4-0.7-0.8-1.3-0.8l0,0
		c-1.8,0.2-3.7-0.1-5.3-0.9l0,0l0,0c0-0.9,0.1-1.8,0-2.6c-0.1-0.9-0.2-1.7-0.6-2.5c-0.4-0.8-1.1-1.4-1.9-1.6c-0.9-0.2-1.8,0-2.6,0.3
		l0,0l0,0c0.3-2.7,0.1-5.6-1.1-8.1c-0.6-1.2-1.5-2.4-2.5-3.2c-1.1-0.9-2.4-1.4-3.7-1.8c-1.3-0.4-2.7-0.5-4.1-0.4
		c-1.4,0.1-2.7,0.6-3.9,1.3c-0.6,0.3-1.2,0.7-1.7,1.2l-0.8,0.7c-0.3,0.2-0.4,0.6-0.6,0.8c-0.2,0.2-0.6,0.4-0.9,0.5
		c-0.3,0.1-0.5,0.4-0.7,0.8c-0.2,0.6-0.2,1.4-0.2,2l0,0l-1.5,1.4c-0.3,0.2-0.3,0.6-0.3,0.9c0,0.3,0.1,0.7,0.1,1
		c0.1,0.3,0.1,0.7,0.1,1c0,0.3-0.2,0.7-0.4,0.9C244.1,156.5,243.5,156.9,243.4,157.6z"/>
</g>
<g>
	<g>
		<g>
			<g>
				<g>
					<path class="st5" d="M373.2,305.2c0.4,0.1,0.3-0.4,0.4-0.4C373,304.7,373.2,305.3,373.2,305.2z"/>
					<polygon class="st5" points="366.6,304.9 366.7,304.7 365.7,304.9 					"/>
					<path class="st5" d="M360.5,303.6c0.4,0.9,2.2,0.3,3.2,0.8l0.1,0.2l0.6-0.5C363.2,304,361.4,304,360.5,303.6z"/>
					<path class="st5" d="M357.7,301.3c0.1,0.3-0.7,0.1,0.7,0.2c-0.1,0-0.1-0.1-0.1-0.1C358.1,301.4,358,301.4,357.7,301.3z"/>
					<path class="st5" d="M358.3,301.4C358.9,301.6,357.9,301.1,358.3,301.4L358.3,301.4z"/>
					<path class="st5" d="M355.3,301l0.9-0.1c-0.1-0.2-0.9-0.4-0.6-0.5C354.7,300.4,354.9,300.6,355.3,301z"/>
					<path class="st5" d="M354.4,301.4l0.5,0C354.8,301.3,354.7,301.2,354.4,301.4z"/>
					<path class="st5" d="M355.8,301.3l-1,0c0.1,0.1,0.1,0.4,0.4,0C355.2,301.6,355.4,301.4,355.8,301.3z"/>
					<path class="st5" d="M356.3,301.6c0.4,0.3,1,0.5,0.1,0.6C358.1,302.4,357.9,301.8,356.3,301.6z"/>
					<path class="st5" d="M360.1,304.3l0.6,0.4l0.6-0.1C361,304.6,360.1,304.1,360.1,304.3z"/>
					<path class="st5" d="M350.2,299.5c-0.1,0.2,0.2,0.5,0.2,0.7l0.7-0.1C350.7,300,350.2,299.8,350.2,299.5z"/>
					<path class="st5" d="M350.4,300.3l-1,0.1C350.2,300.5,350.4,300.4,350.4,300.3z"/>
					<polygon class="st5" points="354.1,302.2 355.7,301.9 353.8,302.2 					"/>
					<polygon class="st5" points="346.6,298.8 347.2,298.5 346.2,298.9 					"/>
					<path class="st5" d="M344.3,298.4c0.5-0.2-0.4-0.6,0-0.7c-0.6-0.1-1.2,0.1-1.8,0.2C343.1,297.8,343.6,298,344.3,298.4z"/>
					<path class="st5" d="M341.6,298c0.3,0,0.6-0.1,0.9-0.2C342.2,297.9,341.9,297.9,341.6,298z"/>
					<path class="st5" d="M347.8,299.9c-0.1-0.1-0.1-0.4-0.6-0.6l0.3,0.5C347.6,299.9,347.7,299.9,347.8,299.9z"/>
					<path class="st5" d="M347.5,299.9L347.5,299.9c-0.4-0.1-0.7-0.2-0.8-0.2C346.8,299.7,347,299.8,347.5,299.9z"/>
					<path class="st5" d="M347.9,300C347.9,300,347.9,299.9,347.9,300C347.9,300,347.9,300,347.9,300z"/>
					<path class="st5" d="M351.7,301.3c-0.6,0.1-1.8,0.2-0.8,0.8C351.4,301.9,350.8,301.5,351.7,301.3z"/>
					<path class="st5" d="M348.3,300.6l1,0.3c0-0.1-0.1-0.3,0.2-0.4L348.3,300.6z"/>
					<polygon class="st5" points="347.8,300.7 348.3,300.6 347.9,300.5 					"/>
					<path class="st5" d="M343.2,298.8c-0.5,0.1-0.9,0-1.5,0c0.5,0.2,1.1,0.4,1.7,0.5C343.5,299.1,343.8,298.9,343.2,298.8z"/>
					<path class="st5" d="M345.3,299.4C345.3,299.4,345.2,299.4,345.3,299.4C345.2,299.4,345.3,299.4,345.3,299.4z"/>
					<polygon class="st5" points="336.6,297.7 336.7,297.8 336.7,297.7 					"/>
					<path class="st5" d="M343.5,299.4c0.4,0.2,0.7,0.1,0.9,0c-0.3,0-0.7-0.1-1-0.1C343.4,299.3,343.4,299.3,343.5,299.4z"/>
					<path class="st5" d="M340.1,298c0.2,0.1,0.4,0.3,0.7,0.4C340.6,298.2,340.2,297.9,340.1,298z"/>
					<path class="st5" d="M345.1,299.2C345.1,299.2,345.1,299.2,345.1,299.2C345,299.1,345,299.1,345.1,299.2z"/>
					<path class="st5" d="M345.1,299.2c-0.2,0-0.4,0.1-0.6,0.2c0.3,0,0.5,0,0.7,0C345.1,299.3,345.1,299.3,345.1,299.2z"/>
					<path class="st5" d="M334.4,300.3c0.2-0.4,1.4-0.6,2.2,0.1c1-0.1,0.7-1.6,0-2.6c-0.1,0.2-0.1,0.3-1.1,0.4c0.3,0.3,2,1,1.1,1.2
						c-1.3,0-1-0.4-1.6-0.7c0.4,0.6-1.8,0.4-1.7,1.3l1.2,0C334.6,300,334.1,300.1,334.4,300.3z"/>
					<path class="st5" d="M338.5,298.2l0.4,0c-0.4-0.2-0.7-0.4-1.3-0.9c-0.7,0.1-0.9,0.2-1,0.3l2,0.5L338.5,298.2z"/>
					<path class="st5" d="M340.7,298.6c-0.4,0.4-1.4,0.4-0.9,1c1.2,0.2,0.9-0.2,1.6-0.3C339.5,299.1,342,299.2,340.7,298.6
						c0.4,0.1,0.7,0.1,1.1,0.1c-0.3-0.1-0.6-0.3-0.9-0.4c0,0,0,0,0,0l0,0l0,0c0.1,0.1,0.1,0.1,0,0.1c0,0,0,0,0,0
						C340.8,298.5,340.8,298.6,340.7,298.6c-0.5-0.2-0.1-0.1,0.1-0.2c0,0,0,0,0-0.1l0,0l-1.9-0.1
						C339.3,298.4,339.8,298.5,340.7,298.6z"/>
					<path class="st5" d="M349.8,302.9c-0.1-0.1,0-0.1,0-0.1C349.6,302.8,349.5,302.8,349.8,302.9z"/>
					<path class="st5" d="M349,302.4c0.2,0,0.3-0.2,0.7-0.1c0.4,0.2,0,0.2-0.1,0.4c0.3-0.1,1-0.1,0.2-0.5l-0.1,0
						c-0.7-0.3-1.6-1.1-1.4-1.1C348.5,301.6,348.6,301.9,349,302.4z"/>
					<path class="st5" d="M344.8,300.6l-1.6-0.1l0.7,0.6l0-0.2C344.8,301.1,344.6,300.8,344.8,300.6z"/>
					<polygon class="st5" points="336.5,297.4 336.8,297 335.7,297.5 					"/>
					<polygon class="st5" points="334.4,297.1 334.6,296.7 334,296.8 					"/>
					<path class="st5" d="M223.3,260.3l-0.5-0.2C223,260.2,223.2,260.3,223.3,260.3z"/>
					<path class="st5" d="M226.1,262.4l0.2-0.1C226.1,262.3,226,262.3,226.1,262.4z"/>
					<path class="st5" d="M284.3,286.8c-0.5-0.6-1.1-1.4-1.1-0.9l0.1,0.5C283.7,286.5,284,286.6,284.3,286.8z"/>
					<path class="st5" d="M251.2,275.5c0,0.1,0.1,0.1,0.1,0.2c0.2-0.1,0.4-0.1,0.6-0.2C251.7,275.5,251.5,275.5,251.2,275.5z"/>
					<path class="st5" d="M249.8,276.9l-0.6-0.7C249.3,276.4,249.5,276.6,249.8,276.9z"/>
					<path class="st5" d="M208.3,248.6l-0.7,0C208.2,249.2,208.1,248.8,208.3,248.6z"/>
					<path class="st5" d="M313.1,293c-0.6-0.3-1-0.4-1.4-0.5C312.4,292.9,312.9,293.3,313.1,293z"/>
					<path class="st5" d="M227.3,257.1c-0.3-0.1-0.4-0.1-0.5,0C227.1,257.2,227.3,257.2,227.3,257.1z"/>
					<path class="st5" d="M310,292.3c0.1,0.1,0.2,0.1,0.3,0.2c0.4,0,0.9,0,1.4,0.1C311.2,292.3,310.7,292.1,310,292.3z"/>
					<path class="st5" d="M161.2,200c0,0-0.1-0.1-0.1-0.1C161.1,200,161.1,200,161.2,200z"/>
					<path class="st5" d="M146.9,185.7c0.2,0.1,0.5,0.2,0.8,0.3C147.5,185.9,147.3,185.8,146.9,185.7z"/>
					<path class="st5" d="M326.2,295.2C326.6,295.2,326.3,295.1,326.2,295.2L326.2,295.2z"/>
					<path class="st5" d="M327.9,297.4c-0.1,0-0.2,0.1-0.2,0.2C327.8,297.5,327.8,297.5,327.9,297.4z"/>
					<path class="st5" d="M305.3,294.5C305.2,294.5,305.2,294.5,305.3,294.5C305.3,294.6,305.3,294.6,305.3,294.5z"/>
					<path class="st5" d="M326.8,295.5c-0.2-0.1-0.3-0.2-0.5-0.3C326.4,295.3,326.5,295.4,326.8,295.5z"/>
					<path class="st5" d="M326.8,295.3c0.1,0,0.3,0.1,0.4,0.1C327.2,295.3,327.2,295.3,326.8,295.3z"/>
					<path class="st5" d="M325.6,295.1c0.3,0,0.5,0.1,0.7,0.2c-0.1,0-0.1-0.1-0.1-0.1C326.1,295.2,325.9,295.1,325.6,295.1z"/>
					<path class="st5" d="M187.8,224.2c0,0,0-0.1,0-0.1C187.4,223.9,187.5,224.1,187.8,224.2z"/>
					<path class="st5" d="M271.8,287.7C271.8,287.7,271.8,287.7,271.8,287.7C271.8,287.7,271.8,287.6,271.8,287.7L271.8,287.7z"/>
					<path class="st5" d="M270.1,287.4c0.9-0.3,1.2-0.1,1.6,0.2l0-1.5L270.1,287.4z"/>
					<path class="st5" d="M216.6,255.3l0.6,1c-1.5-0.3-2.1-1.1-1.7,0c1-1,3.6,2.7,4.6,1.6l0.4,0.7c-0.2-0.1-0.2-0.1-0.4-0.2
						c0.7,1.4,1.5-0.2,2.9,1.1c0.5,0.5,0.7,0.9,0.2,0.8l1.4,0.6c0.3,0.3,0.1,0.4-0.2,0.1l1.9,1.2l0,0c0.4,0,1.2,0.1,1.5,0.2
						c0.3,0.5-0.3,0-0.3,0.2l1.2,0.4c0.2,0.6-0.9,0.3-1.5-0.2c0.1,1.9,1,0.3,2.6,2.4l-1.1-0.5c0.1,1.1,1.1,1.4,1.8,2.6
						c-0.1-0.4-1.4-2.6-0.1-2.1c0.2,0.3,0.6,0.6,1.4,0.8c-0.3,0.4,0.4,0.7,1.1,1.2l-0.4,0.5c0.9,0.4,1,0,1.7,0.1
						c0.8,0.6,0.7,1.2,0.7,1.7c1.4,1-0.5-1.4,1.2-0.4c1,1,2,1.3,3.7,1.8c0.7,0.7-0.4,0.3-0.2,0.6l1,0c0.2,0.1,0,0.2,0,0.3
						c0.7,0.2,0.4-0.6,1.5-0.1c0.7-0.5,1.4,2.2,3.1,2.2c0.2,0.3-0.4,0.3-0.4,0.6c2,0.5,1.7,0.5,3.4,0.6l1,1.1c-0.6-1,0.8-0.8,2-0.7
						c-0.2-0.4-0.3-0.7-0.5-0.9l1.7,0.5c0.1,0.2-0.1,0.3-0.5,0.4c0.1,0,0.3,0,0.4,0c0.4,0.5,0,0.7-0.6,0.8c-0.1-0.2-0.2-0.5-0.4-0.7
						c-0.6,0.2-1.2,0.4-1.3,0.8c0.1,0,0.4,0,0.6,0.1c-0.2,0-0.3,0.1-0.3,0.2c0,0.1,0.3,0,0.6,0l0,0.9l0.2-0.2l1.8,1.6
						c1.8,0.1,3.7-0.2,6.2,0.7c-0.8,0.2-0.5,0.8-0.9,1.3c-0.3-1-2-0.7-3.1-1.5c0.6,0.4,0.3,0.6,0.1,0.6l2.5,0.6
						c-0.3,0.5,0.3,0.6,0.8,1.1c0-1.2,2,0.2,3,0.3c-0.1,0.4-0.5,0.6-1.5,0c0.9,1.3,2.1-0.4,3,0.8c-0.3-0.1-0.4-0.2-0.6-0.1
						c0.8,0,2.2,0.9,1.7,1.1l-0.3-0.1c0.9,0.5,2.3,1.1,3.5,1.5c1.3,0.4,2.4,0.6,2.7,0.2c0,0.1-0.7,0.9-0.9,1.1c1.5-0.5,3-1,4.4-1.6
						c-0.6,0.6-0.1,2.8-1.8,2.7c0.4,0.3,0.9,0.6,2,0.7c-0.3-0.2-0.4-1.4,0.1-1.3c0.8,1.3,0.6,0.7,1.8,2c-0.4-0.3,0.5-1.3,1.2-1
						c-0.2,0.1-0.3,1.2-0.7,1.2l2.2-0.5c-0.5,0.1-0.4,1-0.1,1.4c-0.1-0.3,1.6,0.6,2.1,0.6l-0.7-0.5c2,0.8,2.5-1,4.6-0.3
						c-0.3,0.2-1.1,1.3-0.1,1.8c0.7-0.5,2.9-2.3,4.8-2.3l0.3,0.4l1.5,0c-0.5,0.3-1.5,0.8-2.6,1.3c-1.1,0.4-2.2,0.8-3,1
						c0.7,0.5,0.1,0.5,1.3,0.8c0.3,0.4-0.8,0.3-1.1,0.2c0.9,0.3,1.8,0.7,2.7,1c0.1-0.7,2.3-0.2,2.3-0.8l-3.2,0
						c0.1-0.7,2.2-1.6,4.1-0.9c0.4,0.4-0.7,1.2-0.7,1.4c0.3-0.2,2,0,2.1,0.2l-0.9,0.2c1,0.5,2-0.5,3.1,0.5c0.4,0.2,1.1,1.2,1.3,0.8
						c-0.6-1-0.1-3.5,0.5-4c0.1,0.1,2.2,1.3,2.6,1.8c0.6,0.8-1.4,1.3-0.9,2c0.1-0.2,0.5-0.3,0.7-0.4c0.4,0.3-0.3,0.6,0.7,0.7
						c0.3-0.7,2.1,0.5,0.6-0.5c1,0,1,0.4,2.2,0.5c-0.3-0.5,1.4-1.4,2.4-1.4c-0.1,0.2,0.1,0.5,0.2,0.6c2,0.4,3.1,0.9,5,1.2
						c0.2,0.2,1.1,0.5,0.6,0.8c0.3-0.1,0.6-0.3,1.2-0.3c1.1,0.8-1.4-0.1-0.6,0.8c0.1-0.2,0.5-0.3,1-0.4c0.5-0.1,1.1-0.1,1.5-0.2
						c0-0.4-0.5-0.4-1.1-0.4c-0.6,0-1.2,0.1-1.7,0.2c0.1-0.5,0.5-0.9,1.2-1.2c0.3-0.2,0.7-0.3,1.2-0.4c0.2-0.1,0.5-0.1,0.8-0.1
						c0.3,0,0.5,0,0.8,0c1.6,0.1,0.6,0.7,0.9,0.6c2.9,0.8,2.9-1,5.2,0.1c0.9,0.8-0.2,1.1-0.1,1.6c-1.3,0-1.9-0.8-2.8-0.9l1,0.5
						c-0.4,0.1-1.3,0.1-1.8-0.2c0.7,0.7,5,1.1,7.2,2.1c0.4-0.1,1.2-0.2,0.9-0.5l-0.7-0.1c-0.6-0.6,1.5-0.4,0.6-0.8
						c1-0.1,2.2-0.4,3.5,0.1l0.1,0.7c0-0.2-0.8-0.6-1.2-0.5c0.6-0.2,1.9,1.3,2.7,0.6l-0.9-0.6c1-0.1,2.4-0.6,3.6-0.1
						c-0.4-0.8-0.3,0-1-0.9c0.6,1.1-3.1-0.7-2.1,0.6c-0.7-1.1-1.5-0.7-2.5-1.7c0,0.2,0.3,0.5-0.7,0.2c-0.1,0.1-0.2,0.1-0.3,0.1
						c0,0,0,0-0.1,0l0.1,0c-0.1,0-0.1,0,0,0c0.2,0.1,0.4,0.3,0.5,0.4c-0.6,0.4-2.2,0-2.8,0.2c-0.6-0.2,0.3-0.2,0-0.5l-0.9,0.2
						c0-0.5-1.4-1.1,0-1.1l-1.3-0.3c-0.7-0.4-1.7-0.7-2.4-0.7c-0.6-0.2-1.6,0.2-1-0.1l-2.1-0.1l0-0.1c-0.5-0.1-1-0.2-1.5-0.2
						c-0.3,0-0.5,0-0.8-0.1c-0.2,0-0.4,0-0.6,0l-0.4,0c-1,0-2.1-0.2-3.2-0.8c-0.7,0-1.4,0.1-2.5-0.2l-0.2-0.5
						c-0.9,0-2.5-0.8-2.9-0.5c-0.7-1.3-4.1-1-5.5-1.5l-0.2,0.5c-1-0.3-2-0.3-3.3-0.4l0,0.5c-1.2,0.1-2.7-1-4.5-1.4
						c0.2-0.2,0.6,0,0.9,0.2c-0.9-0.8-2-0.9-3.1-0.9c-1.1-0.1-2.2-0.1-3-0.7c-0.5,0-0.8-0.1-1.1-0.3c0,0,0.1,0,0.1,0
						c0,0-0.1,0-0.2-0.1c-0.2-0.1-0.4-0.3-0.6-0.4c0.2,0.2,0.3,0.3,0.5,0.4c-0.4-0.1-0.9-0.2-1.5-0.3l-0.1-0.6c0,0-0.1,0-0.1,0
						c-0.5-0.3-0.5,0.1-0.3,0.6c-0.3,0-0.6,0-0.8,0.1c-0.2-0.9-1.5-0.2-1.7-1.2c-0.5,0.3-2.7-0.6-3.3,0.2c0-0.1-0.1-0.2,0.2-0.1
						c-0.5-0.3-1.1-0.6-1.7-0.6l0-0.7l-1.6,0.4c-0.6-0.7-0.8-1,0.1-1.2c-2.1,0.1-1.6-0.3-3.4-0.2l0.2-0.4c-0.5-0.2-1.6,0-1.8-0.5
						c-0.9-1.2-5.9-2.8-8.6-5c0,1.4-1.1-1.2-1.7-0.4c0-0.4-0.4-0.7,0.2-0.7c-1.7-0.5-2.1-1.6-3.5-1.5c0-0.4,0.5-0.2,0.5-0.4
						c-0.2,0-0.6,0-0.7-0.3c-0.1-0.2,0.3-0.1,0.6-0.1c-1.6-0.8-2.2-0.1-2.7,0.6c-0.6-0.8-1-1-1.9-0.8c-0.1-0.4-0.4-0.9,0.6-0.5
						c-0.5-0.3-3.1-2.3-3.5-1.7c-0.1-0.2-0.7-0.5-0.9-0.5c-1.2-0.7-1.2-0.9-2.5-1.5l0.3,0.3c-0.9,0.4-1.1-0.4-2.1-0.9l0.1-0.1
						c-1.8-1.8-1.1-0.3-2.8-2.3l-0.2,0.5c-0.8,0.8-1.5-1.7-3-2.2l0.3,0.5c-0.9-0.1-1-2.5-1.6-3.1c-0.1-0.2,0.3,0,0.6,0.1
						c-1.4-1.7-0.6,0.4-2-0.3c0-0.5,0.8-0.6,0-1.2c-0.3-0.5-3.2-0.7-3.9-2.1c0.1,0.4,0.2,0.8-0.5,0.6c-1-0.6-1.8-2.6-3.1-2.5
						c-0.1-0.1-0.1-0.2,0-0.3c-0.8-0.3-2.4-1.3-3.1-1.3c0.2-1-0.9-1.6-2-2.1c-1.1-0.6-2.1-1.1-1.6-1.7l-2.1-1.6l0.2-0.1
						c-1.2-1.1-1.9-1.2-2.6-1.3c-0.2-0.3,0.1-0.3,0.2-0.3c-1.6-1.8-1.8-1.9-3.9-2.7l0.2-0.5c-0.3-0.1-0.8-0.8-1.5-1.7
						c-0.7-0.9-1.5-1.9-2.6-2.5c0.1,0,0.2-0.1,0.4,0c-2.3-1.4-3.3-5.6-5.4-5l-1.5-1c1.4,1.8-0.9,0.3-0.5,1.2
						c-0.7-0.6-1.1-2.1-0.3-1.4l0,0.2c1-0.4-1.6-2.4-1.1-2.8c-3-3.3-5.5-7-8.4-10.2l-0.3,0.9l-1-1.1c-0.1-0.4,0.1-0.8,0.8,0
						c0-0.7-1.5-1.1-1.6-1c-1.2-1.8,1.2,0,0.8-0.5l-0.6-0.6l0.1,0.2c-0.7-0.3-1-0.1-1.8-1.1c-0.4-0.7,0.1-0.6-0.1-0.9
						c0,0,0-0.1-0.3-0.4l-1.2-1.4l0.1,1c-0.8-0.4-1.2-1.3-1.1-0.2c0-1.7-4.5-5.3-4.8-6.1c-1.2-0.5-2-1.3-2.9-2.4
						c0.2,0.3-0.2,1-1,0.1c1.3-0.7-1.2-2-1.2-3.5c0.2,1.1-2.7-2.3-2.3-0.6c-0.7-0.8,0.3-0.4,0-1.2c-1.1-0.6-2-1.6-3-2.6
						c-0.5-0.5-1-1.1-1.5-1.6c-0.5-0.5-1.1-1-1.7-1.5c-0.2,0.1,0,0.7-0.6,0.5l-0.6-1.8c-0.5-0.3-1.1,0.5-1.6-0.7
						c0,0.2,0.1,0.5-0.3,0.4c-1.1-1.1-2.2-2-3.4-2.9c-1.2-0.9-2.6-1.6-3.9-2.5c-1.3-0.8-2.7-1.5-4-2.4c-0.7-0.4-1.3-0.9-1.9-1.3
						c-0.7-0.4-1.3-0.9-1.9-1.4c0.6,0.7,0.1,0.5-0.5,0.2c0.3,0.3-0.2,0.4-0.2,0.7c-0.7-0.6-1.3-1.2-2.1-1.7
						c-0.7,0.5-2.7-0.9-3.1-0.3l0.8,0.1c-1.3,0.4,0.8,2.2,0.3,3.1c0.7-0.2,1.3,0.3,2,0.9c0.7,0.6,1.4,1.2,2.5,1
						c0.3,0.4-0.5,0.2-0.4,0.5c0.6-0.2,1.2-0.1,2,0.6l-0.2,0c1.3,0.7,2.2,1.3,3.1,1.9c0.9,0.7,1.7,1.5,3.1,2.5l0.1-0.6
						c0.6,0.5,0.6,0.7,0.8,1c1.1-0.2-1.7-1.2-0.6-1.5c0.3,1.3,4.2,3,4,4.3c0.9,0.7,0.1-0.7,1,0l0,0.4l0.5-0.2
						c0.5,0.5,0.6,1.1,0.4,1.3c-0.1-0.1-0.4-0.3-0.6-0.4c0.5,0.9,2.2,1.6,2.3,1.9l-0.7-0.8c1.3,0.9,2.6,1.9,3.8,3.1
						c1.3,1.1,2.6,2.2,3.9,3l0-0.3c2,1.2,1.1,1.4,3.1,3l-0.1,0c0.5,0.2,1.1,0.6,1.6,1.1c-0.6-0.2,0.5,1.2-0.4,0.9
						c2.1,1.4,1.1,0.6,2.9,1.1l0,0.5c0.7,0.1,0.8,0,1.8,0.9c-1-0.5,0.1,1-1,0.5c1.2,2.5,3.4,2.2,3.2,4c1.6,0.1-1.1-2.1-0.5-1.7
						c-0.1-0.7,1.3,0.1,1.8,0.8c0.6,0.6-0.1,2,1.4,3.6c-0.1-0.2-0.2-0.1-0.4-0.3c0.3,0.8,1.3,0.9,1.7,1.9c0.9,0,0.8,1,1.6,0.5
						l-1.5-1.3c0.9,0.7,2.3,0.8,3.2,2.4c-0.2,0-0.8-0.2-1.1-0.4c0.2,0.6,0.8,0.6,1,1.2c-0.7,0.5-1.7-1.6-3-2.1
						c0.1,0.7,2,1.2,0.9,1.4c1.4-0.2,1.3,1.6,2.9,2.1l-0.4,0.3c0.2,0.1,0.7,0.3,1,0.6l-1-0.1c1.2,0.5,1.1,2,2.1,2.6
						c-1.6-1.7,0.1-0.8-0.3-1.8c2.4,1.7,0.1,2.1,2.4,4.4c-0.3-0.3-0.9-1.4-0.2-1.1c0.3,0.5,0.7,1.3,0.8,1.7c1.5,1.5,0.2-0.6,1-0.1
						c0,1,0.9,0.6,1.7,1.2l-0.4,0.4c1.4,2.1,1.2-0.2,2.4,1.7l-1.2-0.2l0.9,0.7l-0.6,0.2c1.2,0.6,1.3,1,2,2c0.1-0.5,0.8-0.5,1.6,0.3
						c0.3,0.8-0.7,0,0.5,1.1c-0.5,0-1,0-1.1-0.9c-0.2,0.1-0.5,0-0.6,0c0.3,0.8,1.3,1.5,1.7,2c-0.1-0.2-0.3-0.4-0.3-0.5l2.1,1.1
						c0.1,0.4-0.2,0.3-0.5,0.2c0.4,0.3,0.8,0.4,1.3,0.8c-0.4,0.2-0.7,0.5-1.5,0c0.6,0.4,1.2,0.8,1.9,1.2c0,0.2,0.4,1.1,0.1,1.1
						c0.7,1,2.7,1.5,3.6,2.8c0.1,0,0.3,0,0.6,0.2c1,1.1,1.7,2.4,3.4,3.1l0.3,1.2c1.2,0.8-0.4-1.6,1.5-0.3c1.4,0.9,0,0.9,0.3,1.4
						c0.9,0.2,2.5,0.5,3.2,1.9C217.3,255.9,217,255.6,216.6,255.3z M230.4,265.2c-0.3-0.1-1.1-0.2-1.1-0.6
						C230,264.3,230.1,264.7,230.4,265.2z M252.9,277.5c-0.3,0-0.6-0.2-0.9-0.6C252.3,277,252.6,277.2,252.9,277.5z M321.3,294.6
						C321.3,294.6,321.3,294.6,321.3,294.6C320.6,294.3,320.9,294.4,321.3,294.6z M322.8,295.1c0.2,0,0.2-0.1,0.1-0.2
						c-0.1,0.1-0.5,0-0.8-0.1C322.1,295,322.3,295.2,322.8,295.1z M187.3,218.4l0.1,0.3C186.8,218.3,187,218.3,187.3,218.4z"/>
					<path class="st5" d="M250,276.8c0-0.1,0-0.2,0-0.3C249.9,276.5,249.8,276.5,250,276.8z"/>
					<path class="st5" d="M208.4,248.6L208.4,248.6c-0.1,0-0.1,0-0.1,0L208.4,248.6z"/>
					<path class="st5" d="M299,295.4c-0.3-0.1-0.4-0.3-0.5-0.4C298.4,295.2,298.5,295.3,299,295.4z"/>
					<path class="st5" d="M330.7,295.9l-1-0.1c0.5,0.1,0.6,0.2,0.8,0.3C330.6,296,330.4,295.8,330.7,295.9z"/>
					<path class="st5" d="M338.3,300.7c0.2,0,0.3,0.1,0.4,0l0-0.2C338.1,300.4,337.7,300.5,338.3,300.7z"/>
					<path class="st5" d="M331.3,297.8c0,0.4,0.6,0.4,1.3,0.5c0,0-0.1,0-0.1,0C332.7,297.6,332,297.7,331.3,297.8z"/>
					<path class="st5" d="M332.7,298.2c0.2,0,0.4,0.1,0.6,0.1C333.4,298.1,333.1,298.3,332.7,298.2z"/>
					<path class="st5" d="M324.7,295.2c0.3,0.2,0.3-0.5,0.5-0.3C325.6,294.5,322.9,295.2,324.7,295.2z"/>
					<polygon class="st5" points="331.5,299.3 331.4,298.7 330.9,299.1 					"/>
					<path class="st5" d="M326.4,297.8l1,0.4c0-0.1,0.1-0.1,0.3-0.1C327.1,297.9,326.4,297.7,326.4,297.8z"/>
					<path class="st5" d="M327.7,298.1c0.3,0.1,0.7,0.1,0.9,0.1C328.4,298.1,328,298.1,327.7,298.1z"/>
					<polygon class="st5" points="330,299.1 329.7,299 329,298.8 					"/>
					<path class="st5" d="M315,295.4c-0.4,0-0.8-0.1-1.2-0.1c-0.1,0.2,0.2,0.3,0.6,0.3C314.7,295.6,315.2,295.6,315,295.4z"/>
					<path class="st5" d="M318.2,297.6c-0.3-0.2-0.3-0.3-0.4-0.5l-0.2,0.7L318.2,297.6z"/>
					<path class="st5" d="M314.8,297c-0.2,0.2-1.8,0.2-0.3,0.4C314.7,297.3,315.9,297.4,314.8,297z"/>
					<polygon class="st5" points="297.5,293.3 297.8,293.3 298,292.2 					"/>
					<path class="st5" d="M281.6,291.9c1.3,0.7,0.5-0.6,1.6,0.1c0.4-0.2-0.9-0.6-0.5-0.7C281.8,291.3,281.5,291.1,281.6,291.9z"/>
					<path class="st5" d="M282.7,291.3c0.1,0,0.3,0,0.5,0C282.9,291.3,282.8,291.3,282.7,291.3z"/>
					<polygon class="st5" points="143.9,183.9 143,183.4 143.5,183.9 					"/>
					<path class="st5" d="M141.9,184.1l0-0.7l-0.7,0.4C141.4,183.8,141.8,183.9,141.9,184.1z"/>
					<path class="st5" d="M231.7,267.8l0.2-0.1c0-0.2-0.2-0.4-0.5-0.6L231.7,267.8z"/>
					<polygon class="st5" points="221.9,260.2 222.1,260.3 222.2,259.6 					"/>
					<path class="st5" d="M213.3,254.4c0.3,0.3,0.8,0.5,1.1,0.8C213.6,254.7,213.7,253.7,213.3,254.4z"/>
				</g>
			</g>
		</g>
	</g>
</g>
</svg>
