<?xml version="1.0" encoding="utf-8"?>
<!-- Generator: Adobe Illustrator 21.0.0, SVG Export Plug-In . SVG Version: 6.00 Build 0)  -->
<svg version="1.1" id="Capa_1" xmlns="http://www.w3.org/2000/svg" xmlns:xlink="http://www.w3.org/1999/xlink" x="0px" y="0px"
	 viewBox="0 0 50 50" style="enable-background:new 0 0 50 50;" xml:space="preserve">
<style type="text/css">
	.st0{fill:#3FEAFF;}
	.st1{fill:#222221;}
	.st2{fill:none;stroke:#222221;stroke-width:0.7792;stroke-miterlimit:10;}
	.st3{fill:#E8AE82;}
	.st4{fill:none;stroke:#222221;stroke-width:0.3911;stroke-miterlimit:10;}
	.st5{fill:none;stroke:#222221;stroke-width:0.3439;stroke-miterlimit:10;}
	.st6{fill:none;stroke:#222221;stroke-width:0.1735;stroke-miterlimit:10;}
	.st7{fill:none;stroke:#222221;stroke-width:6.260735e-02;stroke-miterlimit:10;}
</style>
<circle class="st0" cx="25.7" cy="24.5" r="22.5"/>
<polygon class="st1" points="13,33.9 13.8,35.4 14.7,33.9 "/>
<polygon class="st1" points="16.1,33.1 16.9,34.6 17.8,33 "/>
<polygon class="st1" points="18.9,32.2 19.8,33.6 20.5,32.2 "/>
<polygon class="st1" points="21.6,31.3 22.4,32.6 23.2,31.2 "/>
<polygon class="st1" points="24.1,30 25,31.2 25.9,30 "/>
<polygon class="st1" points="26.6,28.6 27.5,30 28.4,28.6 "/>
<polygon class="st1" points="29.2,27 30,28.4 30.9,27 "/>
<polygon class="st1" points="31.4,25.1 32.3,26.5 33.2,25.1 "/>
<polygon class="st1" points="33.5,23 34.4,24.5 35.2,23 "/>
<polygon class="st1" points="35.2,20.9 36.2,22.3 37,20.9 "/>
<polygon class="st1" points="36.7,19.1 38.5,20.9 40.1,17.1 "/>
<polyline class="st2" points="10.9,12.4 10.9,36.6 41.7,36.6 "/>
<g>
	<circle class="st0" cx="25.9" cy="24.4" r="22.6"/>
	<path class="st5" d="M38.5,33.9H13.9c-1.2,0-2.2-1-2.2-2.2V14.6c0-1.2,1-2.2,2.2-2.2h24.6c1.2,0,2.2,1,2.2,2.2v17.1
		C40.7,32.9,39.7,33.9,38.5,33.9z"/>
	<line class="st5" x1="13.4" y1="16.7" x2="39.3" y2="16.7"/>
	<line class="st5" x1="16.6" y1="14.1" x2="16.6" y2="16.6"/>
	<line class="st6" x1="16.6" y1="17.7" x2="16.6" y2="20.3"/>
	<line class="st6" x1="20.7" y1="17.7" x2="20.7" y2="20.3"/>
	<line class="st6" x1="24.8" y1="17.7" x2="24.8" y2="20.2"/>
	<line class="st6" x1="28.5" y1="17.7" x2="28.5" y2="20.2"/>
	<line class="st6" x1="32.1" y1="17.7" x2="32.1" y2="20.3"/>
	<line class="st6" x1="35.8" y1="17.7" x2="35.8" y2="20.2"/>
	<line class="st5" x1="20.8" y1="14.1" x2="20.8" y2="16.6"/>
	<line class="st5" x1="24.9" y1="14.1" x2="24.9" y2="16.6"/>
	<line class="st5" x1="28.5" y1="14" x2="28.5" y2="16.6"/>
	<line class="st5" x1="32.2" y1="14" x2="32.2" y2="16.6"/>
	<line class="st5" x1="35.8" y1="14.1" x2="35.8" y2="16.6"/>
	<g>
		<path class="st1" d="M20.4,24.8c0.6-0.1,1.2,0.2,1.8,0.4c0.5,0.3,1,0.6,1.5,0.9c0.5,0.4,0.9,0.7,1.4,1.1c0.4,0.4,0.8,0.8,1.2,1.3
			l-1.7,0.2c0.7-1.8,1.5-3.5,2.5-5.1c0.5-0.8,1-1.6,1.7-2.3c0.3-0.4,0.7-0.7,1-1c0.4-0.3,0.8-0.6,1.3-0.7c-0.7,0.7-1,1.5-1.4,2.4
			l-1.1,2.5c-0.4,0.8-0.7,1.7-1.1,2.5c-0.4,0.8-0.8,1.7-1.2,2.5l-0.7,1.5l-0.9-1.3c-0.3-0.4-0.7-0.9-1-1.3c-0.3-0.5-0.7-0.9-1-1.3
			c-0.3-0.4-0.7-0.9-1.1-1.3C21.3,25.4,20.9,25,20.4,24.8z"/>
	</g>
	<path class="st7" d="M39,20.3H13.9c-0.3,0-0.5-0.2-0.5-0.5v-1.7c0-0.3,0.2-0.5,0.5-0.5H39c0.3,0,0.5,0.2,0.5,0.5v1.7
		C39.5,20.1,39.3,20.3,39,20.3z"/>
	<line class="st6" x1="16.6" y1="21" x2="16.6" y2="23.6"/>
	<line class="st6" x1="20.7" y1="21" x2="20.7" y2="23.6"/>
	<line class="st6" x1="24.8" y1="20.9" x2="24.8" y2="23.5"/>
	<line class="st6" x1="28.5" y1="20.9" x2="28.5" y2="23.5"/>
	<line class="st6" x1="32.1" y1="21" x2="32.1" y2="23.6"/>
	<line class="st6" x1="35.8" y1="20.9" x2="35.8" y2="23.5"/>
	<path class="st7" d="M39,23.5H13.9c-0.3,0-0.5-0.2-0.5-0.5v-1.7c0-0.3,0.2-0.5,0.5-0.5H39c0.3,0,0.5,0.2,0.5,0.5v1.7
		C39.5,23.3,39.3,23.5,39,23.5z"/>
	<line class="st6" x1="16.6" y1="24.3" x2="16.6" y2="26.9"/>
	<line class="st6" x1="20.7" y1="24.3" x2="20.7" y2="26.9"/>
	<line class="st6" x1="24.8" y1="24.2" x2="24.8" y2="26.8"/>
	<line class="st6" x1="28.5" y1="24.2" x2="28.5" y2="26.8"/>
	<line class="st6" x1="32.1" y1="24.3" x2="32.1" y2="26.9"/>
	<line class="st6" x1="35.8" y1="24.2" x2="35.8" y2="26.8"/>
	<path class="st7" d="M39,26.9H13.9c-0.3,0-0.5-0.2-0.5-0.5v-1.7c0-0.3,0.2-0.5,0.5-0.5H39c0.3,0,0.5,0.2,0.5,0.5v1.7
		C39.5,26.6,39.3,26.9,39,26.9z"/>
	<line class="st6" x1="16.6" y1="27.6" x2="16.6" y2="30.2"/>
	<line class="st6" x1="20.7" y1="27.6" x2="20.7" y2="30.2"/>
	<line class="st6" x1="24.8" y1="27.6" x2="24.8" y2="30.2"/>
	<line class="st6" x1="28.5" y1="27.6" x2="28.5" y2="30.2"/>
	<line class="st6" x1="32.1" y1="27.6" x2="32.1" y2="30.2"/>
	<line class="st6" x1="35.8" y1="27.6" x2="35.8" y2="30.2"/>
	<path class="st7" d="M39,30.2H13.9c-0.3,0-0.5-0.2-0.5-0.5v-1.7c0-0.3,0.2-0.5,0.5-0.5H39c0.3,0,0.5,0.2,0.5,0.5v1.7
		C39.5,30,39.3,30.2,39,30.2z"/>
</g>
</svg>
