<?xml version="1.0" encoding="utf-8"?>
<!-- Generator: Adobe Illustrator 21.0.0, SVG Export Plug-In . SVG Version: 6.00 Build 0)  -->
<svg version="1.1" id="Capa_1" xmlns="http://www.w3.org/2000/svg" xmlns:xlink="http://www.w3.org/1999/xlink" x="0px" y="0px"
	 viewBox="0 0 50 50" style="enable-background:new 0 0 50 50;" xml:space="preserve">
<style type="text/css">
	.st0{fill:none;}
	.st1{fill:#F8AD3B;}
	.st2{fill:#FFFFFF;}
	.st3{fill:#585857;}
	.st4{fill:#222221;}
	.st5{fill:#3F3F3F;}
	.st6{fill:url(#SVGID_1_);}
	.st7{fill:url(#SVGID_2_);}
	.st8{fill:#FAAF3B;}
	.st9{fill:#989898;}
	.st10{fill:#934A37;}
	.st11{fill:none;stroke:url(#SVGID_3_);stroke-width:1.0187;stroke-miterlimit:10;}
	.st12{fill:url(#SVGID_4_);stroke:url(#SVGID_5_);stroke-width:0.2522;stroke-miterlimit:10;}
	.st13{fill:url(#);stroke:url(#SVGID_6_);stroke-width:0.2522;stroke-miterlimit:10;}
	.st14{fill:none;stroke:#F9AE3B;stroke-width:2.7717;stroke-miterlimit:10;}
	.st15{fill:#0071BA;}
</style>
<g>
	<path class="st15" d="M1,25c2.5,2.1,4.8,4.4,7.1,6.8c2.2,2.4,4.3,4.9,6.1,7.8c0.9,1.5,1.8,2.9,2.3,5.1l0.1,0.4c0,0,0-0.1,0-0.1l0,0
		l0-0.1c0-0.1,0-0.1-0.1-0.2l0-0.1l-0.1-0.2c-0.1-0.1-0.2-0.3-0.3-0.4c-0.1-0.1-0.1-0.1-0.2-0.2c-0.1-0.1-0.2-0.1-0.3-0.2
		c-0.2-0.1-0.5-0.2-0.7-0.2c-0.2,0-0.4-0.1-0.5,0c-0.1,0-0.2,0-0.3,0l-0.2,0c-0.1,0-0.1,0-0.2,0.1c-0.1,0-0.1,0.1-0.2,0.1l-0.1,0
		c0,0-0.1,0.1-0.1,0.1c0,0,0,0,0,0l0.2-0.3c0.4-0.5,0.8-1.1,1.2-1.8l5-8.1C23.2,28.2,27,22.8,31.5,18c2.3-2.4,4.7-4.7,7.4-6.6
		c2.7-1.9,5.8-3.5,9.1-3.9c-2.9,1.6-5.2,3.7-7.3,6c-2.1,2.3-4,4.8-5.8,7.3c-3.7,5.1-7,10.4-10.5,15.8c-1.7,2.7-3.4,5.4-5.4,8.1
		c-0.5,0.7-1,1.4-1.7,2.1c-0.2,0.2-0.4,0.4-0.6,0.6c-0.1,0.1-0.3,0.3-0.4,0.4C16.3,47.9,16.1,48,16,48l-0.2,0.1
		c-0.1,0.1-0.2,0.1-0.3,0.2c-0.1,0-0.2,0.1-0.4,0.1l-0.1,0l-0.2,0c-0.1,0-0.2,0-0.3,0c-0.2,0-0.5,0-0.7,0c-0.3-0.1-0.6-0.2-0.8-0.3
		c-0.1-0.1-0.3-0.2-0.4-0.2c-0.1-0.1-0.2-0.1-0.2-0.2c-0.1-0.1-0.3-0.3-0.4-0.5C12,47.2,11.9,47,11.9,47l-0.1-0.1
		c0-0.1-0.1-0.2-0.1-0.3c0-0.1-0.1-0.2-0.1-0.3l0-0.2l-0.1-0.4l0-0.2c-0.1-0.9-0.6-2.4-1.3-3.8C9,39,7.4,36.2,5.8,33.4
		C4.3,30.7,2.6,27.9,1,25z"/>
</g>
</svg>
