<?xml version="1.0" encoding="utf-8"?>
<!-- Generator: Adobe Illustrator 21.0.0, SVG Export Plug-In . SVG Version: 6.00 Build 0)  -->
<svg version="1.1" id="Capa_1" xmlns="http://www.w3.org/2000/svg" xmlns:xlink="http://www.w3.org/1999/xlink" x="0px" y="0px"
	 viewBox="0 0 200 200" style="enable-background:new 0 0 200 200;" xml:space="preserve">
<style type="text/css">
	.st0{opacity:0.92;fill:url(#SVGID_1_);}
	.st1{fill:#FFFFFF;}
	.st2{fill:#585857;}
	.st3{fill:#222221;}
	.st4{fill:#3F3F3F;}
	.st5{fill:url(#SVGID_2_);}
	.st6{fill:url(#SVGID_3_);}
	.st7{opacity:0.7;fill:none;stroke:#222221;stroke-width:2.8852;stroke-miterlimit:10;}
	.st8{opacity:0.56;fill:#3F71AA;}
	.st9{clip-path:url(#SVGID_5_);}
	.st10{fill:#9E5F5F;}
</style>
<g>
	<circle class="st7" cx="99.5" cy="99.5" r="95.5"/>
	<g>
		<circle class="st8" cx="99.5" cy="99.2" r="92.3"/>
		<g>
			<defs>
				<circle id="SVGID_4_" cx="99.5" cy="99.2" r="92.3"/>
			</defs>
			<clipPath id="SVGID_1_">
				<use xlink:href="#SVGID_4_"  style="overflow:visible;"/>
			</clipPath>
			<g style="clip-path:url(#SVGID_1_);">
				<polygon class="st3" points="-38.1,181.4 26.4,108.7 65.5,181.4 				"/>
				<polygon class="st3" points="13.7,185.9 106.7,56.1 167.5,185.9 				"/>
				<polygon class="st3" points="106.5,183.9 158.5,103.2 226.5,183.9 				"/>
				<polygon class="st3" points="162.7,185.9 205.5,129.2 237.2,185.9 				"/>
				<polygon class="st10" points="0.8,177.2 13.7,166.2 13.7,145 21.8,134.7 23.8,118.7 36.8,147.9 13.7,181.4 				"/>
				<polygon class="st10" points="28.8,175.7 73.9,134.2 106.5,134.2 95.9,86.6 103.4,80.6 106.5,72.6 132.4,132.2 102.9,181.4 				
					"/>
				<polygon class="st10" points="125.4,181.4 162.7,159.2 156.9,138.7 158.4,127 155.9,113.8 154.5,109.4 193.9,155.2 157.4,181.4 
									"/>
				<polygon class="st10" points="178.2,178.7 203.9,167.2 199.9,145.4 203.9,139.7 226.5,178.7 				"/>
			</g>
		</g>
	</g>
</g>
</svg>
