<?xml version="1.0" encoding="utf-8"?>
<!-- Generator: Adobe Illustrator 21.0.0, SVG Export Plug-In . SVG Version: 6.00 Build 0)  -->
<svg version="1.1" id="Capa_1" xmlns="http://www.w3.org/2000/svg" xmlns:xlink="http://www.w3.org/1999/xlink" x="0px" y="0px"
	 viewBox="0 0 50 50" style="enable-background:new 0 0 50 50;" xml:space="preserve">
<style type="text/css">
	.st0{fill:#3FEAFF;}
	.st1{fill:#222221;}
	.st2{fill:none;stroke:#222221;stroke-width:0.7792;stroke-miterlimit:10;}
	.st3{fill:none;stroke:#222221;stroke-width:0.3911;stroke-miterlimit:10;}
	.st4{fill:none;stroke:#222221;stroke-width:0.3439;stroke-miterlimit:10;}
	.st5{fill:none;stroke:#222221;stroke-width:0.1735;stroke-miterlimit:10;}
	.st6{fill:none;stroke:#222221;stroke-width:6.260735e-02;stroke-miterlimit:10;}
</style>
<circle class="st0" cx="25.7" cy="24.5" r="22.5"/>
<polygon class="st1" points="13,33.9 13.8,35.4 14.7,33.9 "/>
<polygon class="st1" points="16.1,33.1 16.9,34.6 17.8,33 "/>
<polygon class="st1" points="18.9,32.2 19.8,33.6 20.5,32.2 "/>
<polygon class="st1" points="21.6,31.3 22.4,32.6 23.2,31.2 "/>
<polygon class="st1" points="24.1,30 25,31.2 25.9,30 "/>
<polygon class="st1" points="26.6,28.6 27.5,30 28.4,28.6 "/>
<polygon class="st1" points="29.2,27 30,28.4 30.9,27 "/>
<polygon class="st1" points="31.4,25.1 32.3,26.5 33.2,25.1 "/>
<polygon class="st1" points="33.5,23 34.4,24.5 35.2,23 "/>
<polygon class="st1" points="35.2,20.9 36.2,22.3 37,20.9 "/>
<polygon class="st1" points="36.7,19.1 38.5,20.9 40.1,17.1 "/>
<polyline class="st2" points="10.9,12.4 10.9,36.6 41.7,36.6 "/>
<g>
	<circle class="st0" cx="25.4" cy="24.4" r="22.6"/>
	<g>
		<path class="st1" d="M12.8,21.5c0.9-3.4,2.7-7.8,3.8-9.6l2.3-0.2c-0.9,2.4-1.9,6.6-2.4,9.5L12.8,21.5z M18.8,21.5
			c0.9-3.4,2.7-7.8,3.8-9.6l2.3-0.2c-0.9,2.4-1.9,6.6-2.4,9.5L18.8,21.5z"/>
	</g>
	<g>
		<path class="st1" d="M31.5,27.5c-0.9,3.3-2.6,7.6-3.7,9.4l-2.2,0.3c0.8-2.3,1.9-6.5,2.3-9.3L31.5,27.5z M37.4,27.5
			c-0.9,3.3-2.6,7.6-3.7,9.4l-2.2,0.3c0.9-2.3,1.9-6.5,2.3-9.3L37.4,27.5z"/>
	</g>
	<line class="st3" x1="32.2" y1="24.5" x2="19.6" y2="24.5"/>
</g>
<g>
	<circle class="st0" cx="-16.1" cy="-28.6" r="22.6"/>
	<path class="st4" d="M-3.5-19.1h-24.6c-1.2,0-2.2-1-2.2-2.2v-17.1c0-1.2,1-2.2,2.2-2.2h24.6c1.2,0,2.2,1,2.2,2.2v17.1
		C-1.3-20.1-2.3-19.1-3.5-19.1z"/>
	<line class="st4" x1="-28.6" y1="-36.3" x2="-2.7" y2="-36.3"/>
	<line class="st4" x1="-25.4" y1="-38.9" x2="-25.4" y2="-36.4"/>
	<line class="st5" x1="-25.4" y1="-35.3" x2="-25.4" y2="-32.7"/>
	<line class="st5" x1="-21.3" y1="-35.3" x2="-21.3" y2="-32.7"/>
	<line class="st5" x1="-17.2" y1="-35.3" x2="-17.2" y2="-32.8"/>
	<line class="st5" x1="-13.5" y1="-35.3" x2="-13.5" y2="-32.8"/>
	<line class="st5" x1="-9.9" y1="-35.3" x2="-9.9" y2="-32.7"/>
	<line class="st5" x1="-6.2" y1="-35.3" x2="-6.2" y2="-32.8"/>
	<line class="st4" x1="-21.2" y1="-38.9" x2="-21.2" y2="-36.4"/>
	<line class="st4" x1="-17.1" y1="-38.9" x2="-17.1" y2="-36.4"/>
	<line class="st4" x1="-13.5" y1="-39" x2="-13.5" y2="-36.4"/>
	<line class="st4" x1="-9.8" y1="-39" x2="-9.8" y2="-36.4"/>
	<line class="st4" x1="-6.2" y1="-38.9" x2="-6.2" y2="-36.4"/>
	<g>
		<path class="st1" d="M-21.6-28.2c0.6-0.1,1.2,0.2,1.8,0.4c0.5,0.3,1,0.6,1.5,0.9c0.5,0.4,0.9,0.7,1.4,1.1c0.4,0.4,0.8,0.8,1.2,1.3
			l-1.7,0.2c0.7-1.8,1.5-3.5,2.5-5.1c0.5-0.8,1-1.6,1.7-2.3c0.3-0.4,0.7-0.7,1-1c0.4-0.3,0.8-0.6,1.3-0.7c-0.7,0.7-1,1.5-1.4,2.4
			l-1.1,2.5c-0.4,0.8-0.7,1.7-1.1,2.5c-0.4,0.8-0.8,1.7-1.2,2.5l-0.7,1.5l-0.9-1.3c-0.3-0.4-0.7-0.9-1-1.3c-0.3-0.5-0.7-0.9-1-1.3
			c-0.3-0.4-0.7-0.9-1.1-1.3C-20.7-27.6-21.1-28-21.6-28.2z"/>
	</g>
	<path class="st6" d="M-3-32.7h-25.1c-0.3,0-0.5-0.2-0.5-0.5v-1.7c0-0.3,0.2-0.5,0.5-0.5H-3c0.3,0,0.5,0.2,0.5,0.5v1.7
		C-2.5-32.9-2.7-32.7-3-32.7z"/>
	<line class="st5" x1="-25.4" y1="-32" x2="-25.4" y2="-29.4"/>
	<line class="st5" x1="-21.3" y1="-32" x2="-21.3" y2="-29.4"/>
	<line class="st5" x1="-17.2" y1="-32.1" x2="-17.2" y2="-29.5"/>
	<line class="st5" x1="-13.5" y1="-32.1" x2="-13.5" y2="-29.5"/>
	<line class="st5" x1="-9.9" y1="-32" x2="-9.9" y2="-29.4"/>
	<line class="st5" x1="-6.2" y1="-32.1" x2="-6.2" y2="-29.5"/>
	<path class="st6" d="M-3-29.5h-25.1c-0.3,0-0.5-0.2-0.5-0.5v-1.7c0-0.3,0.2-0.5,0.5-0.5H-3c0.3,0,0.5,0.2,0.5,0.5v1.7
		C-2.5-29.7-2.7-29.5-3-29.5z"/>
	<line class="st5" x1="-25.4" y1="-28.7" x2="-25.4" y2="-26.1"/>
	<line class="st5" x1="-21.3" y1="-28.7" x2="-21.3" y2="-26.1"/>
	<line class="st5" x1="-17.2" y1="-28.8" x2="-17.2" y2="-26.2"/>
	<line class="st5" x1="-13.5" y1="-28.8" x2="-13.5" y2="-26.2"/>
	<line class="st5" x1="-9.9" y1="-28.7" x2="-9.9" y2="-26.1"/>
	<line class="st5" x1="-6.2" y1="-28.8" x2="-6.2" y2="-26.2"/>
	<path class="st6" d="M-3-26.1h-25.1c-0.3,0-0.5-0.2-0.5-0.5v-1.7c0-0.3,0.2-0.5,0.5-0.5H-3c0.3,0,0.5,0.2,0.5,0.5v1.7
		C-2.5-26.4-2.7-26.1-3-26.1z"/>
	<line class="st5" x1="-25.4" y1="-25.4" x2="-25.4" y2="-22.8"/>
	<line class="st5" x1="-21.3" y1="-25.4" x2="-21.3" y2="-22.8"/>
	<line class="st5" x1="-17.2" y1="-25.4" x2="-17.2" y2="-22.8"/>
	<line class="st5" x1="-13.5" y1="-25.4" x2="-13.5" y2="-22.8"/>
	<line class="st5" x1="-9.9" y1="-25.4" x2="-9.9" y2="-22.8"/>
	<line class="st5" x1="-6.2" y1="-25.4" x2="-6.2" y2="-22.8"/>
	<path class="st6" d="M-3-22.8h-25.1c-0.3,0-0.5-0.2-0.5-0.5v-1.7c0-0.3,0.2-0.5,0.5-0.5H-3c0.3,0,0.5,0.2,0.5,0.5v1.7
		C-2.5-23-2.7-22.8-3-22.8z"/>
</g>
</svg>
