<?xml version="1.0" encoding="utf-8"?>
<!-- Generator: Adobe Illustrator 21.0.0, SVG Export Plug-In . SVG Version: 6.00 Build 0)  -->
<svg version="1.1" id="Capa_1" xmlns="http://www.w3.org/2000/svg" xmlns:xlink="http://www.w3.org/1999/xlink" x="0px" y="0px"
	 viewBox="0 0 40 40" style="enable-background:new 0 0 40 40;" xml:space="preserve">
<style type="text/css">
	.st0{fill:#FFFFFF;}
	.st1{fill:none;}
	.st2{fill:#F8AD3B;}
	.st3{fill:#585857;}
	.st4{fill:#222221;}
	.st5{fill:#3F3F3F;}
	.st6{fill:url(#SVGID_1_);}
	.st7{fill:url(#SVGID_2_);}
	.st8{fill:#989898;}
</style>
<circle class="st0" cx="20.5" cy="20.5" r="18.5"/>
<g>
	<rect x="12" y="4.5" class="st1" width="17" height="31.5"/>
	<path class="st8" d="M22.9,23.8c0-0.6-0.3-1-0.8-1.3c-0.5-0.3-1.4-0.6-2.6-0.9c-4-0.8-6-2.6-6-5.1c0-1.5,0.6-2.8,1.9-3.8
		c1.2-1,2.9-1.5,4.9-1.5c2.1,0,3.9,0.5,5.1,1.5c1.3,1,1.9,2.3,1.9,3.9h-4.5c0-0.6-0.2-1.2-0.6-1.6c-0.4-0.4-1.1-0.6-2-0.6
		c-0.8,0-1.3,0.2-1.8,0.5c-0.4,0.3-0.6,0.8-0.6,1.3c0,0.5,0.2,0.9,0.7,1.2c0.5,0.3,1.3,0.6,2.4,0.8c1.1,0.2,2.1,0.5,2.8,0.8
		c2.4,0.9,3.6,2.4,3.6,4.5c0,1.5-0.7,2.8-2,3.7c-1.3,1-3,1.4-5.1,1.4c-1.4,0-2.7-0.3-3.8-0.8c-1.1-0.5-2-1.2-2.6-2.1
		c-0.6-0.9-0.9-1.8-0.9-2.9h4.3c0,0.8,0.3,1.4,0.9,1.8c0.6,0.4,1.3,0.6,2.2,0.6c0.9,0,1.5-0.2,2-0.5C22.7,24.8,22.9,24.3,22.9,23.8z
		"/>
</g>
</svg>
