<?xml version="1.0" encoding="utf-8"?>
<!-- Generator: Adobe Illustrator 21.0.0, SVG Export Plug-In . SVG Version: 6.00 Build 0)  -->
<svg version="1.1" id="Capa_1" xmlns="http://www.w3.org/2000/svg" xmlns:xlink="http://www.w3.org/1999/xlink" x="0px" y="0px"
	 viewBox="0 0 50 50" style="enable-background:new 0 0 50 50;" xml:space="preserve">
<style type="text/css">
	.st0{fill:#3FEAFF;}
	.st1{fill:#222221;}
	.st2{fill:none;stroke:#222221;stroke-width:0.7792;stroke-miterlimit:10;}
	.st3{fill:none;stroke:#222221;stroke-width:0.3911;stroke-miterlimit:10;}
	.st4{fill:none;stroke:#222221;stroke-width:0.3439;stroke-miterlimit:10;}
	.st5{fill:none;stroke:#222221;stroke-width:0.1735;stroke-miterlimit:10;}
	.st6{fill:none;stroke:#222221;stroke-width:6.260735e-02;stroke-miterlimit:10;}
	.st7{fill:#4071A4;}
</style>
<circle class="st0" cx="25.7" cy="24.5" r="22.5"/>
<polygon class="st1" points="13,33.9 13.8,35.4 14.7,33.9 "/>
<polygon class="st1" points="16.1,33.1 16.9,34.6 17.8,33 "/>
<polygon class="st1" points="18.9,32.2 19.8,33.6 20.5,32.2 "/>
<polygon class="st1" points="21.6,31.3 22.4,32.6 23.2,31.2 "/>
<polygon class="st1" points="24.1,30 25,31.2 25.9,30 "/>
<polygon class="st1" points="26.6,28.6 27.5,30 28.4,28.6 "/>
<polygon class="st1" points="29.2,27 30,28.4 30.9,27 "/>
<polygon class="st1" points="31.4,25.1 32.3,26.5 33.2,25.1 "/>
<polygon class="st1" points="33.5,23 34.4,24.5 35.2,23 "/>
<polygon class="st1" points="35.2,20.9 36.2,22.3 37,20.9 "/>
<polygon class="st1" points="36.7,19.1 38.5,20.9 40.1,17.1 "/>
<polyline class="st2" points="10.9,12.4 10.9,36.6 41.7,36.6 "/>
<g>
	<circle class="st0" cx="25.5" cy="24.5" r="22.5"/>
	<circle class="st7" cx="25.5" cy="14.5" r="5"/>
	<path class="st7" d="M27.4,38.2h-3.8c-3.1,0-5.6-2.5-5.6-5.6v-6.4c0-3.1,2.5-5.6,5.6-5.6h3.8c3.1,0,5.6,2.5,5.6,5.6v6.4
		C33,35.7,30.5,38.2,27.4,38.2z"/>
</g>
</svg>
