<?xml version="1.0" encoding="utf-8"?>
<!-- Generator: Adobe Illustrator 21.0.0, SVG Export Plug-In . SVG Version: 6.00 Build 0)  -->
<svg version="1.1" id="Capa_1" xmlns="http://www.w3.org/2000/svg" xmlns:xlink="http://www.w3.org/1999/xlink" x="0px" y="0px"
	 viewBox="0 0 50 50" style="enable-background:new 0 0 50 50;" xml:space="preserve">
<style type="text/css">
	.st0{fill:none;}
	.st1{fill:#F8AD3B;}
	.st2{fill:#FFFFFF;}
	.st3{fill:#585857;}
	.st4{fill:#222221;}
	.st5{fill:#3F3F3F;}
	.st6{fill:url(#SVGID_1_);}
	.st7{fill:url(#SVGID_2_);}
	.st8{fill:#FAAF3B;}
	.st9{fill:#989898;}
	.st10{fill:#934A37;}
	.st11{fill:none;stroke:url(#SVGID_3_);stroke-width:1.0187;stroke-miterlimit:10;}
	.st12{fill:url(#SVGID_4_);stroke:url(#SVGID_5_);stroke-width:0.2522;stroke-miterlimit:10;}
	.st13{fill:url(#);stroke:url(#SVGID_6_);stroke-width:0.2522;stroke-miterlimit:10;}
	.st14{fill:none;stroke:#F9AE3B;stroke-width:2.7717;stroke-miterlimit:10;}
	.st15{fill:#0071BA;}
</style>
<g>
	<g>
		<path class="st15" d="M3.7,1.5c4.1,3.2,7.9,6.8,11.6,10.4c3.7,3.7,7.2,7.4,10.6,11.3c3.4,3.9,6.7,7.9,9.9,11.9
			c3.1,4.1,6.2,8.3,8.9,12.8c-4.1-3.2-7.9-6.8-11.6-10.4c-3.7-3.7-7.2-7.4-10.6-11.3c-3.4-3.9-6.7-7.9-9.8-12
			C9.5,10.2,6.4,6,3.7,1.5z"/>
	</g>
	<g>
		<path class="st15" d="M3.7,48c2.5-4.3,5.4-8.2,8.4-12.1c3-3.8,6.1-7.6,9.3-11.2c3.2-3.6,6.6-7.1,10.1-10.5
			c3.5-3.4,7.1-6.7,11.1-9.7c-2.5,4.3-5.4,8.2-8.4,12.1c-3,3.8-6.1,7.6-9.3,11.2c-3.2,3.6-6.6,7.1-10.1,10.5
			C11.3,41.7,7.7,45,3.7,48z"/>
	</g>
</g>
</svg>
