<?xml version="1.0" encoding="utf-8"?>
<!-- Generator: Adobe Illustrator 21.0.0, SVG Export Plug-In . SVG Version: 6.00 Build 0)  -->
<svg version="1.1" id="Capa_1" xmlns="http://www.w3.org/2000/svg" xmlns:xlink="http://www.w3.org/1999/xlink" x="0px" y="0px"
	 viewBox="0 0 200 200" style="enable-background:new 0 0 200 200;" xml:space="preserve">
<style type="text/css">
	.st0{opacity:0.92;fill:url(#SVGID_1_);}
	.st1{fill:#FFFFFF;}
	.st2{fill:#585857;}
	.st3{fill:#222221;}
	.st4{fill:#3F3F3F;}
	.st5{fill:url(#SVGID_2_);}
	.st6{fill:url(#SVGID_3_);}
	.st7{opacity:0.7;fill:none;stroke:#222221;stroke-width:2.8852;stroke-miterlimit:10;}
	.st8{opacity:0.56;fill:#3F71AA;}
	.st9{clip-path:url(#SVGID_5_);}
	.st10{fill:#9E5F5F;}
</style>
<g>
	<circle class="st7" cx="98.5" cy="99.5" r="95.5"/>
	<g>
		<circle class="st8" cx="98.4" cy="99.5" r="92.5"/>
		<g>
			<defs>
				<circle id="SVGID_4_" cx="98.4" cy="99.5" r="92.5"/>
			</defs>
			<clipPath id="SVGID_1_">
				<use xlink:href="#SVGID_4_"  style="overflow:visible;"/>
			</clipPath>
			<g style="clip-path:url(#SVGID_1_);">
				<path class="st3" d="M-18.1,177.9c6.9-15.1,37.6-87.5,41.1-93.9c3.5-6.5,15-20.9,24.4,0s40.9,87.2,42.9,93.9s-10.5,8.7-58.3,8.2
					C-15.9,185.6-22.2,187.5-18.1,177.9z"/>
				<path class="st3" d="M36.9,176.4C45,158.7,81,73.8,85.1,66.2c4.1-7.6,17.5-24.6,28.7,0s47.9,102.3,50.3,110.2
					c2.3,7.9-12.3,10.2-68.4,9.6C39.5,185.5,32.1,187.7,36.9,176.4z"/>
				<path class="st3" d="M106.6,181.6c6.7-14.5,36.2-84.2,39.6-90.4s14.4-20.1,23.5,0c9.1,20.1,39.3,83.9,41.2,90.4
					s-10.1,8.4-56.1,7.9C108.7,189.1,102.6,190.9,106.6,181.6z"/>
				<path class="st10" d="M45.4,97.1c0,0,0,1.7-6.4,2.2c-6.4,0.6-0.6-2.2-6.2-2.2c-5.6,0-1.5,2.4-6.2,2.3s-0.5-20.8,8.9-20.8
					S45.4,97.1,45.4,97.1z"/>
				<path class="st10" d="M85.2,78.6c-0.6,3.7,10.1-1.3,12.7-1.3s1.4,1.6,7.6,1.8c6.2,0.2,6-3.3,6-3.3s-6-15.5-11.6-16.1
					C94.4,59.2,87.3,66.1,85.2,78.6z"/>
				<path class="st10" d="M148.2,108.5c0.4-8.8,1-21.5,10.1-21.5c9.1,0,15.1,16.1,12,19.4s-5,4.3-7.8,3.9s-1.3-3.9-5-3
					c-3.7,0.9-4.9,3.5-6.9,3.1c-2.1-0.5-2.1-0.5-2.1-0.5L148.2,108.5z"/>
			</g>
		</g>
	</g>
</g>
</svg>
