<?xml version="1.0" encoding="utf-8"?>
<!-- Generator: Adobe Illustrator 21.0.0, SVG Export Plug-In . SVG Version: 6.00 Build 0)  -->
<svg version="1.1" id="Capa_1" xmlns="http://www.w3.org/2000/svg" xmlns:xlink="http://www.w3.org/1999/xlink" x="0px" y="0px"
	 viewBox="0 0 40 40" style="enable-background:new 0 0 40 40;" xml:space="preserve">
<style type="text/css">
	.st0{fill:#FFFFFF;}
	.st1{fill:none;}
	.st2{fill:#F8AD3B;}
	.st3{fill:#585857;}
	.st4{fill:#222221;}
	.st5{fill:#3F3F3F;}
	.st6{fill:url(#SVGID_1_);}
	.st7{fill:url(#SVGID_2_);}
	.st8{fill:#989898;}
</style>
<circle class="st0" cx="20.5" cy="20.5" r="18.5"/>
<g>
	<rect x="10" y="6.5" class="st1" width="20" height="31.5"/>
	<path class="st8" d="M11,21.9c0-2.6,0.6-4.7,1.8-6.3c1.2-1.6,2.8-2.3,4.9-2.3c1.6,0,3,0.6,4.1,1.8V6.5h4.5v24h-4.1L22,28.7
		c-1.1,1.4-2.6,2.1-4.3,2.1c-2,0-3.6-0.8-4.8-2.4C11.6,26.9,11,24.7,11,21.9z M15.5,22.2c0,1.6,0.3,2.8,0.8,3.6
		c0.6,0.8,1.4,1.3,2.4,1.3c1.4,0,2.4-0.6,3-1.8v-6.7c-0.6-1.2-1.5-1.8-2.9-1.8C16.6,16.9,15.5,18.7,15.5,22.2z"/>
</g>
</svg>
