<?xml version="1.0" encoding="utf-8"?>
<!-- Generator: Adobe Illustrator 21.0.0, SVG Export Plug-In . SVG Version: 6.00 Build 0)  -->
<svg version="1.1" id="Capa_1" xmlns="http://www.w3.org/2000/svg" xmlns:xlink="http://www.w3.org/1999/xlink" x="0px" y="0px"
	 viewBox="0 0 200 200" style="enable-background:new 0 0 200 200;" xml:space="preserve">
<style type="text/css">
	.st0{opacity:0.92;fill:url(#SVGID_1_);}
	.st1{fill:#FFFFFF;}
	.st2{fill:#585857;}
	.st3{fill:#222221;}
	.st4{fill:#3F3F3F;}
	.st5{fill:url(#SVGID_2_);}
	.st6{fill:url(#SVGID_3_);}
	.st7{opacity:0.7;fill:none;stroke:#222221;stroke-width:2.9238;stroke-miterlimit:10;}
	.st8{opacity:0.56;fill:#3F71AA;}
	.st9{clip-path:url(#SVGID_5_);}
	.st10{fill:#9E5F5F;}
</style>
<g>
	<circle class="st7" cx="99.8" cy="101.2" r="96.8"/>
	<g>
		<circle class="st8" cx="99.9" cy="101.5" r="93.2"/>
		<g>
			<defs>
				<circle id="SVGID_4_" cx="99.9" cy="97.4" r="93.2"/>
			</defs>
			<clipPath id="SVGID_1_">
				<use xlink:href="#SVGID_4_"  style="overflow:visible;"/>
			</clipPath>
			<g style="clip-path:url(#SVGID_1_);">
				<polygon class="st3" points="-28.4,136.8 7.2,115.5 24.6,126.2 71.1,93.8 82,109.9 125.4,69 161,116.8 177.1,106 208.4,136.8 
					176.7,111.2 156.2,126.8 124.5,76.8 84.6,125.5 70.7,100.3 26.4,134.6 5.9,121.6 				"/>
				<polygon class="st10" points="-28.4,160.4 7.2,139.1 24.6,149.7 71.1,117.4 82,133.5 125.4,92.6 161,140.4 177.1,129.5 
					208.4,160.4 176.7,134.8 156.2,150.4 124.5,100.4 84.6,149.1 70.7,123.9 26.4,158.2 5.9,145.2 				"/>
				<polygon class="st3" points="-32.5,189 3.1,167.8 20.5,178.4 67,146 77.8,162.1 121.3,121.3 156.9,169.1 173,158.2 204.3,189 
					172.5,163.4 152.1,179 120.4,129.1 80.4,177.7 66.5,152.5 22.2,186.9 1.8,173.8 				"/>
			</g>
		</g>
	</g>
</g>
</svg>
