<?xml version="1.0" encoding="utf-8"?>
<!-- Generator: Adobe Illustrator 21.0.0, SVG Export Plug-In . SVG Version: 6.00 Build 0)  -->
<svg version="1.1" id="Capa_1" xmlns="http://www.w3.org/2000/svg" xmlns:xlink="http://www.w3.org/1999/xlink" x="0px" y="0px"
	 viewBox="0 0 200 200" style="enable-background:new 0 0 200 200;" xml:space="preserve">
<style type="text/css">
	.st0{opacity:0.92;fill:url(#SVGID_1_);}
	.st1{fill:#FFFFFF;}
	.st2{fill:#585857;}
	.st3{fill:#222221;}
	.st4{fill:#3F3F3F;}
	.st5{fill:url(#SVGID_2_);}
	.st6{fill:url(#SVGID_3_);}
	.st7{opacity:0.7;fill:none;stroke:#222221;stroke-width:2.9305;stroke-miterlimit:10;}
	.st8{opacity:0.56;fill:#3F71AA;}
	.st9{clip-path:url(#SVGID_5_);}
	.st10{fill:none;stroke:#222221;stroke-width:1.9619;stroke-miterlimit:10;}
	.st11{fill:#9E5F5F;}
	.st12{fill:#B25F5F;}
	.st13{fill:#B57F7F;}
</style>
<g>
	<circle class="st7" cx="100" cy="101.1" r="97"/>
	<g>
		<circle class="st8" cx="100" cy="100.9" r="93.8"/>
		<g>
			<defs>
				<circle id="SVGID_4_" cx="100" cy="100.9" r="93.8"/>
			</defs>
			<clipPath id="SVGID_1_">
				<use xlink:href="#SVGID_4_"  style="overflow:visible;"/>
			</clipPath>
			<g style="clip-path:url(#SVGID_1_);">
				<polygon class="st3" points="-11.8,173.1 12.8,144.9 33.9,112.1 45.9,115 50.3,99.1 74.6,71.8 78.3,59.8 87.8,58.1 103.8,38 
					122.4,76.2 131.2,78 138.3,97.1 148.6,96.4 173.9,138 181.5,140.7 196.7,174.3 				"/>
				<polygon class="st10" points="47.6,151.5 47.6,173.5 -11.8,173.1 10.3,147.7 9,162.7 				"/>
				<polygon class="st11" points="94.7,150.4 75.1,146.5 78.2,126.2 94.7,118.2 97.5,74.7 91.4,73.4 102.6,39.4 87.8,58.1 
					78.3,59.8 74.6,71.8 50.3,99.1 45.9,115 33.9,112.1 13.3,144.1 -11.8,173.1 108.9,173.8 				"/>
				<polygon class="st12" points="114.5,124.6 122,145.8 140.8,174.3 164.2,174.3 127.2,142.2 				"/>
				<polygon class="st11" points="119.5,108 139.3,124.6 140.6,104.1 146.7,96.5 138.3,97.1 				"/>
				<path class="st13" d="M131.6,160.7c0,0,10.6,4.7,10.6,4.1s1.8-23.4,1.8-23.4l52.6,32.9l-56.6-0.3L131.6,160.7z"/>
			</g>
		</g>
	</g>
</g>
</svg>
