<?xml version="1.0" encoding="utf-8"?>
<!-- Generator: Adobe Illustrator 21.0.0, SVG Export Plug-In . SVG Version: 6.00 Build 0)  -->
<svg version="1.1" id="Capa_1" xmlns="http://www.w3.org/2000/svg" xmlns:xlink="http://www.w3.org/1999/xlink" x="0px" y="0px"
	 viewBox="0 0 50 50" style="enable-background:new 0 0 50 50;" xml:space="preserve">
<style type="text/css">
	.st0{opacity:0.92;fill:url(#SVGID_1_);}
	.st1{fill:none;}
	.st2{fill:#FFFFFF;}
	.st3{fill:#585857;}
	.st4{fill:#222221;}
	.st5{fill:#3F3F3F;}
	.st6{fill:url(#SVGID_2_);}
	.st7{fill:url(#SVGID_3_);}
	.st8{opacity:0.7;fill:none;stroke:#222221;stroke-width:2.9305;stroke-miterlimit:10;}
	.st9{opacity:0.56;fill:#3F71AA;}
	.st10{clip-path:url(#SVGID_5_);}
	.st11{fill:none;stroke:#222221;stroke-width:1.9619;stroke-miterlimit:10;}
	.st12{fill:#9E5F5F;}
	.st13{fill:#B25F5F;}
	.st14{fill:#B57F7F;}
	.st15{stroke:#B25F5F;stroke-width:2.7789;stroke-miterlimit:10;}
</style>
<circle class="st15" cx="25.5" cy="25.5" r="22"/>
<g>
	<path class="st13" d="M12.6,26.2c0.7,0,1.4,0.1,2,0.4c0.7,0.2,1.3,0.6,1.9,0.9c1.2,0.7,2.3,1.5,3.4,2.4c1.1,0.9,2.1,1.8,3.1,2.8
		c1,1,1.9,2,2.8,3L23.6,36c1.6-4.1,3.5-8.2,5.7-12c1.1-1.9,2.3-3.8,3.7-5.6c0.7-0.9,1.4-1.8,2.2-2.6c0.8-0.8,1.7-1.6,2.8-1.8
		c-0.9,0.6-1.5,1.5-2.1,2.4c-0.6,0.9-1.1,1.9-1.6,2.8c-1,1.9-1.9,3.9-2.9,5.9l-2.7,6L26,37l-0.9,2.1l-1.3-1.7
		c-0.8-1-1.6-2.1-2.5-3.1c-0.8-1-1.7-2-2.6-3c-0.9-1-1.8-1.9-2.8-2.9C14.9,27.5,13.9,26.6,12.6,26.2z"/>
</g>
</svg>
