<?xml version="1.0" encoding="utf-8"?>
<!-- Generator: Adobe Illustrator 21.0.0, SVG Export Plug-In . SVG Version: 6.00 Build 0)  -->
<svg version="1.1" id="Capa_1" xmlns="http://www.w3.org/2000/svg" xmlns:xlink="http://www.w3.org/1999/xlink" x="0px" y="0px"
	 viewBox="0 0 47 40" style="enable-background:new 0 0 47 40;" xml:space="preserve">
<style type="text/css">
	.st0{fill:#FFFFFF;}
	.st1{fill:none;}
	.st2{fill:#F8AD3B;}
	.st3{fill:#585857;}
	.st4{fill:#222221;}
	.st5{fill:#3F3F3F;}
	.st6{fill:url(#SVGID_1_);}
	.st7{fill:url(#SVGID_2_);}
	.st8{fill:#989898;}
</style>
<ellipse class="st0" cx="23.5" cy="20.5" rx="22.5" ry="18.5"/>
<g>
	<rect x="4" y="6.5" class="st1" width="44" height="31.5"/>
	<path class="st8" d="M10,13.6l0.1,1.9c1.2-1.5,2.8-2.2,4.9-2.2c2.2,0,3.7,0.9,4.5,2.6c1.2-1.7,2.9-2.6,5.1-2.6
		c1.8,0,3.2,0.5,4.1,1.6c0.9,1.1,1.3,2.7,1.3,4.8v10.8h-4.5V19.7c0-1-0.2-1.7-0.6-2.1c-0.4-0.4-1-0.7-2-0.7c-1.4,0-2.3,0.6-2.8,1.9
		l0,11.6h-4.5V19.7c0-1-0.2-1.7-0.6-2.1c-0.4-0.4-1-0.7-2-0.7c-1.3,0-2.2,0.5-2.8,1.6v12H5.7V13.6H10z"/>
	<path class="st8" d="M33.4,9.2c0-0.7,0.2-1.2,0.7-1.7s1.1-0.7,1.9-0.7c0.8,0,1.4,0.2,1.8,0.7c0.5,0.4,0.7,1,0.7,1.7
		c0,0.7-0.2,1.3-0.7,1.7c-0.5,0.4-1.1,0.7-1.8,0.7c-0.8,0-1.4-0.2-1.8-0.7C33.6,10.4,33.4,9.9,33.4,9.2z M38.2,30.5h-4.5V13.6h4.5
		V30.5z"/>
</g>
</svg>
