<?xml version="1.0" encoding="utf-8"?>
<!-- Generator: Adobe Illustrator 21.0.0, SVG Export Plug-In . SVG Version: 6.00 Build 0)  -->
<svg version="1.1" id="Capa_1" xmlns="http://www.w3.org/2000/svg" xmlns:xlink="http://www.w3.org/1999/xlink" x="0px" y="0px"
	 viewBox="0 0 200 200" style="enable-background:new 0 0 200 200;" xml:space="preserve">
<style type="text/css">
	.st0{opacity:0.92;fill:url(#SVGID_1_);}
	.st1{fill:#FFFFFF;}
	.st2{fill:#585857;}
	.st3{fill:#222221;}
	.st4{fill:#3F3F3F;}
	.st5{fill:url(#SVGID_2_);}
	.st6{fill:url(#SVGID_3_);}
	.st7{opacity:0.7;fill:none;stroke:#222221;stroke-width:2.9305;stroke-miterlimit:10;}
	.st8{opacity:0.56;fill:#3F71AA;}
	.st9{clip-path:url(#SVGID_5_);}
	.st10{fill:#B57F7F;}
</style>
<g>
	<circle class="st7" cx="100" cy="101" r="97"/>
	<g>
		<circle class="st8" cx="99.9" cy="101" r="93.4"/>
		<g>
			<defs>
				<circle id="SVGID_4_" cx="99.9" cy="101" r="93.4"/>
			</defs>
			<clipPath id="SVGID_1_">
				<use xlink:href="#SVGID_4_"  style="overflow:visible;"/>
			</clipPath>
			<g style="clip-path:url(#SVGID_1_);">
				<polygon class="st3" points="-17.4,178.3 217.2,178.3 163.4,67.2 142.4,111.4 104.7,50.8 68.5,104.2 45.3,67.2 				"/>
				<polygon class="st10" points="31.2,100.2 35.2,98 38.5,100.2 42.1,98 44.6,100.2 49.7,98 51.9,100.2 57.3,98 60.2,100.2 
					45.7,75.5 				"/>
				<polygon class="st10" points="89.3,85 93.3,82.9 96.6,85 100.2,82.9 102.7,85 107.8,82.9 110,85 115.4,82.9 118.3,85 
					103.8,60.4 				"/>
				<polygon class="st10" points="147.9,109.7 151.9,107.5 155.1,109.7 158.8,107.5 161.3,109.7 166.4,107.5 168.5,109.7 174,107.5 
					176.9,109.7 162.4,85 				"/>
			</g>
		</g>
	</g>
</g>
</svg>
