<?xml version="1.0" encoding="utf-8"?>
<!-- Generator: Adobe Illustrator 21.0.0, SVG Export Plug-In . SVG Version: 6.00 Build 0)  -->
<svg version="1.1" id="Capa_1" xmlns="http://www.w3.org/2000/svg" xmlns:xlink="http://www.w3.org/1999/xlink" x="0px" y="0px"
	 viewBox="0 0 50 50" style="enable-background:new 0 0 50 50;" xml:space="preserve">
<style type="text/css">
	.st0{fill:#3FEAFF;}
	.st1{fill:#222221;}
	.st2{fill:none;stroke:#222221;stroke-width:0.7792;stroke-miterlimit:10;}
	.st3{fill:none;stroke:#222221;stroke-width:0.3911;stroke-miterlimit:10;}
	.st4{fill:none;stroke:#222221;stroke-width:0.3439;stroke-miterlimit:10;}
	.st5{fill:none;stroke:#222221;stroke-width:0.1735;stroke-miterlimit:10;}
	.st6{fill:none;stroke:#222221;stroke-width:6.260735e-02;stroke-miterlimit:10;}
	.st7{fill:#4071A4;}
	.st8{fill:none;stroke:#222221;stroke-width:0.2719;stroke-miterlimit:10;}
	.st9{fill:none;stroke:#222221;stroke-width:0.3659;stroke-miterlimit:10;}
	.st10{fill:none;stroke:#222221;stroke-width:0.2339;stroke-miterlimit:10;}
	.st11{fill:none;stroke:#222221;stroke-width:0.1673;stroke-miterlimit:10;}
</style>
<circle class="st0" cx="25.7" cy="24.5" r="22.5"/>
<polygon class="st1" points="13,33.9 13.8,35.4 14.7,33.9 "/>
<polygon class="st1" points="16.1,33.1 16.9,34.6 17.8,33 "/>
<polygon class="st1" points="18.9,32.2 19.8,33.6 20.5,32.2 "/>
<polygon class="st1" points="21.6,31.3 22.4,32.6 23.2,31.2 "/>
<polygon class="st1" points="24.1,30 25,31.2 25.9,30 "/>
<polygon class="st1" points="26.6,28.6 27.5,30 28.4,28.6 "/>
<polygon class="st1" points="29.2,27 30,28.4 30.9,27 "/>
<polygon class="st1" points="31.4,25.1 32.3,26.5 33.2,25.1 "/>
<polygon class="st1" points="33.5,23 34.4,24.5 35.2,23 "/>
<polygon class="st1" points="35.2,20.9 36.2,22.3 37,20.9 "/>
<polygon class="st1" points="36.7,19.1 38.5,20.9 40.1,17.1 "/>
<polyline class="st2" points="10.9,12.4 10.9,36.6 41.7,36.6 "/>
<g>
	<circle class="st0" cx="25.7" cy="24.3" r="22.3"/>
	<circle class="st1" cx="25.8" cy="24.3" r="4"/>
	<circle class="st8" cx="25.8" cy="24.3" r="9.5"/>
	<circle class="st9" cx="25.8" cy="24.3" r="12.8"/>
	<line class="st10" x1="10.8" y1="24" x2="20.2" y2="24"/>
	<line class="st11" x1="31" y1="24" x2="40.5" y2="24"/>
	<line class="st10" x1="25.8" y1="39.2" x2="25.8" y2="29.9"/>
	<line class="st11" x1="25.8" y1="19.1" x2="25.8" y2="9.5"/>
</g>
</svg>
