<?xml version="1.0" encoding="utf-8"?>
<!-- Generator: Adobe Illustrator 21.0.0, SVG Export Plug-In . SVG Version: 6.00 Build 0)  -->
<svg version="1.1" id="Capa_1" xmlns="http://www.w3.org/2000/svg" xmlns:xlink="http://www.w3.org/1999/xlink" x="0px" y="0px"
	 viewBox="0 0 350 350" style="enable-background:new 0 0 350 350;" xml:space="preserve">
<style type="text/css">
	.st0{fill:none;}
	.st1{fill:#F8AD3B;}
	.st2{fill:#FFFFFF;}
	.st3{fill:#585857;}
	.st4{fill:#222221;}
	.st5{fill:#3F3F3F;}
	.st6{fill:url(#SVGID_1_);}
	.st7{fill:url(#SVGID_2_);}
	.st8{fill:#FAAF3B;}
	.st9{fill:#989898;}
	.st10{fill:#934A37;}
	.st11{fill:none;stroke:url(#SVGID_3_);stroke-width:1.0187;stroke-miterlimit:10;}
	.st12{fill:url(#SVGID_4_);stroke:url(#SVGID_5_);stroke-width:0.2522;stroke-miterlimit:10;}
	.st13{fill:url(#);stroke:url(#SVGID_6_);stroke-width:0.2522;stroke-miterlimit:10;}
	.st14{fill:none;stroke:#F9AE3B;stroke-width:2.7717;stroke-miterlimit:10;}
	.st15{fill:#0071BA;}
	.st16{fill:url(#SVGID_7_);}
	.st17{fill:#808080;}
	.st18{fill:none;stroke:#934A37;stroke-width:2;stroke-miterlimit:10;}
	.st19{fill:none;stroke:#B37F7F;stroke-width:1.2291;stroke-miterlimit:10;}
	.st20{fill:#F9AE3B;}
	.st21{fill:url(#SVGID_8_);}
	.st22{fill:url(#SVGID_9_);}
	.st23{fill:url(#SVGID_10_);}
	.st24{fill:url(#SVGID_11_);}
	.st25{fill:url(#SVGID_12_);}
	.st26{fill:url(#SVGID_13_);}
	.st27{fill:url(#SVGID_14_);}
	.st28{fill:url(#SVGID_15_);}
	.st29{fill:url(#SVGID_16_);}
	.st30{fill:url(#SVGID_17_);}
</style>
<linearGradient id="SVGID_1_" gradientUnits="userSpaceOnUse" x1="6" y1="172" x2="344" y2="172">
	<stop  offset="0" style="stop-color:#F0D477"/>
	<stop  offset="0.2207" style="stop-color:#E0A75C"/>
	<stop  offset="0.3595" style="stop-color:#D8904E"/>
	<stop  offset="0.5393" style="stop-color:#B87333"/>
	<stop  offset="1" style="stop-color:#814924"/>
</linearGradient>
<circle class="st6" cx="175" cy="172" r="169"/>
<g>
	<rect x="68.4" y="241.7" class="st0" width="19" height="10.9"/>
	<path class="st10" d="M72.3,249.2h-1.4v-5.4l-1.7,0.5v-1.1l2.9-1.1h0.2V249.2z"/>
	<path class="st10" d="M79.4,246.3c0,1-0.2,1.7-0.6,2.3s-1,0.8-1.8,0.8c-0.8,0-1.4-0.3-1.8-0.8s-0.6-1.2-0.6-2.2v-1.3
		c0-1,0.2-1.7,0.6-2.3c0.4-0.5,1-0.8,1.8-0.8s1.4,0.3,1.8,0.8s0.6,1.2,0.6,2.2V246.3z M78,244.9c0-0.6-0.1-1-0.2-1.3
		c-0.2-0.3-0.4-0.4-0.8-0.4c-0.3,0-0.6,0.1-0.7,0.4c-0.2,0.3-0.2,0.7-0.3,1.2v1.7c0,0.6,0.1,1,0.2,1.3c0.2,0.3,0.4,0.4,0.8,0.4
		c0.3,0,0.6-0.1,0.7-0.4s0.2-0.7,0.2-1.2V244.9z"/>
	<path class="st10" d="M80.3,243.5c0-0.4,0.1-0.8,0.4-1.1s0.7-0.4,1.1-0.4c0.5,0,0.8,0.1,1.1,0.4s0.4,0.6,0.4,1.1v0.4
		c0,0.4-0.1,0.8-0.4,1.1s-0.7,0.4-1.1,0.4c-0.5,0-0.8-0.1-1.1-0.4c-0.3-0.3-0.4-0.6-0.4-1.1V243.5z M81.3,243.9
		c0,0.2,0.1,0.4,0.2,0.5c0.1,0.1,0.3,0.2,0.4,0.2s0.3-0.1,0.4-0.2s0.2-0.3,0.2-0.5v-0.4c0-0.2-0.1-0.4-0.2-0.5s-0.3-0.2-0.4-0.2
		c-0.2,0-0.3,0.1-0.4,0.2s-0.2,0.3-0.2,0.5V243.9z M82.2,248.7l-0.7-0.4l3.5-5.6l0.7,0.4L82.2,248.7z M83.7,247.5
		c0-0.4,0.1-0.8,0.4-1.1s0.7-0.4,1.1-0.4c0.5,0,0.8,0.1,1.1,0.4c0.3,0.3,0.4,0.6,0.4,1.1v0.4c0,0.4-0.1,0.8-0.4,1.1
		s-0.7,0.4-1.1,0.4c-0.5,0-0.8-0.1-1.1-0.4s-0.4-0.6-0.4-1.1V247.5z M84.7,247.9c0,0.2,0.1,0.3,0.2,0.5s0.3,0.2,0.4,0.2
		c0.4,0,0.6-0.2,0.6-0.7v-0.4c0-0.2-0.1-0.4-0.2-0.5s-0.3-0.2-0.4-0.2s-0.3,0.1-0.4,0.2s-0.2,0.3-0.2,0.5V247.9z"/>
</g>
<g>
	<rect x="104.5" y="258.9" class="st0" width="14.3" height="12.1"/>
	<path d="M110,269.4h-2v-7.6l-2.4,0.7V261l4.1-1.5h0.2V269.4z"/>
</g>
<g>
	<rect x="153.4" y="258.9" class="st0" width="14.3" height="12.1"/>
	<path d="M160.8,269.4H154v-1.4l3.2-3.4c0.4-0.5,0.8-0.9,1-1.3c0.2-0.4,0.3-0.7,0.3-1c0-0.4-0.1-0.8-0.3-1s-0.5-0.4-1-0.4
		c-0.4,0-0.8,0.2-1.1,0.5c-0.3,0.3-0.4,0.7-0.4,1.2h-2c0-0.6,0.1-1.2,0.4-1.7c0.3-0.5,0.7-0.9,1.2-1.2s1.1-0.4,1.8-0.4
		c1,0,1.8,0.2,2.4,0.7c0.6,0.5,0.9,1.2,0.9,2.1c0,0.5-0.1,1-0.4,1.5s-0.7,1.1-1.3,1.8l-2.3,2.4h4.3V269.4z"/>
</g>
<g>
	<rect x="202.2" y="258.9" class="st0" width="17.8" height="12.1"/>
	<path d="M204.9,263.6h1.1c0.5,0,0.9-0.1,1.1-0.4s0.4-0.6,0.4-1c0-0.4-0.1-0.7-0.4-0.9c-0.2-0.2-0.6-0.3-1-0.3c-0.4,0-0.7,0.1-1,0.3
		s-0.4,0.5-0.4,0.8h-2c0-0.5,0.1-1,0.4-1.4c0.3-0.4,0.7-0.7,1.2-1c0.5-0.2,1.1-0.3,1.7-0.3c1.1,0,1.9,0.3,2.5,0.8s0.9,1.2,0.9,2.1
		c0,0.5-0.1,0.9-0.4,1.3s-0.6,0.7-1.1,0.9c0.6,0.2,1,0.5,1.3,0.9c0.3,0.4,0.4,0.9,0.4,1.4c0,0.9-0.3,1.6-1,2.1
		c-0.6,0.5-1.5,0.8-2.6,0.8c-1,0-1.8-0.3-2.4-0.8c-0.6-0.5-0.9-1.2-0.9-2.1h2c0,0.4,0.1,0.7,0.4,0.9c0.3,0.2,0.6,0.4,1,0.4
		c0.5,0,0.8-0.1,1.1-0.4c0.3-0.2,0.4-0.6,0.4-1c0-1-0.5-1.5-1.6-1.5h-1V263.6z"/>
</g>
<g>
	<rect x="253.1" y="258.9" class="st0" width="14.3" height="12.1"/>
	<path d="M259.6,265.7h1.1v1.6h-1.1v2.2h-2v-2.2h-4.1l-0.1-1.2l4.1-6.6h2V265.7z M255.4,265.7h2.2v-3.5l-0.1,0.2L255.4,265.7z"/>
</g>
<g>
	<rect x="68.4" y="219.9" class="st0" width="19" height="13.4"/>
	<path class="st10" d="M73.8,227.4h-4.9v-1l2.3-2.5c0.3-0.3,0.5-0.6,0.7-0.9c0.2-0.3,0.2-0.5,0.2-0.7c0-0.3-0.1-0.6-0.2-0.7
		s-0.4-0.3-0.7-0.3c-0.3,0-0.6,0.1-0.8,0.3c-0.2,0.2-0.3,0.5-0.3,0.9h-1.4c0-0.4,0.1-0.8,0.3-1.2c0.2-0.4,0.5-0.6,0.9-0.8
		s0.8-0.3,1.3-0.3c0.7,0,1.3,0.2,1.7,0.5c0.4,0.4,0.6,0.8,0.6,1.5c0,0.4-0.1,0.7-0.3,1.1s-0.5,0.8-0.9,1.3l-1.6,1.7h3.1V227.4z"/>
	<path class="st10" d="M79.4,224.4c0,1-0.2,1.7-0.6,2.3s-1,0.8-1.8,0.8c-0.8,0-1.4-0.3-1.8-0.8s-0.6-1.2-0.6-2.2v-1.3
		c0-1,0.2-1.7,0.6-2.3c0.4-0.5,1-0.8,1.8-0.8s1.4,0.3,1.8,0.8s0.6,1.2,0.6,2.2V224.4z M78,223c0-0.6-0.1-1-0.2-1.3
		c-0.2-0.3-0.4-0.4-0.8-0.4c-0.3,0-0.6,0.1-0.7,0.4c-0.2,0.3-0.2,0.7-0.3,1.2v1.7c0,0.6,0.1,1,0.2,1.3c0.2,0.3,0.4,0.4,0.8,0.4
		c0.3,0,0.6-0.1,0.7-0.4s0.2-0.7,0.2-1.2V223z"/>
	<path class="st10" d="M80.3,221.6c0-0.4,0.1-0.8,0.4-1.1s0.7-0.4,1.1-0.4c0.5,0,0.8,0.1,1.1,0.4s0.4,0.6,0.4,1.1v0.4
		c0,0.4-0.1,0.8-0.4,1.1s-0.7,0.4-1.1,0.4c-0.5,0-0.8-0.1-1.1-0.4c-0.3-0.3-0.4-0.6-0.4-1.1V221.6z M81.3,222c0,0.2,0.1,0.4,0.2,0.5
		c0.1,0.1,0.3,0.2,0.4,0.2s0.3-0.1,0.4-0.2s0.2-0.3,0.2-0.5v-0.4c0-0.2-0.1-0.4-0.2-0.5s-0.3-0.2-0.4-0.2c-0.2,0-0.3,0.1-0.4,0.2
		s-0.2,0.3-0.2,0.5V222z M82.2,226.8l-0.7-0.4l3.5-5.6l0.7,0.4L82.2,226.8z M83.7,225.6c0-0.4,0.1-0.8,0.4-1.1s0.7-0.4,1.1-0.4
		c0.5,0,0.8,0.1,1.1,0.4c0.3,0.3,0.4,0.6,0.4,1.1v0.4c0,0.4-0.1,0.8-0.4,1.1s-0.7,0.4-1.1,0.4c-0.5,0-0.8-0.1-1.1-0.4
		s-0.4-0.6-0.4-1.1V225.6z M84.7,226c0,0.2,0.1,0.3,0.2,0.5s0.3,0.2,0.4,0.2c0.4,0,0.6-0.2,0.6-0.7v-0.4c0-0.2-0.1-0.4-0.2-0.5
		s-0.3-0.2-0.4-0.2s-0.3,0.1-0.4,0.2s-0.2,0.3-0.2,0.5V226z"/>
</g>
<g>
	<rect x="68.4" y="199.2" class="st0" width="19" height="13.4"/>
	<path class="st10" d="M70.3,202.5h0.8c0.4,0,0.6-0.1,0.8-0.3s0.3-0.4,0.3-0.7c0-0.3-0.1-0.5-0.3-0.7c-0.2-0.2-0.4-0.2-0.7-0.2
		c-0.3,0-0.5,0.1-0.7,0.2s-0.3,0.3-0.3,0.6h-1.4c0-0.4,0.1-0.7,0.3-1c0.2-0.3,0.5-0.5,0.8-0.7c0.4-0.2,0.8-0.2,1.2-0.2
		c0.8,0,1.3,0.2,1.8,0.5s0.6,0.9,0.6,1.5c0,0.3-0.1,0.6-0.3,0.9s-0.5,0.5-0.8,0.6c0.4,0.1,0.7,0.4,0.9,0.6c0.2,0.3,0.3,0.6,0.3,1
		c0,0.6-0.2,1.1-0.7,1.5c-0.5,0.4-1.1,0.6-1.8,0.6c-0.7,0-1.3-0.2-1.7-0.6c-0.5-0.4-0.7-0.9-0.7-1.5h1.4c0,0.3,0.1,0.5,0.3,0.7
		c0.2,0.2,0.4,0.3,0.7,0.3c0.3,0,0.6-0.1,0.8-0.3c0.2-0.2,0.3-0.4,0.3-0.7c0-0.7-0.4-1.1-1.2-1.1h-0.7V202.5z"/>
	<path class="st10" d="M79.4,203.8c0,1-0.2,1.7-0.6,2.3s-1,0.8-1.8,0.8c-0.8,0-1.4-0.3-1.8-0.8s-0.6-1.2-0.6-2.2v-1.3
		c0-1,0.2-1.7,0.6-2.3c0.4-0.5,1-0.8,1.8-0.8s1.4,0.3,1.8,0.8s0.6,1.2,0.6,2.2V203.8z M78,202.3c0-0.6-0.1-1-0.2-1.3
		c-0.2-0.3-0.4-0.4-0.8-0.4c-0.3,0-0.6,0.1-0.7,0.4c-0.2,0.3-0.2,0.7-0.3,1.2v1.7c0,0.6,0.1,1,0.2,1.3c0.2,0.3,0.4,0.4,0.8,0.4
		c0.3,0,0.6-0.1,0.7-0.4s0.2-0.7,0.2-1.2V202.3z"/>
	<path class="st10" d="M80.3,201c0-0.4,0.1-0.8,0.4-1.1s0.7-0.4,1.1-0.4c0.5,0,0.8,0.1,1.1,0.4s0.4,0.6,0.4,1.1v0.4
		c0,0.4-0.1,0.8-0.4,1.1s-0.7,0.4-1.1,0.4c-0.5,0-0.8-0.1-1.1-0.4c-0.3-0.3-0.4-0.6-0.4-1.1V201z M81.3,201.3c0,0.2,0.1,0.4,0.2,0.5
		c0.1,0.1,0.3,0.2,0.4,0.2s0.3-0.1,0.4-0.2s0.2-0.3,0.2-0.5V201c0-0.2-0.1-0.4-0.2-0.5s-0.3-0.2-0.4-0.2c-0.2,0-0.3,0.1-0.4,0.2
		s-0.2,0.3-0.2,0.5V201.3z M82.2,206.2l-0.7-0.4l3.5-5.6l0.7,0.4L82.2,206.2z M83.7,205c0-0.4,0.1-0.8,0.4-1.1s0.7-0.4,1.1-0.4
		c0.5,0,0.8,0.1,1.1,0.4c0.3,0.3,0.4,0.6,0.4,1.1v0.4c0,0.4-0.1,0.8-0.4,1.1s-0.7,0.4-1.1,0.4c-0.5,0-0.8-0.1-1.1-0.4
		s-0.4-0.6-0.4-1.1V205z M84.7,205.3c0,0.2,0.1,0.3,0.2,0.5s0.3,0.2,0.4,0.2c0.4,0,0.6-0.2,0.6-0.7V205c0-0.2-0.1-0.4-0.2-0.5
		s-0.3-0.2-0.4-0.2s-0.3,0.1-0.4,0.2s-0.2,0.3-0.2,0.5V205.3z"/>
</g>
<g>
	<rect x="68.4" y="178.5" class="st0" width="19" height="13.4"/>
	<path class="st10" d="M73.1,183.4h0.8v1.1h-0.8v1.5h-1.4v-1.5h-2.9l-0.1-0.9l3-4.7h1.4V183.4z M70.1,183.4h1.6v-2.5l-0.1,0.2
		L70.1,183.4z"/>
	<path class="st10" d="M79.4,183.1c0,1-0.2,1.7-0.6,2.3s-1,0.8-1.8,0.8c-0.8,0-1.4-0.3-1.8-0.8s-0.6-1.2-0.6-2.2v-1.3
		c0-1,0.2-1.7,0.6-2.3c0.4-0.5,1-0.8,1.8-0.8s1.4,0.3,1.8,0.8s0.6,1.2,0.6,2.2V183.1z M78,181.7c0-0.6-0.1-1-0.2-1.3
		c-0.2-0.3-0.4-0.4-0.8-0.4c-0.3,0-0.6,0.1-0.7,0.4c-0.2,0.3-0.2,0.7-0.3,1.2v1.7c0,0.6,0.1,1,0.2,1.3c0.2,0.3,0.4,0.4,0.8,0.4
		c0.3,0,0.6-0.1,0.7-0.4s0.2-0.7,0.2-1.2V181.7z"/>
	<path class="st10" d="M80.3,180.3c0-0.4,0.1-0.8,0.4-1.1s0.7-0.4,1.1-0.4c0.5,0,0.8,0.1,1.1,0.4s0.4,0.6,0.4,1.1v0.4
		c0,0.4-0.1,0.8-0.4,1.1s-0.7,0.4-1.1,0.4c-0.5,0-0.8-0.1-1.1-0.4c-0.3-0.3-0.4-0.6-0.4-1.1V180.3z M81.3,180.7
		c0,0.2,0.1,0.4,0.2,0.5c0.1,0.1,0.3,0.2,0.4,0.2s0.3-0.1,0.4-0.2s0.2-0.3,0.2-0.5v-0.4c0-0.2-0.1-0.4-0.2-0.5s-0.3-0.2-0.4-0.2
		c-0.2,0-0.3,0.1-0.4,0.2s-0.2,0.3-0.2,0.5V180.7z M82.2,185.5l-0.7-0.4l3.5-5.6l0.7,0.4L82.2,185.5z M83.7,184.3
		c0-0.4,0.1-0.8,0.4-1.1s0.7-0.4,1.1-0.4c0.5,0,0.8,0.1,1.1,0.4c0.3,0.3,0.4,0.6,0.4,1.1v0.4c0,0.4-0.1,0.8-0.4,1.1
		s-0.7,0.4-1.1,0.4c-0.5,0-0.8-0.1-1.1-0.4s-0.4-0.6-0.4-1.1V184.3z M84.7,184.7c0,0.2,0.1,0.3,0.2,0.5s0.3,0.2,0.4,0.2
		c0.4,0,0.6-0.2,0.6-0.7v-0.4c0-0.2-0.1-0.4-0.2-0.5s-0.3-0.2-0.4-0.2s-0.3,0.1-0.4,0.2s-0.2,0.3-0.2,0.5V184.7z"/>
</g>
<g>
	<rect x="68.4" y="157.9" class="st0" width="19" height="13.4"/>
	<path class="st10" d="M69.1,161.9l0.4-3.6h4v1.2h-2.8l-0.2,1.5c0.3-0.2,0.7-0.3,1.1-0.3c0.7,0,1.2,0.2,1.6,0.6s0.6,1,0.6,1.8
		c0,0.5-0.1,0.9-0.3,1.2c-0.2,0.4-0.5,0.6-0.8,0.8s-0.8,0.3-1.3,0.3c-0.4,0-0.8-0.1-1.2-0.3s-0.7-0.4-0.9-0.7
		c-0.2-0.3-0.3-0.7-0.3-1.1h1.4c0,0.3,0.1,0.5,0.3,0.7c0.2,0.2,0.4,0.2,0.7,0.2c0.3,0,0.6-0.1,0.7-0.3s0.3-0.6,0.3-1
		c0-0.4-0.1-0.7-0.3-0.9s-0.5-0.3-0.8-0.3c-0.3,0-0.6,0.1-0.8,0.3l-0.1,0.1L69.1,161.9z"/>
	<path class="st10" d="M79.4,162.4c0,1-0.2,1.7-0.6,2.3s-1,0.8-1.8,0.8c-0.8,0-1.4-0.3-1.8-0.8s-0.6-1.2-0.6-2.2v-1.3
		c0-1,0.2-1.7,0.6-2.3c0.4-0.5,1-0.8,1.8-0.8s1.4,0.3,1.8,0.8s0.6,1.2,0.6,2.2V162.4z M78,161c0-0.6-0.1-1-0.2-1.3
		c-0.2-0.3-0.4-0.4-0.8-0.4c-0.3,0-0.6,0.1-0.7,0.4c-0.2,0.3-0.2,0.7-0.3,1.2v1.7c0,0.6,0.1,1,0.2,1.3c0.2,0.3,0.4,0.4,0.8,0.4
		c0.3,0,0.6-0.1,0.7-0.4s0.2-0.7,0.2-1.2V161z"/>
	<path class="st10" d="M80.3,159.6c0-0.4,0.1-0.8,0.4-1.1s0.7-0.4,1.1-0.4c0.5,0,0.8,0.1,1.1,0.4s0.4,0.6,0.4,1.1v0.4
		c0,0.4-0.1,0.8-0.4,1.1s-0.7,0.4-1.1,0.4c-0.5,0-0.8-0.1-1.1-0.4c-0.3-0.3-0.4-0.6-0.4-1.1V159.6z M81.3,160c0,0.2,0.1,0.4,0.2,0.5
		c0.1,0.1,0.3,0.2,0.4,0.2s0.3-0.1,0.4-0.2s0.2-0.3,0.2-0.5v-0.4c0-0.2-0.1-0.4-0.2-0.5s-0.3-0.2-0.4-0.2c-0.2,0-0.3,0.1-0.4,0.2
		s-0.2,0.3-0.2,0.5V160z M82.2,164.9l-0.7-0.4l3.5-5.6l0.7,0.4L82.2,164.9z M83.7,163.6c0-0.4,0.1-0.8,0.4-1.1s0.7-0.4,1.1-0.4
		c0.5,0,0.8,0.1,1.1,0.4c0.3,0.3,0.4,0.6,0.4,1.1v0.4c0,0.4-0.1,0.8-0.4,1.1s-0.7,0.4-1.1,0.4c-0.5,0-0.8-0.1-1.1-0.4
		s-0.4-0.6-0.4-1.1V163.6z M84.7,164c0,0.2,0.1,0.3,0.2,0.5s0.3,0.2,0.4,0.2c0.4,0,0.6-0.2,0.6-0.7v-0.4c0-0.2-0.1-0.4-0.2-0.5
		s-0.3-0.2-0.4-0.2s-0.3,0.1-0.4,0.2s-0.2,0.3-0.2,0.5V164z"/>
</g>
<g>
	<rect x="68.4" y="137.2" class="st0" width="19" height="13.4"/>
	<path class="st10" d="M72.7,137.5v1.2h-0.1c-0.6,0-1.2,0.2-1.5,0.5c-0.4,0.3-0.6,0.8-0.7,1.3c0.4-0.4,0.9-0.6,1.4-0.6
		c0.6,0,1.1,0.2,1.5,0.7s0.5,1,0.5,1.7c0,0.5-0.1,0.9-0.3,1.3c-0.2,0.4-0.5,0.7-0.8,0.9c-0.4,0.2-0.8,0.3-1.2,0.3
		c-0.7,0-1.4-0.3-1.8-0.8c-0.5-0.5-0.7-1.2-0.7-2.1v-0.5c0-0.8,0.1-1.5,0.4-2c0.3-0.6,0.7-1,1.3-1.4c0.5-0.3,1.2-0.5,1.9-0.5H72.7z
		 M71.3,141.1c-0.2,0-0.4,0.1-0.6,0.2c-0.2,0.1-0.3,0.3-0.4,0.5v0.4c0,0.5,0.1,0.8,0.3,1.1c0.2,0.3,0.4,0.4,0.8,0.4
		c0.3,0,0.5-0.1,0.7-0.4c0.2-0.2,0.3-0.5,0.3-0.9c0-0.4-0.1-0.7-0.3-0.9C71.9,141.2,71.7,141.1,71.3,141.1z"/>
	<path class="st10" d="M79.4,141.8c0,1-0.2,1.7-0.6,2.3s-1,0.8-1.8,0.8c-0.8,0-1.4-0.3-1.8-0.8s-0.6-1.2-0.6-2.2v-1.3
		c0-1,0.2-1.7,0.6-2.3c0.4-0.5,1-0.8,1.8-0.8s1.4,0.3,1.8,0.8s0.6,1.2,0.6,2.2V141.8z M78,140.4c0-0.6-0.1-1-0.2-1.3
		c-0.2-0.3-0.4-0.4-0.8-0.4c-0.3,0-0.6,0.1-0.7,0.4c-0.2,0.3-0.2,0.7-0.3,1.2v1.7c0,0.6,0.1,1,0.2,1.3c0.2,0.3,0.4,0.4,0.8,0.4
		c0.3,0,0.6-0.1,0.7-0.4s0.2-0.7,0.2-1.2V140.4z"/>
	<path class="st10" d="M80.3,139c0-0.4,0.1-0.8,0.4-1.1s0.7-0.4,1.1-0.4c0.5,0,0.8,0.1,1.1,0.4s0.4,0.6,0.4,1.1v0.4
		c0,0.4-0.1,0.8-0.4,1.1s-0.7,0.4-1.1,0.4c-0.5,0-0.8-0.1-1.1-0.4c-0.3-0.3-0.4-0.6-0.4-1.1V139z M81.3,139.4c0,0.2,0.1,0.4,0.2,0.5
		c0.1,0.1,0.3,0.2,0.4,0.2s0.3-0.1,0.4-0.2s0.2-0.3,0.2-0.5V139c0-0.2-0.1-0.4-0.2-0.5s-0.3-0.2-0.4-0.2c-0.2,0-0.3,0.1-0.4,0.2
		s-0.2,0.3-0.2,0.5V139.4z M82.2,144.2l-0.7-0.4l3.5-5.6l0.7,0.4L82.2,144.2z M83.7,143c0-0.4,0.1-0.8,0.4-1.1s0.7-0.4,1.1-0.4
		c0.5,0,0.8,0.1,1.1,0.4c0.3,0.3,0.4,0.6,0.4,1.1v0.4c0,0.4-0.1,0.8-0.4,1.1s-0.7,0.4-1.1,0.4c-0.5,0-0.8-0.1-1.1-0.4
		s-0.4-0.6-0.4-1.1V143z M84.7,143.4c0,0.2,0.1,0.3,0.2,0.5s0.3,0.2,0.4,0.2c0.4,0,0.6-0.2,0.6-0.7V143c0-0.2-0.1-0.4-0.2-0.5
		s-0.3-0.2-0.4-0.2s-0.3,0.1-0.4,0.2s-0.2,0.3-0.2,0.5V143.4z"/>
</g>
<g>
	<rect x="68.4" y="116.6" class="st0" width="19" height="13.4"/>
	<path class="st10" d="M73.7,117.8l-2.7,6.3h-1.5l2.8-6h-3.5V117h5V117.8z"/>
	<path class="st10" d="M79.4,121.1c0,1-0.2,1.7-0.6,2.3s-1,0.8-1.8,0.8c-0.8,0-1.4-0.3-1.8-0.8s-0.6-1.2-0.6-2.2v-1.3
		c0-1,0.2-1.7,0.6-2.3c0.4-0.5,1-0.8,1.8-0.8s1.4,0.3,1.8,0.8s0.6,1.2,0.6,2.2V121.1z M78,119.7c0-0.6-0.1-1-0.2-1.3
		c-0.2-0.3-0.4-0.4-0.8-0.4c-0.3,0-0.6,0.1-0.7,0.4c-0.2,0.3-0.2,0.7-0.3,1.2v1.7c0,0.6,0.1,1,0.2,1.3c0.2,0.3,0.4,0.4,0.8,0.4
		c0.3,0,0.6-0.1,0.7-0.4s0.2-0.7,0.2-1.2V119.7z"/>
	<path class="st10" d="M80.3,118.3c0-0.4,0.1-0.8,0.4-1.1s0.7-0.4,1.1-0.4c0.5,0,0.8,0.1,1.1,0.4s0.4,0.6,0.4,1.1v0.4
		c0,0.4-0.1,0.8-0.4,1.1s-0.7,0.4-1.1,0.4c-0.5,0-0.8-0.1-1.1-0.4c-0.3-0.3-0.4-0.6-0.4-1.1V118.3z M81.3,118.7
		c0,0.2,0.1,0.4,0.2,0.5c0.1,0.1,0.3,0.2,0.4,0.2s0.3-0.1,0.4-0.2s0.2-0.3,0.2-0.5v-0.4c0-0.2-0.1-0.4-0.2-0.5s-0.3-0.2-0.4-0.2
		c-0.2,0-0.3,0.1-0.4,0.2s-0.2,0.3-0.2,0.5V118.7z M82.2,123.5l-0.7-0.4l3.5-5.6l0.7,0.4L82.2,123.5z M83.7,122.3
		c0-0.4,0.1-0.8,0.4-1.1s0.7-0.4,1.1-0.4c0.5,0,0.8,0.1,1.1,0.4c0.3,0.3,0.4,0.6,0.4,1.1v0.4c0,0.4-0.1,0.8-0.4,1.1
		s-0.7,0.4-1.1,0.4c-0.5,0-0.8-0.1-1.1-0.4s-0.4-0.6-0.4-1.1V122.3z M84.7,122.7c0,0.2,0.1,0.3,0.2,0.5s0.3,0.2,0.4,0.2
		c0.4,0,0.6-0.2,0.6-0.7v-0.4c0-0.2-0.1-0.4-0.2-0.5s-0.3-0.2-0.4-0.2s-0.3,0.1-0.4,0.2s-0.2,0.3-0.2,0.5V122.7z"/>
</g>
<g>
	<rect x="68.4" y="95.9" class="st0" width="19" height="13.4"/>
	<path class="st10" d="M73.5,98.2c0,0.3-0.1,0.7-0.3,0.9s-0.4,0.5-0.7,0.6c0.3,0.2,0.6,0.4,0.8,0.7s0.3,0.6,0.3,1
		c0,0.6-0.2,1.1-0.6,1.5s-1,0.5-1.8,0.5s-1.3-0.2-1.8-0.6s-0.6-0.9-0.6-1.5c0-0.4,0.1-0.7,0.3-1s0.5-0.5,0.8-0.7
		c-0.3-0.2-0.5-0.4-0.7-0.6c-0.2-0.3-0.3-0.6-0.3-0.9c0-0.6,0.2-1.1,0.6-1.4s1-0.5,1.6-0.5c0.7,0,1.2,0.2,1.6,0.5
		C73.3,97.1,73.5,97.6,73.5,98.2z M72.3,101.4c0-0.3-0.1-0.6-0.3-0.7s-0.4-0.3-0.7-0.3c-0.3,0-0.5,0.1-0.7,0.3s-0.3,0.4-0.3,0.7
		c0,0.3,0.1,0.5,0.3,0.7s0.4,0.3,0.7,0.3c0.3,0,0.5-0.1,0.7-0.3C72.2,101.9,72.3,101.7,72.3,101.4z M72.1,98.3
		c0-0.3-0.1-0.5-0.2-0.7s-0.4-0.3-0.6-0.3c-0.3,0-0.5,0.1-0.6,0.2s-0.2,0.4-0.2,0.7c0,0.3,0.1,0.5,0.2,0.7s0.4,0.3,0.6,0.3
		s0.5-0.1,0.6-0.3C72,98.8,72.1,98.6,72.1,98.3z"/>
	<path class="st10" d="M79.4,100.5c0,1-0.2,1.7-0.6,2.3s-1,0.8-1.8,0.8c-0.8,0-1.4-0.3-1.8-0.8s-0.6-1.2-0.6-2.2v-1.3
		c0-1,0.2-1.7,0.6-2.3c0.4-0.5,1-0.8,1.8-0.8s1.4,0.3,1.8,0.8s0.6,1.2,0.6,2.2V100.5z M78,99c0-0.6-0.1-1-0.2-1.3
		c-0.2-0.3-0.4-0.4-0.8-0.4c-0.3,0-0.6,0.1-0.7,0.4C76.1,98,76,98.4,76,98.9v1.7c0,0.6,0.1,1,0.2,1.3c0.2,0.3,0.4,0.4,0.8,0.4
		c0.3,0,0.6-0.1,0.7-0.4s0.2-0.7,0.2-1.2V99z"/>
	<path class="st10" d="M80.3,97.7c0-0.4,0.1-0.8,0.4-1.1s0.7-0.4,1.1-0.4c0.5,0,0.8,0.1,1.1,0.4s0.4,0.6,0.4,1.1v0.4
		c0,0.4-0.1,0.8-0.4,1.1s-0.7,0.4-1.1,0.4c-0.5,0-0.8-0.1-1.1-0.4c-0.3-0.3-0.4-0.6-0.4-1.1V97.7z M81.3,98.1c0,0.2,0.1,0.4,0.2,0.5
		c0.1,0.1,0.3,0.2,0.4,0.2s0.3-0.1,0.4-0.2s0.2-0.3,0.2-0.5v-0.4c0-0.2-0.1-0.4-0.2-0.5S82.1,97,81.9,97c-0.2,0-0.3,0.1-0.4,0.2
		s-0.2,0.3-0.2,0.5V98.1z M82.2,102.9l-0.7-0.4L85,97l0.7,0.4L82.2,102.9z M83.7,101.7c0-0.4,0.1-0.8,0.4-1.1s0.7-0.4,1.1-0.4
		c0.5,0,0.8,0.1,1.1,0.4c0.3,0.3,0.4,0.6,0.4,1.1v0.4c0,0.4-0.1,0.8-0.4,1.1s-0.7,0.4-1.1,0.4c-0.5,0-0.8-0.1-1.1-0.4
		s-0.4-0.6-0.4-1.1V101.7z M84.7,102.1c0,0.2,0.1,0.3,0.2,0.5s0.3,0.2,0.4,0.2c0.4,0,0.6-0.2,0.6-0.7v-0.4c0-0.2-0.1-0.4-0.2-0.5
		s-0.3-0.2-0.4-0.2s-0.3,0.1-0.4,0.2s-0.2,0.3-0.2,0.5V102.1z"/>
</g>
<g>
	<rect x="68.4" y="75.2" class="st0" width="19" height="13.5"/>
	<path class="st10" d="M72.2,79.9c-0.4,0.4-0.8,0.5-1.3,0.5c-0.6,0-1.1-0.2-1.5-0.6s-0.6-1-0.6-1.7c0-0.5,0.1-0.9,0.3-1.3
		c0.2-0.4,0.5-0.7,0.9-0.9s0.8-0.3,1.2-0.3c0.5,0,0.9,0.1,1.3,0.4s0.6,0.6,0.8,1s0.3,0.9,0.3,1.5v0.5c0,1.2-0.3,2.1-0.9,2.8
		s-1.4,1-2.5,1.1l-0.3,0v-1.2l0.3,0C71.4,81.5,72.1,80.9,72.2,79.9z M71.3,79.3c0.2,0,0.4-0.1,0.6-0.2c0.2-0.1,0.3-0.3,0.4-0.4v-0.6
		c0-0.5-0.1-0.8-0.3-1.1s-0.4-0.4-0.7-0.4c-0.3,0-0.5,0.1-0.7,0.4s-0.3,0.6-0.3,1c0,0.4,0.1,0.7,0.3,1
		C70.7,79.2,70.9,79.3,71.3,79.3z"/>
	<path class="st10" d="M79.4,79.8c0,1-0.2,1.7-0.6,2.3s-1,0.8-1.8,0.8c-0.8,0-1.4-0.3-1.8-0.8s-0.6-1.2-0.6-2.2v-1.3
		c0-1,0.2-1.7,0.6-2.3c0.4-0.5,1-0.8,1.8-0.8s1.4,0.3,1.8,0.8s0.6,1.2,0.6,2.2V79.8z M78,78.3c0-0.6-0.1-1-0.2-1.3
		c-0.2-0.3-0.4-0.4-0.8-0.4c-0.3,0-0.6,0.1-0.7,0.4c-0.2,0.3-0.2,0.7-0.3,1.2v1.7c0,0.6,0.1,1,0.2,1.3c0.2,0.3,0.4,0.4,0.8,0.4
		c0.3,0,0.6-0.1,0.7-0.4S78,80.6,78,80V78.3z"/>
	<path class="st10" d="M80.4,77c0-0.4,0.1-0.8,0.4-1.1s0.7-0.4,1.1-0.4c0.5,0,0.8,0.1,1.1,0.4s0.4,0.6,0.4,1.1v0.4
		c0,0.4-0.1,0.8-0.4,1.1s-0.7,0.4-1.1,0.4c-0.5,0-0.8-0.1-1.1-0.4c-0.3-0.3-0.4-0.6-0.4-1.1V77z M81.3,77.3c0,0.2,0.1,0.4,0.2,0.5
		c0.1,0.1,0.3,0.2,0.4,0.2s0.3-0.1,0.4-0.2s0.2-0.3,0.2-0.5V77c0-0.2-0.1-0.4-0.2-0.5s-0.3-0.2-0.4-0.2c-0.2,0-0.3,0.1-0.4,0.2
		s-0.2,0.3-0.2,0.5V77.3z M82.2,82.2l-0.7-0.4l3.5-5.6l0.7,0.4L82.2,82.2z M83.7,81c0-0.4,0.1-0.8,0.4-1.1s0.7-0.4,1.1-0.4
		c0.5,0,0.8,0.1,1.1,0.4c0.3,0.3,0.4,0.6,0.4,1.1v0.4c0,0.4-0.1,0.8-0.4,1.1s-0.7,0.4-1.1,0.4c-0.5,0-0.8-0.1-1.1-0.4
		s-0.4-0.6-0.4-1.1V81z M84.7,81.3c0,0.2,0.1,0.3,0.2,0.5s0.3,0.2,0.4,0.2c0.4,0,0.6-0.2,0.6-0.7V81c0-0.2-0.1-0.4-0.2-0.5
		s-0.3-0.2-0.4-0.2s-0.3,0.1-0.4,0.2s-0.2,0.3-0.2,0.5V81.3z"/>
</g>
<g>
	<rect x="65" y="54.6" class="st0" width="25.8" height="13.4"/>
	<path class="st10" d="M68.9,62.1h-1.4v-5.4l-1.7,0.5V56l2.9-1.1h0.2V62.1z"/>
	<path class="st10" d="M76,59.2c0,1-0.2,1.7-0.6,2.3s-1,0.8-1.8,0.8c-0.8,0-1.4-0.3-1.8-0.8s-0.6-1.2-0.6-2.2v-1.3
		c0-1,0.2-1.7,0.6-2.3c0.4-0.5,1-0.8,1.8-0.8s1.4,0.3,1.8,0.8s0.6,1.2,0.6,2.2V59.2z M74.6,57.7c0-0.6-0.1-1-0.2-1.3
		c-0.2-0.3-0.4-0.4-0.8-0.4c-0.3,0-0.6,0.1-0.7,0.4c-0.2,0.3-0.2,0.7-0.3,1.2v1.7c0,0.6,0.1,1,0.2,1.3c0.2,0.3,0.4,0.4,0.8,0.4
		c0.3,0,0.6-0.1,0.7-0.4s0.2-0.7,0.2-1.2V57.7z"/>
	<path class="st10" d="M81.7,59.2c0,1-0.2,1.7-0.6,2.3s-1,0.8-1.8,0.8c-0.8,0-1.4-0.3-1.8-0.8s-0.6-1.2-0.6-2.2v-1.3
		c0-1,0.2-1.7,0.6-2.3c0.4-0.5,1-0.8,1.8-0.8s1.4,0.3,1.8,0.8s0.6,1.2,0.6,2.2V59.2z M80.3,57.7c0-0.6-0.1-1-0.2-1.3
		c-0.2-0.3-0.4-0.4-0.8-0.4c-0.3,0-0.6,0.1-0.7,0.4c-0.2,0.3-0.2,0.7-0.3,1.2v1.7c0,0.6,0.1,1,0.2,1.3c0.2,0.3,0.4,0.4,0.8,0.4
		c0.3,0,0.6-0.1,0.7-0.4s0.2-0.7,0.2-1.2V57.7z"/>
	<path class="st10" d="M82.7,56.4c0-0.4,0.1-0.8,0.4-1.1s0.7-0.4,1.1-0.4c0.5,0,0.8,0.1,1.1,0.4s0.4,0.6,0.4,1.1v0.4
		c0,0.4-0.1,0.8-0.4,1.1s-0.7,0.4-1.1,0.4c-0.5,0-0.8-0.1-1.1-0.4c-0.3-0.3-0.4-0.6-0.4-1.1V56.4z M83.6,56.7c0,0.2,0.1,0.4,0.2,0.5
		c0.1,0.1,0.3,0.2,0.4,0.2s0.3-0.1,0.4-0.2s0.2-0.3,0.2-0.5v-0.4c0-0.2-0.1-0.4-0.2-0.5s-0.3-0.2-0.4-0.2c-0.2,0-0.3,0.1-0.4,0.2
		s-0.2,0.3-0.2,0.5V56.7z M84.5,61.6l-0.7-0.4l3.5-5.6L88,56L84.5,61.6z M86.1,60.4c0-0.4,0.1-0.8,0.4-1.1s0.7-0.4,1.1-0.4
		c0.5,0,0.8,0.1,1.1,0.4c0.3,0.3,0.4,0.6,0.4,1.1v0.4c0,0.4-0.1,0.8-0.4,1.1s-0.7,0.4-1.1,0.4c-0.5,0-0.8-0.1-1.1-0.4
		s-0.4-0.6-0.4-1.1V60.4z M87,60.7c0,0.2,0.1,0.3,0.2,0.5s0.3,0.2,0.4,0.2c0.4,0,0.6-0.2,0.6-0.7v-0.4c0-0.2-0.1-0.4-0.2-0.5
		s-0.3-0.2-0.4-0.2s-0.3,0.1-0.4,0.2S87,60.2,87,60.4V60.7z"/>
</g>
<polyline class="st18" points="91,51.4 91,255.1 311.9,255.3 "/>
<g>
	<rect x="53" y="258.9" class="st0" width="41" height="15"/>
	<path class="st10" d="M57.3,264.6c0.1-0.5-0.2-0.9-0.8-1.1l-0.8-0.3l-0.3-0.1c-1-0.4-1.4-1-1.3-1.8c0-0.4,0.2-0.7,0.4-1
		s0.6-0.5,0.9-0.7c0.4-0.2,0.8-0.2,1.3-0.2c0.4,0,0.8,0.1,1.2,0.3c0.3,0.2,0.6,0.4,0.8,0.8s0.3,0.7,0.2,1.1l-0.9,0
		c0-0.4-0.1-0.8-0.3-1s-0.6-0.4-1-0.4c-0.4,0-0.8,0.1-1.1,0.3s-0.5,0.5-0.5,0.9c-0.1,0.5,0.2,0.9,0.9,1.1l0.7,0.3l0.4,0.2
		c0.9,0.4,1.3,1.1,1.3,1.9c0,0.4-0.2,0.7-0.4,1s-0.6,0.5-1,0.7c-0.4,0.2-0.8,0.2-1.3,0.2c-0.4,0-0.9-0.1-1.2-0.3
		c-0.4-0.2-0.6-0.4-0.8-0.8s-0.3-0.7-0.3-1.1l0.9,0c0,0.4,0.1,0.8,0.3,1c0.3,0.2,0.6,0.4,1.1,0.4s0.9-0.1,1.2-0.3
		S57.2,265,57.3,264.6z"/>
	<path class="st10" d="M61.2,266.5c-0.7,0-1.2-0.3-1.5-0.7s-0.5-1.1-0.5-1.8l0-0.2c0.1-0.5,0.2-1,0.5-1.4c0.3-0.4,0.6-0.8,0.9-1
		s0.8-0.3,1.2-0.3c0.5,0,1,0.2,1.3,0.5s0.5,0.8,0.5,1.4c0,0.2,0,0.4,0,0.6l-0.1,0.4h-3.5c-0.1,0.5,0,0.9,0.2,1.2
		c0.2,0.3,0.5,0.5,1,0.5c0.5,0,1-0.2,1.4-0.7l0.5,0.4c-0.2,0.3-0.5,0.6-0.9,0.7C62.1,266.5,61.7,266.5,61.2,266.5z M61.8,261.8
		c-0.4,0-0.7,0.1-1,0.4c-0.3,0.3-0.5,0.6-0.6,1.1l2.6,0l0-0.1c0.1-0.4,0-0.8-0.2-1C62.4,262,62.1,261.8,61.8,261.8z"/>
	<path class="st10" d="M65.9,261.2l-0.1,0.6c0.4-0.5,1-0.7,1.6-0.7c0.3,0,0.6,0.1,0.9,0.2c0.2,0.1,0.4,0.4,0.5,0.6
		c0.5-0.6,1.1-0.9,1.8-0.8c0.5,0,0.9,0.2,1.2,0.5s0.3,0.8,0.3,1.4l-0.6,3.5h-0.9L71,263c0-0.2,0-0.3,0-0.5c-0.1-0.4-0.4-0.7-0.9-0.7
		c-0.3,0-0.6,0.1-0.9,0.3c-0.3,0.2-0.4,0.5-0.5,0.8l-0.6,3.5h-0.9l0.6-3.5c0-0.4,0-0.6-0.2-0.8c-0.2-0.2-0.4-0.3-0.7-0.3
		c-0.5,0-1,0.2-1.3,0.8l-0.7,3.9h-0.9l0.9-5.3L65.9,261.2z"/>
	<path class="st10" d="M75.9,266.4c0-0.1,0-0.2,0-0.3l0-0.3c-0.5,0.4-1,0.7-1.5,0.7c-0.5,0-0.8-0.2-1.1-0.4
		c-0.3-0.3-0.4-0.6-0.4-1.1c0-0.6,0.3-1,0.7-1.3c0.5-0.3,1.1-0.5,1.8-0.5l0.9,0l0.1-0.4c0-0.3,0-0.6-0.2-0.7
		c-0.2-0.2-0.4-0.3-0.7-0.3c-0.3,0-0.6,0.1-0.8,0.2c-0.2,0.2-0.4,0.4-0.4,0.6l-0.9,0c0-0.3,0.1-0.6,0.4-0.8s0.5-0.4,0.8-0.6
		s0.7-0.2,1-0.2c0.5,0,1,0.2,1.3,0.5s0.4,0.7,0.4,1.3l-0.4,2.6l0,0.4c0,0.2,0,0.4,0.1,0.5l0,0.1H75.9z M74.5,265.8
		c0.3,0,0.6-0.1,0.8-0.2c0.3-0.1,0.5-0.3,0.7-0.6l0.2-1.1l-0.7,0c-0.6,0-1,0.1-1.3,0.3s-0.5,0.4-0.5,0.7c0,0.2,0,0.5,0.2,0.6
		C74.1,265.7,74.3,265.8,74.5,265.8z"/>
	<path class="st10" d="M79.8,261.2l-0.1,0.7c0.5-0.5,1-0.8,1.6-0.8c0.5,0,0.9,0.2,1.1,0.5s0.3,0.8,0.3,1.4l-0.6,3.5h-0.9l0.6-3.5
		c0-0.2,0-0.3,0-0.4c-0.1-0.5-0.3-0.7-0.8-0.7c-0.5,0-1,0.3-1.4,0.8l-0.7,3.8H78l0.9-5.3L79.8,261.2z"/>
	<path class="st10" d="M86.7,266.4c0-0.1,0-0.2,0-0.3l0-0.3c-0.5,0.4-1,0.7-1.5,0.7c-0.5,0-0.8-0.2-1.1-0.4
		c-0.3-0.3-0.4-0.6-0.4-1.1c0-0.6,0.3-1,0.7-1.3c0.5-0.3,1.1-0.5,1.8-0.5l0.9,0l0.1-0.4c0-0.3,0-0.6-0.2-0.7
		c-0.2-0.2-0.4-0.3-0.7-0.3c-0.3,0-0.6,0.1-0.8,0.2c-0.2,0.2-0.4,0.4-0.4,0.6l-0.9,0c0-0.3,0.1-0.6,0.4-0.8s0.5-0.4,0.8-0.6
		s0.7-0.2,1-0.2c0.5,0,1,0.2,1.3,0.5s0.4,0.7,0.4,1.3l-0.4,2.6l0,0.4c0,0.2,0,0.4,0.1,0.5l0,0.1H86.7z M85.3,265.8
		c0.3,0,0.6-0.1,0.8-0.2c0.3-0.1,0.5-0.3,0.7-0.6l0.2-1.1l-0.7,0c-0.6,0-1,0.1-1.3,0.3s-0.5,0.4-0.5,0.7c0,0.2,0,0.5,0.2,0.6
		C84.8,265.7,85,265.8,85.3,265.8z"/>
	<path class="st10" d="M92,265c0-0.4-0.2-0.6-0.6-0.8l-0.9-0.3c-0.8-0.3-1.1-0.7-1.1-1.3c0-0.5,0.2-0.8,0.6-1.1
		c0.4-0.3,0.9-0.4,1.4-0.4c0.5,0,1,0.2,1.3,0.5c0.3,0.3,0.5,0.7,0.5,1.2l-0.9,0c0-0.3-0.1-0.5-0.2-0.6s-0.4-0.3-0.7-0.3
		c-0.3,0-0.6,0.1-0.8,0.2c-0.2,0.1-0.3,0.3-0.4,0.6c0,0.3,0.1,0.5,0.6,0.7l0.4,0.1c0.6,0.2,1,0.4,1.3,0.6s0.4,0.6,0.4,0.9
		c0,0.3-0.1,0.6-0.3,0.9s-0.5,0.4-0.8,0.6s-0.7,0.2-1,0.2c-0.6,0-1-0.2-1.4-0.5s-0.5-0.7-0.5-1.2l0.9,0c0,0.3,0.1,0.5,0.3,0.7
		s0.4,0.3,0.8,0.3c0.3,0,0.6-0.1,0.8-0.2S92,265.3,92,265z"/>
</g>
<linearGradient id="SVGID_2_" gradientUnits="userSpaceOnUse" x1="94.5" y1="165" x2="126.5" y2="165">
	<stop  offset="0" style="stop-color:#F0D477"/>
	<stop  offset="0.2207" style="stop-color:#E0A75C"/>
	<stop  offset="0.3595" style="stop-color:#D8904E"/>
	<stop  offset="0.5393" style="stop-color:#B87333"/>
	<stop  offset="1" style="stop-color:#814924"/>
</linearGradient>
<rect x="94.5" y="77" class="st7" width="32" height="176"/>
<linearGradient id="SVGID_3_" gradientUnits="userSpaceOnUse" x1="142" y1="224.5133" x2="174" y2="224.5133">
	<stop  offset="0" style="stop-color:#F0D477"/>
	<stop  offset="0.2207" style="stop-color:#E0A75C"/>
	<stop  offset="0.3595" style="stop-color:#D8904E"/>
	<stop  offset="0.5393" style="stop-color:#B87333"/>
	<stop  offset="1" style="stop-color:#814924"/>
</linearGradient>
<rect x="142" y="197" style="fill:url(#SVGID_3_);" width="32" height="55"/>
<linearGradient id="SVGID_4_" gradientUnits="userSpaceOnUse" x1="189" y1="156.5" x2="221" y2="156.5">
	<stop  offset="0" style="stop-color:#F0D477"/>
	<stop  offset="0.2207" style="stop-color:#E0A75C"/>
	<stop  offset="0.3595" style="stop-color:#D8904E"/>
	<stop  offset="0.5393" style="stop-color:#B87333"/>
	<stop  offset="1" style="stop-color:#814924"/>
</linearGradient>
<rect x="189" y="60" style="fill:url(#SVGID_4_);" width="32" height="193"/>
<linearGradient id="SVGID_5_" gradientUnits="userSpaceOnUse" x1="241.5" y1="250.3167" x2="273.5" y2="250.3167">
	<stop  offset="0" style="stop-color:#F0D477"/>
	<stop  offset="0.2207" style="stop-color:#E0A75C"/>
	<stop  offset="0.3595" style="stop-color:#D8904E"/>
	<stop  offset="0.5393" style="stop-color:#B87333"/>
	<stop  offset="1" style="stop-color:#814924"/>
</linearGradient>
<rect x="241.5" y="247" style="fill:url(#SVGID_5_);" width="32" height="6.6"/>
</svg>
