<?xml version="1.0" encoding="utf-8"?>
<!-- Generator: Adobe Illustrator 21.0.0, SVG Export Plug-In . SVG Version: 6.00 Build 0)  -->
<svg version="1.1" id="Capa_1" xmlns="http://www.w3.org/2000/svg" xmlns:xlink="http://www.w3.org/1999/xlink" x="0px" y="0px"
	 viewBox="0 0 40 40" style="enable-background:new 0 0 40 40;" xml:space="preserve">
<style type="text/css">
	.st0{fill:#FFFFFF;}
	.st1{fill:none;}
	.st2{fill:#F8AD3B;}
	.st3{fill:#585857;}
	.st4{fill:#222221;}
	.st5{fill:#3F3F3F;}
	.st6{fill:url(#SVGID_1_);}
	.st7{fill:url(#SVGID_2_);}
	.st8{fill:#989898;}
</style>
<circle class="st0" cx="20.5" cy="20.5" r="18.5"/>
<g>
	<rect x="17" y="4.5" class="st1" width="12" height="31.5"/>
	<path class="st8" d="M23.5,11.6v17.8c0,1.9-0.5,3.3-1.5,4.4c-1,1-2.4,1.6-4.3,1.6c-0.8,0-1.5-0.1-2.2-0.3v-3.6
		c0.5,0.1,1,0.1,1.4,0.1c1.4,0,2-0.7,2-2.2V11.6H23.5z M18.6,7.2c0-0.7,0.2-1.2,0.7-1.7s1.1-0.7,1.9-0.7s1.4,0.2,1.9,0.7
		s0.7,1,0.7,1.7c0,0.7-0.2,1.3-0.7,1.7c-0.5,0.4-1.1,0.7-1.8,0.7c-0.8,0-1.4-0.2-1.8-0.7C18.9,8.4,18.6,7.9,18.6,7.2z"/>
</g>
</svg>
