<?xml version="1.0" encoding="utf-8"?>
<!-- Generator: Adobe Illustrator 21.0.0, SVG Export Plug-In . SVG Version: 6.00 Build 0)  -->
<svg version="1.1" id="Capa_1" xmlns="http://www.w3.org/2000/svg" xmlns:xlink="http://www.w3.org/1999/xlink" x="0px" y="0px"
	 viewBox="0 0 900 900" style="enable-background:new 0 0 900 900;" xml:space="preserve">
<style type="text/css">
	.st0{fill:#B27F7F;}
	.st1{fill:#222221;}
	.st2{fill:none;stroke:#B27F7F;stroke-width:2.7428;stroke-miterlimit:10;}
	.st3{fill:#222221;stroke:#9E5F5F;stroke-width:2.7428;stroke-miterlimit:10;}
</style>
<g>
	<g>
		<path class="st0" d="M876.3,19.2v858.5H17.8V19.2H876.3 M884.5,11H9.6v875h875V11L884.5,11z"/>
	</g>
	<g>
		<path class="st1" d="M452.5,793.5c-28,0-56,0.1-83.9,0.3c-28,0.2-56,0.5-83.9,0.9l-42,0.6l-42,0.8l-21,0.4l-21,0.5l-42,1l-7.8,0.2
			l3.8-7c26.7-49.2,53.1-98.6,79.6-147.9C219,594,245.3,544.7,272,495.5c26.7-49.2,53.6-98.3,80.9-147.1
			c27.3-48.8,54.9-97.5,82.9-146l16.6-28.8l16.6,28.8c28,48.4,55.6,97.1,83,145.9l20.4,36.7l20.3,36.8l10.1,18.4l10.1,18.4
			l20.1,36.9c26.7,49.2,53.1,98.6,79.6,147.9c26.5,49.3,52.9,98.7,79.6,147.9l3.9,7.1l-7.9-0.2l-42-1c-14-0.3-28-0.7-42-0.9l-42-0.8
			l-42-0.7c-28-0.4-56-0.7-83.9-0.9C508.5,793.6,480.5,793.5,452.5,793.5z M452.5,793.5c28,0,56-0.1,83.9-0.3
			c28-0.2,56-0.5,83.9-0.9l42-0.7l42-0.8c14-0.3,28-0.6,42-0.9l42-1l-4,6.9C755,748.1,725.4,700.6,696,653
			c-29.5-47.6-59-95.1-88.3-142.9l-21.9-35.8l-10.9-17.9l-10.8-18l-21.7-35.9l-21.5-36c-28.6-48.1-56.9-96.4-84.9-144.8h33.2
			c-28,48.5-56.3,96.7-85,144.8c-28.6,48.1-57.7,95.9-86.9,143.7c-29.2,47.7-58.8,95.3-88.3,142.9c-29.5,47.6-59,95.2-88.3,142.9
			l-3.9-6.8l42,1l21,0.5l21,0.4l42,0.8l42,0.6c28,0.4,56,0.7,83.9,0.9C396.6,793.4,424.5,793.5,452.5,793.5z"/>
	</g>
	<line class="st2" x1="101.9" y1="886" x2="101.9" y2="11"/>
	<line class="st3" x1="796.7" y1="886" x2="796.7" y2="11"/>
	<line class="st2" x1="452.5" y1="890.5" x2="452.5" y2="15.6"/>
	<line class="st2" x1="9.6" y1="173.6" x2="884.5" y2="173.6"/>
	<line class="st2" x1="9.6" y1="474.8" x2="884.5" y2="474.8"/>
	<line class="st2" x1="15" y1="793.5" x2="890" y2="793.5"/>
</g>
</svg>
