<?xml version="1.0" encoding="utf-8"?>
<!-- Generator: Adobe Illustrator 21.0.0, SVG Export Plug-In . SVG Version: 6.00 Build 0)  -->
<svg version="1.1" id="Capa_1" xmlns="http://www.w3.org/2000/svg" xmlns:xlink="http://www.w3.org/1999/xlink" x="0px" y="0px"
	 viewBox="0 0 414 736" style="enable-background:new 0 0 414 736;" xml:space="preserve">
<style type="text/css">
	.st0{fill:none;}
	.st1{fill:#222221;}
	.st2{fill:#F8AD3B;}
	.st3{fill:#FFFFFF;}
	.st4{fill:#585857;}
	.st5{fill:#3F3F3F;}
	.st6{fill:url(#SVGID_1_);}
	.st7{fill:url(#SVGID_2_);}
	.st8{fill:#FAAF3B;}
	.st9{fill:#989898;}
	.st10{fill:none;stroke:url(#SVGID_3_);stroke-width:1.0187;stroke-miterlimit:10;}
	.st11{fill:url(#SVGID_4_);stroke:url(#SVGID_5_);stroke-width:0.2522;stroke-miterlimit:10;}
	.st12{fill:url(#SVGID_6_);stroke:url(#SVGID_7_);stroke-width:0.2522;stroke-miterlimit:10;}
	.st13{fill:none;stroke:#F9AE3B;stroke-width:2.7717;stroke-miterlimit:10;}
	.st14{fill:#0071BA;}
	.st15{fill:url(#SVGID_8_);}
	.st16{fill:#934A37;}
	.st17{fill:#808080;}
	.st18{fill:none;stroke:#934A37;stroke-width:2;stroke-miterlimit:10;}
	.st19{fill:none;stroke:#B37F7F;stroke-width:1.2291;stroke-miterlimit:10;}
	.st20{fill:#F9AE3B;}
	.st21{fill:url(#SVGID_9_);}
	.st22{fill:url(#SVGID_10_);}
	.st23{fill:url(#SVGID_11_);}
	.st24{fill:url(#SVGID_12_);}
	.st25{fill:url(#SVGID_13_);}
	.st26{fill:url(#SVGID_14_);}
	.st27{fill:url(#SVGID_15_);}
	.st28{fill:url(#SVGID_16_);}
	.st29{fill:url(#SVGID_17_);}
	.st30{fill:url(#SVGID_18_);}
</style>
<pattern  x="-927" y="161" width="28.8" height="28.8" patternUnits="userSpaceOnUse" id="_x31_0_ppp_80_x25_" viewBox="5.8 -34.6 28.8 28.8" style="overflow:visible;">
	<g>
		<rect x="5.8" y="-34.6" class="st0" width="28.8" height="28.8"/>
		<g>
			<circle class="st1" cx="13" cy="-13" r="5.8"/>
			<circle class="st1" cx="27.4" cy="-13" r="5.8"/>
			<circle class="st1" cx="13" cy="-27.4" r="5.8"/>
			<circle class="st1" cx="27.4" cy="-27.4" r="5.8"/>
			<circle class="st1" cx="34.6" cy="-5.8" r="5.8"/>
			<circle class="st1" cx="20.2" cy="-5.8" r="5.8"/>
			<circle class="st1" cx="34.6" cy="-20.2" r="5.8"/>
			<circle class="st1" cx="20.2" cy="-20.2" r="5.8"/>
		</g>
		<g>
			<circle class="st1" cx="5.8" cy="-5.8" r="5.8"/>
			<circle class="st1" cx="5.8" cy="-20.2" r="5.8"/>
		</g>
		<g>
			<circle class="st1" cx="34.6" cy="-34.6" r="5.8"/>
			<circle class="st1" cx="20.2" cy="-34.6" r="5.8"/>
		</g>
		<g>
			<circle class="st1" cx="5.8" cy="-34.6" r="5.8"/>
		</g>
	</g>
</pattern>
<linearGradient id="SVGID_1_" gradientUnits="userSpaceOnUse" x1="89.2354" y1="522" x2="312.6812" y2="522">
	<stop  offset="0" style="stop-color:#E2C3B0"/>
	<stop  offset="0.5" style="stop-color:#D4A58C"/>
	<stop  offset="0.5432" style="stop-color:#D3A389"/>
	<stop  offset="1" style="stop-color:#C98E72"/>
</linearGradient>
<rect x="89.7" y="359" style="fill:none;stroke:url(#SVGID_1_);stroke-width:1.0187;stroke-miterlimit:10;" width="222.4" height="326"/>
<g>
	<rect x="100.3" y="611.8" class="st0" width="204.4" height="54.5"/>
	<path d="M122.4,620.2c0,1.4-0.3,2.7-0.8,3.8c-0.5,1.1-1.2,1.9-2.2,2.5c-0.9,0.6-2,0.9-3.2,0.9c-1.2,0-2.3-0.3-3.2-0.9
		c-0.9-0.6-1.7-1.4-2.2-2.5s-0.8-2.3-0.8-3.7v-0.7c0-1.4,0.3-2.7,0.8-3.8c0.5-1.1,1.2-1.9,2.2-2.5c0.9-0.6,2-0.9,3.2-0.9
		s2.3,0.3,3.2,0.9c0.9,0.6,1.7,1.4,2.2,2.5c0.5,1.1,0.8,2.3,0.8,3.8V620.2z M119.4,619.5c0-1.5-0.3-2.7-0.8-3.5s-1.3-1.2-2.3-1.2
		c-1,0-1.8,0.4-2.3,1.2c-0.5,0.8-0.8,1.9-0.8,3.4v0.7c0,1.5,0.3,2.6,0.8,3.4c0.5,0.8,1.3,1.2,2.3,1.2c1,0,1.8-0.4,2.3-1.2
		c0.5-0.8,0.8-1.9,0.8-3.4V619.5z"/>
	<path d="M134.1,621.8c0,1.7-0.4,3.1-1.1,4c-0.7,1-1.8,1.4-3.1,1.4c-1.2,0-2.1-0.4-2.8-1.3l-0.1,1.1h-2.6v-15.3h2.9v5.5
		c0.7-0.8,1.5-1.2,2.6-1.2c1.3,0,2.3,0.5,3.1,1.4c0.7,1,1.1,2.3,1.1,4.1V621.8z M131.2,621.6c0-1.1-0.2-1.9-0.5-2.4
		c-0.3-0.5-0.9-0.8-1.5-0.8c-0.9,0-1.5,0.4-1.9,1.1v4.2c0.4,0.8,1,1.1,1.9,1.1c0.9,0,1.5-0.5,1.8-1.4
		C131.2,623.2,131.2,622.5,131.2,621.6z"/>
	<path d="M138.9,616.3v11.4c0,1.2-0.3,2.1-0.9,2.8c-0.6,0.7-1.5,1-2.7,1c-0.5,0-1-0.1-1.4-0.2V629c0.3,0.1,0.6,0.1,0.9,0.1
		c0.9,0,1.3-0.5,1.3-1.4v-11.4H138.9z M135.8,613.5c0-0.4,0.1-0.8,0.4-1.1c0.3-0.3,0.7-0.4,1.2-0.4c0.5,0,0.9,0.1,1.2,0.4
		c0.3,0.3,0.4,0.6,0.4,1.1c0,0.4-0.1,0.8-0.4,1.1s-0.7,0.4-1.2,0.4s-0.9-0.1-1.2-0.4S135.8,614,135.8,613.5z"/>
	<path d="M146.1,627.3c-1.6,0-2.9-0.5-3.9-1.5c-1-1-1.5-2.3-1.5-3.9v-0.3c0-1.1,0.2-2,0.6-2.9c0.4-0.9,1-1.5,1.8-2
		c0.8-0.5,1.6-0.7,2.6-0.7c1.5,0,2.6,0.5,3.5,1.4s1.3,2.2,1.3,3.9v1.2h-6.9c0.1,0.7,0.4,1.3,0.8,1.7c0.5,0.4,1.1,0.6,1.8,0.6
		c1.1,0,2-0.4,2.6-1.2l1.4,1.6c-0.4,0.6-1,1.1-1.8,1.4S147,627.3,146.1,627.3z M145.8,618.4c-0.6,0-1,0.2-1.4,0.6
		c-0.4,0.4-0.6,0.9-0.7,1.7h4v-0.2c0-0.6-0.2-1.1-0.5-1.5C146.9,618.6,146.4,618.4,145.8,618.4z"/>
	<path d="M155.6,613.7v2.6h1.8v2.1h-1.8v5.4c0,0.4,0.1,0.7,0.2,0.9c0.2,0.2,0.4,0.3,0.9,0.3c0.3,0,0.6,0,0.8-0.1v2.2
		c-0.6,0.2-1.1,0.3-1.7,0.3c-2,0-3-1-3.1-3.1v-5.8h-1.6v-2.1h1.6v-2.6H155.6z"/>
	<path d="M159.1,613.5c0-0.4,0.1-0.8,0.4-1.1c0.3-0.3,0.7-0.4,1.2-0.4c0.5,0,0.9,0.1,1.2,0.4c0.3,0.3,0.4,0.6,0.4,1.1
		c0,0.4-0.1,0.8-0.4,1.1s-0.7,0.4-1.2,0.4c-0.5,0-0.9-0.1-1.2-0.4C159.2,614.3,159.1,614,159.1,613.5z M162.1,627.1h-2.9v-10.8h2.9
		V627.1z"/>
	<path d="M168.5,623.6l2-7.3h3l-3.6,10.8h-2.7l-3.6-10.8h3L168.5,623.6z"/>
	<path d="M174.2,621.6c0-1.1,0.2-2,0.6-2.9s1-1.5,1.8-1.9c0.8-0.5,1.7-0.7,2.7-0.7c1.5,0,2.6,0.4,3.6,1.3c0.9,0.9,1.4,2.1,1.5,3.6
		l0,0.7c0,1.7-0.5,3-1.4,4c-0.9,1-2.2,1.5-3.7,1.5c-1.6,0-2.8-0.5-3.7-1.5c-0.9-1-1.4-2.3-1.4-4.1V621.6z M177.1,621.8
		c0,1,0.2,1.8,0.6,2.3c0.4,0.5,0.9,0.8,1.7,0.8c0.7,0,1.2-0.3,1.6-0.8c0.4-0.5,0.6-1.4,0.6-2.6c0-1-0.2-1.8-0.6-2.3
		s-0.9-0.8-1.7-0.8c-0.7,0-1.2,0.3-1.6,0.8S177.1,620.7,177.1,621.8z"/>
	<path d="M196.2,627.3c-1.6,0-2.9-0.5-3.9-1.5c-1-1-1.5-2.3-1.5-3.9v-0.3c0-1.1,0.2-2,0.6-2.9c0.4-0.9,1-1.5,1.8-2
		c0.8-0.5,1.6-0.7,2.6-0.7c1.5,0,2.6,0.5,3.5,1.4s1.3,2.2,1.3,3.9v1.2h-6.9c0.1,0.7,0.4,1.3,0.8,1.7c0.5,0.4,1.1,0.6,1.8,0.6
		c1.1,0,2-0.4,2.6-1.2l1.4,1.6c-0.4,0.6-1,1.1-1.8,1.4S197.1,627.3,196.2,627.3z M195.8,618.4c-0.6,0-1,0.2-1.4,0.6
		c-0.4,0.4-0.6,0.9-0.7,1.7h4v-0.2c0-0.6-0.2-1.1-0.5-1.5C196.9,618.6,196.5,618.4,195.8,618.4z"/>
	<path d="M208.1,624.1c0-0.4-0.2-0.6-0.5-0.8c-0.3-0.2-0.9-0.4-1.7-0.5c-2.6-0.5-3.8-1.6-3.8-3.3c0-1,0.4-1.8,1.2-2.4
		c0.8-0.6,1.8-1,3.1-1c1.4,0,2.5,0.3,3.3,1c0.8,0.6,1.2,1.5,1.2,2.5H208c0-0.4-0.1-0.8-0.4-1s-0.7-0.4-1.2-0.4
		c-0.5,0-0.9,0.1-1.1,0.3c-0.3,0.2-0.4,0.5-0.4,0.8c0,0.3,0.2,0.6,0.5,0.8c0.3,0.2,0.8,0.4,1.5,0.5c0.7,0.1,1.3,0.3,1.8,0.5
		c1.5,0.6,2.3,1.5,2.3,2.9c0,1-0.4,1.8-1.3,2.4c-0.8,0.6-1.9,0.9-3.3,0.9c-0.9,0-1.7-0.2-2.4-0.5c-0.7-0.3-1.2-0.8-1.6-1.3
		c-0.4-0.6-0.6-1.2-0.6-1.8h2.7c0,0.5,0.2,0.9,0.6,1.2c0.4,0.3,0.8,0.4,1.4,0.4c0.6,0,1-0.1,1.2-0.3
		C207.9,624.7,208.1,624.5,208.1,624.1z"/>
	<path d="M216.2,613.7v2.6h1.8v2.1h-1.8v5.4c0,0.4,0.1,0.7,0.2,0.9c0.2,0.2,0.4,0.3,0.9,0.3c0.3,0,0.6,0,0.8-0.1v2.2
		c-0.6,0.2-1.1,0.3-1.7,0.3c-2,0-3-1-3.1-3.1v-5.8h-1.6v-2.1h1.6v-2.6H216.2z"/>
	<path d="M225.8,627.1c-0.1-0.3-0.2-0.6-0.3-1c-0.7,0.8-1.6,1.2-2.7,1.2c-1.1,0-1.9-0.3-2.6-0.9c-0.7-0.6-1-1.4-1-2.3
		c0-1.1,0.4-2,1.3-2.6c0.8-0.6,2.1-0.9,3.7-0.9h1.3v-0.6c0-0.5-0.1-0.9-0.4-1.2c-0.3-0.3-0.7-0.4-1.2-0.4c-0.5,0-0.9,0.1-1.1,0.3
		s-0.4,0.6-0.4,1h-2.9c0-0.6,0.2-1.2,0.6-1.7c0.4-0.5,0.9-0.9,1.6-1.2s1.5-0.5,2.4-0.5c1.3,0,2.4,0.3,3.2,1c0.8,0.7,1.2,1.6,1.2,2.8
		v4.7c0,1,0.1,1.8,0.4,2.3v0.2H225.8z M223.5,625.1c0.4,0,0.8-0.1,1.2-0.3c0.4-0.2,0.6-0.4,0.8-0.8v-1.9h-1.1
		c-1.4,0-2.2,0.5-2.3,1.5l0,0.2c0,0.4,0.1,0.7,0.4,0.9S223,625.1,223.5,625.1z"/>
	<path d="M240.2,621.8c0,1.7-0.4,3.1-1.1,4c-0.7,1-1.8,1.4-3.1,1.4c-1.2,0-2.1-0.4-2.8-1.3l-0.1,1.1h-2.6v-15.3h2.9v5.5
		c0.7-0.8,1.5-1.2,2.6-1.2c1.3,0,2.3,0.5,3.1,1.4c0.7,1,1.1,2.3,1.1,4.1V621.8z M237.3,621.6c0-1.1-0.2-1.9-0.5-2.4
		c-0.3-0.5-0.9-0.8-1.5-0.8c-0.9,0-1.5,0.4-1.9,1.1v4.2c0.4,0.8,1,1.1,1.9,1.1c0.9,0,1.5-0.5,1.8-1.4
		C237.3,623.2,237.3,622.5,237.3,621.6z"/>
	<path d="M245,627.1h-2.9v-15.3h2.9V627.1z"/>
	<path d="M252.3,627.3c-1.6,0-2.9-0.5-3.9-1.5c-1-1-1.5-2.3-1.5-3.9v-0.3c0-1.1,0.2-2,0.6-2.9c0.4-0.9,1-1.5,1.8-2
		c0.8-0.5,1.6-0.7,2.6-0.7c1.5,0,2.6,0.5,3.5,1.4s1.3,2.2,1.3,3.9v1.2h-6.9c0.1,0.7,0.4,1.3,0.8,1.7c0.5,0.4,1.1,0.6,1.8,0.6
		c1.1,0,2-0.4,2.6-1.2l1.4,1.6c-0.4,0.6-1,1.1-1.8,1.4S253.2,627.3,252.3,627.3z M252,618.4c-0.6,0-1,0.2-1.4,0.6
		c-0.4,0.4-0.6,0.9-0.7,1.7h4v-0.2c0-0.6-0.2-1.1-0.5-1.5C253.1,618.6,252.6,618.4,252,618.4z"/>
	<path d="M262.9,625c0.5,0,1-0.1,1.3-0.4c0.3-0.3,0.5-0.7,0.5-1.2h2.7c0,0.7-0.2,1.4-0.6,2c-0.4,0.6-0.9,1.1-1.6,1.4
		c-0.7,0.3-1.4,0.5-2.3,0.5c-1.5,0-2.8-0.5-3.6-1.5c-0.9-1-1.3-2.3-1.3-4.1v-0.2c0-1.7,0.4-3,1.3-4s2.1-1.5,3.6-1.5
		c1.3,0,2.4,0.4,3.2,1.1s1.2,1.8,1.2,3.1h-2.7c0-0.6-0.2-1-0.5-1.4c-0.3-0.4-0.8-0.5-1.3-0.5c-0.7,0-1.2,0.2-1.5,0.7
		s-0.5,1.3-0.5,2.4v0.3c0,1.1,0.2,1.9,0.5,2.4C261.7,624.7,262.2,625,262.9,625z"/>
	<path d="M269,613.5c0-0.4,0.1-0.8,0.4-1.1c0.3-0.3,0.7-0.4,1.2-0.4c0.5,0,0.9,0.1,1.2,0.4c0.3,0.3,0.4,0.6,0.4,1.1
		c0,0.4-0.1,0.8-0.4,1.1s-0.7,0.4-1.2,0.4c-0.5,0-0.9-0.1-1.2-0.4C269.2,614.3,269,614,269,613.5z M272.1,627.1h-2.9v-10.8h2.9
		V627.1z"/>
	<path d="M274,621.6c0-1.7,0.4-3,1.1-4c0.8-1,1.8-1.5,3.1-1.5c1,0,1.9,0.4,2.6,1.2v-5.5h2.9v15.3h-2.6l-0.1-1.1
		c-0.7,0.9-1.6,1.3-2.8,1.3c-1.3,0-2.3-0.5-3-1.5C274.4,624.8,274,623.4,274,621.6z M276.9,621.8c0,1,0.2,1.8,0.5,2.3
		s0.9,0.8,1.5,0.8c0.9,0,1.5-0.4,1.9-1.1v-4.3c-0.4-0.8-1-1.1-1.9-1.1C277.6,618.5,276.9,619.6,276.9,621.8z"/>
	<path d="M292.1,627.1c-0.1-0.3-0.2-0.6-0.3-1c-0.7,0.8-1.6,1.2-2.7,1.2c-1.1,0-1.9-0.3-2.6-0.9c-0.7-0.6-1-1.4-1-2.3
		c0-1.1,0.4-2,1.3-2.6c0.8-0.6,2.1-0.9,3.7-0.9h1.3v-0.6c0-0.5-0.1-0.9-0.4-1.2c-0.3-0.3-0.7-0.4-1.2-0.4c-0.5,0-0.9,0.1-1.1,0.3
		s-0.4,0.6-0.4,1h-2.9c0-0.6,0.2-1.2,0.6-1.7c0.4-0.5,0.9-0.9,1.6-1.2s1.5-0.5,2.4-0.5c1.3,0,2.4,0.3,3.2,1c0.8,0.7,1.2,1.6,1.2,2.8
		v4.7c0,1,0.1,1.8,0.4,2.3v0.2H292.1z M289.8,625.1c0.4,0,0.8-0.1,1.2-0.3c0.4-0.2,0.6-0.4,0.8-0.8v-1.9h-1.1
		c-1.4,0-2.2,0.5-2.3,1.5l0,0.2c0,0.4,0.1,0.7,0.4,0.9S289.3,625.1,289.8,625.1z"/>
	<path d="M166.3,649.4c0.5,0,1-0.1,1.3-0.4c0.3-0.3,0.5-0.7,0.5-1.2h2.7c0,0.7-0.2,1.4-0.6,2c-0.4,0.6-0.9,1.1-1.6,1.4
		c-0.7,0.3-1.4,0.5-2.3,0.5c-1.5,0-2.8-0.5-3.6-1.5c-0.9-1-1.3-2.3-1.3-4.1V646c0-1.7,0.4-3,1.3-4s2.1-1.5,3.6-1.5
		c1.3,0,2.4,0.4,3.2,1.1s1.2,1.8,1.2,3.1h-2.7c0-0.6-0.2-1-0.5-1.4c-0.3-0.4-0.8-0.5-1.3-0.5c-0.7,0-1.2,0.2-1.5,0.7
		s-0.5,1.3-0.5,2.4v0.3c0,1.1,0.2,1.9,0.5,2.4C165.1,649.2,165.6,649.4,166.3,649.4z"/>
	<path d="M172,646.1c0-1.1,0.2-2,0.6-2.9s1-1.5,1.8-1.9c0.8-0.5,1.7-0.7,2.7-0.7c1.5,0,2.6,0.4,3.6,1.3c0.9,0.9,1.4,2.1,1.5,3.6
		l0,0.7c0,1.7-0.5,3-1.4,4c-0.9,1-2.2,1.5-3.7,1.5c-1.6,0-2.8-0.5-3.7-1.5c-0.9-1-1.4-2.3-1.4-4.1V646.1z M174.9,646.3
		c0,1,0.2,1.8,0.6,2.3c0.4,0.5,0.9,0.8,1.7,0.8c0.7,0,1.2-0.3,1.6-0.8c0.4-0.5,0.6-1.4,0.6-2.6c0-1-0.2-1.8-0.6-2.3
		s-0.9-0.8-1.7-0.8c-0.7,0-1.2,0.3-1.6,0.8S174.9,645.1,174.9,646.3z"/>
	<path d="M186.6,640.8l0.1,1.2c0.8-1,1.8-1.4,3.1-1.4c1.1,0,2,0.3,2.5,1c0.6,0.7,0.8,1.7,0.9,3v7h-2.9v-6.9c0-0.6-0.1-1.1-0.4-1.3
		s-0.7-0.4-1.3-0.4c-0.8,0-1.4,0.3-1.8,1v7.6h-2.9v-10.8H186.6z"/>
	<path d="M205.4,651.7c-1.6,0-2.9-0.5-3.9-1.5c-1-1-1.5-2.3-1.5-3.9v-0.3c0-1.1,0.2-2,0.6-2.9c0.4-0.9,1-1.5,1.8-2
		c0.8-0.5,1.6-0.7,2.6-0.7c1.5,0,2.6,0.5,3.5,1.4s1.3,2.2,1.3,3.9v1.2H203c0.1,0.7,0.4,1.3,0.8,1.7c0.5,0.4,1.1,0.6,1.8,0.6
		c1.1,0,2-0.4,2.6-1.2l1.4,1.6c-0.4,0.6-1,1.1-1.8,1.4S206.3,651.7,205.4,651.7z M205.1,642.9c-0.6,0-1,0.2-1.4,0.6
		c-0.4,0.4-0.6,0.9-0.7,1.7h4v-0.2c0-0.6-0.2-1.1-0.5-1.5C206.2,643.1,205.7,642.9,205.1,642.9z"/>
	<path d="M215.6,644l1.8-3.2h3.1l-3.1,5.3l3.2,5.5h-3.1l-1.9-3.4l-1.9,3.4h-3.1l3.2-5.5l-3.1-5.3h3.1L215.6,644z"/>
	<path d="M221.8,638c0-0.4,0.1-0.8,0.4-1.1c0.3-0.3,0.7-0.4,1.2-0.4c0.5,0,0.9,0.1,1.2,0.4c0.3,0.3,0.4,0.6,0.4,1.1
		c0,0.4-0.1,0.8-0.4,1.1s-0.7,0.4-1.2,0.4c-0.5,0-0.9-0.1-1.2-0.4C222,638.8,221.8,638.4,221.8,638z M224.9,651.5H222v-10.8h2.9
		V651.5z"/>
	<path d="M230.7,638.1v2.6h1.8v2.1h-1.8v5.4c0,0.4,0.1,0.7,0.2,0.9c0.2,0.2,0.4,0.3,0.9,0.3c0.3,0,0.6,0,0.8-0.1v2.2
		c-0.6,0.2-1.1,0.3-1.7,0.3c-2,0-3-1-3.1-3.1v-5.8h-1.6v-2.1h1.6v-2.6H230.7z"/>
	<path d="M233.4,646.1c0-1.1,0.2-2,0.6-2.9s1-1.5,1.8-1.9c0.8-0.5,1.7-0.7,2.7-0.7c1.5,0,2.6,0.4,3.6,1.3c0.9,0.9,1.4,2.1,1.5,3.6
		l0,0.7c0,1.7-0.5,3-1.4,4c-0.9,1-2.2,1.5-3.7,1.5c-1.6,0-2.8-0.5-3.7-1.5c-0.9-1-1.4-2.3-1.4-4.1V646.1z M236.3,646.3
		c0,1,0.2,1.8,0.6,2.3c0.4,0.5,0.9,0.8,1.7,0.8c0.7,0,1.2-0.3,1.6-0.8c0.4-0.5,0.6-1.4,0.6-2.6c0-1-0.2-1.8-0.6-2.3
		s-0.9-0.8-1.7-0.8c-0.7,0-1.2,0.3-1.6,0.8S236.3,645.1,236.3,646.3z"/>
</g>
<g>
	<g>
		<g>
			<g>
				<g>
					<path class="st5" d="M289.2,566.4c0.3,0.1,0.2-0.3,0.3-0.3C289,566.1,289.2,566.5,289.2,566.4z"/>
					<polygon class="st5" points="284.4,566.2 284.5,566.1 283.7,566.2 					"/>
					<path class="st5" d="M280,565.3c0.3,0.6,1.6,0.2,2.3,0.6l0.1,0.2l0.4-0.4C281.9,565.5,280.7,565.5,280,565.3z"/>
					<path class="st5" d="M277.9,563.6c0.1,0.2-0.5,0.1,0.5,0.2c0,0-0.1-0.1-0.1-0.1C278.3,563.7,278.1,563.7,277.9,563.6z"/>
					<path class="st5" d="M278.4,563.7C278.8,563.8,278.1,563.5,278.4,563.7L278.4,563.7z"/>
					<path class="st5" d="M276.2,563.4l0.6-0.1c-0.1-0.2-0.6-0.3-0.4-0.3C275.8,562.9,275.9,563.1,276.2,563.4z"/>
					<path class="st5" d="M275.6,563.7l0.3,0C275.8,563.6,275.8,563.5,275.6,563.7z"/>
					<path class="st5" d="M276.6,563.6l-0.7,0c0.1,0.1,0,0.3,0.3,0C276.1,563.8,276.3,563.7,276.6,563.6z"/>
					<path class="st5" d="M277,563.8c0.3,0.2,0.7,0.4,0.1,0.4C278.2,564.4,278.1,563.9,277,563.8z"/>
					<path class="st5" d="M279.7,565.8l0.4,0.3l0.4-0.1C280.3,566,279.7,565.6,279.7,565.8z"/>
					<path class="st5" d="M272.5,562.3c-0.1,0.1,0.1,0.4,0.2,0.5l0.5,0C272.9,562.7,272.5,562.5,272.5,562.3z"/>
					<path class="st5" d="M272.7,562.8l-0.7,0.1C272.5,563,272.7,563,272.7,562.8z"/>
					<polygon class="st5" points="275.3,564.3 276.5,564.1 275.1,564.2 					"/>
					<polygon class="st5" points="269.9,561.8 270.4,561.6 269.6,561.9 					"/>
					<path class="st5" d="M268.2,561.5c0.3-0.2-0.3-0.5,0-0.5c-0.5-0.1-0.9,0.1-1.3,0.2C267.4,561.1,267.7,561.2,268.2,561.5z"/>
					<path class="st5" d="M266.3,561.2c0.2,0,0.4-0.1,0.6-0.1C266.7,561.1,266.5,561.1,266.3,561.2z"/>
					<path class="st5" d="M270.8,562.6c0-0.1-0.1-0.3-0.5-0.4l0.2,0.4C270.6,562.6,270.7,562.6,270.8,562.6z"/>
					<path class="st5" d="M270.6,562.6L270.6,562.6c-0.3-0.1-0.5-0.1-0.6-0.1C270.1,562.4,270.2,562.5,270.6,562.6z"/>
					<path class="st5" d="M270.9,562.6C270.9,562.6,270.8,562.6,270.9,562.6C270.8,562.6,270.8,562.7,270.9,562.6z"/>
					<path class="st5" d="M273.6,563.6c-0.4,0.1-1.3,0.1-0.6,0.6C273.4,564,273,563.7,273.6,563.6z"/>
					<path class="st5" d="M271.1,563.1l0.7,0.2c0-0.1-0.1-0.2,0.1-0.3L271.1,563.1z"/>
					<polygon class="st5" points="270.7,563.1 271.1,563.1 270.9,563 					"/>
					<path class="st5" d="M267.5,561.8c-0.3,0.1-0.7,0-1.1,0c0.4,0.1,0.8,0.3,1.2,0.4C267.7,562,267.9,561.9,267.5,561.8z"/>
					<path class="st5" d="M269,562.2C268.9,562.2,268.9,562.2,269,562.2C268.9,562.2,269,562.2,269,562.2z"/>
					<polygon class="st5" points="262.7,561 262.7,561.1 262.7,561 					"/>
					<path class="st5" d="M267.7,562.2c0.3,0.1,0.5,0.1,0.7,0C268.1,562.2,267.9,562.2,267.7,562.2
						C267.6,562.1,267.6,562.2,267.7,562.2z"/>
					<path class="st5" d="M265.2,561.2c0.1,0.1,0.3,0.2,0.5,0.3C265.6,561.3,265.3,561.1,265.2,561.2z"/>
					<path class="st5" d="M268.8,562.1L268.8,562.1C268.8,562,268.8,562,268.8,562.1z"/>
					<path class="st5" d="M268.8,562.1c-0.2,0-0.3,0.1-0.4,0.1c0.2,0,0.4,0,0.5,0C268.9,562.2,268.8,562.1,268.8,562.1z"/>
					<path class="st5" d="M261.1,562.9c0.1-0.3,1-0.4,1.6,0.1c0.7-0.1,0.5-1.2,0-1.9c0,0.1-0.1,0.3-0.8,0.3c0.2,0.2,1.5,0.7,0.8,0.9
						c-1,0-0.7-0.3-1.2-0.5c0.3,0.5-1.3,0.3-1.2,0.9l0.9,0C261.2,562.7,260.9,562.7,261.1,562.9z"/>
					<path class="st5" d="M264,561.4l0.3,0c-0.3-0.1-0.5-0.3-0.9-0.6c-0.5,0-0.6,0.1-0.7,0.2l1.4,0.3L264,561.4z"/>
					<path class="st5" d="M265.6,561.6c-0.3,0.3-1,0.3-0.7,0.7c0.9,0.2,0.7-0.2,1.2-0.2C264.8,562,266.6,562.1,265.6,561.6
						c0.3,0,0.5,0.1,0.8,0.1c-0.2-0.1-0.5-0.2-0.7-0.3l0,0l0,0l0,0c0.1,0.1,0.1,0.1,0,0c0,0,0,0,0,0
						C265.7,561.6,265.7,561.6,265.6,561.6c-0.4-0.2,0-0.1,0.1-0.1c0,0,0,0,0,0l0,0l-1.4-0.1C264.6,561.5,265,561.6,265.6,561.6z"/>
					<path class="st5" d="M272.2,564.7C272.2,564.7,272.2,564.7,272.2,564.7C272.1,564.7,272,564.7,272.2,564.7z"/>
					<path class="st5" d="M271.7,564.4c0.1,0,0.2-0.1,0.5,0c0.3,0.2,0,0.2,0,0.3c0.2,0,0.7-0.1,0.2-0.4l-0.1,0
						c-0.5-0.2-1.2-0.8-1-0.8C271.3,563.8,271.4,564,271.7,564.4z"/>
					<path class="st5" d="M268.6,563.1l-1.2-0.1l0.5,0.4l0-0.2C268.6,563.5,268.5,563.2,268.6,563.1z"/>
					<polygon class="st5" points="262.6,560.8 262.8,560.5 262,560.8 					"/>
					<polygon class="st5" points="261.1,560.5 261.2,560.2 260.8,560.3 					"/>
					<path class="st5" d="M180.5,533.9l-0.3-0.1C180.3,533.8,180.5,533.9,180.5,533.9z"/>
					<path class="st5" d="M182.6,535.4l0.1-0.1C182.5,535.3,182.5,535.3,182.6,535.4z"/>
					<path class="st5" d="M224.7,553.1c-0.4-0.4-0.8-1-0.8-0.7l0,0.4C224.3,552.8,224.6,552.9,224.7,553.1z"/>
					<path class="st5" d="M200.8,544.9c0,0.1,0.1,0.1,0.1,0.2c0.2,0,0.3-0.1,0.5-0.1C201.2,544.9,201,544.9,200.8,544.9z"/>
					<path class="st5" d="M199.8,545.9l-0.5-0.5C199.4,545.5,199.5,545.7,199.8,545.9z"/>
					<path class="st5" d="M169.7,525.4l-0.5,0C169.6,525.8,169.5,525.5,169.7,525.4z"/>
					<path class="st5" d="M245.6,557.6c-0.4-0.2-0.7-0.3-1-0.3C245.1,557.5,245.5,557.8,245.6,557.6z"/>
					<path class="st5" d="M183.5,531.6c-0.2-0.1-0.3-0.1-0.4,0C183.3,531.6,183.5,531.6,183.5,531.6z"/>
					<path class="st5" d="M243.4,557.1c0.1,0,0.1,0.1,0.2,0.1c0.3,0,0.6,0,1,0.1C244.3,557,243.9,556.9,243.4,557.1z"/>
					<path class="st5" d="M135.5,490.2c0,0,0-0.1-0.1-0.1C135.4,490.1,135.5,490.2,135.5,490.2z"/>
					<path class="st5" d="M125.2,479.8c0.1,0,0.4,0.1,0.6,0.2C125.6,480,125.5,479.9,125.2,479.8z"/>
					<path class="st5" d="M255.1,559.1C255.4,559.2,255.2,559.1,255.1,559.1L255.1,559.1z"/>
					<path class="st5" d="M256.4,560.8c-0.1,0-0.1,0.1-0.2,0.1C256.3,560.8,256.3,560.8,256.4,560.8z"/>
					<path class="st5" d="M239.9,558.7L239.9,558.7C240,558.7,240,558.7,239.9,558.7z"/>
					<path class="st5" d="M255.6,559.4c-0.1-0.1-0.2-0.1-0.4-0.2C255.2,559.3,255.4,559.3,255.6,559.4z"/>
					<path class="st5" d="M255.5,559.2c0.1,0,0.2,0.1,0.3,0.1C255.8,559.3,255.8,559.2,255.5,559.2z"/>
					<path class="st5" d="M254.7,559.1c0.2,0,0.3,0.1,0.5,0.1c-0.1,0-0.1-0.1-0.1-0.1C255,559.1,254.9,559.1,254.7,559.1z"/>
					<path class="st5" d="M154.9,507.7C154.9,507.7,154.8,507.7,154.9,507.7C154.5,507.5,154.6,507.6,154.9,507.7z"/>
					<path class="st5" d="M215.7,553.7C215.7,553.7,215.7,553.7,215.7,553.7C215.7,553.7,215.7,553.7,215.7,553.7L215.7,553.7z"/>
					<path class="st5" d="M214.5,553.5c0.6-0.2,0.9,0,1.2,0.2l0-1.1L214.5,553.5z"/>
					<path class="st5" d="M175.7,530.3l0.4,0.8c-1.1-0.2-1.5-0.8-1.2,0c0.8-0.8,2.6,1.9,3.3,1.1l0.3,0.5c-0.1-0.1-0.2-0.1-0.3-0.2
						c0.5,1,1.1-0.1,2.1,0.8c0.3,0.4,0.5,0.7,0.2,0.6l1,0.4c0.2,0.2,0.1,0.3-0.2,0.1l1.3,0.9l0,0c0.3,0,0.9,0.1,1.1,0.2
						c0.2,0.4-0.2,0-0.2,0.1l0.9,0.3c0.1,0.4-0.6,0.2-1.1-0.2c0.1,1.3,0.8,0.2,1.9,1.7l-0.8-0.4c0.1,0.8,0.8,1,1.3,1.9
						c-0.1-0.3-1-1.9-0.1-1.5c0.2,0.2,0.4,0.5,1,0.6c-0.2,0.3,0.3,0.5,0.8,0.9l-0.3,0.4c0.7,0.3,0.8,0,1.2,0.1
						c0.6,0.5,0.5,0.9,0.5,1.3c1,0.7-0.4-1,0.9-0.3c0.8,0.7,1.5,0.9,2.7,1.3c0.5,0.5-0.3,0.2-0.1,0.5l0.7,0c0.1,0.1,0,0.2,0,0.2
						c0.5,0.1,0.3-0.4,1.1-0.1c0.5-0.4,1,1.6,2.3,1.6c0.1,0.3-0.3,0.2-0.3,0.4c1.4,0.4,1.2,0.4,2.5,0.5l0.7,0.8
						c-0.4-0.7,0.6-0.6,1.5-0.5c-0.1-0.3-0.3-0.5-0.3-0.7l1.3,0.4c0.1,0.1-0.1,0.2-0.4,0.3c0.1,0,0.2,0,0.3,0c0.3,0.4,0,0.5-0.5,0.6
						l-0.3-0.5c-0.4,0.1-0.9,0.3-0.9,0.6c0.1,0,0.3,0,0.4,0.1c-0.1,0-0.2,0.1-0.2,0.1c0,0.1,0.2,0,0.4,0l0,0.6l0.2-0.2l1.3,1.1
						c1.3,0.1,2.7-0.2,4.5,0.5c-0.6,0.1-0.4,0.6-0.6,1c-0.2-0.7-1.4-0.5-2.3-1.1c0.4,0.3,0.2,0.4,0.1,0.5l1.8,0.4
						c-0.2,0.3,0.2,0.4,0.5,0.8c0-0.9,1.4,0.1,2.2,0.2c-0.1,0.3-0.3,0.4-1.1,0c0.6,1,1.5-0.3,2.2,0.6c-0.2-0.1-0.3-0.2-0.4-0.1
						c0.6,0,1.6,0.7,1.2,0.8l-0.2-0.1c0.6,0.3,1.6,0.8,2.5,1.1c0.9,0.3,1.7,0.4,1.9,0.1c0,0.1-0.5,0.7-0.6,0.8
						c1.1-0.4,2.2-0.7,3.2-1.1c-0.4,0.5-0.1,2-1.3,1.9c0.3,0.2,0.7,0.4,1.4,0.5c-0.2-0.2-0.3-1,0.1-0.9c0.6,0.9,0.4,0.5,1.3,1.4
						c-0.3-0.2,0.4-1,0.9-0.7c-0.1,0.1-0.2,0.9-0.5,0.9l1.6-0.4c-0.4,0-0.3,0.7-0.1,1c-0.1-0.2,1.1,0.4,1.5,0.4l-0.5-0.4
						c1.5,0.6,1.8-0.7,3.3-0.2c-0.2,0.1-0.8,1,0,1.3c0.5-0.3,2.1-1.7,3.5-1.6l0.2,0.3l1.1,0c-0.8,0.5-2.9,1.4-4,1.7
						c0.5,0.4,0.1,0.3,0.9,0.6c0.2,0.3-0.6,0.2-0.8,0.2c0.6,0.2,1.3,0.5,1.9,0.7c0-0.5,1.7-0.1,1.7-0.6l-2.3,0
						c0.1-0.5,1.6-1.1,3-0.7c0.3,0.3-0.5,0.8-0.5,1c0.2-0.1,1.4,0,1.5,0.1l-0.7,0.1c0.7,0.4,1.4-0.4,2.3,0.3c0.3,0.1,0.8,0.9,1,0.6
						c-0.4-0.7-0.1-2.5,0.3-2.9c0.1,0.1,1.6,0.9,1.9,1.3c0.4,0.6-1,0.9-0.7,1.4c0-0.1,0.4-0.2,0.5-0.3c0.3,0.2-0.2,0.4,0.5,0.5
						c0.2-0.5,1.5,0.3,0.4-0.4c0.8,0,0.8,0.3,1.6,0.4c-0.2-0.4,1-1,1.7-1c-0.1,0.1,0.1,0.3,0.1,0.4c1.5,0.3,2.2,0.7,3.6,0.9
						c0.1,0.1,0.8,0.4,0.4,0.6c0.2-0.1,0.4-0.2,0.9-0.2c0.8,0.6-1,0-0.4,0.6c0-0.2,0.3-0.2,0.7-0.3c0.4,0,0.8-0.1,1.1-0.1
						c0-0.5-1.4-0.3-2-0.1c0-0.3,0.4-0.6,0.8-0.9c0.2-0.1,0.5-0.2,0.8-0.3c0.1,0,0.4-0.1,0.6-0.1c0.2,0,0.4,0,0.6,0
						c1.2,0.1,0.4,0.5,0.6,0.5c2.1,0.6,2.1-0.8,3.8,0.1c0.6,0.6-0.1,0.8,0,1.2c-1,0-1.4-0.6-2-0.7l0.7,0.4c-0.3,0.1-1,0.1-1.3-0.1
						c0.5,0.5,3.6,0.8,5.2,1.5c0.3-0.1,0.9-0.1,0.7-0.3l-0.5-0.1c-0.4-0.4,1.1-0.3,0.5-0.6c0.8-0.1,1.6-0.3,2.6,0.1l0.1,0.5
						c0-0.1-0.6-0.4-0.9-0.3c0.5-0.1,1.4,1,2,0.4l-0.6-0.5c0.8-0.1,1.7-0.4,2.6-0.1c-0.3-0.5-0.2,0-0.7-0.7c0.4,0.8-2.2-0.5-1.5,0.4
						c-0.5-0.8-1.1-0.5-1.8-1.2c0,0.2,0.2,0.4-0.5,0.1c0,0-0.1,0.1-0.2,0.1c0,0,0,0,0,0l0,0c0,0,0,0,0,0c0.2,0.1,0.3,0.2,0.3,0.3
						c-0.4,0.3-1.6,0-2,0.1c-0.4-0.2,0.2-0.1,0-0.4l-0.6,0.2c0-0.4-1-0.8,0-0.8l-0.9-0.2c-0.5-0.3-1.2-0.5-1.7-0.5
						c-0.4-0.2-1.2,0.2-0.7,0l-1.5-0.1l0-0.1c-0.4-0.1-0.7-0.1-1.1-0.2c-0.2,0-0.4,0-0.6-0.1c-0.2,0-0.3,0-0.4,0l-0.3,0
						c-0.8,0-1.6-0.1-2.3-0.5c-0.5,0-1,0.1-1.8-0.2l-0.1-0.3c-0.6,0-1.8-0.6-2.1-0.3c-0.5-0.9-2.9-0.7-4-1.1l-0.1,0.4
						c-0.7-0.2-1.5-0.2-2.4-0.3l0,0.4c-0.9,0.1-2-0.7-3.2-1c0.1-0.1,0.4,0,0.6,0.1c-1.3-1.1-3.3-0.2-4.5-1.2c-0.4,0-0.6-0.1-0.8-0.2
						c0,0,0.1,0,0.1,0c0,0-0.1,0-0.1,0c-0.1-0.1-0.3-0.2-0.4-0.3c0.1,0.1,0.2,0.2,0.3,0.3c-0.3-0.1-0.7-0.1-1.1-0.2l0-0.4
						c0,0-0.1,0-0.1,0c-0.3-0.2-0.4,0.1-0.2,0.4c-0.2,0-0.4,0-0.6,0.1c-0.1-0.7-1.1-0.1-1.3-0.9c-0.4,0.2-2-0.4-2.4,0.1
						c0-0.1-0.1-0.2,0.1-0.1c-0.4-0.2-0.8-0.4-1.2-0.4l0-0.5l-1.1,0.3c-0.4-0.5-0.6-0.7,0.1-0.9c-1.5,0-1.1-0.2-2.5-0.1l0.2-0.3
						c-0.4-0.2-1.2,0-1.3-0.4c-0.6-0.9-4.3-2-6.3-3.6c0,1-0.8-0.9-1.2-0.3c0-0.3-0.3-0.5,0.2-0.5c-1.2-0.4-1.5-1.2-2.6-1.1
						c0-0.3,0.4-0.2,0.3-0.3c-0.1,0-0.4,0-0.5-0.2c-0.1-0.2,0.2-0.1,0.5-0.1c-1.1-0.6-1.6-0.1-2,0.4c-0.4-0.6-0.7-0.7-1.4-0.6
						c-0.1-0.3-0.3-0.7,0.4-0.3c-0.4-0.2-2.2-1.6-2.5-1.2c-0.1-0.2-0.5-0.3-0.7-0.4c-0.9-0.5-0.9-0.6-1.8-1.1l0.2,0.2
						c-0.6,0.3-0.8-0.3-1.5-0.7l0.1,0c-1.3-1.3-0.8-0.2-2.1-1.6l-0.1,0.4c-0.6,0.6-1.1-1.3-2.1-1.6l0.2,0.4
						c-0.6-0.1-0.7-1.8-1.2-2.2c-0.1-0.1,0.2,0,0.4,0.1c-1-1.2-0.4,0.3-1.4-0.2c0-0.3,0.6-0.4,0-0.9c-0.2-0.4-2.3-0.5-2.8-1.5
						c0.1,0.3,0.1,0.6-0.4,0.4c-0.7-0.4-1.3-1.9-2.3-1.8c0-0.1,0-0.2,0-0.2c-0.6-0.2-1.8-1-2.3-0.9c0.2-0.7-0.7-1.1-1.5-1.5
						c-0.8-0.4-1.5-0.8-1.2-1.2l-1.5-1.1l0.1-0.1c-0.9-0.8-1.4-0.9-1.9-0.9c-0.2-0.2,0.1-0.2,0.1-0.2c-1.2-1.3-1.3-1.4-2.8-1.9
						l0.1-0.4c-0.2-0.1-0.6-0.6-1.1-1.2c-0.5-0.6-1.1-1.4-1.9-1.8c0,0,0.1,0,0.3,0c-1.7-1-2.4-4-3.9-3.6l-1.1-0.7
						c1,1.3-0.6,0.2-0.3,0.9c-0.5-0.4-0.8-1.5-0.2-1l0,0.1c0.7-0.3-1.2-1.7-0.8-2c-2.2-2.4-4-5.1-6.1-7.4l-0.2,0.6l-0.7-0.8
						c-0.1-0.3,0.1-0.6,0.6,0c0-0.5-1.1-0.8-1.2-0.7c-0.8-1.3,0.9,0,0.6-0.4l-0.5-0.4l0,0.1c-0.5-0.2-0.7-0.1-1.3-0.8
						c-0.3-0.5,0.1-0.5-0.1-0.6c0,0,0-0.1-0.2-0.3l-0.9-1l0,0.7c-0.6-0.3-0.8-1-0.8-0.1c0-1.2-3.3-3.9-3.5-4.4
						c-0.8-0.4-1.4-1-2.1-1.7c0.1,0.2-0.1,0.7-0.7,0c1-0.5-0.8-1.5-0.8-2.5c0.1,0.8-1.9-1.7-1.7-0.4c-0.5-0.6,0.2-0.3,0-0.9
						c-0.8-0.5-1.5-1.1-2.2-1.9c-0.7-0.8-1.4-1.6-2.3-2.2c-0.1,0.1,0,0.5-0.5,0.3l-0.5-1.3c-0.4-0.2-0.8,0.4-1.1-0.5
						c0,0.2,0,0.4-0.2,0.3c-0.8-0.8-1.6-1.5-2.5-2.1c-0.9-0.7-1.9-1.2-2.8-1.8c-0.9-0.6-1.9-1.1-2.9-1.7c-0.5-0.3-0.9-0.6-1.4-1
						c-0.5-0.3-0.9-0.7-1.4-1c0.4,0.5,0.1,0.4-0.4,0.2c0.2,0.2-0.1,0.3-0.2,0.5c-0.5-0.4-1-0.9-1.5-1.2c-0.5,0.4-1.9-0.6-2.3-0.2
						l0.6,0.1c-0.9,0.3,0.6,1.6,0.2,2.3c1.1-0.4,1.6,1.7,3.2,1.4c0.2,0.3-0.3,0.1-0.3,0.3c0.4-0.1,0.9-0.1,1.5,0.5l-0.1,0
						c1,0.5,1.6,0.9,2.3,1.4c0.6,0.5,1.3,1.1,2.2,1.8l0.1-0.4c0.4,0.3,0.4,0.5,0.6,0.7c0.8-0.1-1.2-0.8-0.4-1.1c0.2,1,3,2.2,2.9,3.1
						c0.6,0.5,0.1-0.5,0.7,0l0,0.3l0.3-0.1c0.4,0.4,0.4,0.8,0.3,0.9c-0.1-0.1-0.3-0.2-0.4-0.3c0.4,0.7,1.6,1.2,1.7,1.4l-0.5-0.6
						c1.9,1.2,3.7,3.3,5.6,4.4l0-0.2c1.4,0.9,0.8,1.1,2.2,2.2l-0.1,0c0.4,0.1,0.8,0.4,1.1,0.8c-0.5-0.2,0.3,0.9-0.3,0.6
						c1.5,1,0.8,0.4,2.1,0.8l0,0.4c0.5,0.1,0.6,0,1.3,0.6c-0.7-0.4,0.1,0.7-0.7,0.4c0.9,1.8,2.4,1.6,2.3,2.9
						c1.2,0.1-0.8-1.5-0.3-1.3c-0.1-0.5,0.9,0.1,1.3,0.6c0.4,0.5,0,1.5,1,2.6c-0.1-0.1-0.2-0.1-0.3-0.2c0.2,0.6,1,0.6,1.2,1.4
						c0.6,0,0.6,0.7,1.1,0.4l-1.1-0.9c0.7,0.5,1.7,0.5,2.3,1.8c-0.2,0-0.5-0.2-0.8-0.3c0.1,0.4,0.6,0.5,0.7,0.9
						c-0.5,0.3-1.3-1.2-2.2-1.5c0.1,0.5,1.4,0.9,0.6,1c1.1-0.1,0.9,1.2,2.1,1.5l-0.3,0.2c0.2,0.1,0.5,0.2,0.7,0.5l-0.7-0.1
						c0.9,0.4,0.8,1.5,1.5,1.9c-1.1-1.3,0.1-0.6-0.2-1.3c1.8,1.2,0.1,1.5,1.8,3.2c-0.2-0.2-0.6-1-0.2-0.8c0.2,0.4,0.5,0.9,0.6,1.3
						c1.1,1.1,0.1-0.4,0.7-0.1c0,0.7,0.6,0.4,1.2,0.9l-0.3,0.3c1,1.5,0.9-0.2,1.7,1.2l-0.8-0.2l0.7,0.5l-0.4,0.2
						c0.8,0.5,1,0.7,1.5,1.5c0.1-0.3,0.6-0.4,1.1,0.2c0.2,0.5-0.5,0,0.3,0.8c-0.4,0-0.8,0-0.8-0.6c-0.1,0-0.3,0-0.5,0
						c0.2,0.6,0.9,1.1,1.2,1.4c-0.1-0.1-0.2-0.3-0.2-0.4l1.5,0.8c0.1,0.3-0.1,0.2-0.4,0.1c0.3,0.2,0.5,0.3,0.9,0.6
						c-0.3,0.1-0.5,0.4-1.1,0c0.5,0.3,0.9,0.6,1.3,0.9c0,0.2,0.3,0.8,0.1,0.8c0.5,0.7,1.9,1.1,2.6,2c0.1,0,0.2,0,0.4,0.2
						c0.8,0.8,1.2,1.7,2.5,2.2l0.2,0.9c0.8,0.6-0.3-1.2,1.1-0.2c1,0.6,0,0.6,0.2,1c0.6,0.2,1.8,0.4,2.3,1.4
						C176.2,530.7,176,530.4,175.7,530.3z M185.7,537.4c-0.2-0.1-0.8-0.1-0.8-0.4C185.4,536.8,185.4,537.1,185.7,537.4z M202,546.4
						c-0.2,0-0.4-0.2-0.6-0.4C201.6,546,201.8,546.1,202,546.4z M251.6,558.7L251.6,558.7C251.1,558.5,251.3,558.6,251.6,558.7z
						 M252.6,559.1c0.1,0,0.1-0.1,0.1-0.1c-0.1,0.1-0.3,0-0.6,0C252.2,559,252.3,559.1,252.6,559.1z M154.4,503.5l0.1,0.2
						C154.1,503.4,154.3,503.5,154.4,503.5z"/>
					<path class="st5" d="M199.9,545.8c0-0.1,0-0.2,0-0.2C199.8,545.6,199.8,545.6,199.9,545.8z"/>
					<path class="st5" d="M169.8,525.4L169.8,525.4C169.7,525.4,169.7,525.4,169.8,525.4L169.8,525.4z"/>
					<path class="st5" d="M235.4,559.3c-0.2-0.1-0.3-0.2-0.4-0.3C235,559.2,235,559.3,235.4,559.3z"/>
					<path class="st5" d="M258.4,559.6l-0.7,0c0.3,0,0.4,0.2,0.6,0.2C258.3,559.8,258.2,559.6,258.4,559.6z"/>
					<path class="st5" d="M263.9,563.2c0.1,0,0.2,0,0.3,0l0-0.2C263.8,562.9,263.4,563,263.9,563.2z"/>
					<path class="st5" d="M258.8,561c0,0.3,0.4,0.3,0.9,0.3c0,0-0.1,0-0.1,0C259.9,560.9,259.3,561,258.8,561z"/>
					<path class="st5" d="M259.8,561.4c0.2,0,0.3,0,0.4,0.1C260.4,561.3,260.1,561.4,259.8,561.4z"/>
					<path class="st5" d="M254,559.2c0.2,0.1,0.2-0.4,0.3-0.2C254.7,558.6,252.7,559.1,254,559.2z"/>
					<polygon class="st5" points="259,562.1 258.9,561.7 258.5,562 					"/>
					<path class="st5" d="M255.2,561.1l0.7,0.3c0-0.1,0.1-0.1,0.2-0.1C255.8,561.1,255.3,560.9,255.2,561.1z"/>
					<path class="st5" d="M256.2,561.2c0.2,0.1,0.5,0.1,0.6,0.1C256.7,561.3,256.4,561.2,256.2,561.2z"/>
					<polygon class="st5" points="257.9,562 257.7,561.9 257.2,561.8 					"/>
					<path class="st5" d="M247,559.3c-0.3,0-0.6,0-0.9-0.1c-0.1,0.1,0.1,0.2,0.4,0.2C246.8,559.4,247.1,559.5,247,559.3z"/>
					<path class="st5" d="M249.3,560.9c-0.2-0.1-0.2-0.2-0.3-0.4l-0.1,0.5L249.3,560.9z"/>
					<path class="st5" d="M246.9,560.5c-0.1,0.1-1.3,0.1-0.2,0.3C246.8,560.7,247.6,560.8,246.9,560.5z"/>
					<polygon class="st5" points="234.4,557.8 234.6,557.8 234.7,557 					"/>
					<path class="st5" d="M222.8,556.8c0.9,0.5,0.4-0.4,1.2,0.1c0.3-0.1-0.7-0.4-0.4-0.5C223,556.4,222.7,556.2,222.8,556.8z"/>
					<path class="st5" d="M223.6,556.4c0.1,0,0.2,0,0.3,0C223.8,556.3,223.7,556.3,223.6,556.4z"/>
					<polygon class="st5" points="123,478.5 122.4,478.1 122.7,478.5 					"/>
					<path class="st5" d="M121.6,478.7l0-0.5l-0.5,0.3C121.2,478.5,121.5,478.5,121.6,478.7z"/>
					<path class="st5" d="M186.6,539.3l0.1-0.1c0-0.2-0.1-0.3-0.4-0.4L186.6,539.3z"/>
					<polygon class="st5" points="179.6,533.8 179.7,533.9 179.7,533.3 					"/>
					<path class="st5" d="M173.3,529.6c0.2,0.2,0.6,0.4,0.8,0.6C173.5,529.8,173.6,529.1,173.3,529.6z"/>
				</g>
			</g>
		</g>
	</g>
</g>
<g>
	<linearGradient id="SVGID_2_" gradientUnits="userSpaceOnUse" x1="191.2907" y1="488.7261" x2="195.8295" y2="488.7261">
		<stop  offset="0" style="stop-color:#B8A093"/>
		<stop  offset="1" style="stop-color:#7E574C"/>
	</linearGradient>
	<linearGradient id="SVGID_3_" gradientUnits="userSpaceOnUse" x1="191.1646" y1="488.7261" x2="195.9556" y2="488.7261">
		<stop  offset="0" style="stop-color:#969695"/>
		<stop  offset="2.692115e-02" style="stop-color:#8E8E8D"/>
		<stop  offset="0.1223" style="stop-color:#777776"/>
		<stop  offset="0.2251" style="stop-color:#676766"/>
		<stop  offset="0.3395" style="stop-color:#5D5D5C"/>
		<stop  offset="0.4888" style="stop-color:#5A5A59"/>
		<stop  offset="0.7099" style="stop-color:#575756"/>
		<stop  offset="0.8795" style="stop-color:#4D4D4C"/>
		<stop  offset="1" style="stop-color:#414140"/>
	</linearGradient>
	
		<rect x="191.3" y="436.7" style="fill:url(#SVGID_2_);stroke:url(#SVGID_3_);stroke-width:0.2522;stroke-miterlimit:10;" width="4.5" height="104"/>
	<pattern  id="SVGID_4_" xlink:href="#_x31_0_ppp_80_x25_" patternTransform="matrix(0.3396 0 0 0.3396 -4536.6089 -4935.7065)">
	</pattern>
	<linearGradient id="SVGID_5_" gradientUnits="userSpaceOnUse" x1="192.4972" y1="456.7344" x2="242.6834" y2="456.7344">
		<stop  offset="0" style="stop-color:#969695"/>
		<stop  offset="2.692115e-02" style="stop-color:#8E8E8D"/>
		<stop  offset="0.1223" style="stop-color:#777776"/>
		<stop  offset="0.2251" style="stop-color:#676766"/>
		<stop  offset="0.3395" style="stop-color:#5D5D5C"/>
		<stop  offset="0.4888" style="stop-color:#5A5A59"/>
		<stop  offset="0.7099" style="stop-color:#575756"/>
		<stop  offset="0.8795" style="stop-color:#4D4D4C"/>
		<stop  offset="1" style="stop-color:#414140"/>
	</linearGradient>
	<path class="st11" d="M192.6,439c5.2,1.3,22.5-0.7,27.7-0.7c5.2,0,15.3,5.7,22.2,3.2v33.6c0,0-15-4.7-25-4.2
		c-10,0.5-15.2,4.5-24,2.4L192.6,439z"/>
</g>
</svg>
