<?xml version="1.0" encoding="utf-8"?>
<!-- Generator: Adobe Illustrator 22.1.0, SVG Export Plug-In . SVG Version: 6.00 Build 0)  -->
<svg version="1.1" id="Capa_1" xmlns="http://www.w3.org/2000/svg" xmlns:xlink="http://www.w3.org/1999/xlink" x="0px" y="0px"
	 viewBox="0 0 100 100" style="enable-background:new 0 0 100 100;" xml:space="preserve">
<style type="text/css">
	.st0{fill:url(#SVGID_1_);}
	.st1{fill:url(#SVGID_2_);}
	.st2{fill:url(#SVGID_3_);}
	.st3{fill:url(#SVGID_4_);}
	.st4{fill:url(#SVGID_5_);}
	.st5{fill:url(#SVGID_6_);}
	.st6{fill:url(#SVGID_7_);}
	.st7{fill:url(#SVGID_8_);}
	.st8{fill:url(#SVGID_9_);}
	.st9{fill:url(#SVGID_10_);}
	.st10{fill:url(#SVGID_11_);}
	.st11{fill:url(#SVGID_12_);}
	.st12{fill:url(#SVGID_13_);}
	.st13{fill:url(#SVGID_14_);}
	.st14{fill:url(#SVGID_15_);}
	.st15{fill:url(#SVGID_16_);}
	.st16{fill:url(#SVGID_17_);}
	.st17{fill:url(#SVGID_18_);}
	.st18{fill:url(#SVGID_19_);}
	.st19{fill:url(#SVGID_20_);}
	.st20{fill:url(#SVGID_21_);}
	.st21{fill:url(#SVGID_22_);}
	.st22{fill:url(#SVGID_23_);}
	.st23{fill:url(#SVGID_24_);}
	.st24{fill:url(#SVGID_25_);}
	.st25{fill:url(#SVGID_26_);}
	.st26{fill:url(#SVGID_27_);}
	.st27{fill:url(#SVGID_28_);}
	.st28{fill:url(#SVGID_29_);}
	.st29{fill:url(#SVGID_30_);}
	.st30{fill:url(#SVGID_31_);}
	.st31{fill:url(#SVGID_32_);}
	.st32{fill:url(#SVGID_33_);}
	.st33{fill:url(#SVGID_34_);}
	.st34{fill:url(#SVGID_35_);}
	.st35{fill:url(#SVGID_36_);}
	.st36{fill:url(#SVGID_37_);}
	.st37{fill:url(#SVGID_38_);}
	.st38{fill:url(#SVGID_39_);}
	.st39{fill:url(#SVGID_40_);}
	.st40{fill:url(#SVGID_41_);}
	.st41{fill:url(#SVGID_42_);}
	.st42{fill:url(#SVGID_43_);}
	.st43{fill:url(#SVGID_44_);}
	.st44{fill:url(#SVGID_45_);}
	.st45{fill:url(#SVGID_46_);}
	.st46{fill:url(#SVGID_47_);}
	.st47{fill:url(#SVGID_48_);}
	.st48{fill:url(#SVGID_49_);}
	.st49{fill:url(#SVGID_50_);}
	.st50{fill:url(#SVGID_51_);}
	.st51{fill:url(#SVGID_52_);}
	.st52{fill:#1D1D1C;}
</style>
<g>
	<linearGradient id="SVGID_1_" gradientUnits="userSpaceOnUse" x1="12.1467" y1="61.9599" x2="19.543" y2="61.9599">
		<stop  offset="0" style="stop-color:#EEC5B1"/>
		<stop  offset="0.5" style="stop-color:#E5A78D"/>
		<stop  offset="0.5709" style="stop-color:#E4A489"/>
		<stop  offset="1" style="stop-color:#DD9072"/>
	</linearGradient>
	<polygon class="st0" points="12.1,62.2 14.7,65.9 19.5,60 17.6,58 	"/>
	<linearGradient id="SVGID_2_" gradientUnits="userSpaceOnUse" x1="8.5458" y1="56.2666" x2="15.8448" y2="56.2666">
		<stop  offset="0" style="stop-color:#EEC5B1"/>
		<stop  offset="0.5" style="stop-color:#E5A78D"/>
		<stop  offset="0.5709" style="stop-color:#E4A489"/>
		<stop  offset="1" style="stop-color:#DD9072"/>
	</linearGradient>
	<polygon class="st1" points="15.8,55.9 10.7,59.3 8.5,55.9 13.7,53.2 	"/>
	<linearGradient id="SVGID_3_" gradientUnits="userSpaceOnUse" x1="6.2344" y1="51.4979" x2="14.4823" y2="51.4979">
		<stop  offset="0" style="stop-color:#EEC5B1"/>
		<stop  offset="0.5" style="stop-color:#E5A78D"/>
		<stop  offset="0.5709" style="stop-color:#E4A489"/>
		<stop  offset="1" style="stop-color:#DD9072"/>
	</linearGradient>
	<polygon class="st2" points="6.2,50.4 7.5,54.3 14.5,51.3 13.8,48.7 	"/>
	<linearGradient id="SVGID_4_" gradientUnits="userSpaceOnUse" x1="5.1396" y1="45.9872" x2="13.1685" y2="45.9872">
		<stop  offset="0" style="stop-color:#EEC5B1"/>
		<stop  offset="0.5" style="stop-color:#E5A78D"/>
		<stop  offset="0.5709" style="stop-color:#E4A489"/>
		<stop  offset="1" style="stop-color:#DD9072"/>
	</linearGradient>
	<polygon class="st3" points="5.1,44.1 5.6,48.3 13.2,47.5 12.1,43.7 	"/>
	<linearGradient id="SVGID_5_" gradientUnits="userSpaceOnUse" x1="5.1396" y1="38.9801" x2="11.7817" y2="38.9801">
		<stop  offset="0" style="stop-color:#EEC5B1"/>
		<stop  offset="0.5" style="stop-color:#E5A78D"/>
		<stop  offset="0.5709" style="stop-color:#E4A489"/>
		<stop  offset="1" style="stop-color:#DD9072"/>
	</linearGradient>
	<polygon class="st4" points="5.1,36.5 5.1,41.5 11.8,41.5 11.8,36.8 	"/>
	<linearGradient id="SVGID_6_" gradientUnits="userSpaceOnUse" x1="5.5754" y1="28.9386" x2="25.4309" y2="28.9386">
		<stop  offset="0" style="stop-color:#EEC5B1"/>
		<stop  offset="0.5" style="stop-color:#E5A78D"/>
		<stop  offset="0.5709" style="stop-color:#E4A489"/>
		<stop  offset="1" style="stop-color:#DD9072"/>
	</linearGradient>
	<path class="st5" d="M11.8,35c0,0,0.9-4.2,4.1-4.4s4.6,2.2,4.6,2.2l5-5c0,0-4.8-6.4-11.5-4.7S5.5,33.5,5.6,35H11.8z"/>
	<linearGradient id="SVGID_7_" gradientUnits="userSpaceOnUse" x1="21.1245" y1="32.8827" x2="29.2264" y2="32.8827">
		<stop  offset="0" style="stop-color:#EEC5B1"/>
		<stop  offset="0.5" style="stop-color:#E5A78D"/>
		<stop  offset="0.5709" style="stop-color:#E4A489"/>
		<stop  offset="1" style="stop-color:#DD9072"/>
	</linearGradient>
	<polygon class="st6" points="21.1,33.5 23.4,36.8 29.2,33.1 26.4,28.9 	"/>
	<linearGradient id="SVGID_8_" gradientUnits="userSpaceOnUse" x1="24.628" y1="38.5787" x2="32.584" y2="38.5787">
		<stop  offset="0" style="stop-color:#EEC5B1"/>
		<stop  offset="0.5" style="stop-color:#E5A78D"/>
		<stop  offset="0.5709" style="stop-color:#E4A489"/>
		<stop  offset="1" style="stop-color:#DD9072"/>
	</linearGradient>
	<polygon class="st7" points="24.6,38.3 25.8,42.2 32.6,40.2 30.4,35 	"/>
	<linearGradient id="SVGID_9_" gradientUnits="userSpaceOnUse" x1="26.0148" y1="43.9799" x2="34.1167" y2="43.9799">
		<stop  offset="0" style="stop-color:#EEC5B1"/>
		<stop  offset="0.5" style="stop-color:#E5A78D"/>
		<stop  offset="0.5709" style="stop-color:#E4A489"/>
		<stop  offset="1" style="stop-color:#DD9072"/>
	</linearGradient>
	<polygon class="st8" points="26,43.1 26.5,46.5 34.1,46 33.2,41.5 	"/>
	<linearGradient id="SVGID_10_" gradientUnits="userSpaceOnUse" x1="27.1097" y1="49.8922" x2="34.6277" y2="49.8922">
		<stop  offset="0" style="stop-color:#EEC5B1"/>
		<stop  offset="0.5" style="stop-color:#E5A78D"/>
		<stop  offset="0.5709" style="stop-color:#E4A489"/>
		<stop  offset="1" style="stop-color:#DD9072"/>
	</linearGradient>
	<polygon class="st9" points="27.1,48.7 27.1,52 34.6,52 34.6,47.8 	"/>
	<linearGradient id="SVGID_11_" gradientUnits="userSpaceOnUse" x1="27.4746" y1="55.8044" x2="34.6277" y2="55.8044">
		<stop  offset="0" style="stop-color:#EEC5B1"/>
		<stop  offset="0.5" style="stop-color:#E5A78D"/>
		<stop  offset="0.5709" style="stop-color:#E4A489"/>
		<stop  offset="1" style="stop-color:#DD9072"/>
	</linearGradient>
	<polygon class="st10" points="27.5,53.2 27.5,57.1 34.1,58.4 34.6,54.3 	"/>
	<linearGradient id="SVGID_12_" gradientUnits="userSpaceOnUse" x1="19.543" y1="54.7582" x2="24.628" y2="54.7582">
		<stop  offset="0" style="stop-color:#EEC5B1"/>
		<stop  offset="0.5" style="stop-color:#E5A78D"/>
		<stop  offset="0.5709" style="stop-color:#E4A489"/>
		<stop  offset="1" style="stop-color:#DD9072"/>
	</linearGradient>
	<polygon class="st11" points="19.5,55.2 21.1,58 23.4,56.3 22.5,54.3 24.6,52.6 24.6,51.5 19.5,54.3 	"/>
	<linearGradient id="SVGID_13_" gradientUnits="userSpaceOnUse" x1="16.8667" y1="50.9871" x2="24.0198" y2="50.9871">
		<stop  offset="0" style="stop-color:#EEC5B1"/>
		<stop  offset="0.5" style="stop-color:#E5A78D"/>
		<stop  offset="0.5709" style="stop-color:#E4A489"/>
		<stop  offset="1" style="stop-color:#DD9072"/>
	</linearGradient>
	<polygon class="st12" points="16.9,52 18.6,53.7 24,51.2 24,48.3 	"/>
	<linearGradient id="SVGID_14_" gradientUnits="userSpaceOnUse" x1="15.2123" y1="46.0237" x2="23.5331" y2="46.0237">
		<stop  offset="0" style="stop-color:#EEC5B1"/>
		<stop  offset="0.5" style="stop-color:#E5A78D"/>
		<stop  offset="0.5709" style="stop-color:#E4A489"/>
		<stop  offset="1" style="stop-color:#DD9072"/>
	</linearGradient>
	<polygon class="st13" points="17.7,49.9 23.5,47.3 23.5,42.2 15.2,46.8 	"/>
	<linearGradient id="SVGID_15_" gradientUnits="userSpaceOnUse" x1="15.2123" y1="42.3741" x2="22.7059" y2="42.3741">
		<stop  offset="0" style="stop-color:#EEC5B1"/>
		<stop  offset="0.5" style="stop-color:#E5A78D"/>
		<stop  offset="0.5709" style="stop-color:#E4A489"/>
		<stop  offset="1" style="stop-color:#DD9072"/>
	</linearGradient>
	<polygon class="st14" points="15.5,44.8 22.7,41.2 22.5,39.9 15.2,43.7 	"/>
	<linearGradient id="SVGID_16_" gradientUnits="userSpaceOnUse" x1="14.9689" y1="39.3086" x2="22.3166" y2="39.3086">
		<stop  offset="0" style="stop-color:#EEC5B1"/>
		<stop  offset="0.5" style="stop-color:#E5A78D"/>
		<stop  offset="0.5709" style="stop-color:#E4A489"/>
		<stop  offset="1" style="stop-color:#DD9072"/>
	</linearGradient>
	<polygon class="st15" points="15,42.8 22.3,39.3 20.7,35.8 15,39 	"/>
	<linearGradient id="SVGID_17_" gradientUnits="userSpaceOnUse" x1="14.371" y1="35.3636" x2="20.4432" y2="35.3636">
		<stop  offset="0" style="stop-color:#EEC5B1"/>
		<stop  offset="0.5" style="stop-color:#E5A78D"/>
		<stop  offset="0.5709" style="stop-color:#E4A489"/>
		<stop  offset="1" style="stop-color:#DD9072"/>
	</linearGradient>
	<path class="st16" d="M14.8,38.6l5.7-3.1c0,0-1.1-3.9-3.6-3.2S13.9,35.5,14.8,38.6z"/>
	<linearGradient id="SVGID_18_" gradientUnits="userSpaceOnUse" x1="18.1805" y1="73.8573" x2="27.1097" y2="73.8573">
		<stop  offset="0" style="stop-color:#EEC5B1"/>
		<stop  offset="0.5" style="stop-color:#E5A78D"/>
		<stop  offset="0.5709" style="stop-color:#E4A489"/>
		<stop  offset="1" style="stop-color:#DD9072"/>
	</linearGradient>
	<polygon class="st17" points="18.2,71.7 21,78.5 27.1,75.6 24.3,69.2 	"/>
	<linearGradient id="SVGID_19_" gradientUnits="userSpaceOnUse" x1="21.7814" y1="79.7695" x2="28.5938" y2="79.7695">
		<stop  offset="0" style="stop-color:#EEC5B1"/>
		<stop  offset="0.5" style="stop-color:#E5A78D"/>
		<stop  offset="0.5709" style="stop-color:#E4A489"/>
		<stop  offset="1" style="stop-color:#DD9072"/>
	</linearGradient>
	<polygon class="st18" points="21.8,79.7 23.5,83 28.6,79.4 27.5,76.6 	"/>
	<linearGradient id="SVGID_20_" gradientUnits="userSpaceOnUse" x1="24.1171" y1="84.2706" x2="32.4866" y2="84.2706">
		<stop  offset="0" style="stop-color:#EEC5B1"/>
		<stop  offset="0.5" style="stop-color:#E5A78D"/>
		<stop  offset="0.5709" style="stop-color:#E4A489"/>
		<stop  offset="1" style="stop-color:#DD9072"/>
	</linearGradient>
	<polygon class="st19" points="24.1,84.3 28.8,88.5 32.5,81.5 29.4,80.1 	"/>
	<linearGradient id="SVGID_21_" gradientUnits="userSpaceOnUse" x1="30.005" y1="81.9884" x2="43.5227" y2="81.9884">
		<stop  offset="0" style="stop-color:#EEC5B1"/>
		<stop  offset="0.5" style="stop-color:#E5A78D"/>
		<stop  offset="0.5709" style="stop-color:#E4A489"/>
		<stop  offset="1" style="stop-color:#DD9072"/>
	</linearGradient>
	<path class="st20" d="M30,89c0,0,7.7,0.6,10.4-1.9c2.7-2.5,3.5-7.9,3-11.6L36.5,75c0,0,0,3.4-0.4,3.6s-2.5,1.6-2.5,1.6L30,89z"/>
	<linearGradient id="SVGID_22_" gradientUnits="userSpaceOnUse" x1="35.2116" y1="72.1055" x2="42.8999" y2="72.1055">
		<stop  offset="0" style="stop-color:#EEC5B1"/>
		<stop  offset="0.5" style="stop-color:#E5A78D"/>
		<stop  offset="0.5709" style="stop-color:#E4A489"/>
		<stop  offset="1" style="stop-color:#DD9072"/>
	</linearGradient>
	<polygon class="st21" points="36,74.4 42.9,72.6 41.7,69.8 35.2,73.2 	"/>
	<linearGradient id="SVGID_23_" gradientUnits="userSpaceOnUse" x1="31.4161" y1="67.2152" x2="41.1968" y2="67.2152">
		<stop  offset="0" style="stop-color:#EEC5B1"/>
		<stop  offset="0.5" style="stop-color:#E5A78D"/>
		<stop  offset="0.5709" style="stop-color:#E4A489"/>
		<stop  offset="1" style="stop-color:#DD9072"/>
	</linearGradient>
	<polygon class="st22" points="34.6,71.7 41.2,69.2 37.2,62.7 31.4,65.9 	"/>
	<linearGradient id="SVGID_24_" gradientUnits="userSpaceOnUse" x1="26.0148" y1="67.9451" x2="30.3942" y2="67.9451">
		<stop  offset="0" style="stop-color:#EEC5B1"/>
		<stop  offset="0.5" style="stop-color:#E5A78D"/>
		<stop  offset="0.5709" style="stop-color:#E4A489"/>
		<stop  offset="1" style="stop-color:#DD9072"/>
	</linearGradient>
	<polygon class="st23" points="26,68.2 27.5,69.8 30.4,68.2 30,66.1 	"/>
	<linearGradient id="SVGID_25_" gradientUnits="userSpaceOnUse" x1="27.4746" y1="72.3488" x2="32.8273" y2="72.3488">
		<stop  offset="0" style="stop-color:#EEC5B1"/>
		<stop  offset="0.5" style="stop-color:#E5A78D"/>
		<stop  offset="0.5709" style="stop-color:#E4A489"/>
		<stop  offset="1" style="stop-color:#DD9072"/>
	</linearGradient>
	<polygon class="st24" points="27.5,70.9 29.7,75.3 32.8,73.9 30.9,69.4 	"/>
	<linearGradient id="SVGID_26_" gradientUnits="userSpaceOnUse" x1="30.005" y1="76.9264" x2="34.3156" y2="76.9264">
		<stop  offset="0" style="stop-color:#EEC5B1"/>
		<stop  offset="0.5" style="stop-color:#E5A78D"/>
		<stop  offset="0.5709" style="stop-color:#E4A489"/>
		<stop  offset="1" style="stop-color:#DD9072"/>
	</linearGradient>
	<path class="st25" d="M30,77c0,0,1.3,2.4,3.3,1.3c2-1.1,0.5-3,0.5-3L30,77z"/>
	
		<linearGradient id="SVGID_27_" gradientUnits="userSpaceOnUse" x1="1479.167" y1="71.7957" x2="1485.5554" y2="71.7957" gradientTransform="matrix(-1 0 0 1 1567.7997 0)">
		<stop  offset="0" style="stop-color:#C2A194"/>
		<stop  offset="1" style="stop-color:#8C574B"/>
	</linearGradient>
	<polygon class="st26" points="88.6,72 86.4,75.2 82.2,70.1 83.9,68.4 	"/>
	
		<linearGradient id="SVGID_28_" gradientUnits="userSpaceOnUse" x1="1476.0568" y1="66.8783" x2="1482.3612" y2="66.8783" gradientTransform="matrix(-1 0 0 1 1567.7997 0)">
		<stop  offset="0" style="stop-color:#C2A194"/>
		<stop  offset="1" style="stop-color:#8C574B"/>
	</linearGradient>
	<polygon class="st27" points="85.4,66.5 89.9,69.5 91.7,66.5 87.3,64.3 	"/>
	
		<linearGradient id="SVGID_29_" gradientUnits="userSpaceOnUse" x1="1474.0603" y1="62.7594" x2="1481.1843" y2="62.7594" gradientTransform="matrix(-1 0 0 1 1567.7997 0)">
		<stop  offset="0" style="stop-color:#C2A194"/>
		<stop  offset="1" style="stop-color:#8C574B"/>
	</linearGradient>
	<polygon class="st28" points="93.7,61.8 92.6,65.2 86.6,62.6 87.2,60.4 	"/>
	
		<linearGradient id="SVGID_30_" gradientUnits="userSpaceOnUse" x1="1473.1147" y1="57.9996" x2="1480.0496" y2="57.9996" gradientTransform="matrix(-1 0 0 1 1567.7997 0)">
		<stop  offset="0" style="stop-color:#C2A194"/>
		<stop  offset="1" style="stop-color:#8C574B"/>
	</linearGradient>
	<polygon class="st29" points="94.7,56.3 94.3,60 87.8,59.3 88.6,56 	"/>
	
		<linearGradient id="SVGID_31_" gradientUnits="userSpaceOnUse" x1="1473.1147" y1="51.9473" x2="1478.8517" y2="51.9473" gradientTransform="matrix(-1 0 0 1 1567.7997 0)">
		<stop  offset="0" style="stop-color:#C2A194"/>
		<stop  offset="1" style="stop-color:#8C574B"/>
	</linearGradient>
	<polygon class="st30" points="94.7,49.8 94.7,54.1 88.9,54.1 88.9,50.1 	"/>
	
		<linearGradient id="SVGID_32_" gradientUnits="userSpaceOnUse" x1="1473.4911" y1="43.2741" x2="1490.641" y2="43.2741" gradientTransform="matrix(-1 0 0 1 1567.7997 0)">
		<stop  offset="0" style="stop-color:#C2A194"/>
		<stop  offset="1" style="stop-color:#8C574B"/>
	</linearGradient>
	<path class="st31" d="M88.9,48.5c0,0-0.8-3.7-3.5-3.8s-4,1.9-4,1.9l-4.3-4.3c0,0,4.2-5.5,10-4c5.8,1.5,7.2,8.9,7.2,10.2H88.9z"/>
	
		<linearGradient id="SVGID_33_" gradientUnits="userSpaceOnUse" x1="1486.9214" y1="46.6808" x2="1493.9193" y2="46.6808" gradientTransform="matrix(-1 0 0 1 1567.7997 0)">
		<stop  offset="0" style="stop-color:#C2A194"/>
		<stop  offset="1" style="stop-color:#8C574B"/>
	</linearGradient>
	<polygon class="st32" points="80.9,47.3 78.9,50.1 73.9,46.9 76.3,43.3 	"/>
	
		<linearGradient id="SVGID_34_" gradientUnits="userSpaceOnUse" x1="1489.9475" y1="51.6006" x2="1496.8193" y2="51.6006" gradientTransform="matrix(-1 0 0 1 1567.7997 0)">
		<stop  offset="0" style="stop-color:#C2A194"/>
		<stop  offset="1" style="stop-color:#8C574B"/>
	</linearGradient>
	<polygon class="st33" points="77.9,51.3 76.8,54.7 71,53 72.9,48.5 	"/>
	
		<linearGradient id="SVGID_35_" gradientUnits="userSpaceOnUse" x1="1491.1454" y1="56.2658" x2="1498.1433" y2="56.2658" gradientTransform="matrix(-1 0 0 1 1567.7997 0)">
		<stop  offset="0" style="stop-color:#C2A194"/>
		<stop  offset="1" style="stop-color:#8C574B"/>
	</linearGradient>
	<polygon class="st34" points="76.7,55.5 76.2,58.4 69.7,58 70.4,54.1 	"/>
	
		<linearGradient id="SVGID_36_" gradientUnits="userSpaceOnUse" x1="1492.0911" y1="61.3724" x2="1498.5846" y2="61.3724" gradientTransform="matrix(-1 0 0 1 1567.7997 0)">
		<stop  offset="0" style="stop-color:#C2A194"/>
		<stop  offset="1" style="stop-color:#8C574B"/>
	</linearGradient>
	<polygon class="st35" points="75.7,60.4 75.7,63.2 69.2,63.2 69.2,59.5 	"/>
	
		<linearGradient id="SVGID_37_" gradientUnits="userSpaceOnUse" x1="1492.4062" y1="66.479" x2="1498.5846" y2="66.479" gradientTransform="matrix(-1 0 0 1 1567.7997 0)">
		<stop  offset="0" style="stop-color:#C2A194"/>
		<stop  offset="1" style="stop-color:#8C574B"/>
	</linearGradient>
	<polygon class="st36" points="75.4,64.3 75.4,67.6 69.7,68.7 69.2,65.2 	"/>
	
		<linearGradient id="SVGID_38_" gradientUnits="userSpaceOnUse" x1="1485.5554" y1="65.5754" x2="1489.9475" y2="65.5754" gradientTransform="matrix(-1 0 0 1 1567.7997 0)">
		<stop  offset="0" style="stop-color:#C2A194"/>
		<stop  offset="1" style="stop-color:#8C574B"/>
	</linearGradient>
	<polygon class="st37" points="82.2,66 80.9,68.4 78.9,66.9 79.7,65.2 77.9,63.7 77.9,62.8 82.2,65.2 	"/>
	
		<linearGradient id="SVGID_39_" gradientUnits="userSpaceOnUse" x1="1483.2438" y1="62.3181" x2="1489.4221" y2="62.3181" gradientTransform="matrix(-1 0 0 1 1567.7997 0)">
		<stop  offset="0" style="stop-color:#C2A194"/>
		<stop  offset="1" style="stop-color:#8C574B"/>
	</linearGradient>
	<polygon class="st38" points="84.6,63.2 83,64.7 78.4,62.5 78.4,60 	"/>
	
		<linearGradient id="SVGID_40_" gradientUnits="userSpaceOnUse" x1="1481.8148" y1="58.0311" x2="1489.0018" y2="58.0311" gradientTransform="matrix(-1 0 0 1 1567.7997 0)">
		<stop  offset="0" style="stop-color:#C2A194"/>
		<stop  offset="1" style="stop-color:#8C574B"/>
	</linearGradient>
	<polygon class="st39" points="83.8,61.4 78.8,59.1 78.8,54.7 86,58.7 	"/>
	
		<linearGradient id="SVGID_41_" gradientUnits="userSpaceOnUse" x1="1481.8148" y1="54.8789" x2="1488.2874" y2="54.8789" gradientTransform="matrix(-1 0 0 1 1567.7997 0)">
		<stop  offset="0" style="stop-color:#C2A194"/>
		<stop  offset="1" style="stop-color:#8C574B"/>
	</linearGradient>
	<polygon class="st40" points="85.7,57 79.5,53.8 79.7,52.8 86,56 	"/>
	
		<linearGradient id="SVGID_42_" gradientUnits="userSpaceOnUse" x1="1481.6046" y1="52.231" x2="1487.951" y2="52.231" gradientTransform="matrix(-1 0 0 1 1567.7997 0)">
		<stop  offset="0" style="stop-color:#C2A194"/>
		<stop  offset="1" style="stop-color:#8C574B"/>
	</linearGradient>
	<polygon class="st41" points="86.2,55.3 79.8,52.3 81.3,49.2 86.2,51.9 	"/>
	
		<linearGradient id="SVGID_43_" gradientUnits="userSpaceOnUse" x1="1481.0881" y1="48.8236" x2="1486.333" y2="48.8236" gradientTransform="matrix(-1 0 0 1 1567.7997 0)">
		<stop  offset="0" style="stop-color:#C2A194"/>
		<stop  offset="1" style="stop-color:#8C574B"/>
	</linearGradient>
	<path class="st42" d="M86.4,51.6l-4.9-2.7c0,0,0.9-3.4,3.1-2.8C86.7,46.7,87.1,48.9,86.4,51.6z"/>
	
		<linearGradient id="SVGID_44_" gradientUnits="userSpaceOnUse" x1="1484.3785" y1="82.072" x2="1492.0911" y2="82.072" gradientTransform="matrix(-1 0 0 1 1567.7997 0)">
		<stop  offset="0" style="stop-color:#C2A194"/>
		<stop  offset="1" style="stop-color:#8C574B"/>
	</linearGradient>
	<polygon class="st43" points="83.4,80.2 81,86.1 75.7,83.6 78.1,78.1 	"/>
	
		<linearGradient id="SVGID_45_" gradientUnits="userSpaceOnUse" x1="1487.4888" y1="87.1785" x2="1493.3729" y2="87.1785" gradientTransform="matrix(-1 0 0 1 1567.7997 0)">
		<stop  offset="0" style="stop-color:#C2A194"/>
		<stop  offset="1" style="stop-color:#8C574B"/>
	</linearGradient>
	<polygon class="st44" points="80.3,87.1 78.8,90 74.4,86.8 75.4,84.4 	"/>
	
		<linearGradient id="SVGID_46_" gradientUnits="userSpaceOnUse" x1="1489.5062" y1="91.0663" x2="1496.7352" y2="91.0663" gradientTransform="matrix(-1 0 0 1 1567.7997 0)">
		<stop  offset="0" style="stop-color:#C2A194"/>
		<stop  offset="1" style="stop-color:#8C574B"/>
	</linearGradient>
	<polygon class="st45" points="78.3,91.1 74.3,94.7 71.1,88.7 73.8,87.4 	"/>
	
		<linearGradient id="SVGID_47_" gradientUnits="userSpaceOnUse" x1="1494.5918" y1="89.095" x2="1506.2675" y2="89.095" gradientTransform="matrix(-1 0 0 1 1567.7997 0)">
		<stop  offset="0" style="stop-color:#C2A194"/>
		<stop  offset="1" style="stop-color:#8C574B"/>
	</linearGradient>
	<path class="st46" d="M73.2,95.1c0,0-6.7,0.5-9-1.7c-2.3-2.2-3-6.8-2.6-10l6-0.4c0,0,0,2.9,0.4,3.1c0.3,0.2,2.1,1.3,2.1,1.3
		L73.2,95.1z"/>
	
		<linearGradient id="SVGID_48_" gradientUnits="userSpaceOnUse" x1="1499.0889" y1="80.5589" x2="1505.7296" y2="80.5589" gradientTransform="matrix(-1 0 0 1 1567.7997 0)">
		<stop  offset="0" style="stop-color:#C2A194"/>
		<stop  offset="1" style="stop-color:#8C574B"/>
	</linearGradient>
	<polygon class="st47" points="68,82.6 62.1,81 63.1,78.6 68.7,81.5 	"/>
	
		<linearGradient id="SVGID_49_" gradientUnits="userSpaceOnUse" x1="1495.8107" y1="76.3349" x2="1504.2585" y2="76.3349" gradientTransform="matrix(-1 0 0 1 1567.7997 0)">
		<stop  offset="0" style="stop-color:#C2A194"/>
		<stop  offset="1" style="stop-color:#8C574B"/>
	</linearGradient>
	<polygon class="st48" points="69.2,80.2 63.5,78.1 67,72.5 72,75.2 	"/>
	
		<linearGradient id="SVGID_50_" gradientUnits="userSpaceOnUse" x1="1491.1454" y1="76.9654" x2="1494.928" y2="76.9654" gradientTransform="matrix(-1 0 0 1 1567.7997 0)">
		<stop  offset="0" style="stop-color:#C2A194"/>
		<stop  offset="1" style="stop-color:#8C574B"/>
	</linearGradient>
	<polygon class="st49" points="76.7,77.2 75.4,78.6 72.9,77.2 73.2,75.4 	"/>
	
		<linearGradient id="SVGID_51_" gradientUnits="userSpaceOnUse" x1="1492.4062" y1="80.769" x2="1497.0294" y2="80.769" gradientTransform="matrix(-1 0 0 1 1567.7997 0)">
		<stop  offset="0" style="stop-color:#C2A194"/>
		<stop  offset="1" style="stop-color:#8C574B"/>
	</linearGradient>
	<polygon class="st50" points="75.4,79.5 73.5,83.3 70.8,82.1 72.5,78.2 	"/>
	
		<linearGradient id="SVGID_52_" gradientUnits="userSpaceOnUse" x1="1494.5918" y1="84.7228" x2="1498.3151" y2="84.7228" gradientTransform="matrix(-1 0 0 1 1567.7997 0)">
		<stop  offset="0" style="stop-color:#C2A194"/>
		<stop  offset="1" style="stop-color:#8C574B"/>
	</linearGradient>
	<path class="st51" d="M73.2,84.8c0,0-1.1,2.1-2.8,1.1c-1.7-1-0.5-2.6-0.5-2.6L73.2,84.8z"/>
	<g>
		<g>
			<g>
				<g>
					<g>
						<path class="st52" d="M53.2,81c0.1,0.1,0.1,0,0.1,0C53.2,80.9,53.1,81,53.2,81z"/>
						<polygon class="st52" points="51.8,80.2 51.9,80.2 51.7,80.1 						"/>
						<path class="st52" d="M50.8,79.3c0,0.2,0.4,0.3,0.5,0.5l0,0.1l0.2,0C51.3,79.6,50.9,79.4,50.8,79.3z"/>
						<path class="st52" d="M50.5,78.5c0,0.1-0.2-0.1,0.1,0.1c0,0,0,0,0,0C50.6,78.6,50.6,78.5,50.5,78.5z"/>
						<path class="st52" d="M50.6,78.6C50.7,78.7,50.6,78.5,50.6,78.6L50.6,78.6z"/>
						<path class="st52" d="M50.1,78.2l0.2,0.1c0-0.1-0.1-0.2-0.1-0.2C50.1,78,50.1,78,50.1,78.2z"/>
						<path class="st52" d="M49.9,78.1L49.9,78.1C50,78.2,49.9,78.1,49.9,78.1z"/>
						<path class="st52" d="M50.2,78.3L50,78.2c0,0,0,0.1,0.1,0C50,78.3,50.1,78.2,50.2,78.3z"/>
						<path class="st52" d="M50.2,78.4c0.1,0.1,0.1,0.2,0,0.1C50.5,78.7,50.5,78.6,50.2,78.4z"/>
						<path class="st52" d="M50.6,79.4l0.1,0.1l0.1,0C50.8,79.5,50.7,79.3,50.6,79.4z"/>
						<path class="st52" d="M49.3,77.3c0,0,0,0.1-0.1,0.2l0.1,0.1C49.3,77.4,49.3,77.3,49.3,77.3z"/>
						<path class="st52" d="M49.2,77.4l-0.2-0.1C49.2,77.5,49.2,77.5,49.2,77.4z"/>
						<polygon class="st52" points="49.7,78.3 50.1,78.4 49.7,78.2 						"/>
						<polygon class="st52" points="48.7,76.7 48.9,76.7 48.6,76.7 						"/>
						<path class="st52" d="M48.4,76.3c0.1,0,0-0.2,0.1-0.1c-0.1-0.1-0.2-0.1-0.4-0.2C48.2,76.1,48.3,76.2,48.4,76.3z"/>
						<path class="st52" d="M47.9,76C48,76,48,76,48.1,76C48,76,48,76,47.9,76z"/>
						<path class="st52" d="M48.8,77.1c0,0,0-0.1,0-0.2L48.8,77.1L48.8,77.1z"/>
						<path class="st52" d="M48.7,77L48.7,77c-0.1-0.1-0.1-0.1-0.1-0.1C48.6,76.9,48.7,76.9,48.7,77z"/>
						<path class="st52" d="M48.8,77.1L48.8,77.1C48.8,77.1,48.8,77.1,48.8,77.1z"/>
						<path class="st52" d="M49.4,77.8c-0.1,0-0.4-0.2-0.2,0.1C49.2,77.9,49.2,77.7,49.4,77.8z"/>
						<path class="st52" d="M48.8,77.3l0.1,0.2c0,0,0-0.1,0.1-0.1L48.8,77.3z"/>
						<polygon class="st52" points="48.7,77.2 48.8,77.3 48.7,77.2 						"/>
						<path class="st52" d="M48.1,76.3c-0.1,0-0.2-0.1-0.3-0.2c0.1,0.1,0.2,0.2,0.2,0.3C48.1,76.4,48.2,76.4,48.1,76.3z"/>
						<path class="st52" d="M48.4,76.7L48.4,76.7C48.4,76.7,48.4,76.7,48.4,76.7z"/>
						<polygon class="st52" points="47,75.2 47,75.3 47.1,75.3 						"/>
						<path class="st52" d="M48.1,76.4c0.1,0.1,0.1,0.1,0.2,0.1C48.2,76.5,48.1,76.5,48.1,76.4C48.1,76.4,48,76.4,48.1,76.4z"/>
						<path class="st52" d="M47.6,75.8c0,0.1,0,0.1,0.1,0.2C47.7,75.9,47.7,75.7,47.6,75.8z"/>
						<path class="st52" d="M48.4,76.6C48.4,76.6,48.4,76.6,48.4,76.6C48.4,76.6,48.4,76.6,48.4,76.6z"/>
						<path class="st52" d="M48.4,76.6c0,0-0.1,0-0.1,0C48.3,76.6,48.3,76.6,48.4,76.6C48.4,76.6,48.4,76.6,48.4,76.6z"/>
						<path class="st52" d="M46.3,75.4c0.1-0.1,0.3,0.1,0.4,0.3c0.2,0.1,0.4-0.2,0.4-0.5c0,0-0.1,0.1-0.3-0.1c0,0.1,0.2,0.5,0,0.4
							c-0.2-0.2-0.1-0.2-0.2-0.3c0,0.2-0.4-0.2-0.5,0L46.3,75.4C46.3,75.4,46.2,75.4,46.3,75.4z"/>
						<path class="st52" d="M47.3,75.6L47.3,75.6c0,0,0-0.1,0-0.3c-0.1-0.1-0.2-0.1-0.2-0.1L47.3,75.6L47.3,75.6z"/>
						<path class="st52" d="M47.7,76c-0.1,0-0.3-0.1-0.3,0.1c0.2,0.2,0.2,0.1,0.3,0.2C47.4,75.9,47.8,76.2,47.7,76
							c0.1,0.1,0.1,0.1,0.2,0.2C47.8,76,47.7,76,47.7,76L47.7,76L47.7,76L47.7,76C47.7,76,47.7,76,47.7,76L47.7,76
							C47.7,75.9,47.7,76,47.7,76C47.6,75.8,47.7,75.9,47.7,76L47.7,76L47.7,76l-0.3-0.3C47.4,75.7,47.5,75.8,47.7,76z"/>
						<path class="st52" d="M48.8,77.9C48.8,77.9,48.8,77.9,48.8,77.9C48.8,77.9,48.8,77.9,48.8,77.9z"/>
						<path class="st52" d="M48.7,77.7c0,0,0.1,0,0.1,0.1c0,0.1,0,0-0.1,0.1c0.1,0,0.2,0.1,0.1-0.1l0,0c-0.1-0.2-0.2-0.4-0.1-0.4
							C48.7,77.5,48.7,77.6,48.7,77.7z"/>
						<path class="st52" d="M48.1,76.9l-0.3-0.2l0.1,0.2l0,0C48.1,76.9,48.1,76.9,48.1,76.9z"/>
						<polygon class="st52" points="47.1,75.2 47.2,75.1 46.9,75.1 						"/>
						<polygon class="st52" points="46.8,74.8 46.8,74.8 46.7,74.7 						"/>
						<path class="st52" d="M39.3,49.9L39.3,49.9C39.3,49.9,39.3,49.9,39.3,49.9z"/>
						<path class="st52" d="M39.5,50.7L39.5,50.7C39.5,50.7,39.5,50.7,39.5,50.7z"/>
						<path class="st52" d="M43.9,64.4c0.1-0.2,0.2-0.4,0.1-0.3l-0.1,0.1C43.9,64.2,43.9,64.3,43.9,64.4z"/>
						<path class="st52" d="M41.6,56.7L41.6,56.7c0,0.1,0.1,0.1,0.1,0.1C41.6,56.8,41.6,56.7,41.6,56.7z"/>
						<path class="st52" d="M41.1,56.7l0-0.2C41.1,56.5,41.1,56.6,41.1,56.7z"/>
						<path class="st52" d="M38.2,45.9L38,45.8C38.1,45.9,38.1,45.8,38.2,45.9z"/>
						<path class="st52" d="M44.3,71c0-0.1,0-0.2,0-0.3C44.2,70.8,44.2,71,44.3,71z"/>
						<path class="st52" d="M40.5,49.9C40.5,49.9,40.5,49.9,40.5,49.9C40.5,49.9,40.5,50,40.5,49.9z"/>
						<path class="st52" d="M44.1,70.3C44.1,70.3,44.1,70.4,44.1,70.3c0,0.1,0.1,0.2,0.1,0.3C44.3,70.5,44.3,70.4,44.1,70.3z"/>
						<path class="st52" d="M35,30.8C35,30.8,35,30.8,35,30.8C35,30.8,35,30.8,35,30.8z"/>
						<path class="st52" d="M35.4,26.2c0,0,0,0.1,0,0.2C35.4,26.4,35.4,26.3,35.4,26.2z"/>
						<path class="st52" d="M45.7,73.4C45.7,73.4,45.7,73.4,45.7,73.4L45.7,73.4z"/>
						<path class="st52" d="M45.6,74C45.6,74,45.5,74,45.6,74C45.5,74,45.6,74,45.6,74z"/>
						<path class="st52" d="M43.3,69.5L43.3,69.5C43.3,69.5,43.3,69.5,43.3,69.5z"/>
						<path class="st52" d="M45.7,73.5c0,0,0-0.1,0-0.1C45.7,73.4,45.7,73.4,45.7,73.5z"/>
						<path class="st52" d="M45.7,73.5C45.8,73.5,45.8,73.5,45.7,73.5C45.8,73.5,45.8,73.5,45.7,73.5z"/>
						<path class="st52" d="M45.6,73.2c0,0,0.1,0.1,0.1,0.1c0,0,0,0,0,0C45.7,73.3,45.6,73.3,45.6,73.2z"/>
						<path class="st52" d="M36.9,38.8C36.9,38.8,36.9,38.8,36.9,38.8C36.8,38.7,36.9,38.8,36.9,38.8z"/>
						<polygon class="st52" points="42.3,62 42.3,62 42.3,62 						"/>
						<path class="st52" d="M42.1,61.7c0.2,0.1,0.2,0.2,0.2,0.3l0.3-0.2L42.1,61.7z"/>
						<path class="st52" d="M38.8,48.1l0,0.3c-0.2-0.3-0.2-0.5-0.3-0.2c0.4-0.1,0.3,0.9,0.6,0.9l0,0.2c0,0,0,0,0-0.1
							c-0.1,0.4,0.3,0.2,0.4,0.6c0,0.1,0,0.3-0.1,0.2l0.2,0.3c0,0.1,0,0.1-0.1,0l0.1,0.5l0,0c0.1,0.1,0.2,0.2,0.2,0.3
							c0,0.1-0.1-0.1-0.1,0l0.1,0.2c-0.1,0.1-0.2-0.1-0.2-0.3c-0.3,0.3,0.1,0.2,0.1,0.8l-0.1-0.2c-0.2,0.2,0,0.4-0.1,0.7
							c0-0.1,0.2-0.6,0.3-0.4c0,0.1,0,0.2,0.1,0.3c-0.1,0-0.1,0.2,0,0.4l-0.2,0c0.1,0.2,0.2,0.2,0.3,0.3c0,0.2-0.1,0.3-0.2,0.4
							c0.1,0.4,0.1-0.3,0.3,0.1c0,0.3,0.1,0.5,0.3,0.9c0,0.2-0.1,0-0.1,0.1l0.2,0.2c0,0,0,0-0.1,0c0.1,0.1,0.2,0,0.3,0.2
							c0.2,0-0.1,0.6,0.1,0.8c0,0.1-0.1,0-0.2,0c0.2,0.4,0.2,0.3,0.4,0.6l0,0.3c0.1-0.2,0.3,0,0.5,0.2c0-0.1,0.1-0.2,0.1-0.2
							l0.2,0.4c0,0.1-0.1,0-0.2,0l0.1,0.1c0,0.2-0.1,0.1-0.3,0c0-0.1,0-0.1,0.1-0.2c-0.1-0.1-0.3-0.1-0.3-0.1c0,0,0.1,0.1,0.1,0.1
							c0,0-0.1,0-0.1,0c0,0,0,0,0.1,0.1L41.1,57l0.1,0l0,0.5c0.3,0.3,0.6,0.6,0.8,1.1c-0.2-0.1-0.2,0-0.4,0c0.1-0.2-0.2-0.4-0.2-0.7
							c0,0.2-0.1,0.1-0.1,0.1l0.3,0.5c-0.1,0-0.1,0.1-0.1,0.3c0.2-0.2,0.3,0.4,0.4,0.6c-0.1,0-0.2,0-0.2-0.3
							c-0.1,0.3,0.4,0.3,0.3,0.6c0-0.1,0-0.1-0.1-0.1c0.1,0.1,0.1,0.5,0,0.5l0-0.1c0.1,0.4,0.3,1.3,0.5,1.3c0,0-0.3,0-0.3,0L43,62
							c-0.2,0-0.6,0.3-0.8,0c0,0.1,0,0.2,0.1,0.4c0-0.1,0.2-0.2,0.3-0.1c-0.2,0.3-0.1,0.2-0.2,0.6c0-0.1,0.3-0.1,0.4,0.1
							c0,0-0.3,0.1-0.3,0l0.4,0.4c-0.1-0.1-0.2,0-0.3,0.1c0-0.1,0.1,0.4,0.1,0.5l0-0.2c0,0.5,0.5,0.4,0.5,0.9
							c-0.1,0-0.4-0.1-0.4,0.2c0.2,0.1,0.8,0.4,1,0.8l-0.1,0.1c0.1,0.1,0.1,0.2,0.1,0.3c-0.2-0.2-0.8-0.7-1-1c0,0.2-0.1,0.1,0,0.3
							c-0.1,0.1-0.1-0.1-0.2-0.2l0,0.6c0.2,0,0.2,0.4,0.4,0.4c-0.1-0.2-0.1-0.4-0.2-0.6c0.2,0,0.6,0.3,0.5,0.8
							c-0.1,0.1-0.3-0.1-0.4,0c0.1,0.1,0.1,0.4,0.1,0.4l-0.1-0.2c-0.1,0.2,0.3,0.4,0.1,0.7c0,0.1-0.2,0.3-0.1,0.3
							c0.2-0.1,0.8-0.2,1-0.1c0,0-0.2,0.6-0.3,0.7c-0.2,0.1-0.3-0.3-0.5-0.2c0,0,0.1,0.1,0.1,0.1c0,0.1-0.1-0.1-0.1,0.2
							c0.2,0.1-0.1,0.5,0.1,0.1c0,0.3-0.1,0.3-0.1,0.5c0.1-0.1,0.4,0.3,0.4,0.5c0,0-0.1,0-0.1,0.1c0.1,0.5,0,0.7,0.1,1.2
							c0,0,0,0.3-0.1,0.2c0,0.1,0.1,0.1,0.2,0.2c-0.1,0.3-0.1-0.3-0.2,0c0.1,0,0.2,0.3,0.4,0.5c0.1-0.1-0.1-0.4-0.2-0.6
							c0.2-0.1,0.5,0.2,0.8,0.6c0.2,0.3-0.1,0.2,0,0.2c0.3,0.6,0.6,0.3,0.7,0.9c0,0.3-0.2,0.1-0.3,0.2c-0.2-0.2-0.2-0.4-0.3-0.6
							c0,0.1,0,0.2,0.1,0.2c-0.1-0.1-0.2-0.2-0.2-0.3c-0.1,0.2,0.5,1,0.7,1.5c0.1,0.1,0.2,0.2,0.2,0.1L45,73.6c0-0.2,0.3,0.2,0.2,0
							c0.2,0.1,0.4,0.3,0.6,0.6l-0.1,0.1c0,0,0-0.2-0.1-0.3c0.1,0.1,0.1,0.5,0.4,0.5l-0.1-0.2c0.2,0.1,0.5,0.2,0.6,0.5
							c0-0.2-0.1,0,0-0.3c-0.1,0.3-0.4-0.5-0.5-0.2c0-0.3-0.1-0.3-0.1-0.6c0,0,0,0.1-0.1-0.1c0,0,0,0-0.1,0l0,0l0,0c0,0,0,0,0,0
							c0,0.1,0,0.1,0,0.1c-0.2,0-0.4-0.3-0.5-0.4c-0.1-0.1,0.1,0,0.1-0.1c-0.1,0-0.1-0.1-0.2-0.1c0.1-0.1,0-0.4,0.2-0.2l-0.1-0.2
							c0-0.2-0.1-0.4-0.2-0.5c-0.1-0.1-0.3-0.2-0.1-0.2l-0.2-0.4l0,0c-0.2-0.4-0.5-0.7-0.5-1.3c-0.1-0.1-0.1-0.3-0.1-0.5l0.1-0.1
							c-0.1-0.2,0-0.5-0.1-0.6c0.1-0.1,0.2-0.3,0.2-0.5c0-0.2,0-0.6,0-0.7l-0.1,0c0-0.3,0-0.5,0-0.8l-0.1,0c-0.1-0.3,0-0.7,0-1.1
							c0,0,0,0.1,0,0.2c0.2-0.5-0.3-1-0.2-1.5c-0.1-0.1-0.1-0.2,0-0.3l0,0c0,0,0,0,0,0c0-0.1,0-0.1,0-0.2c0,0.1,0,0.1,0,0.1
							c0-0.1,0-0.2-0.1-0.3l0.1-0.1c0,0,0,0,0,0c0-0.1-0.1-0.1-0.2,0c0-0.1-0.1-0.1-0.1-0.2c0.2-0.1-0.1-0.3,0.1-0.5
							c-0.1-0.1-0.2-0.6-0.4-0.6c0,0,0,0,0,0c0-0.1,0-0.3-0.1-0.4l0.1-0.1l-0.3-0.3c0.1-0.2,0.1-0.3,0.3-0.1
							c-0.3-0.4-0.1-0.3-0.4-0.7l0.1,0c0-0.1-0.2-0.3-0.1-0.4c0.1-0.3-0.3-1.5-0.3-2.3c-0.3,0.2,0.1-0.4-0.2-0.4
							c0.1-0.1,0.1-0.2,0.2-0.1c-0.2-0.4,0-0.6-0.3-0.8c0.1-0.1,0.1,0.1,0.2,0c0,0-0.1-0.1-0.1-0.2c0,0,0.1,0,0.1,0.1
							c-0.1-0.4-0.3-0.4-0.5-0.4c0-0.2,0-0.3-0.2-0.4c0-0.1,0.1-0.2,0.2,0c0-0.1-0.1-0.9-0.3-0.8c0-0.1,0-0.2-0.1-0.2
							c-0.1-0.3-0.1-0.3-0.1-0.6l0,0.1c-0.2-0.1-0.1-0.2-0.2-0.5l0,0c0-0.6-0.1-0.2-0.1-0.8l-0.1,0.1c-0.3,0,0-0.5-0.1-0.8l0,0.1
							c-0.1-0.2,0.2-0.6,0.2-0.8c0,0,0.1,0.1,0.1,0.1c0-0.5-0.2,0-0.3-0.4c0.1-0.1,0.2,0,0.2-0.2c0-0.1-0.4-0.6-0.4-1
							c0,0.1-0.1,0.2-0.2,0c-0.1-0.2,0.1-0.7-0.2-0.9c0,0,0-0.1,0-0.1c-0.1-0.2-0.2-0.6-0.4-0.7c0.4-0.3-0.5-1.1-0.1-1.2l-0.2-0.6
							l0,0c-0.1-0.4-0.2-0.5-0.3-0.6c0-0.1,0.1,0,0.1,0c-0.1-0.6-0.1-0.6-0.4-1l0.1-0.1c-0.1-0.1,0-0.8-0.3-1.3c0,0,0,0,0.1,0
							c-0.3-0.6,0-1.5-0.5-1.6l-0.2-0.4c0.1,0.5-0.2,0-0.2,0.2c-0.1-0.2,0-0.5,0.1-0.3l0,0c0.3,0-0.1-0.6,0.1-0.7
							c-0.2-1-0.3-2-0.5-2.9L37.7,39l-0.1-0.3c0-0.1,0.1-0.1,0.2,0.1c0.1-0.1-0.2-0.4-0.2-0.4c0-0.5,0.3,0.1,0.2,0l-0.1-0.2l0,0
							c-0.1-0.1-0.2-0.1-0.2-0.4c0-0.2,0.1-0.1,0.1-0.2c0,0,0,0,0-0.1l-0.1-0.4l-0.1,0.2c-0.1-0.2-0.1-0.4-0.2-0.2
							c0.2-0.3-0.2-1.6-0.2-1.7c-0.2-0.2-0.2-0.5-0.3-0.8c0,0.1-0.2,0.2-0.2-0.1c0.4,0,0.1-0.5,0.3-0.8c-0.1,0.2-0.2-0.8-0.4-0.4
							c0-0.2,0.1,0,0.2-0.2c-0.2-0.5-0.1-1.2-0.3-1.8c0,0-0.1,0.1-0.2,0l0.2-0.4c0-0.1-0.3-0.1-0.2-0.3c0,0-0.1,0.1-0.1,0
							c0-1.3-0.6-2.6-0.4-4c-0.1,0.2-0.1,0.1-0.1-0.1c0,0.1-0.1,0-0.2,0l0.1-0.6c-0.2-0.1-0.1-0.6-0.3-0.6l0.1,0.2
							c-0.2-0.2-0.4,0.4-0.6,0.4c0.3,0.2-0.2,0.7,0.1,1.1c0,0.1-0.1-0.1-0.1,0c0.1,0.1,0.2,0.2,0.1,0.5l0,0c0.1,0.7,0.1,1,0.1,1.8
							l0.1-0.1c0,0.2,0,0.2,0,0.3c0.2,0.2-0.1-0.5,0.2-0.3c-0.2,0.3,0.2,1.2-0.1,1.4c0,0.3,0.1-0.1,0.2,0.2L35,30.6l0.1,0
							c0,0.2-0.1,0.3-0.1,0.3c0,0,0-0.1-0.1-0.2c-0.1,0.2,0.1,0.6,0.1,0.7l0-0.3c0.2,0.7,0.3,1.5,0.5,2.2l0-0.1c0.2,0.5,0,0.4,0.2,1
							l0,0c0.1,0.1,0.1,0.2,0.2,0.4c-0.1-0.1-0.1,0.3-0.2,0.1c0.2,0.5,0.1,0.3,0.4,0.6l-0.1,0.1c0.1,0.1,0.2,0.1,0.2,0.4
							c-0.1-0.2-0.1,0.2-0.3,0c-0.1,0.6,0.4,0.8,0.2,1.2c0.3,0.2,0-0.5,0.1-0.4c0.1-0.1,0.2,0.2,0.3,0.4c0,0.2-0.3,0.4-0.2,0.9
							c0,0,0,0,0-0.1c0,0.2,0.2,0.3,0.1,0.6c0.2,0.1,0.1,0.3,0.3,0.3l-0.1-0.4c0.1,0.2,0.4,0.4,0.4,0.8c0,0-0.1-0.1-0.2-0.2
							c0,0.1,0.1,0.2,0.1,0.4c-0.2,0-0.2-0.5-0.4-0.7c-0.1,0.1,0.3,0.5,0,0.4c0.3,0.1,0.1,0.5,0.4,0.7l-0.1,0c0,0,0.1,0.1,0.1,0.2
							l-0.2-0.1c0.2,0.2,0,0.5,0.1,0.8C36.8,39.9,37,40.3,37,40c0.3,0.6-0.2,0.4,0,1.1c0-0.1,0-0.4,0.1-0.2c0,0.1,0,0.3,0,0.4
							c0.1,0.5,0.1-0.1,0.2,0.1c-0.1,0.2,0.1,0.2,0.2,0.4l-0.1,0c0.1,0.6,0.3,0.1,0.3,0.6l-0.2-0.2l0.1,0.2l-0.2,0
							c0.2,0.2,0.2,0.3,0.2,0.6c0.1-0.1,0.2,0,0.3,0.2c0,0.2-0.1-0.1,0,0.3c-0.1-0.1-0.2-0.1-0.1-0.3c0,0-0.1-0.1-0.1-0.1
							c0,0.2,0.1,0.4,0.1,0.6c0,0,0-0.1,0-0.1l0.3,0.4c0,0.1-0.1,0-0.1,0c0,0.1,0.1,0.2,0.2,0.3c-0.1,0-0.2,0-0.3-0.2l0.2,0.4
							c0,0-0.1,0.3-0.1,0.2c0,0.3,0.3,0.6,0.4,0.9c0,0,0.1,0,0.1,0.1c0.1,0.3,0,0.6,0.2,1l-0.1,0.3c0.1,0.3,0.2-0.3,0.3,0.1
							c0.1,0.3-0.1,0.2-0.1,0.3c0.1,0.2,0.4,0.4,0.3,0.8C38.8,48.3,38.9,48.2,38.8,48.1z M39.8,51.8c0-0.1-0.2-0.2-0.1-0.3
							C39.9,51.6,39.8,51.7,39.8,51.8z M41.5,57.3c-0.1,0-0.1-0.1,0-0.2C41.5,57.1,41.5,57.2,41.5,57.3z M45,72.5L45,72.5
							C45,72.4,45,72.4,45,72.5z M45.1,72.8C45.2,72.8,45.2,72.8,45.1,72.8c0,0,0-0.1-0.1-0.2C45.1,72.7,45.1,72.8,45.1,72.8z
							 M37.5,37.6L37.5,37.6C37.4,37.5,37.5,37.6,37.5,37.6z"/>
						<path class="st52" d="M41.2,56.7C41.2,56.7,41.2,56.7,41.2,56.7C41.2,56.6,41.2,56.6,41.2,56.7z"/>
						<path class="st52" d="M38.2,45.9C38.2,45.9,38.2,45.9,38.2,45.9C38.2,45.9,38.2,45.9,38.2,45.9L38.2,45.9z"/>
						<path class="st52" d="M42.9,68.1c0-0.1,0-0.1,0.1-0.1C43,68,42.9,68,42.9,68.1z"/>
						<path class="st52" d="M46.3,74.1L46.1,74C46.2,74.1,46.2,74.1,46.3,74.1C46.3,74.1,46.3,74.1,46.3,74.1z"/>
						<path class="st52" d="M46.9,76C46.9,76.1,47,76.1,46.9,76l0.1,0C46.9,76,46.8,75.9,46.9,76z"/>
						<path class="st52" d="M46.1,74.5c-0.1,0.1,0,0.2,0.2,0.3l0,0C46.4,74.7,46.2,74.6,46.1,74.5z"/>
						<path class="st52" d="M46.3,74.8c0,0,0.1,0.1,0.1,0.1C46.4,74.9,46.3,74.9,46.3,74.8z"/>
						<path class="st52" d="M45.4,73.1c0,0.1,0.1,0,0.1,0C45.7,73.2,45.1,72.9,45.4,73.1z"/>
						<polygon class="st52" points="45.9,74.8 46,74.7 45.8,74.7 						"/>
						<path class="st52" d="M45.3,73.8l0.1,0.2c0,0,0,0,0.1,0C45.4,74,45.3,73.8,45.3,73.8z"/>
						<path class="st52" d="M45.4,74.1c0,0.1,0.1,0.1,0.1,0.1C45.6,74.2,45.5,74.1,45.4,74.1z"/>
						<path class="st52" d="M45.7,74.6L45.7,74.6c-0.1-0.1-0.1-0.2-0.1-0.2L45.7,74.6z"/>
						<path class="st52" d="M44,71.6l-0.1-0.2c-0.1,0-0.1,0.1,0,0.2C43.9,71.6,44,71.6,44,71.6z"/>
						<path class="st52" d="M44,72.5c0-0.1,0-0.1,0-0.2l-0.1,0.1L44,72.5z"/>
						<path class="st52" d="M43.6,71.8c-0.1,0-0.3-0.3-0.1,0C43.6,71.8,43.7,72,43.6,71.8z"/>
						<polygon class="st52" points="43.4,67.7 43.4,67.8 43.7,67.8 						"/>
						<path class="st52" d="M42.5,64.3c0,0.3,0.2,0,0.1,0.3c0.1,0.1,0-0.2,0.1-0.2C42.6,64.3,42.7,64.2,42.5,64.3z"/>
						<path class="st52" d="M42.7,64.5C42.7,64.5,42.8,64.6,42.7,64.5C42.8,64.5,42.7,64.5,42.7,64.5z"/>
						<polygon class="st52" points="35.4,25.5 35.5,25.3 35.4,25.4 						"/>
						<path class="st52" d="M35.2,25.1l0.2-0.1l-0.2-0.1C35.2,25,35.2,25.1,35.2,25.1z"/>
						<path class="st52" d="M39.6,52.4L39.6,52.4c0.1,0,0.1-0.1,0.1-0.2L39.6,52.4z"/>
						<polygon class="st52" points="39.1,49.7 39.1,49.8 39.2,49.6 						"/>
						<path class="st52" d="M38.3,47.5c0,0.1,0.1,0.2,0.1,0.3C38.3,47.6,38.5,47.5,38.3,47.5z"/>
					</g>
				</g>
			</g>
		</g>
	</g>
	<g>
		<g>
			<g>
				<g>
					<g>
						<path class="st52" d="M69.1,53.5c0,0.1,0.1,0.1,0.1,0.1C69.2,53.5,69.1,53.5,69.1,53.5z"/>
						<polygon class="st52" points="69,52.2 69,52.2 68.9,52 						"/>
						<path class="st52" d="M69.1,50.9c-0.2,0.1,0,0.5-0.1,0.7l0,0l0.1,0.1C69.1,51.5,69,51.1,69.1,50.9z"/>
						<path class="st52" d="M69.5,50.3c-0.1,0,0-0.1,0,0.2c0,0,0,0,0,0C69.5,50.4,69.5,50.4,69.5,50.3z"/>
						<path class="st52" d="M69.5,50.4C69.5,50.6,69.6,50.3,69.5,50.4L69.5,50.4z"/>
						<path class="st52" d="M69.5,49.8l0,0.2c0,0,0.1-0.2,0.1-0.1C69.7,49.7,69.6,49.7,69.5,49.8z"/>
						<path class="st52" d="M69.4,49.6L69.4,49.6C69.5,49.7,69.5,49.7,69.4,49.6z"/>
						<path class="st52" d="M69.5,49.9l0-0.2c0,0-0.1,0,0,0.1C69.4,49.8,69.5,49.8,69.5,49.9z"/>
						<path class="st52" d="M69.5,50c0,0.1-0.1,0.2-0.1,0C69.3,50.4,69.4,50.4,69.5,50z"/>
						<path class="st52" d="M68.9,50.8L68.9,51l0,0.1C68.9,51,69,50.8,68.9,50.8z"/>
						<path class="st52" d="M69.7,48.8c0,0-0.1,0-0.2,0.1l0,0.1C69.7,48.9,69.7,48.8,69.7,48.8z"/>
						<path class="st52" d="M69.6,48.8l0-0.2C69.5,48.8,69.6,48.8,69.6,48.8z"/>
						<polygon class="st52" points="69.2,49.6 69.4,49.9 69.3,49.5 						"/>
						<polygon class="st52" points="69.8,48 69.9,48.1 69.8,47.9 						"/>
						<path class="st52" d="M69.9,47.5c0.1,0.1,0.1-0.1,0.2,0c0-0.1,0-0.3-0.1-0.4C69.9,47.3,69.9,47.4,69.9,47.5z"/>
						<path class="st52" d="M69.9,47c0,0.1,0,0.1,0.1,0.2C69.9,47.1,69.9,47.1,69.9,47z"/>
						<path class="st52" d="M69.6,48.3c0,0,0.1,0,0.1-0.1L69.6,48.3C69.6,48.2,69.6,48.3,69.6,48.3z"/>
						<path class="st52" d="M69.6,48.2L69.6,48.2c0-0.1,0-0.1,0-0.2C69.6,48.1,69.6,48.1,69.6,48.2z"/>
						<path class="st52" d="M69.6,48.3L69.6,48.3C69.6,48.3,69.6,48.3,69.6,48.3z"/>
						<path class="st52" d="M69.4,49.1c0-0.1-0.1-0.4-0.2-0.1C69.3,49,69.3,48.9,69.4,49.1z"/>
						<path class="st52" d="M69.5,48.4l0,0.2c0,0,0.1,0,0.1,0L69.5,48.4z"/>
						<polygon class="st52" points="69.4,48.3 69.5,48.4 69.5,48.3 						"/>
						<path class="st52" d="M69.7,47.3c0-0.1,0-0.2,0-0.3C69.7,47.2,69.6,47.3,69.7,47.3C69.7,47.4,69.7,47.5,69.7,47.3z"/>
						<path class="st52" d="M69.7,47.8L69.7,47.8C69.6,47.8,69.6,47.8,69.7,47.8z"/>
						<polygon class="st52" points="69.8,46 69.8,46 69.8,46 						"/>
						<path class="st52" d="M69.6,47.4c0,0.1,0,0.1,0,0.2C69.6,47.5,69.6,47.5,69.6,47.4C69.6,47.4,69.6,47.4,69.6,47.4z"/>
						<path class="st52" d="M69.8,46.7c0,0,0,0.1-0.1,0.1C69.8,46.8,69.9,46.7,69.8,46.7z"/>
						<path class="st52" d="M69.7,47.7L69.7,47.7C69.7,47.7,69.7,47.7,69.7,47.7z"/>
						<path class="st52" d="M69.7,47.7c0,0,0-0.1-0.1-0.1C69.6,47.6,69.6,47.7,69.7,47.7C69.7,47.7,69.7,47.7,69.7,47.7z"/>
						<path class="st52" d="M69.2,45.6c0.1,0,0.2,0.3,0,0.4c0.1,0.2,0.4,0.1,0.6,0c0,0-0.1,0-0.1-0.2c-0.1,0.1-0.2,0.4-0.2,0.3
							c0-0.3,0.1-0.2,0.1-0.3c-0.1,0.1-0.1-0.4-0.3-0.3L69.2,45.6C69.2,45.6,69.2,45.5,69.2,45.6z"/>
						<path class="st52" d="M69.7,46.4L69.7,46.4c0,0,0.1-0.1,0.2-0.2c0-0.1-0.1-0.2-0.1-0.2L69.7,46.4L69.7,46.4z"/>
						<path class="st52" d="M69.7,46.8c-0.1-0.1-0.1-0.3-0.2-0.2c0,0.2,0.1,0.2,0.1,0.3C69.6,46.6,69.6,47.1,69.7,46.8
							c0,0.1,0,0.1,0,0.2C69.7,47,69.7,46.9,69.7,46.8L69.7,46.8L69.7,46.8L69.7,46.8C69.7,46.9,69.7,46.9,69.7,46.8L69.7,46.8
							C69.7,46.8,69.7,46.8,69.7,46.8C69.7,46.7,69.7,46.8,69.7,46.8L69.7,46.8L69.7,46.8l0-0.4C69.7,46.5,69.7,46.6,69.7,46.8z"/>
						<path class="st52" d="M69,48.7C69,48.7,69,48.7,69,48.7C69,48.7,69,48.7,69,48.7z"/>
						<path class="st52" d="M69.1,48.6c0,0,0.1,0.1,0,0.1c0,0.1-0.1,0-0.1,0c0,0.1,0.1,0.2,0.1,0l0,0c0.1-0.2,0.2-0.3,0.2-0.3
							C69.2,48.4,69.2,48.5,69.1,48.6z"/>
						<path class="st52" d="M69.4,47.7l0-0.3l-0.1,0.2l0.1,0C69.3,47.7,69.3,47.7,69.4,47.7z"/>
						<polygon class="st52" points="69.9,45.9 70,46 69.8,45.8 						"/>
						<polygon class="st52" points="69.9,45.5 70,45.5 69.9,45.4 						"/>
						<path class="st52" d="M81.8,26.1L81.8,26.1C81.8,26,81.8,26.1,81.8,26.1z"/>
						<path class="st52" d="M81.7,26.8L81.7,26.8C81.7,26.7,81.7,26.7,81.7,26.8z"/>
						<path class="st52" d="M76.7,38.4c0.2,0,0.4-0.1,0.3-0.1l-0.1,0C76.8,38.3,76.8,38.4,76.7,38.4z"/>
						<path class="st52" d="M80.5,32.3L80.5,32.3c0,0.1,0,0.1,0,0.2C80.5,32.4,80.5,32.4,80.5,32.3z"/>
						<path class="st52" d="M80.2,32.1l0.1-0.1C80.3,31.9,80.2,32,80.2,32.1z"/>
						<path class="st52" d="M82.4,22.4l-0.1-0.1C82.3,22.4,82.3,22.4,82.4,22.4z"/>
						<path class="st52" d="M72.3,42.7c0.1-0.1,0.2-0.1,0.3-0.2C72.5,42.6,72.3,42.6,72.3,42.7z"/>
						<path class="st52" d="M82.9,26.6C82.9,26.5,82.9,26.5,82.9,26.6C82.8,26.6,82.9,26.6,82.9,26.6z"/>
						<path class="st52" d="M72.9,42.3C72.8,42.3,72.8,42.3,72.9,42.3c-0.1,0.1-0.2,0.2-0.3,0.2C72.7,42.5,72.8,42.4,72.9,42.3z"/>
						<path class="st52" d="M82.9,8.8C82.9,8.8,82.9,8.8,82.9,8.8C82.9,8.8,82.9,8.8,82.9,8.8z"/>
						<path class="st52" d="M83.5,4.7c0,0,0,0.1,0,0.2C83.6,4.8,83.6,4.8,83.5,4.7z"/>
						<path class="st52" d="M70.5,44.5C70.4,44.6,70.4,44.6,70.5,44.5L70.5,44.5z"/>
						<path class="st52" d="M69.8,44.5C69.9,44.5,69.9,44.5,69.8,44.5C69.8,44.5,69.9,44.5,69.8,44.5z"/>
						<path class="st52" d="M73.1,41.2L73.1,41.2C73,41.2,73,41.2,73.1,41.2z"/>
						<path class="st52" d="M70.3,44.6c0,0,0.1,0,0.1-0.1C70.4,44.5,70.4,44.6,70.3,44.6z"/>
						<path class="st52" d="M70.4,44.6C70.3,44.6,70.3,44.6,70.4,44.6C70.3,44.7,70.3,44.7,70.4,44.6z"/>
						<path class="st52" d="M70.5,44.4c0,0-0.1,0.1-0.1,0.1C70.4,44.5,70.5,44.5,70.5,44.4C70.5,44.5,70.5,44.5,70.5,44.4z"/>
						<path class="st52" d="M83.3,16.1C83.3,16.1,83.3,16.1,83.3,16.1C83.3,16,83.3,16,83.3,16.1z"/>
						<polygon class="st52" points="77.5,35.9 77.5,35.9 77.5,35.9 						"/>
						<path class="st52" d="M77.6,35.6c0,0.2-0.1,0.2-0.1,0.3l0.3,0.1L77.6,35.6z"/>
						<path class="st52" d="M82.1,24.5L82,24.7c-0.1-0.3,0-0.5-0.2-0.3c0.3,0.1-0.1,0.9,0.2,1l-0.1,0.1c0,0,0-0.1,0-0.1
							c-0.2,0.2,0.2,0.3,0.1,0.6c-0.1,0.1-0.1,0.2-0.1,0.1l0,0.3c0,0.1-0.1,0-0.1,0l-0.1,0.4l0,0c0,0.1,0.1,0.2,0.1,0.3
							c-0.1,0.1,0-0.1-0.1,0l0,0.3c-0.1,0.1-0.1-0.1-0.1-0.3c-0.4,0.1,0,0.2-0.3,0.6l0-0.2c-0.2,0.1-0.2,0.3-0.4,0.5
							c0.1,0,0.4-0.4,0.4-0.2c0,0.1-0.1,0.2-0.1,0.3c-0.1,0-0.1,0.1-0.2,0.3l-0.1-0.1c0,0.2,0.1,0.2,0.1,0.3
							c-0.1,0.2-0.2,0.2-0.3,0.2c-0.1,0.3,0.2-0.2,0.2,0.2C81,29.3,81,29.5,81,29.9c-0.1,0.2-0.1-0.1-0.1,0l0.1,0.2c0,0,0,0-0.1,0
							c0,0.2,0.1,0.1,0.1,0.3c0.1,0.1-0.4,0.4-0.3,0.7c-0.1,0.1-0.1-0.1-0.1-0.1c0,0.4,0,0.3,0,0.7l-0.2,0.2
							c0.2-0.1,0.2,0.1,0.2,0.4c0.1,0,0.1-0.1,0.2-0.1l-0.1,0.4c0,0-0.1,0-0.1-0.1c0,0,0,0.1,0,0.1c-0.1,0.1-0.2,0-0.2-0.1
							c0,0,0.1-0.1,0.1-0.1c-0.1-0.1-0.1-0.2-0.2-0.3c0,0,0,0.1,0,0.1c0,0,0-0.1,0-0.1c0,0,0,0.1,0,0.1l-0.2,0l0.1,0
							c-0.1,0.1-0.2,0.2-0.3,0.4c0,0.4,0.1,0.7-0.1,1.2c0-0.2-0.2-0.1-0.3-0.2c0.2,0,0.1-0.4,0.3-0.6c-0.1,0.1-0.1,0-0.1,0l-0.1,0.5
							c-0.1-0.1-0.1,0-0.2,0.1c0.3,0.1-0.1,0.4-0.1,0.6c-0.1,0-0.1-0.1,0-0.3c-0.3,0.1,0,0.4-0.2,0.6c0,0,0.1-0.1,0-0.1
							c0,0.2-0.3,0.4-0.3,0.3l0,0c-0.3,0.3-0.8,0.9-0.6,1.1c0,0-0.2-0.2-0.2-0.2l0.1,1c-0.1-0.2-0.6-0.3-0.4-0.6
							c-0.1,0.1-0.2,0.1-0.3,0.3c0.1,0,0.3,0.1,0.3,0.1c-0.3,0-0.2,0.1-0.5,0.2c0.1,0,0.2,0.2,0.1,0.3c0,0-0.2-0.2-0.2-0.2l-0.1,0.5
							c0-0.1-0.2-0.2-0.3-0.2c0.1,0-0.2,0.2-0.3,0.3l0.2-0.1c-0.3,0.3,0,0.6-0.3,0.9c0-0.1-0.2-0.3-0.3-0.2c0,0.2,0.2,0.8,0,1.1
							l-0.1,0l-0.1,0.3c0-0.3,0-1,0.1-1.3c-0.2,0.1-0.1,0-0.3,0.1c-0.1,0,0-0.2,0.1-0.2L75,38.3c0.1,0.1-0.2,0.4-0.1,0.5l0.3-0.6
							c0.1,0.1,0.1,0.6-0.2,0.8c-0.1,0-0.2-0.3-0.2-0.3c0,0.1-0.2,0.3-0.2,0.3l0.1-0.2c-0.2,0.1-0.1,0.4-0.4,0.5
							c-0.1,0.1-0.3,0-0.3,0.1c0.2,0,0.7,0.4,0.7,0.6c0,0-0.5,0.2-0.6,0.2c-0.2,0-0.1-0.4-0.3-0.4c0,0,0,0.1,0,0.2
							c-0.1,0-0.1-0.1-0.2,0c0.1,0.1-0.3,0.3,0,0.2c-0.1,0.2-0.2,0.1-0.3,0.3c0.1,0,0.1,0.4,0,0.6c0,0-0.1,0-0.1,0
							c-0.3,0.3-0.5,0.4-0.8,0.7c-0.1,0-0.2,0.1-0.2,0c0,0.1,0,0.1-0.1,0.2c-0.3,0.1,0.2-0.2-0.1-0.2c0.1,0.1-0.1,0.3-0.2,0.5
							c0.1,0.1,0.3-0.3,0.4-0.4c0.1,0.1,0.1,0.5-0.2,0.9c-0.2,0.3-0.2,0-0.2,0.1c-0.5,0.4-0.1,0.6-0.6,0.9c-0.2,0-0.2-0.2-0.3-0.2
							c0.2-0.2,0.4-0.2,0.5-0.3L71,43.2c0-0.1,0.1-0.2,0.2-0.3c-0.2,0-0.8,0.7-1.2,0.9c0,0.1-0.1,0.2,0,0.2l0.1-0.1
							c0.2,0-0.1,0.3,0.1,0.2c-0.1,0.2-0.2,0.5-0.4,0.5l-0.1-0.1c0,0,0.2,0,0.2-0.1c0,0.1-0.2,0.1-0.3,0.2c0,0,0,0.1,0.1,0.1
							c0,0,0,0,0.1-0.1l0.1,0l0,0c0,0.1,0.1,0.1,0.1,0.2c0,0,0,0.2,0,0.3c0.2-0.1,0-0.1,0.2-0.2c-0.1,0.1-0.1-0.1-0.1-0.1
							c0,0,0-0.1,0-0.1c0,0,0,0-0.1,0l0,0c0.3,0,0.1,0,0.4-0.1c0,0-0.1,0,0-0.1c0,0,0,0,0-0.1l0,0l0,0c0,0,0,0,0,0
							c-0.1,0-0.1,0-0.1,0c0-0.2,0.3-0.4,0.3-0.5c0.1-0.1,0,0.1,0.1,0.1l0.1-0.2c0.1,0.1,0.4-0.1,0.2,0.2L71,44
							c0.2-0.1,0.3-0.2,0.4-0.3c0.1-0.1,0.2-0.3,0.1-0.2l0.3-0.3l0,0c0.3-0.3,0.5-0.7,1-0.9c0.1-0.1,0.2-0.2,0.4-0.4l0.1,0
							c0.1-0.1,0.5-0.3,0.4-0.4c0.3,0,0.7-0.6,0.9-0.7l-0.1-0.1c0.2-0.1,0.3-0.3,0.4-0.5l-0.1-0.1c0.1-0.2,0.5-0.4,0.7-0.6
							c0,0-0.1,0.1-0.1,0.1c0.5-0.1,0.5-0.8,0.9-0.9c0-0.1,0.1-0.1,0.2-0.2c0,0,0,0,0,0l0,0c0,0,0.1,0,0.1-0.1c0,0-0.1,0-0.1,0
							c0.1-0.1,0.1-0.1,0.2-0.3l0.1,0c0,0,0,0,0,0c0.1-0.1,0-0.1-0.1-0.1c0-0.1,0-0.1,0.1-0.2c0.2,0.1,0.2-0.3,0.4-0.2
							c0-0.1,0.3-0.5,0.2-0.7c0,0,0.1,0,0,0c0.1-0.1,0.2-0.2,0.2-0.3l0.1,0.1l0-0.3c0.2-0.1,0.3-0.1,0.2,0.1
							c0.1-0.4,0.2-0.3,0.3-0.7l0.1,0.1c0.1-0.1,0.1-0.3,0.2-0.3c0.3-0.1,0.9-1,1.4-1.5c-0.3,0,0.3-0.2,0.1-0.4
							c0.1,0,0.2-0.1,0.2,0.1c0.1-0.4,0.4-0.4,0.3-0.8c0.1,0,0.1,0.1,0.1,0.1c0,0,0-0.1,0.1-0.1c0.1,0,0,0.1,0,0.1
							c0.2-0.4,0-0.5-0.2-0.6c0.2-0.1,0.2-0.2,0.1-0.4c0.1,0,0.2-0.1,0.1,0.1c0.1-0.1,0.4-0.7,0.2-0.8c0.1,0,0.1-0.2,0.1-0.2
							c0.1-0.3,0.1-0.3,0.2-0.6l-0.1,0.1c-0.1-0.2,0-0.2,0.1-0.5l0,0c0.3-0.5,0-0.2,0.3-0.7l-0.1,0c-0.2-0.1,0.3-0.4,0.3-0.7
							l-0.1,0.1c0-0.2,0.5-0.3,0.5-0.5c0,0,0,0.1,0,0.1c0.3-0.4-0.1-0.1-0.1-0.4c0.1,0,0.2,0.1,0.3-0.1c0.1-0.1-0.1-0.7,0.1-0.9
							c-0.1,0-0.2,0.1-0.2-0.1c0-0.2,0.4-0.5,0.2-0.8c0,0,0,0,0.1,0c0-0.2,0-0.6-0.1-0.7c0.4-0.1,0-1.1,0.4-1l0.1-0.5l0,0
							c0.1-0.3,0-0.5-0.1-0.6c0-0.1,0.1,0,0.1,0c0.2-0.5,0.2-0.5,0-1l0.1,0c-0.1-0.1,0.3-0.7,0.2-1.2c0,0,0,0,0,0.1
							c-0.1-0.6,0.5-1.3,0.1-1.5l-0.1-0.4c-0.1,0.5-0.2-0.1-0.3,0.1c0-0.2,0.2-0.5,0.2-0.2l0,0c0.2,0.1,0.1-0.6,0.3-0.5
							c0.1-0.9,0.2-1.8,0.3-2.7L84,16.4l0-0.3c0-0.1,0.1-0.1,0.1,0.1c0.1-0.1-0.1-0.4-0.1-0.4c0.1-0.4,0.2,0.2,0.2,0l0-0.2l0,0
							c-0.1-0.1-0.1-0.2-0.1-0.4c0-0.2,0.1-0.1,0.1-0.1c0,0,0,0,0-0.1l0-0.4l-0.1,0.1c-0.1-0.2,0-0.4-0.1-0.2
							c0.3-0.3,0.1-1.4,0.2-1.6C84,12.9,84,12.6,84,12.4c0,0.1-0.2,0.1-0.2-0.1c0.3,0.1,0.1-0.5,0.4-0.7c-0.1,0.2-0.1-0.7-0.3-0.4
							c0-0.2,0.1,0,0.2-0.2c-0.2-0.5,0-1.1,0-1.7c0,0-0.1,0.1-0.2,0l0.2-0.3c0-0.1-0.3-0.1-0.1-0.3c0,0-0.1,0.1-0.1,0
							c0.1-1.2-0.4-2.4-0.2-3.7c-0.1,0.2-0.1,0.1-0.1-0.1c0,0.1-0.1,0-0.2,0l0.1-0.5c-0.2-0.1-0.1-0.5-0.2-0.6l0,0.2
							c-0.2-0.2-0.4,0.4-0.6,0.4c0.2,0.2-0.2,0.7,0.1,1c0,0.1-0.1-0.1-0.1,0c0.1,0.1,0.1,0.2,0.1,0.4l0,0c0.1,0.6,0,0.9,0,1.6
							l0.1-0.1c0,0.2,0,0.2-0.1,0.3c0.2,0.2,0-0.4,0.2-0.3c-0.2,0.2,0.1,1.1-0.2,1.2c0,0.2,0.1-0.1,0.1,0.2L83,8.6l0.1,0.1
							c0,0.2-0.1,0.2-0.1,0.2c0,0,0-0.1,0-0.1c-0.1,0.2,0.1,0.5,0,0.6l0-0.2c0.1,0.6,0,1.4,0.2,2l0.1,0c0.1,0.5,0,0.4,0,0.9l0,0
							c0.1,0.1,0.1,0.2,0.1,0.4c-0.1-0.1-0.1,0.2-0.2,0.1c0.1,0.5,0.1,0.2,0.3,0.6l-0.1,0.1c0.1,0.1,0.1,0.1,0.2,0.4
							c-0.1-0.2-0.1,0.2-0.2-0.1c-0.2,0.5,0.2,0.8-0.1,1c0.2,0.2,0.2-0.5,0.2-0.3c0.1-0.1,0.2,0.2,0.2,0.4c0,0.2-0.3,0.3-0.3,0.7
							c0,0,0,0,0-0.1c-0.1,0.2,0.1,0.3,0,0.5c0.1,0.1,0,0.3,0.2,0.3l0-0.4c0,0.2,0.3,0.4,0.1,0.8c0,0-0.1-0.1-0.1-0.2
							c-0.1,0.1,0,0.2,0,0.3c-0.2,0,0-0.5-0.2-0.7C83,15.8,83.2,16.2,83,16c0.3,0.2,0,0.4,0.1,0.7l-0.1,0c0,0,0.1,0.1,0.1,0.2
							L83,16.8c0.1,0.2-0.1,0.4-0.1,0.7c0-0.5,0.1-0.1,0.2-0.3c0.1,0.6-0.3,0.3-0.3,1c0-0.1,0.1-0.3,0.1-0.2c0,0.1-0.1,0.3-0.2,0.4
							c0,0.4,0.1-0.1,0.2,0.1c-0.2,0.1,0,0.2,0.1,0.4l-0.1,0c-0.1,0.5,0.2,0.2,0.1,0.6l-0.1-0.2l0,0.2l-0.1-0.1c0.1,0.3,0,0.3,0,0.6
							c0.1,0,0.2,0.1,0.2,0.3c-0.1,0.1-0.1-0.1-0.1,0.2c-0.1-0.1-0.2-0.2,0-0.3c0,0-0.1-0.1-0.1-0.1c-0.1,0.2-0.1,0.4-0.1,0.5
							c0,0,0-0.1,0-0.1l0.1,0.5c-0.1,0.1-0.1,0-0.1-0.1c0,0.1,0,0.2,0,0.3c-0.1,0-0.2,0-0.2-0.2l0,0.4c0,0-0.1,0.2-0.2,0.1
							c-0.1,0.2,0.1,0.6,0,0.9c0,0,0,0.1,0,0.1c-0.1,0.3-0.2,0.5-0.1,0.9l-0.2,0.2c0,0.3,0.3-0.2,0.2,0.2c0,0.3-0.2,0.1-0.2,0.2
							c0.1,0.2,0.2,0.5,0,0.7C82.1,24.6,82.1,24.6,82.1,24.5z M81.5,27.8c0-0.1-0.1-0.2,0-0.2C81.6,27.6,81.6,27.7,81.5,27.8z
							 M80.1,32.7c0-0.1,0-0.1,0.1-0.2C80.2,32.6,80.2,32.6,80.1,32.7z M71.1,43.8L71.1,43.8C71.3,43.7,71.2,43.7,71.1,43.8z
							 M70.9,44C70.8,44,70.9,44,70.9,44c0,0,0.1,0,0.1-0.1C71,43.9,70.9,43.9,70.9,44z M84.1,15.2L84.1,15.2
							C84.1,15.1,84.1,15.1,84.1,15.2z"/>
						<path class="st52" d="M80.2,32.1C80.2,32.1,80.3,32.1,80.2,32.1C80.3,32.1,80.3,32,80.2,32.1z"/>
						<path class="st52" d="M82.4,22.4L82.4,22.4C82.4,22.4,82.4,22.4,82.4,22.4L82.4,22.4z"/>
						<path class="st52" d="M73.6,40c0.1,0,0.1,0,0.1,0C73.7,39.9,73.7,39.9,73.6,40z"/>
						<path class="st52" d="M70,45L70,45L70,45C70,44.9,70,44.9,70,45L70,45C70,45,70,45,70,45z"/>
						<path class="st52" d="M69.2,46.4C69.2,46.4,69.2,46.4,69.2,46.4L69.2,46.4C69.2,46.3,69.2,46.2,69.2,46.4z"/>
						<path class="st52" d="M69.7,44.9c-0.1,0-0.1,0.1-0.1,0.2l0,0C69.7,45.2,69.7,45,69.7,44.9z"/>
						<path class="st52" d="M69.6,45.2c0,0,0,0.1,0,0.1C69.6,45.3,69.6,45.3,69.6,45.2z"/>
						<path class="st52" d="M70.6,44.3c-0.1,0,0.1,0.1,0,0.1C70.7,44.5,70.8,44,70.6,44.3z"/>
						<polygon class="st52" points="69.3,45 69.4,44.9 69.4,44.9 						"/>
						<path class="st52" d="M70,44.2l-0.2,0.1c0,0,0,0,0,0.1C69.9,44.3,70,44.2,70,44.2z"/>
						<path class="st52" d="M69.8,44.4c-0.1,0-0.1,0.1-0.1,0.1C69.7,44.5,69.7,44.4,69.8,44.4z"/>
						<polygon class="st52" points="69.3,44.7 69.3,44.6 69.4,44.6 69.5,44.5 69.3,44.6 						"/>
						<path class="st52" d="M71.7,42.6l0.1-0.2c0,0-0.1,0-0.1,0.1C71.7,42.6,71.6,42.6,71.7,42.6z"/>
						<path class="st52" d="M70.9,42.9c0.1,0,0.1,0,0.1,0L71,42.8L70.9,42.9z"/>
						<path class="st52" d="M71.4,42.4c0,0,0.2-0.3,0-0.1C71.4,42.3,71.2,42.5,71.4,42.4z"/>
						<polygon class="st52" points="74.2,40 74.1,40.1 74.3,40.2 						"/>
						<path class="st52" d="M75.9,37.4c-0.2,0.2,0.1,0.2-0.2,0.3c0,0.1,0.2-0.1,0.2,0C76,37.5,76.1,37.4,75.9,37.4z"/>
						<path class="st52" d="M76,37.6C75.9,37.7,75.9,37.7,76,37.6C76,37.7,76,37.7,76,37.6z"/>
						<polygon class="st52" points="83.6,4 83.6,3.8 83.6,3.9 						"/>
						<path class="st52" d="M83.4,3.7l0.2-0.1l-0.2-0.1C83.4,3.6,83.4,3.7,83.4,3.7z"/>
						<path class="st52" d="M81.1,28.2L81.1,28.2c0.1,0,0.1,0,0.1-0.1L81.1,28.2z"/>
						<polygon class="st52" points="81.7,25.8 81.7,25.9 81.9,25.8 						"/>
						<path class="st52" d="M81.9,23.8c0,0.1,0,0.2,0,0.3C81.9,23.9,82.1,23.8,81.9,23.8z"/>
					</g>
				</g>
			</g>
		</g>
	</g>
	<g>
		<g>
			<g>
				<g>
					<g>
						<path class="st52" d="M66.1,67.1c0,0,0.1,0,0.1,0C66.2,67,66.1,67.1,66.1,67.1z"/>
						<polygon class="st52" points="65.8,66.4 65.9,66.4 65.8,66.3 						"/>
						<path class="st52" d="M65.8,65.7c-0.2,0.1,0,0.2,0,0.4l0,0l0.1,0C65.8,66,65.7,65.8,65.8,65.7z"/>
						<path class="st52" d="M66.1,65.3C66,65.3,66,65.2,66.1,65.3L66.1,65.3C66.1,65.4,66.1,65.4,66.1,65.3z"/>
						<path class="st52" d="M66.1,65.4C66.1,65.5,66.2,65.3,66.1,65.4L66.1,65.4z"/>
						<path class="st52" d="M66,65.1L66,65.1c0.1,0.1,0.1,0,0.1,0C66.1,65,66.1,65,66,65.1z"/>
						<path class="st52" d="M65.9,65L65.9,65C66,65,66,65,65.9,65z"/>
						<path class="st52" d="M66,65.1L66,65.1C65.9,65,65.9,65.1,66,65.1C65.9,65.1,66,65.1,66,65.1z"/>
						<path class="st52" d="M66,65.2c0,0.1,0,0.1-0.1,0C65.9,65.4,66,65.4,66,65.2z"/>
						<path class="st52" d="M65.6,65.7L65.6,65.7l0,0.1C65.6,65.8,65.7,65.7,65.6,65.7z"/>
						<path class="st52" d="M66.1,64.5c0,0-0.1,0-0.1,0l0,0.1C66,64.6,66,64.5,66.1,64.5z"/>
						<path class="st52" d="M66,64.5L66,64.5C65.9,64.5,65.9,64.5,66,64.5z"/>
						<polygon class="st52" points="65.7,65 65.9,65.1 65.7,65 						"/>
						<polygon class="st52" points="66.1,64.1 66.1,64.1 66,64 						"/>
						<path class="st52" d="M66,63.8c0.1,0,0.1-0.1,0.1,0c0-0.1-0.1-0.1-0.1-0.2C66.1,63.7,66.1,63.7,66,63.8z"/>
						<path class="st52" d="M66,63.5C66,63.6,66,63.6,66,63.5C66,63.6,66,63.6,66,63.5z"/>
						<path class="st52" d="M65.9,64.3C65.9,64.2,66,64.2,65.9,64.3L65.9,64.3L65.9,64.3z"/>
						<path class="st52" d="M65.9,64.2L65.9,64.2C65.9,64.2,65.9,64.1,65.9,64.2C65.9,64.1,65.9,64.2,65.9,64.2z"/>
						<path class="st52" d="M65.9,64.3L65.9,64.3C65.9,64.3,65.9,64.3,65.9,64.3z"/>
						<path class="st52" d="M65.8,64.7c-0.1-0.1-0.1-0.2-0.2-0.1C65.7,64.7,65.7,64.6,65.8,64.7z"/>
						<path class="st52" d="M65.8,64.3l0,0.1c0,0,0.1,0,0.1,0L65.8,64.3z"/>
						<polygon class="st52" points="65.7,64.3 65.8,64.3 65.8,64.3 						"/>
						<path class="st52" d="M65.9,63.7c0,0-0.1-0.1-0.1-0.2C65.8,63.6,65.8,63.7,65.9,63.7C65.8,63.8,65.9,63.8,65.9,63.7z"/>
						<path class="st52" d="M65.9,64L65.9,64C65.9,64,65.9,64,65.9,64z"/>
						<polygon class="st52" points="65.8,63 65.8,63 65.8,63 						"/>
						<path class="st52" d="M65.8,63.8C65.8,63.8,65.8,63.9,65.8,63.8C65.8,63.8,65.8,63.8,65.8,63.8C65.8,63.8,65.8,63.8,65.8,63.8
							z"/>
						<path class="st52" d="M65.9,63.4C65.9,63.4,65.9,63.4,65.9,63.4C65.9,63.4,65.9,63.4,65.9,63.4z"/>
						<path class="st52" d="M65.9,63.9L65.9,63.9C65.9,63.9,65.9,63.9,65.9,63.9z"/>
						<path class="st52" d="M65.9,63.9C65.9,63.9,65.9,63.9,65.9,63.9C65.8,63.9,65.9,63.9,65.9,63.9C65.9,64,65.9,63.9,65.9,63.9z"
							/>
						<path class="st52" d="M65.2,62.9c0.1,0,0.2,0.1,0.1,0.2c0.1,0.1,0.4,0,0.5-0.1c0,0-0.1,0-0.1-0.1c0,0-0.1,0.2-0.2,0.2
							c-0.1-0.1,0-0.1,0.1-0.2c-0.1,0.1-0.2-0.2-0.3-0.1L65.2,62.9C65.2,62.9,65.2,62.8,65.2,62.9z"/>
						<path class="st52" d="M65.8,63.2L65.8,63.2c0,0,0.1,0,0.1-0.1c0-0.1-0.1-0.1-0.1-0.1L65.8,63.2L65.8,63.2z"/>
						<path class="st52" d="M65.8,63.5c-0.1,0-0.1-0.1-0.2-0.1c0,0.1,0.1,0.1,0.1,0.2C65.7,63.4,65.7,63.6,65.8,63.5
							c0,0,0,0.1,0,0.1C65.8,63.5,65.8,63.5,65.8,63.5L65.8,63.5L65.8,63.5L65.8,63.5C65.8,63.5,65.8,63.5,65.8,63.5L65.8,63.5
							C65.8,63.5,65.8,63.5,65.8,63.5C65.8,63.4,65.8,63.5,65.8,63.5C65.8,63.5,65.9,63.5,65.8,63.5L65.8,63.5l0-0.2
							C65.8,63.3,65.8,63.4,65.8,63.5z"/>
						<path class="st52" d="M65.4,64.6C65.4,64.6,65.4,64.6,65.4,64.6C65.4,64.5,65.4,64.5,65.4,64.6z"/>
						<path class="st52" d="M65.4,64.5C65.5,64.5,65.5,64.5,65.4,64.5C65.5,64.6,65.4,64.5,65.4,64.5C65.4,64.6,65.5,64.7,65.4,64.5
							L65.4,64.5c0.1,0,0.2-0.1,0.2-0.1C65.6,64.4,65.5,64.4,65.4,64.5z"/>
						<path class="st52" d="M65.6,64l-0.1-0.2l-0.1,0.1L65.6,64C65.5,64,65.6,64,65.6,64z"/>
						<polygon class="st52" points="65.8,63 65.9,63 65.8,62.9 						"/>
						<polygon class="st52" points="65.8,62.8 65.9,62.8 65.8,62.7 						"/>
						<path class="st52" d="M65.2,49.9L65.2,49.9C65.2,49.9,65.2,49.9,65.2,49.9z"/>
						<path class="st52" d="M65.1,50.2L65.1,50.2C65.1,50.2,65.1,50.2,65.1,50.2z"/>
						<path class="st52" d="M65.5,57.2c0.1-0.1,0.2-0.2,0.1-0.2l-0.1,0C65.5,57.1,65.5,57.1,65.5,57.2z"/>
						<path class="st52" d="M64.9,53.3L64.9,53.3C64.9,53.4,64.9,53.4,64.9,53.3C64.9,53.4,64.9,53.4,64.9,53.3z"/>
						<path class="st52" d="M64.5,53.2L64.5,53.2C64.6,53.1,64.6,53.2,64.5,53.2z"/>
						<path class="st52" d="M65.4,47.9L65.4,47.9C65.3,47.9,65.4,47.9,65.4,47.9z"/>
						<path class="st52" d="M65.6,60.4c0-0.1,0-0.1,0-0.2C65.6,60.3,65.5,60.4,65.6,60.4z"/>
						<path class="st52" d="M66.2,50.2C66.2,50.2,66.2,50.2,66.2,50.2C66.1,50.2,66.2,50.2,66.2,50.2z"/>
						<path class="st52" d="M65.7,60.1C65.6,60.1,65.6,60.1,65.7,60.1c0,0.1,0,0.1,0,0.2C65.7,60.2,65.7,60.1,65.7,60.1z"/>
						<path class="st52" d="M65.4,40.6C65.4,40.6,65.4,40.6,65.4,40.6C65.4,40.6,65.4,40.6,65.4,40.6z"/>
						<path class="st52" d="M66.1,38.4C66.1,38.4,66.1,38.4,66.1,38.4C66.1,38.4,66.1,38.4,66.1,38.4z"/>
						<path class="st52" d="M65.8,61.8C65.8,61.9,65.8,61.8,65.8,61.8L65.8,61.8z"/>
						<path class="st52" d="M65.4,62.1C65.4,62.1,65.4,62.1,65.4,62.1C65.4,62.1,65.4,62.1,65.4,62.1z"/>
						<path class="st52" d="M65,59.6L65,59.6C65,59.6,65,59.6,65,59.6z"/>
						<path class="st52" d="M65.7,61.9C65.8,61.9,65.8,61.9,65.7,61.9C65.8,61.9,65.8,61.9,65.7,61.9z"/>
						<path class="st52" d="M65.8,61.9C65.8,61.9,65.8,61.9,65.8,61.9C65.8,61.9,65.8,61.9,65.8,61.9z"/>
						<path class="st52" d="M65.8,61.8C65.8,61.8,65.8,61.8,65.8,61.8C65.8,61.8,65.8,61.8,65.8,61.8C65.8,61.8,65.8,61.8,65.8,61.8
							z"/>
						<path class="st52" d="M65.9,44.5C65.9,44.5,65.9,44.5,65.9,44.5C65.9,44.5,65.9,44.5,65.9,44.5z"/>
						<polygon class="st52" points="64.4,55.9 64.4,55.9 64.4,55.9 						"/>
						<path class="st52" d="M64.3,55.8c0.1,0.1,0.1,0.1,0.1,0.2l0.3-0.1L64.3,55.8z"/>
						<path class="st52" d="M65.3,49l-0.1,0.1C65.1,49,65.2,48.9,65,49c0.3,0.1,0,0.5,0.3,0.5l-0.1,0.1c0,0,0,0,0,0
							c-0.2,0.1,0.2,0.2,0.1,0.3c0,0.1-0.1,0.1-0.1,0l0,0.2c0,0-0.1,0,0,0l0,0.2l0,0c0,0,0.1,0.1,0.1,0.2c-0.1,0,0,0-0.1,0l0,0.1
							c-0.1,0-0.1-0.1-0.1-0.2c-0.3,0.1,0.1,0.1-0.2,0.3l0-0.1c-0.2,0-0.1,0.1-0.3,0.3c0.1,0,0.3-0.2,0.4-0.1c0,0-0.1,0.1,0,0.2
							c-0.1,0-0.1,0.1-0.1,0.1l-0.1,0c0,0.1,0.1,0.1,0.1,0.2c0,0.1-0.2,0.1-0.3,0.1c-0.1,0.2,0.2-0.1,0.2,0.1
							c-0.1,0.1-0.1,0.3,0,0.4c-0.1,0.1-0.1,0-0.1,0l0.1,0.1c0,0,0,0-0.1,0c0,0.1,0.1,0,0.1,0.2c0.1,0.1-0.3,0.2-0.2,0.4
							c0,0-0.1,0-0.1,0c0.1,0.2,0,0.2,0.2,0.4l-0.1,0.1c0.1-0.1,0.2,0.1,0.3,0.2c0.1,0,0.1-0.1,0.1-0.1c0,0.1,0,0.1,0,0.2
							c0,0-0.1,0-0.1-0.1l0,0c-0.1,0.1-0.1,0-0.2-0.1l0.1-0.1c-0.1-0.1-0.2-0.1-0.2-0.1c0,0,0,0,0,0.1c0,0,0,0-0.1,0c0,0,0,0,0,0.1
							l-0.2,0l0.1,0l-0.1,0.3c0.2,0.2,0.4,0.4,0.4,0.7c-0.1-0.1-0.2,0-0.3,0c0.1-0.1-0.1-0.2,0-0.4c0,0.1-0.1,0.1-0.1,0
							c0,0.1,0.1,0.2,0.1,0.3c-0.1,0-0.1,0.1-0.1,0.1c0.2,0,0.1,0.2,0.2,0.3c-0.1,0-0.2,0-0.1-0.2c-0.2,0.1,0.3,0.2,0.1,0.3
							c0,0,0-0.1,0-0.1c0.1,0.1,0,0.3,0,0.2l0,0c0,0.2,0,0.7,0.2,0.7c0,0-0.2,0-0.3,0l0.7,0.4c-0.2,0-0.6,0.1-0.6-0.1
							c0,0.1,0,0.1,0,0.2c0,0,0.2-0.1,0.3,0c-0.2,0.1-0.1,0.1-0.2,0.3c0-0.1,0.3,0,0.3,0.1c0,0-0.3,0-0.3,0l0.3,0.2c0,0-0.2,0-0.3,0
							c0,0,0,0.2,0,0.2l0.1-0.1c0,0.2,0.4,0.2,0.4,0.4c-0.1,0-0.3-0.1-0.3,0.1c0.1,0,0.6,0.2,0.7,0.4l-0.1,0l0.1,0.2
							c-0.2-0.1-0.6-0.3-0.8-0.5c-0.1,0.1-0.1,0-0.1,0.2c-0.1,0-0.1-0.1-0.1-0.1l0,0.3c0.2,0,0.2,0.2,0.3,0.2l-0.2-0.3
							c0.1,0,0.4,0.2,0.4,0.4c-0.1,0.1-0.3,0-0.3,0c0.1,0,0.1,0.2,0.1,0.2l-0.1-0.1c-0.1,0.1,0.2,0.2,0.1,0.3c0,0.1-0.2,0.2-0.1,0.2
							c0.2-0.1,0.7-0.1,0.8-0.1c0,0-0.2,0.3-0.2,0.3c-0.1,0.1-0.3-0.1-0.4,0c0,0,0.1,0,0.1,0.1c0,0.1-0.1,0-0.1,0.1
							c0.2,0,0,0.2,0.1,0c0,0.1,0,0.1,0,0.2c0.1,0,0.3,0.1,0.4,0.2c0,0-0.1,0-0.1,0c0,0.2-0.1,0.4-0.1,0.6c0,0-0.1,0.1-0.1,0.1
							c0,0,0.1,0.1,0.1,0.1c-0.1,0.1,0-0.1-0.2,0c0.1,0,0.1,0.2,0.2,0.3c0.1,0,0-0.2,0-0.3c0.2,0,0.4,0.1,0.5,0.4
							c0.1,0.2-0.1,0.1-0.1,0.1c0,0.3,0.3,0.3,0.2,0.5c-0.1,0.1-0.2,0-0.3,0c-0.1-0.1,0.1-0.2,0.1-0.3l0,0.1c0,0-0.1-0.1,0-0.2
							c-0.1,0.1,0,0.6-0.1,0.8c0,0,0.1,0.1,0.1,0.1l0-0.1c0.1-0.1,0.1,0.1,0.2,0c0.1,0.1,0.2,0.2,0.1,0.4l-0.1,0c0,0,0.1-0.1,0-0.1
							c0.1,0.1-0.2,0.2,0,0.3l0.1-0.1c0.1,0.1,0.2,0.2,0.2,0.4c0.1-0.1,0,0,0.1-0.1c-0.2,0.1,0-0.3-0.2-0.2c0.2-0.1,0.1-0.2,0.2-0.3
							c0,0-0.1,0.1-0.1-0.1c0,0,0,0,0,0l0,0l0,0c0,0,0,0,0,0c0,0,0,0.1-0.1,0.1c-0.1,0-0.1-0.2-0.2-0.3c0-0.1,0.1,0,0.1,0l-0.1-0.1
							c0.1,0,0.2-0.2,0.2,0l0-0.1c0.1-0.1,0.1-0.2,0-0.3c0-0.1-0.1-0.2,0-0.1l-0.1-0.2l0,0c0-0.2-0.2-0.4,0-0.7c0-0.1-0.1-0.1,0-0.3
							l0.1,0c0-0.1,0.1-0.3,0-0.3c0.2-0.1,0-0.5,0.1-0.6l-0.1,0c0-0.1,0-0.2-0.1-0.4l-0.1,0c-0.1-0.1,0.1-0.3,0-0.5c0,0,0,0.1,0,0.1
							c0.2-0.2-0.2-0.5,0-0.7c0-0.1,0-0.1,0-0.1l0,0l0,0c0,0,0-0.1,0.1-0.1c0,0,0,0-0.1,0.1c0,0,0-0.1,0-0.2l0.1,0c0,0,0,0,0,0
							c0-0.1-0.1,0-0.1,0c0,0,0-0.1-0.1-0.1c0.2-0.1-0.1-0.2,0.1-0.2c-0.1,0-0.1-0.3-0.3-0.3c0,0,0,0,0,0c0-0.1,0-0.1,0-0.2l0.1,0
							L65.1,56c0.1-0.1,0.1-0.1,0.2,0c-0.2-0.2-0.1-0.2-0.2-0.3l0.1,0c0-0.1-0.1-0.2-0.1-0.2c0.2-0.1,0-0.7,0.2-1.1
							c-0.3,0.1,0.1-0.2-0.1-0.2c0.1,0,0.1-0.1,0.2,0c0-0.2,0.1-0.2,0-0.4c0.1,0,0.1,0,0.1,0c0,0-0.1-0.1,0-0.1c0,0,0,0,0.1,0.1
							c0-0.2-0.2-0.2-0.3-0.3c0.1-0.1,0.1-0.1,0-0.2c0.1,0,0.1-0.1,0.1,0.1c0-0.1,0.2-0.4,0-0.4c0,0,0-0.1,0-0.1
							c0-0.1,0.1-0.2,0.1-0.3l0,0c-0.2-0.1,0-0.1,0-0.3l0,0c0.2-0.2,0-0.1,0.2-0.4l-0.1,0c-0.2-0.1,0.2-0.2,0.1-0.4l-0.1,0
							c-0.1-0.1,0.4-0.2,0.4-0.2c0,0,0,0,0,0.1c0.2-0.2-0.1-0.1-0.1-0.2c0.1,0,0.2,0.1,0.2,0c0.1,0-0.2-0.4,0-0.5
							c-0.1,0-0.1,0-0.2,0c0-0.1,0.3-0.3,0.1-0.4c0,0,0,0,0,0c0-0.1,0-0.3-0.1-0.4c0.4,0-0.1-0.6,0.3-0.5l0-0.3l0,0
							c0.1-0.2,0-0.3-0.1-0.3c0,0,0.1,0,0.1,0c0.1-0.3,0.1-0.3-0.1-0.5l0.1,0c-0.1-0.1,0.2-0.4,0.1-0.6c0,0,0,0,0,0
							c-0.1-0.3,0.4-0.7,0-0.8l-0.1-0.2c0,0.3-0.2,0-0.2,0.1c0-0.1,0.1-0.2,0.1-0.1l0,0c0.2,0.1,0.1-0.3,0.2-0.3
							c0-0.5,0.1-1,0.1-1.5l-0.2,0.1l0-0.2c0,0,0.1-0.1,0.1,0.1c0.1-0.1-0.1-0.2-0.1-0.2c0.1-0.2,0.2,0.1,0.2,0l0-0.1l0,0
							c-0.1-0.1-0.1-0.1-0.1-0.2c0-0.1,0.1,0,0.1-0.1c0,0,0,0,0-0.1l0-0.2l-0.1,0.1c-0.1-0.1,0-0.2-0.1-0.1c0.2-0.1,0-0.8,0.1-0.9
							c-0.1-0.1-0.1-0.2-0.1-0.4c0,0-0.2,0.1-0.2-0.1c0.3,0,0.1-0.3,0.3-0.4c-0.1,0.1-0.1-0.4-0.3-0.2c0-0.1,0.1,0,0.2-0.1
							c-0.1-0.3,0-0.6-0.1-0.9c0,0-0.1,0.1-0.2,0l0.2-0.2c0-0.1-0.2,0-0.1-0.2c0,0-0.1,0.1-0.1,0c0.1-0.7-0.3-1.3-0.1-2
							c-0.1,0.1-0.1,0-0.1,0c0,0-0.1,0-0.1,0l0.1-0.3c-0.2,0-0.1-0.3-0.2-0.3l0,0.1c-0.2-0.1-0.3,0.2-0.6,0.2
							c0.2,0.1-0.2,0.4,0.1,0.5c0,0.1-0.1,0-0.1,0c0.1,0,0.1,0.1,0.1,0.2l0,0c0.1,0.3,0,0.5,0,0.9l0.1,0c0,0.1,0,0.1-0.1,0.1
							c0.2,0.1,0-0.2,0.2-0.2c-0.2,0.1,0.1,0.6-0.2,0.7c0,0.1,0.1-0.1,0.1,0.1l-0.1,0l0.1,0c0,0.1-0.1,0.1-0.1,0.1c0,0,0-0.1,0-0.1
							c-0.1,0.1,0.1,0.3,0,0.3l0-0.1c0.1,0.3,0.1,0.7,0.2,1.1l0,0c0.1,0.2,0,0.2,0,0.5l0,0c0.1,0.1,0.1,0.1,0.1,0.2
							c-0.1-0.1-0.1,0.1-0.2,0.1c0.1,0.3,0.1,0.1,0.3,0.3l-0.1,0C66,43,66,43,66,43.1c-0.1-0.1-0.1,0.1-0.2,0
							c-0.2,0.3,0.2,0.4-0.1,0.6c0.2,0.1,0.1-0.3,0.2-0.2c0.1-0.1,0.2,0.1,0.2,0.2c0,0.1-0.3,0.2-0.3,0.4c0,0,0,0,0,0
							c-0.1,0.1,0.1,0.2,0,0.3c0.1,0.1,0,0.1,0.2,0.2l0-0.2c0,0.1,0.3,0.2,0.2,0.4c0,0-0.1-0.1-0.1-0.1c-0.1,0.1,0,0.1,0,0.2
							c-0.2,0,0-0.3-0.2-0.4c-0.1,0.1,0.1,0.2-0.1,0.2c0.2,0.1,0,0.2,0.2,0.4l-0.1,0c0,0,0.1,0.1,0.1,0.1l-0.1-0.1
							c0.1,0.1-0.1,0.2,0,0.4c0-0.3,0.1-0.1,0.2-0.2c0.1,0.3-0.3,0.2-0.2,0.5c0,0,0.1-0.2,0.1-0.1c0,0.1-0.1,0.2-0.1,0.2
							c0,0.2,0.1,0,0.2,0.1c-0.1,0.1,0,0.1,0.1,0.2l-0.1,0c-0.1,0.3,0.2,0.1,0.1,0.3l-0.1-0.1l0,0.1l-0.1,0c0.1,0.1,0.1,0.2,0,0.3
							c0.1,0,0.2,0,0.2,0.1c-0.1,0.1-0.1-0.1-0.1,0.1c-0.1,0-0.1-0.1,0-0.2c0,0-0.1,0-0.1-0.1c-0.1,0.1,0,0.2,0,0.3c0,0,0,0,0-0.1
							l0.1,0.2c0,0-0.1,0-0.1,0c0,0,0.1,0.1,0.1,0.2c-0.1,0-0.2,0-0.2-0.1l0.1,0.2c0,0-0.1,0.1-0.1,0.1c-0.1,0.1,0.1,0.3,0,0.5
							c0,0,0,0,0,0.1c0,0.2-0.2,0.3-0.1,0.5l-0.2,0.1c0,0.1,0.2-0.1,0.2,0.1c0,0.2-0.1,0-0.2,0.1c0.1,0.1,0.2,0.3,0,0.4
							C65.3,49.1,65.3,49.1,65.3,49z M65.1,50.8c0,0-0.1-0.1,0-0.1C65.2,50.7,65.1,50.7,65.1,50.8z M64.7,53.6c0,0,0-0.1,0-0.1
							C64.7,53.5,64.7,53.5,64.7,53.6z M65.7,61.3L65.7,61.3C65.7,61.2,65.7,61.3,65.7,61.3z M65.6,61.5
							C65.6,61.5,65.7,61.5,65.6,61.5C65.6,61.5,65.6,61.4,65.6,61.5C65.6,61.4,65.6,61.4,65.6,61.5z M66.7,44L66.7,44
							C66.6,44,66.6,44,66.7,44z"/>
						<path class="st52" d="M64.6,53.2C64.6,53.2,64.6,53.2,64.6,53.2C64.6,53.2,64.6,53.2,64.6,53.2z"/>
						<polygon class="st52" points="65.4,47.9 65.4,47.9 65.4,47.9 						"/>
						<path class="st52" d="M64.6,59C64.6,59,64.6,58.9,64.6,59C64.6,58.9,64.6,58.9,64.6,59z"/>
						<path class="st52" d="M65.9,62.3l0-0.1C65.8,62.3,65.8,62.3,65.9,62.3C65.8,62.3,65.9,62.3,65.9,62.3z"/>
						<path class="st52" d="M65.3,63.3C65.3,63.3,65.3,63.3,65.3,63.3L65.3,63.3C65.3,63.3,65.3,63.2,65.3,63.3z"/>
						<path class="st52" d="M65.5,62.5c-0.1,0-0.1,0.1,0,0.2l0,0C65.6,62.6,65.6,62.5,65.5,62.5z"/>
						<path class="st52" d="M65.5,62.6C65.5,62.6,65.5,62.7,65.5,62.6C65.5,62.7,65.5,62.7,65.5,62.6z"/>
						<path class="st52" d="M65.7,61.7C65.7,61.7,65.8,61.7,65.7,61.7C65.9,61.7,65.6,61.5,65.7,61.7z"/>
						<polygon class="st52" points="65.2,62.5 65.3,62.5 65.2,62.5 						"/>
						<path class="st52" d="M65.3,61.9l0,0.1c0,0,0,0,0,0C65.3,62,65.3,61.9,65.3,61.9z"/>
						<path class="st52" d="M65.3,62.1C65.3,62.1,65.3,62.2,65.3,62.1C65.3,62.2,65.3,62.1,65.3,62.1z"/>
						<polygon class="st52" points="65.2,62.4 65.2,62.3 65.2,62.3 						"/>
						<path class="st52" d="M65.2,60.7l0-0.1C65.1,60.5,65.1,60.6,65.2,60.7C65.2,60.7,65.2,60.7,65.2,60.7z"/>
						<path class="st52" d="M64.9,61.1C64.9,61.1,65,61.1,64.9,61.1L64.9,61.1L64.9,61.1z"/>
						<path class="st52" d="M64.9,60.7c0,0-0.1-0.2-0.1,0C64.8,60.7,64.8,60.8,64.9,60.7z"/>
						<polygon class="st52" points="64.9,58.8 64.9,58.8 65.2,58.8 						"/>
						<path class="st52" d="M64.3,57.1c0,0.2,0.1,0,0.1,0.2c0.1,0,0.1-0.1,0.1-0.1C64.4,57.1,64.4,57,64.3,57.1z"/>
						<path class="st52" d="M64.5,57.2C64.5,57.2,64.5,57.2,64.5,57.2C64.5,57.2,64.5,57.2,64.5,57.2z"/>
						<polygon class="st52" points="66.1,38 66.2,37.9 66.1,37.9 						"/>
						<path class="st52" d="M65.9,37.8l0.1,0L65.9,37.8C65.9,37.8,66,37.8,65.9,37.8z"/>
						<path class="st52" d="M64.7,51L64.7,51C64.8,51,64.8,51,64.7,51L64.7,51z"/>
						<polygon class="st52" points="65.1,49.7 65.1,49.8 65.2,49.7 						"/>
						<path class="st52" d="M65.1,48.6c0,0,0,0.1,0,0.1C65.1,48.7,65.3,48.7,65.1,48.6z"/>
					</g>
				</g>
			</g>
		</g>
	</g>
	<g>
		<g>
			<g>
				<g>
					<g>
						<path class="st52" d="M57.9,74.1c0,0,0.1,0,0.1,0C58,74.1,57.9,74.1,57.9,74.1z"/>
						<polygon class="st52" points="57.7,73.4 57.7,73.4 57.6,73.3 						"/>
						<path class="st52" d="M57.6,72.8c-0.2,0.1,0,0.2,0,0.4l0,0l0.1,0C57.7,73.1,57.6,72.9,57.6,72.8z"/>
						<path class="st52" d="M57.9,72.4C57.9,72.4,57.9,72.3,57.9,72.4L57.9,72.4C57.9,72.4,57.9,72.4,57.9,72.4z"/>
						<path class="st52" d="M57.9,72.5C57.9,72.5,58,72.4,57.9,72.5L57.9,72.5z"/>
						<path class="st52" d="M57.9,72.1L57.9,72.1c0.1,0.1,0.1,0,0.1,0C58,72,57.9,72.1,57.9,72.1z"/>
						<path class="st52" d="M57.7,72L57.7,72C57.8,72.1,57.8,72.1,57.7,72z"/>
						<path class="st52" d="M57.8,72.2L57.8,72.2C57.7,72.1,57.7,72.1,57.8,72.2C57.7,72.1,57.8,72.2,57.8,72.2z"/>
						<path class="st52" d="M57.8,72.3c0,0.1,0,0.1-0.1,0C57.7,72.5,57.8,72.4,57.8,72.3z"/>
						<path class="st52" d="M57.4,72.7L57.4,72.7l0,0.1C57.4,72.8,57.5,72.7,57.4,72.7z"/>
						<path class="st52" d="M57.9,71.5c0,0-0.1,0-0.1,0l0,0.1C57.8,71.6,57.9,71.6,57.9,71.5z"/>
						<path class="st52" d="M57.8,71.6L57.8,71.6C57.7,71.6,57.7,71.6,57.8,71.6z"/>
						<polygon class="st52" points="57.6,72 57.7,72.2 57.6,72 						"/>
						<polygon class="st52" points="57.9,71.1 58,71.2 57.8,71.1 						"/>
						<path class="st52" d="M57.9,70.9c0.1,0,0.1-0.1,0.1,0c0-0.1-0.1-0.1-0.1-0.2C57.9,70.7,57.9,70.8,57.9,70.9z"/>
						<path class="st52" d="M57.8,70.6C57.8,70.6,57.8,70.7,57.8,70.6C57.9,70.7,57.8,70.6,57.8,70.6z"/>
						<path class="st52" d="M57.7,71.3C57.7,71.3,57.8,71.3,57.7,71.3L57.7,71.3L57.7,71.3z"/>
						<path class="st52" d="M57.7,71.3L57.7,71.3C57.7,71.2,57.7,71.2,57.7,71.3C57.7,71.2,57.7,71.2,57.7,71.3z"/>
						<path class="st52" d="M57.7,71.3L57.7,71.3C57.7,71.3,57.7,71.3,57.7,71.3z"/>
						<path class="st52" d="M57.6,71.8c-0.1-0.1-0.1-0.2-0.2-0.1C57.5,71.8,57.5,71.7,57.6,71.8z"/>
						<path class="st52" d="M57.6,71.4l0,0.1c0,0,0.1,0,0.1,0L57.6,71.4z"/>
						<polygon class="st52" points="57.6,71.3 57.6,71.4 57.6,71.3 						"/>
						<path class="st52" d="M57.7,70.8c0,0-0.1-0.1-0.1-0.2C57.6,70.7,57.6,70.8,57.7,70.8C57.7,70.8,57.7,70.9,57.7,70.8z"/>
						<path class="st52" d="M57.7,71L57.7,71C57.7,71,57.7,71,57.7,71z"/>
						<polygon class="st52" points="57.6,70.1 57.6,70.1 57.6,70.1 						"/>
						<path class="st52" d="M57.6,70.8C57.6,70.9,57.6,70.9,57.6,70.8C57.6,70.9,57.6,70.9,57.6,70.8C57.6,70.8,57.6,70.8,57.6,70.8
							z"/>
						<path class="st52" d="M57.7,70.4C57.7,70.5,57.7,70.5,57.7,70.4C57.7,70.5,57.8,70.5,57.7,70.4z"/>
						<path class="st52" d="M57.7,71L57.7,71C57.7,71,57.7,71,57.7,71z"/>
						<path class="st52" d="M57.7,71C57.7,71,57.7,71,57.7,71C57.7,71,57.7,71,57.7,71C57.7,71,57.7,71,57.7,71z"/>
						<path class="st52" d="M57,69.9c0.1,0,0.2,0.1,0.1,0.2c0.1,0.1,0.4,0,0.5-0.1c0,0-0.1,0-0.1-0.1c0,0-0.1,0.2-0.2,0.2
							c-0.1-0.1,0-0.1,0.1-0.2c-0.1,0.1-0.2-0.2-0.3-0.1L57,69.9C57.1,69.9,57,69.9,57,69.9z"/>
						<path class="st52" d="M57.6,70.3L57.6,70.3c0,0,0.1,0,0.1-0.1c0-0.1-0.1-0.1-0.1-0.1L57.6,70.3L57.6,70.3z"/>
						<path class="st52" d="M57.6,70.5c-0.1,0-0.1-0.1-0.2-0.1c0,0.1,0.1,0.1,0.1,0.2C57.5,70.4,57.6,70.7,57.6,70.5
							c0,0,0,0.1,0,0.1C57.7,70.6,57.7,70.6,57.6,70.5L57.6,70.5L57.6,70.5L57.6,70.5C57.7,70.5,57.7,70.6,57.6,70.5L57.6,70.5
							C57.7,70.5,57.6,70.5,57.6,70.5C57.6,70.5,57.7,70.5,57.6,70.5C57.7,70.5,57.7,70.5,57.6,70.5L57.6,70.5l0-0.2
							C57.6,70.4,57.6,70.4,57.6,70.5z"/>
						<path class="st52" d="M57.2,71.6C57.2,71.6,57.2,71.6,57.2,71.6C57.2,71.6,57.2,71.6,57.2,71.6z"/>
						<path class="st52" d="M57.3,71.5C57.3,71.5,57.3,71.6,57.3,71.5C57.3,71.6,57.3,71.6,57.3,71.5C57.3,71.6,57.3,71.7,57.3,71.5
							L57.3,71.5c0.1,0,0.2-0.1,0.2-0.1C57.4,71.4,57.4,71.5,57.3,71.5z"/>
						<path class="st52" d="M57.4,71l-0.1-0.2l-0.1,0.1L57.4,71C57.3,71,57.4,71,57.4,71z"/>
						<polygon class="st52" points="57.7,70 57.8,70.1 57.6,70 						"/>
						<polygon class="st52" points="57.6,69.8 57.7,69.8 57.7,69.8 						"/>
						<path class="st52" d="M57,56.9L57,56.9C57,56.9,57,56.9,57,56.9z"/>
						<path class="st52" d="M56.9,57.3L56.9,57.3C57,57.3,57,57.3,56.9,57.3z"/>
						<path class="st52" d="M57.3,64.2c0.1-0.1,0.2-0.2,0.1-0.2l-0.1,0C57.3,64.1,57.3,64.2,57.3,64.2z"/>
						<path class="st52" d="M56.7,60.4L56.7,60.4C56.7,60.4,56.8,60.5,56.7,60.4C56.8,60.5,56.8,60.4,56.7,60.4z"/>
						<path class="st52" d="M56.3,60.3L56.3,60.3C56.4,60.2,56.4,60.2,56.3,60.3z"/>
						<path class="st52" d="M57.2,55L57.2,55C57.1,55,57.2,54.9,57.2,55z"/>
						<path class="st52" d="M57.4,67.5c0-0.1,0-0.1,0-0.2C57.4,67.4,57.4,67.5,57.4,67.5z"/>
						<path class="st52" d="M58,57.3C58,57.3,58,57.2,58,57.3C58,57.3,58,57.3,58,57.3z"/>
						<path class="st52" d="M57.5,67.1C57.5,67.1,57.5,67.2,57.5,67.1c0,0.1,0,0.1,0,0.2C57.5,67.3,57.6,67.2,57.5,67.1z"/>
						<path class="st52" d="M57.2,47.7C57.2,47.7,57.2,47.7,57.2,47.7C57.2,47.7,57.2,47.7,57.2,47.7z"/>
						<path class="st52" d="M57.9,45.4C57.9,45.4,57.9,45.5,57.9,45.4C57.9,45.5,57.9,45.5,57.9,45.4z"/>
						<path class="st52" d="M57.6,68.9C57.6,68.9,57.6,68.9,57.6,68.9L57.6,68.9z"/>
						<path class="st52" d="M57.2,69.2C57.2,69.1,57.2,69.1,57.2,69.2C57.2,69.1,57.2,69.2,57.2,69.2z"/>
						<path class="st52" d="M56.9,66.7L56.9,66.7C56.8,66.7,56.8,66.7,56.9,66.7z"/>
						<path class="st52" d="M57.6,69C57.6,69,57.6,68.9,57.6,69C57.6,68.9,57.6,68.9,57.6,69z"/>
						<path class="st52" d="M57.6,69C57.6,69,57.6,69,57.6,69C57.6,69,57.6,69,57.6,69z"/>
						<path class="st52" d="M57.6,68.8C57.6,68.9,57.6,68.9,57.6,68.8C57.6,68.9,57.6,68.9,57.6,68.8C57.6,68.9,57.6,68.9,57.6,68.8
							z"/>
						<path class="st52" d="M57.8,51.6C57.8,51.6,57.8,51.6,57.8,51.6C57.7,51.5,57.7,51.6,57.8,51.6z"/>
						<polygon class="st52" points="56.2,63 56.2,63 56.2,63 						"/>
						<path class="st52" d="M56.2,62.8c0.1,0.1,0.1,0.1,0.1,0.2l0.3-0.1L56.2,62.8z"/>
						<path class="st52" d="M57.2,56.1L57,56.2C56.9,56,57,55.9,56.9,56c0.3,0.1,0,0.5,0.3,0.5L57,56.6c0,0,0,0,0,0
							c-0.2,0.1,0.2,0.2,0.1,0.3c0,0.1-0.1,0.1-0.1,0l0,0.2c0,0-0.1,0,0,0l0,0.2l0,0c0,0,0.1,0.1,0.1,0.2c-0.1,0,0,0-0.1,0l0,0.1
							c-0.1,0-0.1-0.1-0.1-0.2c-0.3,0.1,0.1,0.1-0.2,0.3l0-0.1c-0.2,0-0.1,0.1-0.3,0.3c0.1,0,0.3-0.2,0.4-0.1c0,0-0.1,0.1,0,0.2
							c-0.1,0-0.1,0.1-0.1,0.1l-0.1,0c0,0.1,0.1,0.1,0.1,0.2c0,0.1-0.2,0.1-0.3,0.1c-0.1,0.2,0.2-0.1,0.2,0.1
							c-0.1,0.1-0.1,0.3,0,0.4c-0.1,0.1-0.1,0-0.1,0l0.1,0.1c0,0,0,0-0.1,0c0,0.1,0.1,0,0.1,0.2c0.1,0.1-0.3,0.2-0.2,0.4
							c0,0-0.1,0-0.1,0c0.1,0.2,0,0.2,0.2,0.4l-0.1,0.1c0.1-0.1,0.2,0.1,0.3,0.2c0.1,0,0.1-0.1,0.1-0.1c0,0.1,0,0.1,0,0.2
							c0,0-0.1,0-0.1-0.1l0,0c-0.1,0.1-0.1,0-0.2-0.1l0.1-0.1c-0.1-0.1-0.2-0.1-0.2-0.1c0,0,0,0,0,0.1c0,0,0,0-0.1,0c0,0,0,0,0,0.1
							l-0.2,0l0.1,0l-0.1,0.3c0.2,0.2,0.4,0.4,0.4,0.7c-0.1-0.1-0.2,0-0.3,0c0.1-0.1-0.1-0.2,0-0.4c0,0.1-0.1,0.1-0.1,0
							c0,0.1,0.1,0.2,0.1,0.3c-0.1,0-0.1,0.1-0.1,0.1c0.2,0,0.1,0.2,0.2,0.3c-0.1,0-0.2,0-0.1-0.2c-0.2,0.1,0.3,0.2,0.1,0.3
							c0,0,0-0.1,0-0.1c0.1,0.1,0,0.3,0,0.2l0,0c0,0.2,0,0.7,0.2,0.7c0,0-0.2,0-0.3,0l0.7,0.4c-0.2,0-0.6,0.1-0.6-0.1
							c0,0.1,0,0.1,0,0.2c0,0,0.2-0.1,0.3,0c-0.2,0.1-0.1,0.1-0.2,0.3c0-0.1,0.3,0,0.3,0.1c0,0-0.3,0-0.3,0l0.3,0.2c0,0-0.2,0-0.3,0
							c0,0,0,0.2,0,0.2l0.1-0.1c0,0.2,0.4,0.2,0.4,0.4c-0.1,0-0.3-0.1-0.3,0.1c0.1,0,0.6,0.2,0.7,0.4l-0.1,0l0.1,0.2
							c-0.2-0.1-0.6-0.3-0.8-0.5c-0.1,0.1-0.1,0-0.1,0.2c-0.1,0-0.1-0.1-0.1-0.1l0,0.3c0.2,0,0.2,0.2,0.3,0.2l-0.2-0.3
							c0.1,0,0.4,0.2,0.4,0.4c-0.1,0.1-0.3,0-0.3,0c0.1,0,0.1,0.2,0.1,0.2l-0.1-0.1c-0.1,0.1,0.2,0.2,0.1,0.3c0,0.1-0.2,0.2-0.1,0.2
							c0.2-0.1,0.7-0.1,0.8-0.1c0,0-0.2,0.3-0.2,0.3c-0.1,0.1-0.3-0.1-0.4,0c0,0,0.1,0,0.1,0.1c0,0.1-0.1,0-0.1,0.1
							c0.2,0,0,0.2,0.1,0c0,0.1,0,0.1,0,0.2c0.1,0,0.3,0.1,0.4,0.2c0,0-0.1,0-0.1,0c0,0.2-0.1,0.4-0.1,0.6c0,0-0.1,0.1-0.1,0.1
							c0,0,0.1,0.1,0.1,0.1c-0.1,0.1,0-0.1-0.2,0c0.1,0,0.1,0.2,0.2,0.3c0.1,0,0-0.2,0-0.3c0.2,0,0.4,0.1,0.5,0.4
							c0.1,0.2-0.1,0.1-0.1,0.1c0,0.3,0.3,0.3,0.2,0.5c-0.1,0.1-0.2,0-0.3,0c-0.1-0.1,0.1-0.2,0.1-0.3l0,0.1c0,0-0.1-0.1,0-0.2
							c-0.1,0.1,0,0.6-0.1,0.8c0,0,0.1,0.1,0.1,0.1l0-0.1c0.1-0.1,0.1,0.1,0.2,0c0.1,0.1,0.2,0.2,0.1,0.4l-0.1,0c0,0,0.1-0.1,0-0.1
							c0.1,0.1-0.2,0.2,0,0.3l0.1-0.1c0.1,0.1,0.2,0.2,0.2,0.4c0.1-0.1,0,0,0.1-0.1c-0.2,0.1,0-0.3-0.2-0.2c0.2-0.1,0.1-0.2,0.2-0.3
							c0,0-0.1,0.1-0.1-0.1c0,0,0,0,0,0l0,0l0,0c0,0,0,0,0,0c0,0,0,0.1-0.1,0.1c-0.1,0-0.1-0.2-0.2-0.3c0-0.1,0.1,0,0.1,0l-0.1-0.1
							c0.1,0,0.2-0.2,0.2,0l0-0.1c0.1-0.1,0.1-0.2,0-0.3c0-0.1-0.1-0.2,0-0.1l-0.1-0.2l0,0c0-0.2-0.2-0.4,0-0.7c0-0.1-0.1-0.1,0-0.3
							l0.1,0c0-0.1,0.1-0.3,0-0.3c0.2-0.1,0-0.5,0.1-0.6l-0.1,0c0-0.1,0-0.2-0.1-0.4l-0.1,0c-0.1-0.1,0.1-0.3,0-0.5c0,0,0,0.1,0,0.1
							c0.2-0.2-0.2-0.5,0-0.7c0-0.1,0-0.1,0-0.1l0,0l0,0c0,0,0-0.1,0.1-0.1c0,0,0,0-0.1,0.1c0,0,0-0.1,0-0.2l0.1,0c0,0,0,0,0,0
							c0-0.1-0.1,0-0.1,0c0,0,0-0.1-0.1-0.1c0.2-0.1-0.1-0.2,0.1-0.2c-0.1,0-0.1-0.3-0.3-0.3c0,0,0,0,0,0c0-0.1,0-0.1,0-0.2l0.1,0
							l-0.2-0.1c0.1-0.1,0.1-0.1,0.2,0c-0.2-0.2-0.1-0.2-0.2-0.3l0.1,0c0-0.1-0.1-0.2-0.1-0.2c0.2-0.1,0-0.7,0.2-1.1
							c-0.3,0.1,0.1-0.2-0.1-0.2c0.1,0,0.1-0.1,0.2,0c0-0.2,0.1-0.2,0-0.4c0.1,0,0.1,0,0.1,0c0,0-0.1-0.1,0-0.1c0,0,0,0,0.1,0.1
							c0-0.2-0.2-0.2-0.3-0.3c0.1-0.1,0.1-0.1,0-0.2c0.1,0,0.1-0.1,0.1,0.1c0-0.1,0.2-0.4,0-0.4c0,0,0-0.1,0-0.1
							c0-0.1,0.1-0.2,0.1-0.3l0,0c-0.2-0.1,0-0.1,0-0.3l0,0c0.2-0.2,0-0.1,0.2-0.4l-0.1,0c-0.2-0.1,0.2-0.2,0.1-0.4l-0.1,0
							c-0.1-0.1,0.4-0.2,0.4-0.2c0,0,0,0,0,0.1c0.2-0.2-0.1-0.1-0.1-0.2c0.1,0,0.2,0.1,0.2,0c0.1,0-0.2-0.4,0-0.5
							c-0.1,0-0.1,0-0.2,0c0-0.1,0.3-0.3,0.1-0.4c0,0,0,0,0,0c0-0.1,0-0.3-0.1-0.4c0.4,0-0.1-0.6,0.3-0.5l0-0.3l0,0
							c0.1-0.2,0-0.3-0.1-0.3c0,0,0.1,0,0.1,0c0.1-0.3,0.1-0.3-0.1-0.5l0.1,0c-0.1-0.1,0.2-0.4,0.1-0.6c0,0,0,0,0,0
							c-0.1-0.3,0.4-0.7,0-0.8l-0.1-0.2c0,0.3-0.2,0-0.2,0.1c0-0.1,0.1-0.2,0.1-0.1l0,0c0.2,0.1,0.1-0.3,0.2-0.3
							c0-0.5,0.1-1,0.1-1.5l-0.2,0.1l0-0.2c0,0,0.1-0.1,0.1,0.1c0.1-0.1-0.1-0.2-0.1-0.2c0.1-0.2,0.2,0.1,0.2,0l0-0.1l0,0
							c-0.1-0.1-0.1-0.1-0.1-0.2c0-0.1,0.1,0,0.1-0.1c0,0,0,0,0-0.1l0-0.2l-0.1,0.1c-0.1-0.1,0-0.2-0.1-0.1c0.2-0.1,0-0.8,0.1-0.9
							c-0.1-0.1-0.1-0.2-0.1-0.4c0,0-0.2,0.1-0.2-0.1c0.3,0,0.1-0.3,0.3-0.4c-0.1,0.1-0.1-0.4-0.3-0.2c0-0.1,0.1,0,0.2-0.1
							c-0.1-0.3,0-0.6-0.1-0.9c0,0-0.1,0.1-0.2,0l0.2-0.2c0-0.1-0.2,0-0.1-0.2c0,0-0.1,0.1-0.1,0c0.1-0.7-0.3-1.3-0.1-2
							c-0.1,0.1-0.1,0-0.1,0c0,0-0.1,0-0.1,0l0.1-0.3c-0.2,0-0.1-0.3-0.2-0.3l0,0.1c-0.2-0.1-0.3,0.2-0.6,0.2
							c0.2,0.1-0.2,0.4,0.1,0.5c0,0.1-0.1,0-0.1,0c0.1,0,0.1,0.1,0.1,0.2l0,0c0.1,0.3,0,0.5,0,0.9l0.1,0c0,0.1,0,0.1-0.1,0.1
							c0.2,0.1,0-0.2,0.2-0.2c-0.2,0.1,0.1,0.6-0.2,0.7c0,0.1,0.1-0.1,0.1,0.1l-0.1,0l0.1,0c0,0.1-0.1,0.1-0.1,0.1c0,0,0-0.1,0-0.1
							c-0.1,0.1,0.1,0.3,0,0.3l0-0.1c0.1,0.3,0.1,0.7,0.2,1.1l0,0c0.1,0.2,0,0.2,0,0.5l0,0c0.1,0.1,0.1,0.1,0.1,0.2
							c-0.1-0.1-0.1,0.1-0.2,0.1c0.1,0.3,0.1,0.1,0.3,0.3l-0.1,0c0.1,0.1,0.1,0.1,0.1,0.2c-0.1-0.1-0.1,0.1-0.2,0
							c-0.2,0.3,0.2,0.4-0.1,0.6c0.2,0.1,0.1-0.3,0.2-0.2c0.1-0.1,0.2,0.1,0.2,0.2c0,0.1-0.3,0.2-0.3,0.4c0,0,0,0,0,0
							c-0.1,0.1,0.1,0.2,0,0.3c0.1,0.1,0,0.1,0.2,0.2l0-0.2c0,0.1,0.3,0.2,0.2,0.4c0,0-0.1-0.1-0.1-0.1c-0.1,0.1,0,0.1,0,0.2
							c-0.2,0,0-0.3-0.2-0.4c-0.1,0.1,0.1,0.2-0.1,0.2c0.2,0.1,0,0.2,0.2,0.4l-0.1,0c0,0,0.1,0.1,0.1,0.1L57.5,52
							c0.1,0.1-0.1,0.2,0,0.4c0-0.3,0.1-0.1,0.2-0.2c0.1,0.3-0.3,0.2-0.2,0.5c0,0,0.1-0.2,0.1-0.1c0,0.1-0.1,0.2-0.1,0.2
							c0,0.2,0.1,0,0.2,0.1c-0.1,0.1,0,0.1,0.1,0.2l-0.1,0c-0.1,0.3,0.2,0.1,0.1,0.3l-0.1-0.1l0,0.1l-0.1,0c0.1,0.1,0.1,0.2,0,0.3
							c0.1,0,0.2,0,0.2,0.1c-0.1,0.1-0.1-0.1-0.1,0.1c-0.1,0-0.1-0.1,0-0.2c0,0-0.1,0-0.1-0.1c-0.1,0.1,0,0.2,0,0.3c0,0,0,0,0-0.1
							l0.1,0.2c0,0-0.1,0-0.1,0c0,0,0.1,0.1,0.1,0.2c-0.1,0-0.2,0-0.2-0.1l0.1,0.2c0,0-0.1,0.1-0.1,0.1c-0.1,0.1,0.1,0.3,0,0.5
							c0,0,0,0,0,0.1c0,0.2-0.2,0.3-0.1,0.5l-0.2,0.1c0,0.1,0.2-0.1,0.2,0.1c0,0.2-0.1,0-0.2,0.1c0.1,0.1,0.2,0.3,0,0.4
							C57.1,56.2,57.2,56.1,57.2,56.1z M56.9,57.9c0,0-0.1-0.1,0-0.1C57,57.8,56.9,57.8,56.9,57.9z M56.5,60.6c0,0,0-0.1,0-0.1
							C56.5,60.6,56.5,60.6,56.5,60.6z M57.5,68.4L57.5,68.4C57.5,68.3,57.5,68.3,57.5,68.4z M57.5,68.5
							C57.5,68.6,57.5,68.6,57.5,68.5C57.5,68.5,57.5,68.5,57.5,68.5C57.4,68.5,57.4,68.5,57.5,68.5z M58.5,51.1L58.5,51.1
							C58.4,51,58.5,51,58.5,51.1z"/>
						<path class="st52" d="M56.4,60.3C56.4,60.3,56.4,60.3,56.4,60.3C56.4,60.3,56.4,60.3,56.4,60.3z"/>
						<polygon class="st52" points="57.3,55 57.3,55 57.2,55 						"/>
						<path class="st52" d="M56.4,66.1C56.4,66,56.4,66,56.4,66.1C56.4,66,56.4,66,56.4,66.1z"/>
						<path class="st52" d="M57.7,69.4l0-0.1C57.7,69.3,57.6,69.4,57.7,69.4C57.7,69.4,57.7,69.4,57.7,69.4z"/>
						<path class="st52" d="M57.1,70.4C57.1,70.4,57.1,70.4,57.1,70.4L57.1,70.4C57.1,70.3,57.1,70.3,57.1,70.4z"/>
						<path class="st52" d="M57.3,69.5c-0.1,0-0.1,0.1,0,0.2l0,0C57.4,69.7,57.4,69.6,57.3,69.5z"/>
						<path class="st52" d="M57.3,69.7C57.3,69.7,57.3,69.7,57.3,69.7C57.4,69.8,57.3,69.7,57.3,69.7z"/>
						<path class="st52" d="M57.5,68.7C57.5,68.8,57.6,68.8,57.5,68.7C57.7,68.8,57.5,68.6,57.5,68.7z"/>
						<polygon class="st52" points="57,69.6 57.2,69.6 57.1,69.5 						"/>
						<path class="st52" d="M57.1,69l0,0.1c0,0,0,0,0,0C57.1,69.1,57.1,69,57.1,69z"/>
						<path class="st52" d="M57.1,69.2C57.1,69.2,57.1,69.2,57.1,69.2C57.1,69.2,57.1,69.2,57.1,69.2z"/>
						<polygon class="st52" points="57,69.4 57,69.4 57,69.3 						"/>
						<path class="st52" d="M57,67.7l0-0.1C57,67.6,56.9,67.6,57,67.7C57,67.7,57,67.8,57,67.7z"/>
						<path class="st52" d="M56.7,68.2C56.8,68.1,56.8,68.1,56.7,68.2L56.7,68.2L56.7,68.2z"/>
						<path class="st52" d="M56.7,67.8c0,0-0.1-0.2-0.1,0C56.6,67.8,56.7,67.9,56.7,67.8z"/>
						<polygon class="st52" points="56.8,65.8 56.8,65.9 57,65.9 						"/>
						<path class="st52" d="M56.1,64.2c0,0.2,0.1,0,0.1,0.2c0.1,0,0.1-0.1,0.1-0.1C56.2,64.2,56.3,64.1,56.1,64.2z"/>
						<path class="st52" d="M56.3,64.2C56.3,64.3,56.3,64.3,56.3,64.2C56.3,64.3,56.3,64.3,56.3,64.2z"/>
						<polygon class="st52" points="58,45 58,44.9 57.9,45 						"/>
						<path class="st52" d="M57.8,44.9l0.1,0L57.8,44.9C57.8,44.8,57.8,44.9,57.8,44.9z"/>
						<path class="st52" d="M56.5,58L56.5,58C56.6,58.1,56.6,58,56.5,58L56.5,58z"/>
						<polygon class="st52" points="56.9,56.8 56.9,56.8 57,56.8 						"/>
						<path class="st52" d="M56.9,55.7c0,0,0,0.1,0,0.1C56.9,55.8,57.1,55.7,56.9,55.7z"/>
					</g>
				</g>
			</g>
		</g>
	</g>
</g>
</svg>
